<svg width="230" height="88" viewBox="0 0 230 88" fill="none" xmlns="http://www.w3.org/2000/svg">
<path d="M115.93 44.4655L113.064 41.6719H101.448V53.3121H115.93V44.4655ZM112.987 50.208H104.314V44.4267H112.871L112.987 50.208Z" fill="#F0F0F1"/>
<path d="M101.487 35.6572V38.5285H113.026L115.891 35.6572H101.487Z" fill="#F0F0F1"/>
<path d="M44.9161 53.0398H42.0508V38.8L44.9161 35.9287V53.0398Z" fill="#F0F0F1"/>
<path d="M128.204 53.0398H125.339V38.8L128.204 35.9287V53.0398Z" fill="#F0F0F1"/>
<path d="M141.679 44.465V53.0788H144.544V41.5938L141.679 44.465Z" fill="#F0F0F1"/>
<path d="M135.948 35.7344V38.6056H147.448L150.314 35.7344H135.948Z" fill="#F0F0F1"/>
<path d="M84.9534 35.7734C83.2533 35.7734 81.5913 36.2786 80.1777 37.2251C78.7641 38.1716 77.6624 39.5169 77.0118 41.0909C76.3611 42.6648 76.1909 44.3967 76.5226 46.0677C76.8543 47.7386 77.673 49.2734 78.8751 50.478C80.0773 51.6827 81.6089 52.5031 83.2764 52.8354C84.9439 53.1678 86.6722 52.9972 88.2429 52.3453C89.8136 51.6933 91.1561 50.5893 92.1007 49.1727C93.0452 47.7562 93.5493 46.0908 93.5493 44.3872C93.5493 42.1027 92.6437 39.9117 91.0316 38.2963C89.4196 36.681 87.2332 35.7734 84.9534 35.7734ZM84.9534 50.1297C83.82 50.1297 82.712 49.7929 81.7696 49.1619C80.8272 48.5309 80.0927 47.6341 79.659 46.5848C79.2252 45.5354 79.1117 44.3808 79.3329 43.2669C79.554 42.1529 80.0998 41.1297 80.9012 40.3266C81.7027 39.5235 82.7238 38.9766 83.8354 38.755C84.947 38.5335 86.0993 38.6472 87.1464 39.0818C88.1935 39.5164 89.0886 40.2525 89.7182 41.1968C90.3479 42.1412 90.684 43.2514 90.684 44.3872C90.6739 45.9071 90.0669 47.3618 88.9944 48.4365C87.9218 49.5113 86.4701 50.1195 84.9534 50.1297Z" fill="#F0F0F1"/>
<path d="M160.11 50.169V44.5041H163.169L165.995 41.6328H157.245V44.2713V50.169V51.4106V53.0402H168.667L171.533 50.169H160.11Z" fill="#F0F0F1"/>
<path d="M171.687 35.7344H157.206V38.6056H168.938L171.687 35.7344Z" fill="#F0F0F1"/>
<path d="M190.661 48.3063C189.991 48.9998 189.16 49.5168 188.243 49.8113C187.326 50.1058 186.35 50.1688 185.403 49.9945C184.456 49.8202 183.566 49.4141 182.813 48.8123C182.06 48.2105 181.467 47.4316 181.087 46.5449C180.707 45.6582 180.551 44.6911 180.634 43.7295C180.716 42.7679 181.035 41.8417 181.56 41.0331C182.086 40.2245 182.803 39.5586 183.648 39.0946C184.492 38.6306 185.438 38.3828 186.401 38.3733C187.197 38.3251 187.992 38.4571 188.73 38.7594C189.467 39.0616 190.127 39.5265 190.661 40.1193L190.893 40.3909L192.829 38.4509C191.659 37.1714 190.13 36.276 188.443 35.8821C186.756 35.4881 184.99 35.6139 183.376 36.2431C181.762 36.8722 180.375 37.9753 179.397 39.4078C178.419 40.8403 177.896 42.5354 177.896 44.271C177.896 46.0066 178.419 47.7017 179.397 49.1342C180.375 50.5667 181.762 51.6698 183.376 52.2989C184.99 52.928 186.756 53.0538 188.443 52.6599C190.13 52.2659 191.659 51.3705 192.829 50.0911L190.932 48.1898L190.661 48.3063Z" fill="#F0F0F1"/>
<path d="M65.5932 35.7344V44.3481L65.0124 43.7273L63.3087 42.0201L59.8626 38.7996L58.4686 37.4028L57.0747 36.006H53.9771V53.3499H56.8424V40.0413C59.2818 42.4081 63.8895 46.8702 65.3222 48.3834V53.0007H68.2262V35.7344H65.5932Z" fill="#F0F0F1"/>
</svg>
