<svg width="30" height="30" viewBox="0 0 30 30" fill="none" xmlns="http://www.w3.org/2000/svg">
<path d="M3.74998 0H19.6809L28.1249 8.41128V28.125C28.1249 29.1609 27.285 30 26.25 30H3.74998C2.71495 30 1.875 29.1609 1.875 28.125V1.87498C1.875 0.839081 2.71505 0 3.74998 0Z" fill="#BCBCBC"/>
<path d="M28.0978 8.4373H21.5625C20.5275 8.4373 19.6875 7.59735 19.6875 6.56232V0.0185547L28.0978 8.4373Z" fill="#828282"/>
<path d="M12.763 13.144H12.021C11.811 13.144 11.762 13.284 11.741 13.368L11.048 15.748L10.369 13.368C10.341 13.27 10.292 13.144 10.138 13.144H9.648C9.487 13.144 9.438 13.27 9.41 13.368L8.738 15.748L8.045 13.368C8.017 13.284 7.975 13.144 7.765 13.144H6.995C6.869 13.144 6.848 13.263 6.869 13.347L8.164 17.603C8.164 17.603 8.199 17.75 8.353 17.75H8.969C9.151 17.75 9.193 17.589 9.193 17.589L9.893 15.356L10.593 17.589C10.593 17.589 10.635 17.75 10.817 17.75H11.405C11.559 17.75 11.594 17.603 11.594 17.603L12.882 13.347C12.91 13.263 12.889 13.144 12.763 13.144ZM16.8961 16.77H14.6631V15.846H16.5391C16.7001 15.846 16.7421 15.769 16.7421 15.643V15.097C16.7421 14.971 16.7001 14.894 16.5391 14.894H14.6631V14.131H16.7771C16.9381 14.131 16.9801 14.054 16.9801 13.928V13.347C16.9801 13.221 16.9381 13.144 16.7771 13.144H13.7601C13.5991 13.144 13.5571 13.221 13.5571 13.347V17.547C13.5571 17.673 13.5991 17.75 13.7601 17.75H16.8961C17.0571 17.75 17.0991 17.673 17.0991 17.547V16.973C17.0991 16.847 17.0571 16.77 16.8961 16.77ZM21.2287 15.363C21.2917 15.335 21.7397 15.111 21.7397 14.404C21.7397 13.746 21.2497 13.137 20.1087 13.137H18.1487C17.9877 13.137 17.9457 13.214 17.9457 13.34V17.547C17.9457 17.673 17.9877 17.75 18.1487 17.75H20.2067C21.1797 17.75 21.8727 17.295 21.8727 16.406C21.8727 15.65 21.2847 15.384 21.2287 15.363ZM20.2207 16.756H19.0447V14.124H20.1087C20.4727 14.124 20.6897 14.201 20.6897 14.516C20.6897 14.789 20.5147 14.936 20.1087 14.936H20.0177C19.8567 14.936 19.8147 15.013 19.8147 15.139V15.671C19.8147 15.797 19.8567 15.874 20.0177 15.874H20.1787C20.5147 15.874 20.7597 15.972 20.7597 16.301C20.7597 16.616 20.5637 16.756 20.2207 16.756Z" fill="white"/>
</svg>
