<svg width="28" height="30" viewBox="0 0 28 30" fill="none" xmlns="http://www.w3.org/2000/svg">
<path d="M2.74998 0H18.6809L27.1249 8.41128V28.125C27.1249 29.1609 26.285 30 25.25 30H2.74998C1.71495 30 0.875 29.1609 0.875 28.125V1.87498C0.875 0.839081 1.71505 0 2.74998 0Z" fill="#E2574C"/>
<path d="M27.0978 8.4373H20.5625C19.5275 8.4373 18.6875 7.59735 18.6875 6.56232V0.0185547L27.0978 8.4373Z" fill="#B53629"/>
<path d="M20.0918 14.2158C20.4059 14.2158 20.5596 13.942 20.5596 13.6767C20.5596 13.402 20.3993 13.1367 20.0918 13.1367H18.303C17.9533 13.1367 17.7583 13.4264 17.7583 13.7461V18.142C17.7583 18.5339 17.9815 18.7514 18.2833 18.7514C18.5834 18.7514 18.8074 18.5339 18.8074 18.142V16.9355H19.8893C20.225 16.9355 20.3928 16.6608 20.3928 16.388C20.3928 16.1208 20.225 15.8554 19.8893 15.8554H18.8074V14.2158H20.0918ZM14.0458 13.1367H12.7371C12.3817 13.1367 12.1295 13.3805 12.1295 13.7423V18.1458C12.1295 18.5948 12.4923 18.7355 12.752 18.7355H14.1255C15.7511 18.7355 16.8245 17.6658 16.8245 16.0148C16.8236 14.2692 15.813 13.1367 14.0458 13.1367ZM14.1087 17.6499H13.3108V14.2224H14.0299C15.1184 14.2224 15.5918 14.9527 15.5918 15.9605C15.5918 16.9037 15.1267 17.6499 14.1087 17.6499ZM9.31429 13.1367H8.01774C7.65116 13.1367 7.44678 13.3785 7.44678 13.7461V18.142C7.44678 18.5339 7.68114 18.7514 7.99611 18.7514C8.31108 18.7514 8.54544 18.5339 8.54544 18.142V16.8586H9.35823C10.3613 16.8586 11.1892 16.1479 11.1892 15.0051C11.1893 13.8868 10.3905 13.1367 9.31429 13.1367ZM9.29275 15.8274H8.54554V14.1689H9.29275C9.75401 14.1689 10.0474 14.5289 10.0474 14.9986C10.0465 15.4674 9.75401 15.8274 9.29275 15.8274Z" fill="white"/>
</svg>
