<svg width="109" height="109" viewBox="0 0 109 109" fill="none" xmlns="http://www.w3.org/2000/svg">
<path d="M35.9621 79.7132C38.9422 80.0691 42.2905 81.9996 45.0927 82.3405C47.9098 82.6962 48.7816 80.422 48.7816 80.422C48.7816 80.422 51.9518 79.7132 55.2848 79.6316C58.6209 79.5382 61.7789 80.3255 61.7789 80.3255C61.7789 80.3255 62.3913 81.728 63.5345 82.3405C64.6777 82.9647 67.139 83.0492 68.7165 81.3872C70.297 79.7132 74.5139 77.6046 76.8817 76.2865C79.2646 74.9654 78.8273 72.9506 77.3313 72.3381C75.8352 71.7259 74.6106 70.7607 74.704 68.9086C74.7855 67.0717 73.3829 65.847 73.3829 65.847C73.3829 65.847 74.6106 61.8052 73.4674 58.4571C72.3242 55.1242 68.5538 49.7641 65.6552 45.7343C62.7565 41.6924 65.2176 37.0262 62.5786 31.0628C59.9392 25.0905 53.0952 25.4435 49.4062 27.9891C45.7173 30.5349 46.8483 36.8481 47.0262 39.8434C47.2042 42.8234 47.1076 44.9559 46.7668 45.7222C46.426 46.5004 44.0461 49.3267 42.4656 51.6946C40.8881 54.0744 39.7448 58.988 38.5895 61.0151C37.4584 63.03 38.2487 64.8669 38.2487 64.8669C38.2487 64.8669 37.4585 65.1383 36.8341 66.4596C36.2217 67.7657 34.9971 68.39 32.7921 68.8155C30.6022 69.2648 30.6022 70.6765 31.1301 72.2571C31.6609 73.8345 31.1301 74.7184 30.5177 76.7333C29.9055 78.748 32.9701 79.3602 35.9621 79.7132ZM66.9399 70.5223C68.5053 71.207 70.7555 70.2537 71.4402 69.569C72.122 68.8874 72.6046 67.8739 72.6046 67.8739C72.6046 67.8739 73.2893 68.2147 73.2198 69.2975C73.1474 70.3954 73.6904 71.9609 74.7159 72.5039C75.7414 73.0438 77.3069 73.7978 76.4955 74.5519C75.6689 75.306 71.0963 77.1459 69.73 78.5817C68.3757 80.0083 66.596 81.1757 65.5131 80.8319C64.4183 80.491 63.462 78.995 63.9327 76.8051C64.4183 74.6244 64.8286 72.2323 64.7591 70.866C64.6868 69.4996 64.4183 67.6597 64.7591 67.3881C65.1 67.1196 65.643 67.2493 65.643 67.2493C65.643 67.2493 65.3712 69.8408 66.9399 70.5223ZM56.781 33.6086C58.289 33.6086 59.5047 35.1047 59.5047 36.9446C59.5047 38.2506 58.8923 39.3818 57.9965 39.9248C57.7703 39.8314 57.5349 39.7257 57.2755 39.617C57.8185 39.3486 58.1954 38.6639 58.1954 37.8736C58.1954 36.8391 57.5591 35.9885 56.7596 35.9885C55.9815 35.9885 55.3328 36.8389 55.3328 37.8736C55.3328 38.2508 55.4265 38.6277 55.5802 38.9233C55.1097 38.7332 54.6844 38.5705 54.3435 38.4408C54.1656 37.9913 54.0599 37.4845 54.0599 36.9447C54.0601 35.1048 55.2726 33.6086 56.781 33.6086ZM53.0466 39.3578C53.7887 39.4875 55.8276 40.3713 56.5819 40.6427C57.336 40.9021 58.1714 41.3846 58.0899 41.8673C57.9965 42.3649 57.6074 42.3649 56.5819 42.9894C55.5684 43.6018 53.3544 44.9681 52.6455 45.0616C51.9396 45.155 51.5385 44.7568 50.7843 44.2712C50.0301 43.7765 48.6157 42.6213 48.9714 42.009C48.9714 42.009 50.0784 41.1615 50.5611 40.7272C51.0438 40.2777 52.2925 39.2189 53.0466 39.3578ZM49.795 34.1396C50.9834 34.1396 51.9517 35.5542 51.9517 37.2976C51.9517 37.6144 51.9154 37.9098 51.8582 38.2054C51.5626 38.2989 51.2671 38.4528 50.9834 38.7002C50.8447 38.8178 50.7148 38.9233 50.5973 39.041C50.7843 38.6882 50.8567 38.1814 50.7722 37.6504C50.6094 36.7094 49.9729 36.0127 49.3485 36.1061C48.721 36.2118 48.347 37.0744 48.4979 38.0277C48.6638 38.9929 49.288 39.6895 49.9245 39.584C49.9607 39.572 49.9939 39.5599 50.0301 39.5477C49.7255 39.8434 49.4419 40.1028 49.1463 40.3139C48.2867 39.9126 47.6503 38.7122 47.6503 37.2976C47.6505 35.5422 48.6035 34.1396 49.795 34.1396ZM43.1742 56.961C44.3988 55.0307 45.189 50.8108 46.4136 49.4082C47.6505 48.0086 48.6035 45.0255 48.1692 43.7074C48.1692 43.7074 50.8085 46.8654 52.6455 46.3467C54.4854 45.8157 58.6209 42.7422 59.2331 43.2701C59.8455 43.8009 65.112 55.3835 65.6428 59.0725C66.1737 62.7585 65.2899 65.5758 65.2899 65.5758C65.2899 65.5758 63.2751 65.0449 63.0155 66.2695C62.7562 67.5061 62.7562 71.9855 62.7562 71.9855C62.7562 71.9855 60.0324 75.7559 55.8155 76.3801C51.5986 76.9926 49.4871 76.5461 49.4871 76.5461L47.1193 73.8344C47.1193 73.8344 48.9594 73.563 48.6998 71.7139C48.4405 69.877 43.0773 67.3311 42.1121 65.0447C41.1472 62.7583 41.9345 58.8944 43.1742 56.961ZM32.7467 70.7938C32.9579 69.889 35.6906 69.8891 36.7403 69.2526C37.79 68.6162 38.001 66.7883 38.8487 66.3057C39.6841 65.811 41.2286 67.5666 41.865 68.5557C42.4895 69.521 44.8815 73.7409 45.8588 74.7905C46.8481 75.8492 47.7561 77.2518 47.4725 78.5126C47.2042 79.7733 45.7171 80.6934 45.7171 80.6934C44.387 81.1036 40.6768 79.5019 38.9908 78.7961C37.3048 78.0873 33.0154 77.876 32.4635 77.2518C31.8965 76.6153 32.7349 75.2127 32.958 73.8824C33.157 72.5373 32.5327 71.7017 32.7467 70.7938Z" fill="black"/>
<circle cx="54.5" cy="54.5" r="53.5" stroke="black" stroke-width="2"/>
</svg>
