<svg width="109" height="109" viewBox="0 0 109 109" fill="none" xmlns="http://www.w3.org/2000/svg">
<circle cx="54.5" cy="54.5" r="53.5" stroke="black" stroke-width="2"/>
<path d="M76.688 74.222C81.232 69.101 84 62.369 84 55C84 47.333 81.004 40.357 76.128 35.166V35.165C76.124 35.159 76.118 35.157 76.115 35.152C71.036 29.753 63.92 26.297 56.005 26.026L56.004 26.025L55.439 26.01C55.293 26.005 55.147 26 55 26C54.853 26 54.707 26.005 54.561 26.01L53.998 26.025L53.997 26.026C46.082 26.297 38.966 29.753 33.887 35.152C33.883 35.157 33.877 35.159 33.874 35.165C33.874 35.165 33.874 35.166 33.873 35.167C28.996 40.357 26 47.333 26 55C26 62.369 28.768 69.101 33.312 74.222C33.318 74.231 33.318 74.241 33.325 74.25C33.343 74.275 33.369 74.287 33.388 74.31C38.494 80.018 45.82 83.695 53.996 83.975L53.997 83.976L54.56 83.991C54.707 83.995 54.853 84 55 84C55.147 84 55.293 83.995 55.439 83.99L56.002 83.975L56.003 83.974C64.188 83.693 71.522 80.009 76.628 74.289C76.641 74.272 76.662 74.267 76.674 74.249C76.682 74.241 76.682 74.231 76.688 74.222ZM28.025 56H40.028C40.141 60.239 40.969 64.358 42.443 68.217C39.599 69.246 36.88 70.626 34.332 72.348C30.585 67.891 28.253 62.21 28.025 56ZM34.878 37.023C37.366 38.641 40.015 39.937 42.778 40.905C41.086 45.012 40.15 49.44 40.028 54H28.025C28.264 47.493 30.812 41.568 34.878 37.023ZM81.975 54H69.972C69.85 49.44 68.914 45.012 67.222 40.905C69.985 39.937 72.634 38.641 75.122 37.023C79.188 41.568 81.736 47.493 81.975 54ZM54 40.963C51.109 40.881 48.271 40.45 45.529 39.68C47.556 35.522 50.418 31.769 54 28.644V40.963ZM54 42.963V54H42.028C42.151 49.652 43.063 45.435 44.694 41.525C47.7 42.396 50.821 42.878 54 42.963ZM56 42.963C59.179 42.878 62.3 42.397 65.307 41.525C66.938 45.435 67.85 49.652 67.973 54H56V42.963ZM56 40.963V28.644C59.582 31.769 62.444 35.522 64.471 39.68C61.729 40.45 58.891 40.881 56 40.963ZM66.409 39.072C64.488 35.047 61.822 31.38 58.521 28.237C64.377 29.003 69.646 31.651 73.704 35.555C71.4 37.017 68.956 38.193 66.409 39.072ZM43.591 39.072C41.044 38.193 38.6 37.017 36.297 35.555C40.354 31.651 45.624 29.003 51.48 28.237C48.178 31.38 45.512 35.047 43.591 39.072ZM42.028 56H54V66.038C50.693 66.126 47.453 66.642 44.339 67.579C42.932 63.924 42.141 60.019 42.028 56ZM54 68.038V81.356C50.166 78.011 47.16 73.947 45.116 69.439C47.983 68.594 50.961 68.124 54 68.038ZM56 81.356V68.038C59.039 68.123 62.017 68.594 64.884 69.438C62.84 73.947 59.834 78.011 56 81.356ZM56 66.038V56H67.972C67.859 60.019 67.068 63.924 65.66 67.58C62.547 66.642 59.307 66.126 56 66.038ZM69.972 56H81.975C81.747 62.21 79.416 67.891 75.668 72.348C73.12 70.626 70.401 69.246 67.557 68.217C69.032 64.358 69.859 60.239 69.972 56ZM35.691 73.846C38.057 72.274 40.576 71.01 43.208 70.065C45.153 74.425 47.945 78.398 51.479 81.763C45.328 80.958 39.823 78.078 35.691 73.846ZM58.521 81.763C62.055 78.399 64.847 74.426 66.792 70.065C69.424 71.01 71.942 72.274 74.309 73.846C70.177 78.078 64.672 80.958 58.521 81.763Z" fill="black"/>
</svg>
