<svg width="458" height="95" viewBox="0 0 458 95" fill="none" xmlns="http://www.w3.org/2000/svg">
<path d="M47.2165 31.667V63.3337L37.7732 69.667V41.167L47.2165 31.667Z" fill="url(#paint0_linear)"/>
<path d="M66.1031 60.167L75.5464 69.667H37.7732L47.2165 60.167H66.1031Z" fill="url(#paint1_linear)"/>
<path d="M47.2166 19L75.5464 47.5V69.6667L66.1031 63.3333V50.6667L47.2166 31.6667V19Z" fill="url(#paint2_linear)"/>
<path d="M98.9973 57H94.433V69.6667H98.9973C102.46 69.6667 105.293 66.8167 105.293 63.3333C105.293 59.85 102.46 57 98.9973 57ZM98.9973 68.0833H96.0069V58.5833H98.9973C101.673 58.5833 103.719 60.6417 103.719 63.3333C103.719 66.025 101.515 68.0833 98.9973 68.0833Z" fill="#26272A"/>
<path d="M111.746 57H110.172V69.6667H111.746V57Z" fill="#26272A"/>
<path d="M125.911 68.0833C123.235 68.0833 121.189 66.025 121.189 63.3333C121.189 60.6417 123.235 58.5833 125.911 58.5833C127.17 58.5833 128.429 59.0583 129.216 60.0083L130.318 58.9C129.216 57.6333 127.642 57 125.911 57C122.448 57 119.615 59.85 119.615 63.3333C119.615 66.8167 122.448 69.6667 125.911 69.6667C127.642 69.6667 129.216 69.0333 130.318 67.7667L129.216 66.6583C128.429 67.6083 127.17 68.0833 125.911 68.0833Z" fill="#26272A"/>
<path d="M141.65 58.5833C144.325 58.5833 146.371 60.6417 146.371 63.3333C146.371 66.025 144.325 68.0833 141.65 68.0833C138.974 68.0833 136.928 66.025 136.928 63.3333C136.928 60.6417 138.974 58.5833 141.65 58.5833ZM141.65 57C138.187 57 135.354 59.85 135.354 63.3333C135.354 66.8167 138.187 69.6667 141.65 69.6667C145.112 69.6667 147.945 66.8167 147.945 63.3333C147.945 59.85 145.112 57 141.65 57Z" fill="#26272A"/>
<path d="M164.471 57L160.536 66.5L156.601 57H154.241V69.6667H155.814V59.2167L160.064 69.6667H161.008L165.258 59.2167V69.6667H166.832V57H164.471Z" fill="#26272A"/>
<path d="M177.849 63.333H173.127V64.9163H177.849V63.333Z" fill="#26272A"/>
<path d="M185.718 69.6667V58.5833H193.588V69.6667H195.161V57H184.144V69.6667H185.718Z" fill="#26272A"/>
<path d="M206.966 57H201.457V69.6667H203.031V64.9167H206.966C209.169 64.9167 210.9 63.175 210.9 60.9583C210.9 58.7417 209.169 57 206.966 57ZM206.966 63.3333H203.031V58.5833H206.966C208.225 58.5833 209.326 59.6917 209.326 60.9583C209.326 62.225 208.225 63.3333 206.966 63.3333Z" fill="#26272A"/>
<path d="M221.917 58.5833C224.593 58.5833 226.639 60.6417 226.639 63.3333C226.639 66.025 224.593 68.0833 221.917 68.0833C219.242 68.0833 217.196 66.025 217.196 63.3333C217.196 60.6417 219.242 58.5833 221.917 58.5833ZM221.917 57C218.455 57 215.622 59.85 215.622 63.3333C215.622 66.8167 218.455 69.6667 221.917 69.6667C225.38 69.6667 228.213 66.8167 228.213 63.3333C228.213 59.85 225.38 57 221.917 57Z" fill="#26272A"/>
<path d="M239.545 68.0833C236.869 68.0833 234.823 66.025 234.823 63.3333C234.823 60.6417 236.869 58.5833 239.545 58.5833C240.804 58.5833 242.063 59.0583 242.85 60.0083L243.952 58.9C242.85 57.7917 241.276 57 239.545 57C236.082 57 233.25 59.85 233.25 63.3333C233.25 66.8167 236.082 69.6667 239.545 69.6667C241.276 69.6667 242.85 69.0333 243.952 67.7667L242.85 66.6583C241.906 67.6083 240.804 68.0833 239.545 68.0833Z" fill="#26272A"/>
<path d="M260.478 57L256.543 66.5L252.608 57H250.247V69.6667H251.821V59.2167L256.071 69.6667H257.015L261.265 59.2167V69.6667H262.839V57H260.478Z" fill="#26272A"/>
<path d="M275.43 58.5833C278.105 58.5833 280.151 60.6417 280.151 63.3333C280.151 66.025 278.105 68.0833 275.43 68.0833C272.754 68.0833 270.708 66.025 270.708 63.3333C270.708 60.6417 272.754 58.5833 275.43 58.5833ZM275.43 57C271.967 57 269.134 59.85 269.134 63.3333C269.134 66.8167 271.967 69.6667 275.43 69.6667C278.892 69.6667 281.725 66.8167 281.725 63.3333C281.725 59.85 278.892 57 275.43 57Z" fill="#26272A"/>
<path d="M286.447 57V58.5833H291.168V69.6667H292.742V58.5833H297.464V57H286.447Z" fill="#26272A"/>
<path d="M307.694 57H302.185V69.6667H303.759V64.9167H307.694C309.898 64.9167 311.629 63.175 311.629 60.9583C311.629 58.7417 309.898 57 307.694 57ZM307.694 63.3333H303.759V58.5833H307.694C308.953 58.5833 310.055 59.6917 310.055 60.9583C310.055 62.225 308.953 63.3333 307.694 63.3333Z" fill="#26272A"/>
<path d="M332.089 68.0833V57H330.515V68.0833H325.794V57H324.22V68.0833H319.498V57H317.924V69.6667H332.089V71.25H333.663V68.0833H332.089Z" fill="#26272A"/>
<path d="M347.828 57L341.533 66.5V57H339.959V69.6667H341.533L347.828 60.1667V69.6667H349.402V57H347.828Z" fill="#26272A"/>
<path d="M366.715 57H364.669L358.845 63.9667V57H357.271V69.6667H358.845V66.5L360.419 64.6L364.669 69.6667H366.715L361.364 63.3333L366.715 57Z" fill="#26272A"/>
<path d="M101.122 38L95.6134 45.5002V38H94.433V47.5H95.6134L101.122 39.9998V47.5H102.302V38H101.122Z" fill="#9A9A9D"/>
<path d="M113.713 38V41.9583H108.204V38H107.024V47.5H108.204V43.1458H113.713V47.5H114.893V38H113.713Z" fill="#9A9A9D"/>
<path d="M124.337 39.1875C126.29 39.1875 127.878 40.7851 127.878 42.75C127.878 44.7149 126.29 46.3125 124.337 46.3125C122.384 46.3125 120.796 44.7149 120.796 42.75C120.796 40.7851 122.384 39.1875 124.337 39.1875ZM124.337 38C121.729 38 119.615 40.1264 119.615 42.75C119.615 45.3736 121.729 47.5 124.337 47.5C126.945 47.5 129.058 45.3736 129.058 42.75C129.058 40.1264 126.945 38 124.337 38Z" fill="#9A9A9D"/>
<path d="M137.715 41.9583H134.96V39.1875H140.076V38H133.78V47.5H137.715C139.235 47.5 140.469 46.2587 140.469 44.7292C140.469 43.1997 139.235 41.9583 137.715 41.9583ZM137.715 46.3125H134.96V43.1458H137.715C138.582 43.1458 139.289 43.8568 139.289 44.7292C139.289 45.6016 138.582 46.3125 137.715 46.3125Z" fill="#9A9A9D"/>
<path d="M151.486 38L145.978 45.5002V38H144.797V47.5H145.978L151.486 39.9998V47.5H152.667V38H151.486Z" fill="#9A9A9D"/>
<path d="M157.388 38V39.1875H160.536V47.5H161.716V39.1875H164.864V38H157.388Z" fill="#9A9A9D"/>
<path d="M176.275 39.1875V38H169.979V47.5H176.275V46.3125H171.16V43.1458H176.275V41.9583H171.16V39.1875H176.275Z" fill="#9A9A9D"/>
<path d="M187.686 38H186.148L182.177 42.7595V38H180.997V47.5H182.177V44.6073L182.956 43.6731L186.148 47.5H187.686L183.726 42.75L187.686 38Z" fill="#9A9A9D"/>
<path d="M413.931 58.5833C416.607 58.5833 418.653 60.6417 418.653 63.3333C418.653 66.025 416.607 68.0833 413.931 68.0833C411.256 68.0833 409.21 66.025 409.21 63.3333C409.21 60.6417 411.256 58.5833 413.931 58.5833ZM413.931 57C410.469 57 407.636 59.85 407.636 63.3333C407.636 66.8167 410.469 69.6667 413.931 69.6667C417.394 69.6667 420.227 66.8167 420.227 63.3333C420.227 59.85 417.394 57 413.931 57Z" fill="#963CBD"/>
<path d="M384.814 57H379.306V69.6667H380.88V64.9167H384.814C387.018 64.9167 388.749 63.175 388.749 60.9583C388.749 58.7417 387.018 57 384.814 57ZM384.814 63.3333H380.88V58.5833H384.814C386.074 58.5833 387.175 59.6917 387.175 60.9583C387.175 62.225 386.074 63.3333 384.814 63.3333Z" fill="#963CBD"/>
<path d="M402.914 60.9583C402.914 58.7417 401.183 57 398.979 57H393.471V69.6667H395.045V64.9167H398.035L401.025 69.6667H402.914L399.766 64.7583C401.498 64.4417 402.914 62.8583 402.914 60.9583ZM395.045 58.5833H398.979C400.239 58.5833 401.34 59.6917 401.34 60.9583C401.34 62.225 400.239 63.3333 398.979 63.3333H395.045V58.5833Z" fill="#963CBD"/>
<defs>
<linearGradient id="paint0_linear" x1="42.4948" y1="69.667" x2="42.4948" y2="31.667" gradientUnits="userSpaceOnUse">
<stop offset="0.25" stop-color="#55A5DC"/>
<stop offset="1" stop-color="#3FC9E6"/>
</linearGradient>
<linearGradient id="paint1_linear" x1="37.7732" y1="64.917" x2="75.5464" y2="64.917" gradientUnits="userSpaceOnUse">
<stop offset="0.25" stop-color="#55A5DC"/>
<stop offset="0.75" stop-color="#6A84D2"/>
</linearGradient>
<linearGradient id="paint2_linear" x1="61.3815" y1="69.6667" x2="61.3815" y2="19" gradientUnits="userSpaceOnUse">
<stop offset="0.1875" stop-color="#6A84D2"/>
<stop offset="1" stop-color="#963CBD"/>
</linearGradient>
</defs>
</svg>
