<svg width="30" height="28" viewBox="0 0 30 28" fill="none" xmlns="http://www.w3.org/2000/svg">
<path d="M1.10983 2.60541H4.29133L8.82316 18.9939C8.95262 19.4749 9.39656 19.8078 9.89598 19.8078H23.8244C24.2683 19.8078 24.6567 19.5488 24.8417 19.1419L29.9099 7.48867C30.0579 7.13724 30.0209 6.7488 29.8174 6.43433C29.6139 6.11985 29.2625 5.9349 28.8925 5.9349H13.5029C12.8925 5.9349 12.3931 6.43433 12.3931 7.04473C12.3931 7.65514 12.8925 8.15457 13.5029 8.15457H27.1909L23.0845 17.5881H10.7284L6.19658 1.19964C6.06713 0.718692 5.62319 0.385742 5.12377 0.385742H1.10983C0.499424 0.385742 0 0.885166 0 1.49557C0 2.10598 0.499424 2.60541 1.10983 2.60541Z" fill="white"/>
<path d="M8.84153 27.6132C10.2288 27.6132 11.3571 26.4849 11.3571 25.0976C11.3571 23.7103 10.2288 22.582 8.84153 22.582C7.45424 22.582 6.32593 23.7103 6.32593 25.0976C6.32593 26.4849 7.45424 27.6132 8.84153 27.6132Z" fill="white"/>
<path d="M24.5644 27.6141C24.6199 27.6141 24.6938 27.6141 24.7493 27.6141C25.4152 27.5586 26.0256 27.2626 26.4696 26.7447C26.9135 26.2452 27.117 25.5978 27.08 24.9135C26.9875 23.5446 25.7852 22.4903 24.3979 22.5828C23.0106 22.6753 21.9748 23.8961 22.0673 25.2649C22.1597 26.5782 23.2511 27.6141 24.5644 27.6141Z" fill="white"/>
</svg>
