<svg width="45" height="45" viewBox="0 0 45 45" fill="none" xmlns="http://www.w3.org/2000/svg">
<path d="M45 22.5C45 10.0939 34.9061 0 22.5 0C10.0939 0 0 10.0939 0 22.5C0 29.0528 2.81782 34.9593 7.30309 39.0747L7.28182 39.0935L8.01164 39.7088C8.05909 39.7489 8.11064 39.7816 8.15809 39.8209C8.54591 40.1425 8.94764 40.4476 9.35673 40.743C9.48927 40.8387 9.62182 40.9345 9.75682 41.0277C10.1937 41.3288 10.6421 41.6144 11.1003 41.8852C11.2001 41.9441 11.3007 42.0014 11.4014 42.0586C11.9029 42.3442 12.4151 42.6134 12.9395 42.8605C12.978 42.8785 13.0173 42.8948 13.0557 42.9128C14.7649 43.7073 16.5895 44.2906 18.4975 44.6351C18.5474 44.6441 18.5973 44.6531 18.648 44.6621C19.2404 44.7644 19.8393 44.8462 20.4455 44.901C20.5192 44.9075 20.5928 44.9116 20.6673 44.9182C21.2711 44.9681 21.8815 45 22.5 45C23.1128 45 23.7175 44.9681 24.318 44.9198C24.3941 44.9133 24.4702 44.9092 24.5463 44.9026C25.1476 44.8478 25.7416 44.7685 26.3283 44.6678C26.379 44.6588 26.4305 44.6498 26.4813 44.64C28.3606 44.3029 30.159 43.7326 31.8461 42.9586C31.9083 42.93 31.9713 42.903 32.0335 42.8735C32.5383 42.6363 33.0316 42.3802 33.5152 42.1077C33.6355 42.0398 33.7549 41.9711 33.8744 41.9007C34.3145 41.6414 34.7474 41.3705 35.1679 41.0825C35.3193 40.9795 35.4674 40.8706 35.6171 40.7626C35.9763 40.5041 36.3289 40.2374 36.6717 39.9584C36.7478 39.897 36.8296 39.8438 36.9041 39.7808L37.6527 39.1557L37.6306 39.1369C42.1552 35.0198 45 29.0864 45 22.5ZM1.63636 22.5C1.63636 10.9955 10.9955 1.63636 22.5 1.63636C34.0045 1.63636 43.3636 10.9955 43.3636 22.5C43.3636 28.6994 40.6432 34.2728 36.3363 38.097C36.0957 37.9309 35.8535 37.782 35.6056 37.6576L28.6781 34.1943C28.0563 33.8834 27.6701 33.2583 27.6701 32.5636V30.1443C27.8305 29.9463 27.9998 29.7221 28.1749 29.4758C29.0716 28.2093 29.7908 26.8004 30.3153 25.2843C31.3519 24.7917 32.0212 23.7592 32.0212 22.5933V19.6928C32.0212 18.9835 31.761 18.2954 31.2955 17.7545V13.9361C31.338 13.5115 31.4885 11.115 29.7548 9.13827C28.2469 7.41682 25.8063 6.54545 22.5 6.54545C19.1937 6.54545 16.7531 7.41682 15.2452 9.13745C13.5115 11.1142 13.662 13.5106 13.7045 13.9353V17.7537C13.2398 18.2945 12.9788 18.9826 12.9788 19.692V22.5925C12.9788 23.4933 13.383 24.3335 14.0752 24.9005C14.7379 27.4966 16.1018 29.4619 16.6058 30.1279V32.4957C16.6058 33.1634 16.2417 33.777 15.6551 34.0977L9.18573 37.6265C8.97955 37.7386 8.775 37.8695 8.57045 38.016C4.31673 34.1935 1.63636 28.6544 1.63636 22.5ZM34.7392 39.3807C34.4528 39.5885 34.1615 39.7898 33.8662 39.9821C33.7304 40.0705 33.5954 40.1588 33.4571 40.2447C33.0709 40.4836 32.6782 40.7111 32.2773 40.9238C32.1889 40.9705 32.0997 41.0146 32.0105 41.0605C31.0893 41.5325 30.1361 41.9384 29.1567 42.2681C29.1224 42.2795 29.088 42.2918 29.0528 42.3033C28.5398 42.4735 28.0203 42.6248 27.495 42.7549C27.4934 42.7549 27.4917 42.7557 27.4901 42.7557C26.9599 42.8866 26.4232 42.9955 25.8832 43.0846C25.8685 43.0871 25.8537 43.0904 25.839 43.0928C25.3309 43.1755 24.8187 43.2352 24.3049 43.2802C24.2141 43.2884 24.1233 43.2941 24.0316 43.3006C23.5235 43.3391 23.013 43.3636 22.5 43.3636C21.9813 43.3636 21.4642 43.3383 20.9495 43.2998C20.8604 43.2933 20.7712 43.2875 20.6828 43.2794C20.1641 43.2335 19.6478 43.1722 19.1365 43.0887C19.1135 43.0846 19.0906 43.0805 19.0677 43.0765C17.9861 42.8956 16.9216 42.6297 15.885 42.282C15.8531 42.2714 15.8204 42.2599 15.7885 42.2493C15.2738 42.0742 14.7649 41.8803 14.265 41.6659C14.2617 41.6643 14.2576 41.6626 14.2544 41.661C13.7815 41.4573 13.3175 41.2315 12.8594 40.9934C12.7996 40.9623 12.7391 40.9328 12.6802 40.9009C12.2621 40.6775 11.853 40.4362 11.4496 40.1842C11.3302 40.1089 11.2115 40.0328 11.0937 39.9559C10.7223 39.7129 10.3557 39.4601 9.999 39.1925C9.96218 39.1647 9.927 39.1353 9.89018 39.1075C9.91636 39.0927 9.94254 39.078 9.96873 39.0633L16.4381 35.5345C17.5508 34.9274 18.2422 33.7631 18.2422 32.4957L18.2414 29.5486L18.0532 29.3212C18.0352 29.3007 16.2663 27.1489 15.5978 24.2354L15.5234 23.9114L15.2444 23.7305C14.8508 23.4761 14.6152 23.0506 14.6152 22.5916V19.6912C14.6152 19.3107 14.7764 18.9565 15.0709 18.6905L15.3409 18.4467V13.8895L15.3335 13.7823C15.3311 13.7626 15.0897 11.7949 16.4757 10.215C17.6588 8.86664 19.6863 8.18182 22.5 8.18182C25.3031 8.18182 27.324 8.86091 28.5104 10.1995C29.8947 11.763 29.6681 13.7675 29.6665 13.7839L29.6591 18.4484L29.9291 18.6922C30.2228 18.9573 30.3848 19.3124 30.3848 19.6928V22.5933C30.3848 23.1766 29.988 23.706 29.4185 23.8819L29.0119 24.0071L28.881 24.4121C28.3983 25.9118 27.711 27.297 26.8388 28.5292C26.6245 28.8319 26.4158 29.1003 26.2366 29.3056L26.0337 29.5372V32.5636C26.0337 33.8825 26.7668 35.0689 27.9466 35.658L34.8742 39.1214C34.9184 39.1435 34.9617 39.1664 35.0051 39.1893C34.9175 39.2555 34.8275 39.3169 34.7392 39.3807Z" fill="white"/>
</svg>
