<svg width="42" height="36" viewBox="0 0 42 36" fill="none" xmlns="http://www.w3.org/2000/svg">
<path d="M36.1424 30.1019L28.8814 22.8109C30.7483 20.6682 31.7713 17.9723 31.7713 15.1657C31.7713 8.60841 26.2454 3.27344 19.4535 3.27344C12.6616 3.27344 7.13574 8.60841 7.13574 15.1657C7.13574 21.723 12.6616 27.058 19.4535 27.058C22.0033 27.058 24.4331 26.3155 26.5105 24.906L33.8267 32.2523C34.1325 32.5589 34.5438 32.728 34.9846 32.728C35.4018 32.728 35.7976 32.5744 36.098 32.2952C36.7364 31.7021 36.7567 30.7187 36.1424 30.1019ZM19.4535 6.37577C24.4738 6.37577 28.5579 10.3188 28.5579 15.1657C28.5579 20.0126 24.4738 23.9556 19.4535 23.9556C14.4332 23.9556 10.3491 20.0126 10.3491 15.1657C10.3491 10.3188 14.4332 6.37577 19.4535 6.37577Z" fill="white"/>
</svg>
