<svg width="22" height="22" viewBox="0 0 22 22" fill="none" xmlns="http://www.w3.org/2000/svg">
<path d="M15.1465 9.45312C15.1465 8.97849 14.7617 8.59375 14.2871 8.59375H5.43555C4.96091 8.59375 4.57617 8.97849 4.57617 9.45312C4.57617 9.92776 4.96091 10.3125 5.43555 10.3125H14.2871C14.7617 10.3125 15.1465 9.92776 15.1465 9.45312Z" fill="#426DA9"/>
<path d="M5.43555 12.0312C4.96091 12.0312 4.57617 12.416 4.57617 12.8906C4.57617 13.3653 4.96091 13.75 5.43555 13.75H10.8114C11.286 13.75 11.6708 13.3653 11.6708 12.8906C11.6708 12.416 11.286 12.0312 10.8114 12.0312H5.43555Z" fill="#426DA9"/>
<path d="M7.45422 20.2812H4.58008C3.63236 20.2812 2.86133 19.5102 2.86133 18.5625V3.4375C2.86133 2.48978 3.63236 1.71875 4.58008 1.71875H15.1456C16.0933 1.71875 16.8644 2.48978 16.8644 3.4375V8.72266C16.8644 9.19729 17.2491 9.58203 17.7237 9.58203C18.1984 9.58203 18.5831 9.19729 18.5831 8.72266V3.4375C18.5831 1.54206 17.0411 0 15.1456 0H4.58008C2.68464 0 1.14258 1.54206 1.14258 3.4375V18.5625C1.14258 20.4579 2.68464 22 4.58008 22H7.45422C7.92885 22 8.31359 21.6153 8.31359 21.1406C8.31359 20.666 7.92885 20.2812 7.45422 20.2812Z" fill="#426DA9"/>
<path d="M20.1062 12.4425C19.101 11.4373 17.4655 11.4372 16.4609 12.4418L11.7428 17.1495C11.6426 17.2494 11.5687 17.3726 11.5275 17.508L10.5 20.8907C10.4089 21.1907 10.4883 21.5163 10.7072 21.7407C10.8711 21.9087 11.0939 21.9999 11.3224 21.9999C11.3988 21.9999 11.476 21.9897 11.5517 21.9687L15.0204 21.0079C15.1631 20.9683 15.2932 20.8926 15.3981 20.7879L20.1063 16.0886C21.1115 15.0833 21.1115 13.4478 20.1062 12.4425ZM14.3438 19.4118L12.5987 19.8952L13.1094 18.2139L16.2929 15.0375L17.5085 16.253L14.3438 19.4118ZM18.8916 14.8727L18.725 15.0389L17.5097 13.8235L17.6756 13.6579C18.0107 13.3228 18.5559 13.3228 18.891 13.6579C19.226 13.993 19.226 14.5382 18.8916 14.8727Z" fill="#426DA9"/>
<path d="M14.2871 5.15625H5.43555C4.96091 5.15625 4.57617 5.54099 4.57617 6.01562C4.57617 6.49026 4.96091 6.875 5.43555 6.875H14.2871C14.7617 6.875 15.1465 6.49026 15.1465 6.01562C15.1465 5.54099 14.7617 5.15625 14.2871 5.15625Z" fill="#426DA9"/>
</svg>
