<svg width="25" height="28" viewBox="0 0 25 28" fill="none" xmlns="http://www.w3.org/2000/svg">
<path d="M12.5 0L0.6875 6.9037V20.7111L12.5 27.6148L24.3125 20.7111V6.9037L12.5 0ZM22.625 12.3404L19.25 10.3556V5.95444L22.625 7.93925V12.3404ZM12.5 8.97481L17.5625 5.95444V9.75148L12.5 12.7719V8.97481ZM2.375 7.93925L5.75 5.95444V10.3556L2.375 12.3404V7.93925ZM2.375 14.3252L5.75 12.3404V16.7415L2.375 18.7263V14.3252ZM3.21875 20.1933L6.59375 18.2085L10.0531 20.2796L6.67813 22.2644L3.21875 20.1933ZM12.5 25.63L8.36563 23.2137L11.7406 21.2289L15.875 23.6452L12.5 25.63ZM18.4062 16.8278L13.2594 14.3252L17.8156 11.65L22.5406 14.4115L18.4062 16.8278Z" fill="#26272A"/>
</svg>
