<svg width="25" height="24" viewBox="0 0 25 24" fill="none" xmlns="http://www.w3.org/2000/svg">
<path d="M11.0295 0.300049L9.55316 16.687C9.52259 16.6461 9.49089 16.6063 9.45807 16.5683C9.38894 16.4884 9.29221 16.3898 9.16659 16.3057C9.04382 16.2235 8.83697 16.1176 8.56684 16.1176H7.28378L7.27962 16.1131C7.20255 16.0272 7.12273 15.8894 6.97982 15.6241L6.96219 15.5913C6.84553 15.3743 6.67163 15.0508 6.43661 14.7891C6.16062 14.4817 5.74169 14.1919 5.15624 14.1919C4.64917 14.1919 4.1849 14.4164 3.84553 14.6153C3.49532 14.8206 3.13835 15.0857 2.8289 15.3154L2.80829 15.3307C2.47398 15.5789 2.19058 15.7881 1.93254 15.9393C1.80697 16.0129 1.70694 16.0609 1.62932 16.0893C1.55622 16.116 1.52426 16.1176 1.52426 16.1176H0V17.9033H1.52481C2.03188 17.9033 2.49615 17.6788 2.83552 17.4799C3.18575 17.2746 3.54274 17.0095 3.8522 16.7798L3.87276 16.7645C4.20707 16.5163 4.49047 16.3072 4.74851 16.1559C4.87408 16.0823 4.97411 16.0343 5.05173 16.0059C5.07632 15.9969 5.09626 15.9908 5.11189 15.9866C5.18776 16.0727 5.26728 16.2104 5.40775 16.4711L5.42538 16.5039C5.54204 16.7209 5.71595 17.0444 5.95096 17.3061C6.22696 17.6135 6.64589 17.9033 7.23134 17.9033H8.21668C8.69719 18.7373 9.375 20.5679 9.375 20.5679H10.9192L11.8296 11.321L12.6956 23.2706H14.5933L15.9771 17.9033H16.7125L16.9195 17.3039L16.9214 17.2989C16.9243 17.291 16.9297 17.2768 16.9376 17.2571C16.9535 17.2174 16.9791 17.1567 17.0146 17.0819C17.0868 16.93 17.1939 16.733 17.3347 16.5415C17.6343 16.134 17.9633 15.9076 18.3217 15.9076C18.7597 15.9076 19.3249 16.2154 19.8815 16.6912C20.1377 16.9103 20.3539 17.1319 20.5064 17.2995C20.5821 17.3827 20.6408 17.4511 20.6793 17.4972C20.6985 17.5202 20.7126 17.5376 20.7213 17.5483L20.7305 17.5599L21.3272 18.325L22.0402 17.6664L22.0452 17.6618L22.0717 17.6381C22.0961 17.6166 22.1331 17.5844 22.1801 17.5452C22.275 17.4659 22.4055 17.3619 22.5509 17.2598C22.6991 17.1558 22.8458 17.0657 22.9744 17.0048C23.0093 16.9882 23.0386 16.9759 23.0624 16.9667C23.1221 17.014 23.1962 17.0814 23.3062 17.1835L23.3229 17.199C23.4407 17.3084 23.6104 17.466 23.7926 17.5929C23.9775 17.7216 24.2911 17.9033 24.6917 17.9033H25V16.1176H24.7992C24.7334 16.0698 24.653 15.9972 24.5209 15.8746L24.5042 15.8591C24.3864 15.7497 24.2167 15.5921 24.0345 15.4652C23.8496 15.3365 23.536 15.1548 23.1354 15.1548C22.7762 15.1548 22.446 15.279 22.2092 15.3913C21.9614 15.5089 21.7278 15.6564 21.535 15.7912C21.3917 15.6477 21.2258 15.4912 21.0419 15.3339C20.4312 14.8118 19.4401 14.1218 18.3217 14.1218C17.1239 14.1218 16.3301 14.8933 15.896 15.4837C15.7315 15.7075 15.6006 15.9283 15.5009 16.1176H14.5933L14.1049 18.0122L12.8212 0.300049H11.0295Z" fill="#18181B"/>
</svg>
