<svg width="27" height="28" viewBox="0 0 27 28" fill="none" xmlns="http://www.w3.org/2000/svg">
<path d="M21.9375 3.45185L20.655 4.72905L22.7812 6.9037H12.6562V8.62963H22.7812L20.655 10.8043L21.9375 12.0815L26.1562 7.76666L21.9375 3.45185ZM22.7812 13.8074V16.8795L21.3806 13.2551L18.5625 10.3556H6.9525L12.6562 2.57164L14.5631 5.17778H16.6725L15.5925 3.71073L17.8538 5.0397L19.1025 3.7625L12.6562 0L0.84375 6.9037V20.7111L12.6562 27.6148L24.4688 20.7111V12.0815L22.7812 13.8074ZM12.6562 12.0815H16.2506L12.6562 17.6044L9.06187 12.0815H12.6562ZM9.72 3.71073L5.7375 9.14741L3.42562 7.42148L9.72 3.71073ZM2.53125 8.88851L4.91062 10.7007L2.53125 16.9141V8.88851ZM12.6562 25.6645V20.7111H21.0938L12.6562 25.6645ZM13.7869 18.9852L18.8494 11.2358L21.7856 18.9852H13.7869Z" fill="#26272A"/>
</svg>
