<svg width="24" height="25" viewBox="0 0 24 25" fill="none" xmlns="http://www.w3.org/2000/svg">
<path d="M19.9142 12.2457V19.8993H12.2549L7.65931 24.4914V19.8993H4.59559V16.8379H0L4.59559 12.2457V4.59214H12.2549L16.8505 0V4.59214H19.9142V7.65357H24.5098L19.9142 12.2457ZM7.65931 16.8379H6.12745V18.3686H7.65931V16.8379ZM7.65931 15.3071V13.7764H4.59559L3.06373 15.3071H7.65931ZM6.12745 6.12286V12.2457H7.65931V9.18429L10.723 6.12286H6.12745ZM10.723 15.3071H15.3186L16.8505 13.7764H12.2549L10.723 15.3071ZM18.3824 6.12286H12.2549V12.2457H18.3824V6.12286ZM18.3824 13.7764L15.3186 16.8379H12.2549V18.3686H18.3824V13.7764ZM19.9142 10.715L21.4461 9.18429H19.9142V10.715Z" fill="#26272A"/>
</svg>
