<svg width="22" height="22" viewBox="0 0 22 22" fill="none" xmlns="http://www.w3.org/2000/svg">
<path fill-rule="evenodd" clip-rule="evenodd" d="M11 0L21.8507 6.50865L17.2929 9.04728L21.9459 11.6389L17.3969 13.9778L22 16.3444L11 22L0 16.3444L4.60305 13.9778L0.0540822 11.6389L4.70706 9.04728L0.149281 6.50865L11 0ZM6.39695 9.98854L3.53371 11.5833L11 15.4221L18.4663 11.5833L15.6031 9.98854L11 12.5524L6.39695 9.98854ZM6.39695 14.9001L3.5878 16.3444L11 20.1554L18.4122 16.3444L15.6031 14.9001L11 17.2667L6.39695 14.9001ZM3.43852 6.45821L11 10.6699L18.5615 6.45821L11 1.92256L3.43852 6.45821Z" fill="black"/>
</svg>
