<svg width="21" height="22" viewBox="0 0 21 22" fill="none" xmlns="http://www.w3.org/2000/svg">
<path d="M17.1483 15.7007C16.9186 15.7007 16.6122 15.7772 16.3824 15.7772L15.1569 13.8638C15.5417 13.5151 15.8491 13.0899 16.0595 12.6153C16.27 12.1408 16.3787 11.6276 16.3787 11.1085C16.3787 10.5895 16.27 10.0763 16.0595 9.60175C15.8491 9.12723 15.5417 8.70195 15.1569 8.35328L16.3824 6.51641C16.6318 6.58365 16.8906 6.60949 17.1483 6.59293C17.7543 6.59293 18.3466 6.41341 18.8505 6.07702C19.3543 5.74063 19.747 5.26248 19.9789 4.70308C20.2107 4.14367 20.2714 3.52812 20.1532 2.93426C20.035 2.34041 19.7432 1.79489 19.3147 1.36674C18.8863 0.938592 18.3404 0.647057 17.746 0.528931C17.1517 0.410805 16.5357 0.471414 15.9759 0.703126C15.4161 0.934838 14.9376 1.32725 14.6009 1.8307C14.2643 2.33415 14.0846 2.92601 14.0846 3.5315C14.09 3.94981 14.1812 4.36258 14.3524 4.74433C14.5237 5.12607 14.7714 5.4687 15.0803 5.75105L13.9314 7.58793C13.4873 7.43738 13.0217 7.3598 12.5528 7.35828C12.1082 7.35348 11.6667 7.43137 11.2507 7.58793L10.1018 5.75105C10.698 5.136 11.0281 4.31125 11.0209 3.45498C11.0209 2.64304 10.6981 1.86435 10.1235 1.29022C9.54899 0.716095 8.76972 0.393555 7.95717 0.393555C7.14462 0.393555 6.36535 0.716095 5.79079 1.29022C5.21623 1.86435 4.89344 2.64304 4.89344 3.45498C4.88263 3.85733 4.95919 4.25722 5.11786 4.62717C5.27653 4.99711 5.51353 5.32832 5.81256 5.59797L4.2807 8.2002C3.98167 8.11213 3.67303 8.06072 3.36158 8.04712C2.75563 8.04712 2.16329 8.22668 1.65946 8.56307C1.15564 8.89947 0.762951 9.37757 0.531065 9.93697C0.299179 10.4964 0.238507 11.1119 0.356722 11.7058C0.474936 12.2996 0.766727 12.8452 1.1952 13.2733C1.62367 13.7015 2.16957 13.993 2.76388 14.1112C3.35818 14.2293 3.97419 14.1686 4.53402 13.9369C5.09384 13.7052 5.57233 13.3128 5.90897 12.8094C6.24562 12.3059 6.4253 11.714 6.4253 11.1085C6.43612 10.7062 6.35955 10.3063 6.20089 9.93636C6.04222 9.56642 5.80521 9.23521 5.50619 8.96556L7.03805 6.36333C7.33708 6.4514 7.64572 6.50281 7.95717 6.51641C8.18695 6.51641 8.49332 6.43989 8.7231 6.43989L9.94859 8.35328C9.56241 8.70101 9.25373 9.126 9.04261 9.60068C8.83148 10.0754 8.72262 10.5891 8.7231 11.1085C8.71902 11.6122 8.81529 12.1117 9.0063 12.5778C9.19731 13.0439 9.47925 13.4674 9.83568 13.8236C10.1921 14.1798 10.6159 14.4615 11.0824 14.6523C11.5489 14.8432 12.0487 14.9394 12.5528 14.9353C12.9973 14.9401 13.4388 14.8623 13.8548 14.7057L15.0037 16.5426C14.4259 17.1386 14.0971 17.9323 14.0846 18.7621C14.0846 19.3676 14.2643 19.9595 14.6009 20.463C14.9376 20.9664 15.4161 21.3588 15.9759 21.5905C16.5357 21.8222 17.1517 21.8829 17.746 21.7647C18.3404 21.6466 18.8863 21.355 19.3147 20.9269C19.7432 20.4987 20.035 19.9532 20.1532 19.3593C20.2714 18.7655 20.2107 18.1499 19.9789 17.5905C19.747 17.0311 19.3543 16.553 18.8505 16.2166C18.3466 15.8802 17.7543 15.7007 17.1483 15.7007ZM17.1483 1.92427C17.4513 1.92427 17.7475 2.01402 17.9994 2.18222C18.2513 2.35042 18.4477 2.58949 18.5636 2.86919C18.6795 3.14889 18.7099 3.45669 18.6508 3.75362C18.5917 4.05055 18.4458 4.32326 18.2315 4.53734C18.0173 4.75141 17.7443 4.8972 17.4472 4.95626C17.15 5.01533 16.842 4.98505 16.5621 4.86919C16.2822 4.75333 16.043 4.55713 15.8746 4.3054C15.7063 4.05368 15.6165 3.75773 15.6165 3.45498C15.6165 3.04901 15.7779 2.65969 16.0652 2.37263C16.3524 2.08556 16.7421 1.92427 17.1483 1.92427ZM3.36158 12.6393C3.0586 12.6393 2.76243 12.5495 2.51052 12.3813C2.25861 12.2131 2.06226 11.974 1.94632 11.6943C1.83038 11.4146 1.80004 11.1068 1.85915 10.8099C1.91826 10.513 2.06415 10.2403 2.27839 10.0262C2.49262 9.81212 2.76557 9.66633 3.06273 9.60726C3.35988 9.5482 3.66789 9.57848 3.9478 9.69434C4.22771 9.81019 4.46695 10.0064 4.63528 10.2581C4.8036 10.5099 4.89344 10.8058 4.89344 11.1085C4.89344 11.5145 4.73205 11.9038 4.44477 12.1909C4.15749 12.478 3.76785 12.6393 3.36158 12.6393ZM7.95717 4.98569C7.65419 4.98569 7.35802 4.89594 7.10611 4.72774C6.8542 4.55955 6.65785 4.32047 6.54191 4.04077C6.42597 3.76107 6.39563 3.45327 6.45474 3.15634C6.51385 2.85941 6.65974 2.5867 6.87398 2.37263C7.08821 2.15855 7.36116 2.01276 7.65832 1.9537C7.95547 1.89463 8.26347 1.92492 8.54338 2.04077C8.8233 2.15663 9.06254 2.35283 9.23086 2.60456C9.39919 2.85628 9.48903 3.15223 9.48903 3.45498C9.48903 3.86095 9.32764 4.25027 9.04036 4.53734C8.75308 4.8244 8.36344 4.98569 7.95717 4.98569ZM12.5528 13.4046C12.0983 13.4046 11.654 13.2699 11.2762 13.0176C10.8983 12.7653 10.6038 12.4068 10.4299 11.9872C10.256 11.5677 10.2105 11.106 10.2991 10.6606C10.3878 10.2152 10.6066 9.80608 10.928 9.48497C11.2493 9.16386 11.6587 8.94517 12.1045 8.85658C12.5502 8.76798 13.0122 8.81345 13.4321 8.98723C13.8519 9.16102 14.2108 9.45535 14.4633 9.83294C14.7158 10.2105 14.8505 10.6544 14.8505 11.1085C14.8568 11.4118 14.8017 11.7132 14.6884 11.9946C14.5751 12.276 14.4061 12.5316 14.1915 12.746C13.9768 12.9605 13.721 13.1294 13.4394 13.2426C13.1578 13.3557 12.8562 13.4109 12.5528 13.4046ZM17.1483 20.2928C16.8454 20.2928 16.5492 20.2031 16.2973 20.0349C16.0454 19.8667 15.849 19.6276 15.7331 19.3479C15.6171 19.0682 15.5868 18.7604 15.6459 18.4635C15.705 18.1665 15.8509 17.8938 16.0652 17.6798C16.2794 17.4657 16.5523 17.3199 16.8495 17.2608C17.1466 17.2018 17.4547 17.232 17.7346 17.3479C18.0145 17.4638 18.2537 17.66 18.422 17.9117C18.5904 18.1634 18.6802 18.4594 18.6802 18.7621C18.6802 19.1681 18.5188 19.5574 18.2315 19.8445C17.9443 20.1315 17.5546 20.2928 17.1483 20.2928Z" fill="#26272A"/>
</svg>
