<svg width="24" height="22" viewBox="0 0 24 22" fill="none" xmlns="http://www.w3.org/2000/svg">
<path d="M3.27712 13.8462H4.81558V15.3846H3.27712V13.8462ZM7.8925 18.4616H0.200195V4.61539L4.81558 0H17.1233L21.7387 4.61539V9.23078H20.2002V6.15385H1.73866V10.7692H7.8925V12.3077H1.73866V16.9231H7.8925V18.4616ZM2.36943 4.61539H19.554L16.4771 1.53846H5.44635L2.36943 4.61539ZM14.0463 9.23078H18.6617V7.69232H14.0463V9.23078ZM6.35404 15.3846H7.8925V13.8462H6.35404V15.3846ZM9.43096 9.23078H10.9694V7.69232H9.43096V9.23078ZM4.81558 7.69232H3.27712V9.23078H4.81558V7.69232ZM6.35404 9.23078H7.8925V7.69232H6.35404V9.23078ZM21.7387 12.3077H10.9694V20H21.7387V12.3077ZM23.2771 21.5385H9.43096V10.7692H23.2771V21.5385Z" fill="#26262A"/>
</svg>
