<?xml version="1.0" encoding="utf-8"?>
<!-- Generator: Adobe Illustrator 23.1.0, SVG Export Plug-In . SVG Version: 6.00 Build 0)  -->
<svg version="1.1" id="Слой_1" xmlns="http://www.w3.org/2000/svg" xmlns:xlink="http://www.w3.org/1999/xlink" x="0px" y="0px"
	 viewBox="0 0 203 40" style="enable-background:new 0 0 203 40;" xml:space="preserve">
<style type="text/css">
	.st0{fill:url(#SVGID_1_);}
	.st1{fill:url(#SVGID_2_);}
	.st2{fill:url(#SVGID_3_);}
	.st3{fill:#9A9A9D;}
	.st4{fill:#26272A;}
	.st5{fill:#DA291C;}
</style>
<g>
	
		<linearGradient id="SVGID_1_" gradientUnits="userSpaceOnUse" x1="3" y1="-148" x2="3" y2="-124" gradientTransform="matrix(1 0 0 -1 0 -112)">
		<stop  offset="0.25" style="stop-color:#A73794"/>
		<stop  offset="1" style="stop-color:#963CBD"/>
	</linearGradient>
	<polygon class="st0" points="6,12 6,32 0,36 0,18 	"/>
	
		<linearGradient id="SVGID_2_" gradientUnits="userSpaceOnUse" x1="0" y1="-145" x2="24" y2="-145" gradientTransform="matrix(1 0 0 -1 0 -112)">
		<stop  offset="0.25" style="stop-color:#A73794"/>
		<stop  offset="0.75" style="stop-color:#B7336E"/>
	</linearGradient>
	<polygon class="st1" points="18,30 24,36 0,36 6,30 	"/>
	
		<linearGradient id="SVGID_3_" gradientUnits="userSpaceOnUse" x1="15" y1="-148" x2="15" y2="-116" gradientTransform="matrix(1 0 0 -1 0 -112)">
		<stop  offset="0.1875" style="stop-color:#B7336E"/>
		<stop  offset="1" style="stop-color:#DA291C"/>
	</linearGradient>
	<polygon class="st2" points="6,4 24,22 24,36 18,32 18,24 6,12 	"/>
</g>
<g id="INOBITEC">
	<rect id="I_1_" x="36" y="16" class="st3" width="0.8" height="6"/>
	<polygon id="И" class="st3" points="40,16 40,22 40.8,22 40.8,17.5 43.8,22 44.5,22 44.5,16 43.8,16 43.8,20.5 40.8,16 	"/>
	<path id="O_1_" class="st3" d="M51,16.7c1.2,0,2.3,1,2.3,2.3s-1,2.3-2.3,2.3s-2.3-1-2.3-2.3S49.8,16.7,51,16.7 M51,16
		c-1.7,0-3,1.3-3,3s1.3,3,3,3s3-1.3,3-3S52.7,16,51,16L51,16z"/>
	<path id="В" class="st3" d="M60.9,18.7c0.4-0.3,0.6-0.7,0.6-1.2c0-0.8-0.7-1.5-1.5-1.5h-3v2.3V19v3h2.6c1,0,1.9-0.8,1.9-1.9
		C61.5,19.6,61.3,19.1,60.9,18.7z M57.8,16.7H60c0.4,0,0.8,0.3,0.8,0.8s-0.3,0.8-0.8,0.8h-0.4h-1.9v-1.6H57.8z M59.6,21.2h-1.9V19
		h1.9c0.6,0,1.1,0.5,1.1,1.1S60.2,21.2,59.6,21.2z"/>
	<rect id="I_2_" x="65" y="16" class="st3" width="0.8" height="6"/>
	<polygon id="T_1_" class="st3" points="69,16 69,16.7 71,16.7 71,22 71.8,22 71.8,16.7 73.8,16.7 73.8,16 	"/>
	<polygon id="E_2_" class="st3" points="80.8,16.7 80.8,16 77,16 77,22 80.8,22 80.8,21.2 77.8,21.2 77.8,19 80.8,19 80.8,18.2 
		77.8,18.2 77.8,16.7 	"/>
	<path id="C_2_" class="st3" d="M87,21.2c-1.2,0-2.3-1-2.3-2.3s1-2.3,2.3-2.3c0.6,0,1.2,0.3,1.6,0.7l0.5-0.5
		C88.6,16.3,87.8,16,87,16c-1.7,0-3,1.3-3,3s1.3,3,3,3c0.8,0,1.6-0.3,2.1-0.9l-0.5-0.5C88.2,21,87.6,21.2,87,21.2z"/>
</g>
<g>
	<path class="st4" d="M36,26.9h2.7c2.5,0,4.1,1.7,4.1,4c0,2.3-1.6,4-4.1,4H36V26.9z M38.7,34c1.9,0,3.1-1.4,3.1-3.1
		c0-1.7-1.1-3.1-3.1-3.1H37V34H38.7z"/>
	<path class="st4" d="M46.8,26.9h1v8h-1V26.9z"/>
	<path class="st4" d="M51.8,30.9c0-2.5,1.8-4.1,4.1-4.1c1.5,0,2.4,0.7,3.1,1.6l-0.8,0.5c-0.5-0.7-1.3-1.2-2.2-1.2
		c-1.7,0-3,1.3-3,3.3c0,1.9,1.3,3.3,3,3.3c0.9,0,1.8-0.5,2.2-1.2l0.9,0.5c-0.7,0.9-1.6,1.6-3.1,1.6C53.6,35.1,51.8,33.4,51.8,30.9z"
		/>
	<path class="st4" d="M66.3,26.8c2.4,0,4,1.8,4,4.1c0,2.4-1.6,4.1-4,4.1c-2.4,0-4-1.8-4-4.1C62.3,28.6,63.9,26.8,66.3,26.8z
		 M66.3,27.7c-1.8,0-2.9,1.4-2.9,3.3c0,1.9,1.1,3.3,2.9,3.3c1.8,0,2.9-1.4,2.9-3.3C69.2,29,68.1,27.7,66.3,27.7z"/>
	<path class="st4" d="M81.1,28.3l-2.7,6.7H78l-2.7-6.7v6.7h-1v-8h1.4l2.5,6.1l2.5-6.1h1.4v8h-1V28.3z"/>
	<path class="st4" d="M91.1,26.9h1.1l2.7,6.9l2.7-6.9h1.1l-3.2,8h-1.2L91.1,26.9z"/>
	<path class="st4" d="M102.2,26.9h1v8h-1V26.9z"/>
	<path class="st4" d="M107.5,26.9h5.2v0.9h-4.2v2.6h4.2v0.9h-4.2V34h4.2v0.9h-5.2V26.9z"/>
	<path class="st4" d="M121.1,28.5l-1.8,6.5h-1.1l-2.3-8h1.1l1.8,6.7l1.8-6.7h0.8l1.8,6.7l1.8-6.7h1.1l-2.3,8h-1.1L121.1,28.5z"/>
	<path class="st4" d="M129.8,26.9h5.2v0.9h-4.2v2.6h4.2v0.9h-4.2V34h4.2v0.9h-5.2V26.9z"/>
	<path class="st4" d="M141.6,31.7H140v3.2h-1v-8h3.2c1.5,0,2.5,0.9,2.5,2.4c0,1.4-1,2.2-2.1,2.3l2.2,3.3h-1.2L141.6,31.7z
		 M142.1,27.8H140v3.1h2.1c0.9,0,1.6-0.6,1.6-1.5S143.1,27.8,142.1,27.8z"/>
	<path class="st5" d="M153.9,32c0-1.9,0.6-3.8,1.7-5.3l0.5,0.4c-0.8,1.5-1.2,2.9-1.2,4.9c0,2,0.5,3.4,1.2,4.9l-0.5,0.4
		C154.5,35.8,153.9,33.9,153.9,32z"/>
	<path class="st5" d="M159.7,26.9h3.2c1.6,0,2.5,1.1,2.5,2.4s-0.9,2.4-2.5,2.4h-2.2v3.2h-1V26.9z M162.8,27.8h-2.1v3h2.1
		c0.9,0,1.6-0.6,1.6-1.5S163.7,27.8,162.8,27.8z"/>
	<path class="st5" d="M173.3,33.1h-4.1l-0.7,1.8h-1.1l3.2-8h1.2l3.2,8H174L173.3,33.1z M169.5,32.3h3.5l-1.7-4.5L169.5,32.3z"/>
	<path class="st5" d="M177.8,30.9c0-2.5,1.8-4.1,4.1-4.1c1.5,0,2.4,0.7,3.1,1.6l-0.8,0.5c-0.5-0.7-1.3-1.2-2.2-1.2
		c-1.7,0-3,1.3-3,3.3c0,1.9,1.3,3.3,3,3.3c0.9,0,1.8-0.5,2.2-1.2l0.9,0.5c-0.7,0.9-1.6,1.6-3.1,1.6
		C179.6,35.1,177.8,33.4,177.8,30.9z"/>
	<path class="st5" d="M188.7,33c0.5,0.6,1.4,1.1,2.5,1.1c1.4,0,1.9-0.8,1.9-1.4c0-1-1-1.2-2-1.5c-1.3-0.3-2.7-0.7-2.7-2.3
		c0-1.3,1.2-2.2,2.7-2.2c1.2,0,2.2,0.4,2.8,1.1l-0.6,0.7c-0.6-0.7-1.4-1-2.3-1c-1,0-1.6,0.5-1.6,1.3c0,0.8,0.9,1,1.9,1.3
		c1.3,0.3,2.8,0.8,2.8,2.4c0,1.2-0.8,2.4-3,2.4c-1.4,0-2.4-0.5-3.1-1.3L188.7,33z"/>
	<path class="st5" d="M197.4,27.1l0.5-0.4c1.1,1.5,1.7,3.4,1.7,5.3c0,1.9-0.6,3.8-1.7,5.3l-0.5-0.4c0.8-1.5,1.3-2.9,1.3-4.9
		C198.6,30,198.1,28.6,197.4,27.1z"/>
</g>
</svg>
