<svg width="19" height="19" viewBox="0 0 19 19" fill="none" xmlns="http://www.w3.org/2000/svg">
<path d="M18.6464 8.07688L17.1079 7.87687C16.9215 6.77276 16.4962 5.72266 15.8618 4.79995L16.831 3.5384C16.354 2.92241 15.8008 2.3693 15.1849 1.89226L13.9387 2.87687C13.0193 2.23347 11.9683 1.80254 10.8618 1.61532L10.6618 0.0768588C9.89081 -0.0256196 9.10967 -0.0256196 8.33871 0.0768588L8.13871 1.61532C7.03223 1.80254 5.98123 2.23347 5.06178 2.87687L3.81563 1.89226C3.19964 2.3693 2.64652 2.92241 2.16948 3.5384L3.13871 4.79995C2.50432 5.72266 2.07904 6.77276 1.89255 7.87687L0.354091 8.07688C0.230928 8.8515 0.230928 9.6407 0.354091 10.4153L1.89255 10.6153C2.07904 11.7194 2.50432 12.7695 3.13871 13.6923L2.16948 14.9538C2.64176 15.5688 3.18967 16.1219 3.80024 16.5999L5.06178 15.6153C5.98123 16.2587 7.03223 16.6897 8.13871 16.8769L8.33871 18.4153C9.10967 18.5178 9.89081 18.5178 10.6618 18.4153L10.8618 16.8769C11.9683 16.6897 13.0193 16.2587 13.9387 15.6153L15.1849 16.5999C15.8008 16.1229 16.354 15.5698 16.831 14.9538L15.8618 13.6923C16.4962 12.7695 16.9215 11.7194 17.1079 10.6153L18.6464 10.4153C18.749 9.63921 18.749 8.85299 18.6464 8.07688ZM9.41563 13.8615C8.50279 13.8615 7.61046 13.5908 6.85146 13.0837C6.09246 12.5765 5.5009 11.8557 5.15157 11.0123C4.80224 10.169 4.71084 9.24099 4.88893 8.34569C5.06701 7.45039 5.50659 6.628 6.15206 5.98253C6.79753 5.33705 7.61992 4.89749 8.51521 4.7194C9.41051 4.54132 10.3385 4.63272 11.1819 4.98204C12.0252 5.33137 12.746 5.92292 13.2532 6.68192C13.7603 7.44092 14.031 8.33326 14.031 9.2461C14.031 10.4702 13.5448 11.6441 12.6792 12.5097C11.8136 13.3752 10.6397 13.8615 9.41563 13.8615Z" fill="#26262A"/>
</svg>
