<svg width="23" height="25" viewBox="0 0 23 25" fill="none" xmlns="http://www.w3.org/2000/svg">
<path d="M9.07 21.2374L9.55937 19.5115C8.76267 19.2643 8.03787 18.82 7.44917 18.2178C6.86047 17.6157 6.42604 16.8744 6.18437 16.0596L4.49687 16.5601C4.8219 17.6277 5.39563 18.5987 6.16872 19.3894C6.94181 20.1801 7.89112 20.7668 8.935 21.0993L9.07 21.2374ZM12.9512 7.91322L12.445 9.63915C13.2417 9.88632 13.9665 10.3306 14.5552 10.9328C15.1439 11.5349 15.5783 12.2762 15.82 13.091L17.5075 12.5905C17.1825 11.5228 16.6087 10.5519 15.8357 9.76119C15.0626 8.9705 14.1133 8.3837 13.0694 8.05127L12.9512 7.91322ZM11.0781 12.9184C11.4119 12.9184 11.7381 13.0196 12.0157 13.2092C12.2932 13.3989 12.5094 13.6685 12.6372 13.9838C12.7649 14.2992 12.7983 14.6463 12.7332 14.9811C12.6681 15.3158 12.5074 15.6233 12.2714 15.8647C12.0354 16.1061 11.7347 16.2705 11.4073 16.3371C11.08 16.4037 10.7407 16.3695 10.4323 16.2389C10.124 16.1083 9.86045 15.887 9.67502 15.6032C9.4896 15.3194 9.39062 14.9857 9.39062 14.6443C9.39062 14.1866 9.56841 13.7476 9.88488 13.4239C10.2014 13.1003 10.6306 12.9184 11.0781 12.9184ZM11.0781 11.1925C10.4106 11.1925 9.75809 11.3949 9.20308 11.7742C8.64806 12.1535 8.21548 12.6926 7.96003 13.3233C7.70459 13.9541 7.63775 14.6481 7.76797 15.3177C7.8982 15.9873 8.21964 16.6024 8.69164 17.0852C9.16364 17.5679 9.76501 17.8967 10.4197 18.0299C11.0744 18.1631 11.753 18.0947 12.3697 17.8334C12.9864 17.5721 13.5135 17.1297 13.8843 16.5621C14.2552 15.9944 14.4531 15.327 14.4531 14.6443C14.4531 13.7288 14.0975 12.8508 13.4646 12.2035C12.8317 11.5561 11.9732 11.1925 11.0781 11.1925ZM22.0469 12.0554C22.0507 8.95017 21.0807 5.92552 19.2794 3.4258C19.431 3.68717 19.5125 3.98486 19.5156 4.28877C19.5156 4.74651 19.3378 5.18548 19.0214 5.50916C18.7049 5.83283 18.2757 6.01469 17.8281 6.01469C17.0181 6.01469 16.225 2.75267 13.9637 1.35467C14.2755 1.67614 14.4513 2.11006 14.4531 2.56284C14.4531 3.02058 14.2753 3.45956 13.9589 3.78323C13.6424 4.1069 13.2132 4.28877 12.7656 4.28877H9.39062C8.94307 4.28877 8.51385 4.1069 8.19738 3.78323C7.88092 3.45956 7.70312 3.02058 7.70312 2.56284C7.70312 2.1051 7.88092 1.66613 8.19738 1.34245C8.51385 1.01878 8.94307 0.836914 9.39062 0.836914C4.73312 0.836914 0.953125 7.01573 0.953125 14.6443C0.957062 16.9206 1.69417 19.1321 3.05044 20.9368C4.40671 22.7415 6.30658 24.0389 8.45622 24.6283C10.6059 25.2178 12.8855 25.0664 14.9426 24.1976C16.9996 23.3288 18.7195 21.791 19.8362 19.8221C21.2685 17.4964 22.0289 14.804 22.03 12.0554H22.0469ZM11.0781 23.274C9.40935 23.274 7.77804 22.7678 6.3905 21.8196C5.00296 20.8714 3.92151 19.5236 3.28289 17.9468C2.64428 16.3699 2.47719 14.6347 2.80275 12.9607C3.12831 11.2868 3.93191 9.74915 5.11191 8.54227C6.29192 7.3354 7.79534 6.51348 9.43205 6.1805C11.0688 5.84753 12.7653 6.01845 14.307 6.67161C15.8488 7.32476 17.1665 8.4308 18.0936 9.84994C19.0208 11.2691 19.5156 12.9375 19.5156 14.6443C19.5156 15.7776 19.2974 16.8998 18.8734 17.9468C18.4493 18.9937 17.8278 19.945 17.0443 20.7464C16.2608 21.5477 15.3307 22.1834 14.307 22.617C13.2833 23.0507 12.1862 23.274 11.0781 23.274Z" fill="#26272A"/>
</svg>
