<svg width="21" height="22" viewBox="0 0 21 22" fill="none" xmlns="http://www.w3.org/2000/svg">
<path d="M18.9375 19.6297H2.0625V0.644531H0.375V21.3557H20.625V19.6297H18.9375ZM5.4375 14.4519C5.77126 14.4519 6.09752 14.5532 6.37502 14.7428C6.65253 14.9325 6.86882 15.202 6.99655 15.5174C7.12427 15.8327 7.15769 16.1798 7.09258 16.5146C7.02746 16.8494 6.86674 17.1569 6.63074 17.3983C6.39474 17.6397 6.09406 17.804 5.76672 17.8706C5.43937 17.9372 5.10007 17.903 4.79172 17.7724C4.48337 17.6418 4.21982 17.4206 4.0344 17.1367C3.84897 16.8529 3.75 16.5192 3.75 16.1779C3.75 15.7201 3.92779 15.2811 4.24426 14.9575C4.56073 14.6338 4.98995 14.4519 5.4375 14.4519ZM18.9375 0.644531C19.2713 0.644531 19.5975 0.74576 19.875 0.935407C20.1525 1.12505 20.3688 1.39459 20.4965 1.70996C20.6243 2.02533 20.6577 2.37236 20.5926 2.70716C20.5275 3.04195 20.3667 3.3495 20.1307 3.59087C19.8947 3.83225 19.5941 3.99663 19.2667 4.06323C18.9394 4.12982 18.6001 4.09563 18.2917 3.965C17.9834 3.83437 17.7198 3.61316 17.5344 3.32934C17.349 3.04551 17.25 2.71181 17.25 2.37046C17.25 1.91271 17.4278 1.47372 17.7443 1.15004C18.0607 0.826368 18.4899 0.644531 18.9375 0.644531ZM15.5625 11.0001C15.8963 11.0001 16.2225 11.1013 16.5 11.291C16.7775 11.4806 16.9938 11.7502 17.1215 12.0655C17.2493 12.3809 17.2827 12.7279 17.2176 13.0627C17.1525 13.3975 16.9917 13.7051 16.7557 13.9464C16.5197 14.1878 16.2191 14.3522 15.8917 14.4188C15.5644 14.4854 15.2251 14.4512 14.9167 14.3206C14.6084 14.1899 14.3448 13.9687 14.1594 13.6849C13.974 13.4011 13.875 13.0674 13.875 12.726C13.875 12.2683 14.0528 11.8293 14.3693 11.5056C14.6857 11.1819 15.1149 11.0001 15.5625 11.0001ZM8.8125 7.54824C9.14626 7.54824 9.47252 7.64947 9.75002 7.83911C10.0275 8.02876 10.2438 8.2983 10.3715 8.61367C10.4993 8.92904 10.5327 9.27607 10.4676 9.61086C10.4025 9.94566 10.2417 10.2532 10.0057 10.4946C9.76974 10.736 9.46906 10.9003 9.14172 10.9669C8.81437 11.0335 8.47507 10.9993 8.16672 10.8687C7.85837 10.7381 7.59482 10.5169 7.4094 10.233C7.22397 9.94921 7.125 9.61552 7.125 9.27417C7.125 8.81642 7.30279 8.37742 7.61926 8.05375C7.93573 7.73008 8.36495 7.54824 8.8125 7.54824ZM6.19687 16.5576L4.67813 15.7982L8.44125 8.1178L15.0731 11.5697L18.1444 2.14608L19.7306 2.69839L16.0519 14.0032L9.18375 10.5514L6.19687 16.5576Z" fill="#26272A"/>
</svg>
