<svg width="23" height="25" viewBox="0 0 23 25" fill="none" xmlns="http://www.w3.org/2000/svg">
<path d="M19.1483 3.06143L17.9841 4.19416L19.9142 6.12286H10.723V7.65357H19.9142L17.9841 9.58227L19.1483 10.715L22.9779 6.88821L19.1483 3.06143ZM19.9142 12.2457V14.9704L18.6581 11.7559L16.0846 9.18428H5.56066L10.723 2.28077L12.454 4.59214H14.3689L13.3885 3.29104L15.4565 4.46968L16.5748 3.33696L10.723 0L0 6.12286V18.3686L10.723 24.4914L21.4461 18.3686V10.715L19.9142 12.2457ZM10.723 10.715H13.9859L10.723 15.6133L7.46017 10.715H10.723ZM8.0576 3.29104L4.4424 8.11278L2.29779 6.55145L8.0576 3.29104ZM1.53186 7.88318L3.69179 9.50573L1.53186 14.9704V7.88318ZM10.723 22.777V18.3686H18.3824L10.723 22.777ZM11.7494 16.8379L16.345 9.96495L19.0104 16.8379H11.7494Z" fill="#26272A"/>
</svg>
