<svg width="21" height="21" viewBox="0 0 21 21" fill="none" xmlns="http://www.w3.org/2000/svg">
<path d="M20.625 5.60926C17.3262 7.09893 14.2109 8.98172 11.3438 11.2185C10.3318 12.1409 9.40017 13.1515 8.55937 14.2389C8.55937 14.2389 6.1125 11.2185 10.5 6.04074C12.8625 3.27926 13.2844 1.29445 13.2 0H20.625V5.60926ZM9.40312 4.91889C7.86888 6.36425 6.79207 8.24566 6.31097 10.3215C5.82987 12.3974 5.96643 14.573 6.70312 16.5689C5.94375 17.6045 4.84688 19.4167 4.00313 20.7111H0.375V0H11.7656C11.9344 1.12185 11.5125 2.76148 9.40312 4.91889ZM20.625 9.4926V20.7111H7.37813C8.99919 18.1971 10.8959 15.8809 13.0312 13.8074C15.3118 11.9495 17.8778 10.4914 20.625 9.4926Z" fill="#26272A"/>
</svg>
