<svg width="27" height="28" viewBox="0 0 27 28" fill="none" xmlns="http://www.w3.org/2000/svg">
<path d="M21.9375 13.8074V22.437H13.5L8.4375 27.6148V22.437H5.0625V18.9852H0L5.0625 13.8074V5.17777H13.5L18.5625 0V5.17777H21.9375V8.62963H27L21.9375 13.8074ZM8.4375 18.9852H6.75V20.7111H8.4375V18.9852ZM8.4375 17.2593V15.5333H5.0625L3.375 17.2593H8.4375ZM6.75 6.9037V13.8074H8.4375V10.3555L11.8125 6.9037H6.75ZM11.8125 17.2593H16.875L18.5625 15.5333H13.5L11.8125 17.2593ZM20.25 6.9037H13.5V13.8074H20.25V6.9037ZM20.25 15.5333L16.875 18.9852H13.5V20.7111H20.25V15.5333ZM21.9375 12.0815L23.625 10.3555H21.9375V12.0815Z" fill="#26272A"/>
</svg>
