<svg width="22" height="22" viewBox="0 0 22 22" fill="none" xmlns="http://www.w3.org/2000/svg">
<path d="M3.82966 7.65357C2.81397 7.65357 1.83988 8.05675 1.12168 8.77441C0.403481 9.49207 0 10.4654 0 11.4804C0 14.5418 3.82966 18.3686 3.82966 18.3686C3.82966 18.3686 7.65931 14.5418 7.65931 11.4804C7.65931 10.9778 7.56026 10.4802 7.3678 10.0159C7.17534 9.55162 6.89325 9.12976 6.53763 8.77441C6.18202 8.41906 5.75984 8.13718 5.2952 7.94487C4.83057 7.75255 4.33257 7.65357 3.82966 7.65357ZM3.82966 13.0111C3.52668 13.0111 3.23051 12.9213 2.9786 12.7531C2.72669 12.5849 2.53034 12.3458 2.4144 12.0661C2.29846 11.7864 2.26812 11.4787 2.32723 11.1817C2.38634 10.8848 2.53223 10.6121 2.74647 10.398C2.9607 10.1839 3.23365 10.0381 3.53081 9.97906C3.82796 9.92 4.13596 9.9503 4.41588 10.0662C4.69579 10.182 4.93503 10.3782 5.10335 10.6299C5.27168 10.8817 5.36152 11.1776 5.36152 11.4804C5.36152 11.8863 5.20013 12.2757 4.91285 12.5627C4.62557 12.8498 4.23593 13.0111 3.82966 13.0111ZM17.6164 0C16.6007 0 15.6266 0.403175 14.9084 1.12084C14.1902 1.8385 13.7868 2.81186 13.7868 3.82679C13.7868 6.88822 17.6164 10.715 17.6164 10.715C17.6164 10.715 21.4461 6.88822 21.4461 3.82679C21.4461 2.81186 21.0426 1.8385 20.3244 1.12084C19.6062 0.403175 18.6321 0 17.6164 0ZM17.6164 5.3575C17.3134 5.3575 17.0173 5.26772 16.7654 5.09952C16.5135 4.93133 16.3171 4.69227 16.2012 4.41256C16.0852 4.13286 16.0549 3.82509 16.114 3.52816C16.1731 3.23123 16.319 2.95848 16.5332 2.74441C16.7475 2.53033 17.0204 2.38455 17.3176 2.32549C17.6147 2.26643 17.9227 2.29673 18.2026 2.41259C18.4826 2.52844 18.7218 2.72464 18.8901 2.97636C19.0584 3.22809 19.1483 3.52404 19.1483 3.82679C19.1483 4.23276 18.9869 4.6221 18.6996 4.90917C18.4123 5.19623 18.0227 5.3575 17.6164 5.3575ZM17.6164 10.715C17.2353 10.7131 16.8672 10.8532 16.584 11.1079C16.3007 11.3627 16.1227 11.7138 16.0846 12.0926L4.70282 18.6594C4.44848 18.4753 4.14366 18.3738 3.82966 18.3686C3.42338 18.3686 3.03375 18.5298 2.74647 18.8169C2.45919 19.104 2.29779 19.4933 2.29779 19.8993C2.29779 20.3053 2.45919 20.6946 2.74647 20.9817C3.03375 21.2687 3.42338 21.43 3.82966 21.43C4.21073 21.4319 4.57884 21.2918 4.8621 21.0371C5.14535 20.7823 5.32342 20.4312 5.36152 20.0524L16.7433 13.4856C17.0019 13.6727 17.3125 13.7744 17.6317 13.7764C18.038 13.7764 18.4277 13.6152 18.7149 13.3281C19.0022 13.041 19.1636 12.6517 19.1636 12.2457C19.1636 11.8397 19.0022 11.4504 18.7149 11.1633C18.4277 10.8763 18.038 10.715 17.6317 10.715" fill="#26272A"/>
</svg>
