<svg width="22" height="22" viewBox="0 0 22 22" fill="none" xmlns="http://www.w3.org/2000/svg">
<path d="M11.2553 0C9.13445 0 7.06126 0.628432 5.29787 1.80581C3.53447 2.98319 2.16008 4.65664 1.34847 6.61455C0.536873 8.57246 0.324521 10.7269 0.738272 12.8054C1.15202 14.8839 2.17329 16.7932 3.67294 18.2917C5.17258 19.7902 7.08324 20.8107 9.16331 21.2241C11.2434 21.6376 13.3994 21.4254 15.3588 20.6144C17.3182 19.8034 18.9929 18.43 20.1712 16.6679C21.3494 14.9059 21.9783 12.8342 21.9783 10.715C21.9783 7.87321 20.8486 5.1478 18.8376 3.13835C16.8266 1.12889 14.0992 0 11.2553 0ZM2.06409 10.715C2.04875 10.4652 2.04875 10.2147 2.06409 9.96495L5.12782 11.4957L5.21973 11.4038L5.12782 12.0926V13.7764L6.65968 16.0725L6.09289 18.3686C4.84408 17.5215 3.82326 16.3801 3.12061 15.0453C2.41796 13.7104 2.0551 12.2232 2.06409 10.715ZM11.2553 19.8993C9.95366 19.9034 8.6671 19.6212 7.48689 19.0727L9.72341 16.8379L9.50895 16.2409L11.0408 15.5368L11.2553 13.0111L9.18726 12.1386L8.95748 11.4804L7.42561 10.715H5.89375L2.83003 9.07713L3.59596 7.65358L5.48015 8.61794L5.67929 7.30152V5.9851L6.38395 4.97483L6.85882 5.83202L8.11495 4.92891L7.56348 4.30131L8.57451 3.82679L7.90049 2.80121L8.03836 2.1124L8.54387 1.92869L9.72341 3.06143H10.4893L9.72341 2.29607L11.2553 1.53072C12.355 1.53214 13.4452 1.73446 14.4722 2.12769L15.0849 4.59215L16.433 4.30131L16.5862 3.24511C16.8466 3.4288 17.0917 3.64309 17.3368 3.84209L16.433 4.30131L15.8509 4.59215V5.3575H15.0849V6.12286H15.8509L16.6168 5.3575H17.3827L19.0831 5.92386C19.2776 6.23888 19.4516 6.56611 19.6039 6.90352L18.9605 7.5005L17.5053 7.40866L17.3827 6.33716L15.8509 6.88822L15.0849 7.65358L13.5531 8.41894V9.94965L15.0849 11.4804H16.6168L17.3827 12.2457L18.1487 13.0111V15.3072L18.6082 16.2103C17.7537 17.3537 16.6442 18.2825 15.3679 18.9228C14.0916 19.5632 12.6835 19.8975 11.2553 19.8993Z" fill="#26272A"/>
</svg>
