<svg width="19" height="22" viewBox="0 0 19 22" fill="none" xmlns="http://www.w3.org/2000/svg">
<path d="M17.2004 20H1.81581V1.53846H17.2004V20ZM18.7389 0H0.277344V21.5385H18.7389V0ZM9.50811 4.61539H11.0466V6.15385H9.50811V4.61539ZM7.96965 6.15385H9.50811V7.69232H7.96965V6.15385ZM11.0466 11.2V9.23078H7.96965V11.2C7.50461 11.4685 7.11793 11.854 6.84803 12.3182C6.57814 12.7824 6.43443 13.3092 6.43119 13.8462C6.42794 14.3871 6.56732 14.9192 6.8353 15.3891C7.10328 15.8589 7.49038 16.2498 7.95758 16.5224C8.42478 16.7949 8.95558 16.9396 9.49647 16.9416C10.0374 16.9436 10.5692 16.803 11.0385 16.534C11.5077 16.265 11.8977 15.877 12.1693 15.4092C12.4408 14.9414 12.5842 14.4103 12.585 13.8694C12.5858 13.3285 12.444 12.7969 12.1739 12.3283C11.9038 11.8596 11.515 11.4705 11.0466 11.2ZM9.50811 15.3846C9.20383 15.3846 8.90639 15.2944 8.65339 15.1254C8.40039 14.9563 8.2032 14.716 8.08676 14.4349C7.97032 14.1538 7.93985 13.8444 7.99921 13.546C8.05858 13.2476 8.2051 12.9735 8.42026 12.7583C8.63541 12.5432 8.90954 12.3966 9.20798 12.3373C9.50641 12.2779 9.81574 12.3084 10.0969 12.4248C10.378 12.5412 10.6182 12.7384 10.7873 12.9914C10.9563 13.2444 11.0466 13.5419 11.0466 13.8462C11.0466 14.2542 10.8845 14.6455 10.596 14.934C10.3075 15.2225 9.91614 15.3846 9.50811 15.3846ZM9.50811 1.53846H11.0466V3.07693H9.50811V1.53846ZM7.96965 3.07693H9.50811V4.61539H7.96965V3.07693ZM9.50811 7.69232H11.0466V9.23078H9.50811V7.69232Z" fill="#26262A"/>
</svg>
