<svg width="20" height="20" viewBox="0 0 20 20" fill="none" xmlns="http://www.w3.org/2000/svg">
<path d="M11.0952 12.4598C11.5245 12.0284 11.7649 11.4442 11.7635 10.8356C11.7621 10.227 11.5189 9.64385 11.0876 9.21451C10.6562 8.78518 10.072 8.54478 9.46336 8.54621C8.85475 8.54764 8.27164 8.7908 7.84231 9.22216C7.50894 9.55612 7.28846 9.98603 7.21178 10.4516C7.13509 10.9172 7.20605 11.3951 7.41469 11.8184L0.389648 18.8434L1.45868 19.9277L8.48372 12.9027C8.91224 13.1039 9.39206 13.1694 9.85883 13.0903C10.3256 13.0111 10.757 12.7911 11.0952 12.4598ZM8.92661 10.3064C8.99759 10.2349 9.08205 10.1781 9.1751 10.1393C9.26815 10.1005 9.36795 10.0806 9.46876 10.0806C9.56956 10.0806 9.66936 10.1005 9.76242 10.1393C9.85547 10.1781 9.93992 10.2349 10.0109 10.3064C10.1508 10.4492 10.2292 10.6411 10.2292 10.841C10.2292 11.0408 10.1508 11.2327 10.0109 11.3755C9.93992 11.447 9.85547 11.5039 9.76242 11.5426C9.66936 11.5814 9.56956 11.6013 9.46876 11.6013C9.36795 11.6013 9.26815 11.5814 9.1751 11.5426C9.08205 11.5039 8.99759 11.447 8.92661 11.3755C8.7867 11.2327 8.70833 11.0408 8.70833 10.841C8.70833 10.6411 8.7867 10.4492 8.92661 10.3064ZM19.6169 1.75423L13.722 7.66442C14.3147 8.45713 14.675 9.39924 14.7625 10.3852C14.85 11.3711 14.6612 12.362 14.2173 13.2466C13.7733 14.1313 13.0918 14.8749 12.2491 15.3941C11.4063 15.9133 10.4357 16.1875 9.44585 16.1861V14.6589C10.201 14.6589 10.9391 14.435 11.567 14.0155C12.1949 13.596 12.6842 12.9997 12.9732 12.302C13.2622 11.6044 13.3378 10.8367 13.1904 10.0961C13.0431 9.3555 12.6795 8.6752 12.1456 8.14125C11.6116 7.6073 10.9313 7.24368 10.1907 7.09637C9.45008 6.94905 8.68242 7.02465 7.98478 7.31362C7.28714 7.60259 6.69085 8.09196 6.27133 8.71982C5.85181 9.34768 5.62789 10.0858 5.62789 10.841H4.1007C4.09999 9.84985 4.37565 8.87816 4.89671 8.03506C5.41777 7.19196 6.1636 6.51085 7.0504 6.06824C7.9372 5.62563 8.92985 5.43908 9.91684 5.5295C10.9038 5.61992 11.846 5.98374 12.6377 6.58011L18.5326 0.669922L19.6169 1.75423Z" fill="#26272A"/>
</svg>
