<?xml version="1.0" encoding="utf-8"?>
<!-- Generator: Adobe Illustrator 21.1.0, SVG Export Plug-In . SVG Version: 6.00 Build 0)  -->
<svg version="1.1" id="Слой_1" xmlns="http://www.w3.org/2000/svg" xmlns:xlink="http://www.w3.org/1999/xlink" x="0px" y="0px"
	 viewBox="0 0 32 32" style="enable-background:new 0 0 32 32;" xml:space="preserve">
<path d="M16,0L2,8v14v2l14,8l14-8v-2V8L16,0z M26.9,8.6l-2.7,2l-4.7-6.3L26.9,8.6z M22.8,12H16H9.2L16,3L22.8,12z M11.7,14H16h4.3
	L16,20.4L11.7,14z M12.5,4.3l-4.7,6.3l-2.7-2L12.5,4.3z M4,10.3l2.8,2.1L4,19.6V10.3z M16,29.7V24h10L16,29.7z M17.3,22l6-9l3.5,9
	H17.3z M28,19.6l-2.8-7.2l2.8-2.1V19.6z"/>
</svg>
