<?xml version="1.0" encoding="utf-8"?>
<!-- Generator: Adobe Illustrator 21.1.0, SVG Export Plug-In . SVG Version: 6.00 Build 0)  -->
<svg version="1.1" id="Слой_1" xmlns="http://www.w3.org/2000/svg" xmlns:xlink="http://www.w3.org/1999/xlink" x="0px" y="0px"
	 viewBox="0 0 32 32" style="enable-background:new 0 0 32 32;" xml:space="preserve">
<circle cx="11" cy="19" r="3"/>
<circle cx="9" cy="11" r="3"/>
<circle cx="17" cy="9" r="3"/>
<path d="M25,14l-0.293,0.293l-2.414,2.414L14,25v5h5l8.293-8.293l2.414-2.414L30,19L25,14L25,14z M16,28v-2.172l7.707-7.707
	l2.172,2.172L18.172,28H16L16,28z"/>
<path d="M16.9,16.8c-1.168,1.168-1.608,2.819-1.903,4.375l6.401-6.401C19.806,15.07,18.099,15.509,16.9,16.8z"/>
<path d="M12.334,23.838C7.585,23.008,4,18.907,4,14C4,8.5,8.5,4,14,4c4.928,0,9.043,3.616,9.847,8.324l1.667-1.667
	C24.056,5.672,19.44,2,14,2C7.4,2,2,7.4,2,14c0,5.44,3.672,10.057,8.658,11.514L12.334,23.838z"/>
</svg>
