<?xml version="1.0" encoding="utf-8"?>
<!-- Generator: Adobe Illustrator 21.1.0, SVG Export Plug-In . SVG Version: 6.00 Build 0)  -->
<svg version="1.1" id="Слой_1" xmlns="http://www.w3.org/2000/svg" xmlns:xlink="http://www.w3.org/1999/xlink" x="0px" y="0px"
	 viewBox="0 0 32 32" style="enable-background:new 0 0 32 32;" xml:space="preserve">
<style type="text/css">
	.st0{fill-rule:evenodd;clip-rule:evenodd;}
</style>
<path class="st0" d="M23.723,18.923l-5.819-1.558C17.965,16.923,18,16.473,18,16.013c0-0.459-0.035-0.909-0.096-1.351l5.819-1.558
	C23.899,14.049,24,15.018,24,16.013C24,17.009,23.899,17.98,23.723,18.923L23.723,18.923z M16.783,11.23l4.347-4.347
	c0.905,1.299,1.624,2.738,2.116,4.278l-5.819,1.559C17.247,12.206,17.04,11.703,16.783,11.23L16.783,11.23z M16.783,20.796
	c0.257-0.473,0.464-0.975,0.644-1.49l5.819,1.559c-0.492,1.539-1.211,2.979-2.116,4.278L16.783,20.796L16.783,20.796z M16,16.013
	c0,2.128-0.747,4.077-1.983,5.618L23,30.6L21.6,32L7,17.4l-1.614,1.626L4,17.6L5.6,16L4,14.4l1.386-1.399L7,14.6L21.6,0L23,1.4
	l-8.983,8.995C15.253,11.936,16,13.885,16,16.013L16,16.013z M12.59,11.822L8.4,16l4.19,4.205C13.471,19.037,14,17.59,14,16.013
	C14,14.437,13.471,12.99,12.59,11.822L12.59,11.822z M10.732,1.8L16.374,0c0.174,0.507,0.373,1.265,0.624,1.73L12.75,6
	C11.873,4.718,11.208,3.318,10.732,1.8L10.732,1.8z M16.374,32l-5.999-1.625c0.476-1.518,1.498-3.094,2.375-4.375L17,30.3
	C17,30.3,16.549,31.493,16.374,32z"/>
</svg>
