<?xml version="1.0" encoding="utf-8"?>
<!-- Generator: Adobe Illustrator 21.1.0, SVG Export Plug-In . SVG Version: 6.00 Build 0)  -->
<svg version="1.1" id="Слой_1" xmlns="http://www.w3.org/2000/svg" xmlns:xlink="http://www.w3.org/1999/xlink" x="0px" y="0px"
	 viewBox="0 0 32 32" style="enable-background:new 0 0 32 32;" xml:space="preserve">
<g>
	<circle cx="16" cy="16" r="2"/>
	<path d="M30,16c0-2-2.2-3.7-5.7-4.8c0.8-3.5,0.4-6.3-1.3-7.3c-0.4-0.2-0.9-0.4-1.5-0.4C20,3.5,18,4.6,16,6.4c-2-1.8-4-2.9-5.5-2.9
		c-0.5,0-1,0.1-1.5,0.4c-1.7,1-2.1,3.8-1.3,7.3C4.2,12.3,2,14,2,16s2.2,3.7,5.7,4.8c-0.8,3.5-0.4,6.3,1.3,7.3
		c0.4,0.2,0.9,0.4,1.5,0.4c1.6,0,3.6-1.1,5.5-2.9c2,1.8,4,2.9,5.5,2.9c0.5,0,1-0.1,1.5-0.4c1.7-1,2.1-3.8,1.3-7.3
		C27.8,19.7,30,18,30,16z M22,5.6c0.5,0.3,0.9,1.6,0.6,3.7c-0.1,0.4-0.1,0.9-0.2,1.4c-1-0.2-2-0.4-3-0.5c-0.6-0.9-1.3-1.7-2-2.4
		c1.6-1.5,3.1-2.3,4.1-2.3C21.7,5.5,21.9,5.5,22,5.6z M21.5,18.4c0.1,0.3,0.2,0.7,0.3,1c-0.3,0.1-0.7,0.1-1,0.2
		c0.1-0.2,0.2-0.4,0.4-0.6C21.3,18.8,21.4,18.6,21.5,18.4z M19.5,18c-0.4,0.7-0.8,1.3-1.2,1.9C17.5,20,16.8,20,16,20s-1.5,0-2.3-0.1
		c-0.4-0.6-0.8-1.2-1.2-1.9c-0.4-0.7-0.7-1.3-1.1-2c0.3-0.7,0.7-1.3,1.1-2c0.4-0.7,0.8-1.3,1.2-1.9C14.5,12,15.2,12,16,12
		s1.5,0,2.3,0.1c0.4,0.6,0.8,1.2,1.2,1.9c0.4,0.7,0.7,1.3,1.1,2C20.2,16.7,19.8,17.3,19.5,18z M16,22.8c-0.2-0.3-0.5-0.5-0.7-0.8
		c0.2,0,0.5,0,0.7,0s0.5,0,0.7,0C16.5,22.3,16.2,22.5,16,22.8z M10.8,19c0.1,0.2,0.2,0.4,0.4,0.6c-0.4-0.1-0.7-0.1-1-0.2
		c0.1-0.3,0.2-0.7,0.3-1C10.6,18.6,10.7,18.8,10.8,19z M10.5,13.6c-0.1-0.3-0.2-0.7-0.3-1c0.3-0.1,0.7-0.1,1-0.2
		c-0.1,0.2-0.2,0.4-0.4,0.6C10.7,13.2,10.6,13.4,10.5,13.6z M16,9.2c0.2,0.3,0.5,0.5,0.7,0.8c-0.2,0-0.5,0-0.7,0s-0.5,0-0.7,0
		C15.5,9.7,15.8,9.5,16,9.2z M21.2,13c-0.1-0.2-0.2-0.4-0.4-0.6c0.4,0.1,0.7,0.1,1,0.2c-0.1,0.3-0.2,0.7-0.3,1
		C21.4,13.4,21.3,13.2,21.2,13z M9.4,9.3C9.1,7.2,9.5,5.9,10,5.6c0.1-0.1,0.3-0.1,0.5-0.1c1,0,2.5,0.8,4.1,2.3
		c-0.7,0.7-1.3,1.5-2,2.4c-1.1,0.1-2.1,0.3-3,0.5C9.5,10.2,9.4,9.7,9.4,9.3z M4,16c0-0.8,1.5-2,4.2-2.9C8.5,14.1,8.8,15,9.3,16
		c-0.4,1-0.8,1.9-1.1,2.9C5.5,18,4,16.8,4,16z M10,26.4c-0.5-0.3-0.9-1.6-0.6-3.7c0.1-0.4,0.1-0.9,0.2-1.4c1,0.2,2,0.4,3,0.5
		c0.6,0.9,1.3,1.7,2,2.4c-1.6,1.5-3.1,2.3-4.1,2.3C10.3,26.5,10.1,26.5,10,26.4z M22.6,22.7c0.3,2.1-0.2,3.4-0.6,3.7
		c-0.1,0.1-0.3,0.1-0.5,0.1c-1,0-2.5-0.8-4.1-2.3c0.7-0.7,1.3-1.5,2-2.4c1.1-0.1,2.1-0.3,3-0.5C22.5,21.8,22.6,22.3,22.6,22.7z
		 M23.8,18.9c-0.3-0.9-0.7-1.9-1.1-2.9c0.4-1,0.8-1.9,1.1-2.9C26.5,14,28,15.2,28,16S26.5,18,23.8,18.9z"/>
</g>
</svg>
