<?xml version="1.0" encoding="utf-8"?>
<!-- Generator: Adobe Illustrator 21.1.0, SVG Export Plug-In . SVG Version: 6.00 Build 0)  -->
<svg version="1.1" id="Слой_1" xmlns="http://www.w3.org/2000/svg" xmlns:xlink="http://www.w3.org/1999/xlink" x="0px" y="0px"
	 viewBox="0 0 32 32" style="enable-background:new 0 0 32 32;" xml:space="preserve">
<g>
	<polygon points="30,16.586 30,13.8 29.52,13.512 25.17,20.659 26.36,22.614 	"/>
	<path d="M29,26c-0.914,0-1.723,0.418-2.273,1.063L18.48,13.512L18,13.8v2.786l4.806,7.959l-1.533,2.518
		C20.723,26.418,19.914,26,19,26c-1.657,0-3,1.343-3,3s1.343,3,3,3c0.913,0,1.721-0.417,2.271-1.06
		c0.037-0.041,0.31-0.409,0.327-0.44L24,26.522l2.402,3.978c0.018,0.031,0.29,0.399,0.327,0.44C27.279,31.583,28.087,32,29,32
		c1.657,0,3-1.343,3-3S30.657,26,29,26z M19,30c-0.552,0-1-0.448-1-1s0.448-1,1-1s1,0.448,1,1S19.552,30,19,30z M29,30
		c-0.552,0-1-0.448-1-1s0.448-1,1-1s1,0.448,1,1S29.552,30,29,30z"/>
</g>
<path d="M6,0H0v14v14h14.101c0.465-2.279,2.484-4,4.899-4c0.421,0,0.835,0.054,1.235,0.157l-3.727-6.173l-0.002,0.003l0.001-0.002
	L16,17.143v-2.384l-3.271,5.946l1.183-7.096l4.145-2.59l1.791,0.893l0.001-0.002l-0.001,0.002L22,15.448V0H6z M6.311,4.352
	L11.178,12H3.033L6.311,4.352z M10.196,23.74L2.543,14h9.276L10.196,23.74z M13.311,11.626l-5.352-8.41L18.408,8.44L13.311,11.626z"
	/>
</svg>
