<?xml version="1.0" encoding="utf-8"?>
<!-- Generator: Adobe Illustrator 21.1.0, SVG Export Plug-In . SVG Version: 6.00 Build 0)  -->
<svg version="1.1" id="Слой_1" xmlns="http://www.w3.org/2000/svg" xmlns:xlink="http://www.w3.org/1999/xlink" x="0px" y="0px"
	 viewBox="0 0 32 32" style="enable-background:new 0 0 32 32;" xml:space="preserve">
<path d="M23.59,4.73l-1.57,10.987l-0.06,0.422l0.117,0.41l3.099,10.846L9.67,24.294L6.366,9.428L23.59,4.73 M26,2L4,8l4,18l20,4
	l-4-14L26,2L26,2z"/>
<path d="M19.984,16.864c-0.182-1.182-0.523-3.2-0.773-4.668l-0.229-1.356C18.591,8.493,17.142,8,15.995,8s-2.596,0.493-2.986,2.841
	l-0.229,1.356c-0.249,1.468-0.591,3.486-0.773,4.668c-0.14,0.912-1.186,1.168-1.221,1.177L11.205,20
	c0.9-0.193,2.499-1.007,2.779-2.83c0.181-1.175,0.521-3.179,0.768-4.638l0.23-1.361c0.181-1.086,0.519-1.167,1.014-1.167
	s0.833,0.081,1.014,1.167l0.229,1.361c0.248,1.458,0.588,3.463,0.769,4.638c0.28,1.824,1.879,2.638,2.778,2.83l0.429-1.957
	C21.17,18.032,20.123,17.776,19.984,16.864z"/>
<rect x="11" y="22" width="10" height="2"/>
</svg>
