<?xml version="1.0" encoding="utf-8"?>
<!-- Generator: Adobe Illustrator 21.1.0, SVG Export Plug-In . SVG Version: 6.00 Build 0)  -->
<svg version="1.1" id="Слой_1" xmlns="http://www.w3.org/2000/svg" xmlns:xlink="http://www.w3.org/1999/xlink" x="0px" y="0px"
	 viewBox="0 0 32 32" style="enable-background:new 0 0 32 32;" xml:space="preserve">
<path d="M8.304,6.286C8.299,6.29,8.294,6.294,8.289,6.298C8.286,6.302,8.282,6.304,8.279,6.308c-0.001,0.001,0.001,0.005,0,0.006
	C8.108,6.493,8,6.733,8,7c0,0.552,0.448,1,1,1c0.252,0,0.475-0.102,0.651-0.255c0,0.002,0,0.014,0,0.013
	c4.138-4.138,13.206-3.745,13.296-3.741l0.105-1.997C22.649,1.998,13.073,1.551,8.304,6.286z"/>
<path d="M15.237,6.949C14.56,7.15,13.905,7.393,13.293,7.68c2.2,2.972,5.673,7.85,9.132,12.764C15.084,15.277,7.8,10.062,6.879,9.14
	c-1.17-1.17-1.17-3.073,0-4.243C7.445,4.331,8.199,4.019,9,4.019s1.555,0.312,2.121,0.879c0.106,0.106,0.274,0.305,0.487,0.569
	l1.993-0.692c-0.487-0.629-0.859-1.084-1.066-1.291C11.559,2.507,10.28,2.019,9,2.019S6.441,2.507,5.464,3.483
	c-1.953,1.953-1.953,5.118,0,7.071c1.953,1.953,25.071,18,25.071,18S20.369,13.909,15.237,6.949z"/>
<path d="M7.578,14.736c0.142,0.67,0.293,1.349,0.452,2.039c0.886,3.855,1.801,7.841,0.241,9.798C7.497,27.546,6.1,28.019,4,28.019v2
	c2.748,0,4.657-0.72,5.835-2.199c2.127-2.67,1.165-7.039,0.189-11.293C9.141,15.886,8.317,15.284,7.578,14.736z"/>
</svg>
