<?xml version="1.0" encoding="utf-8"?>
<!-- Generator: Adobe Illustrator 21.1.0, SVG Export Plug-In . SVG Version: 6.00 Build 0)  -->
<svg version="1.1" id="Слой_1" xmlns="http://www.w3.org/2000/svg" xmlns:xlink="http://www.w3.org/1999/xlink" x="0px" y="0px"
	 viewBox="0 0 32 32" style="enable-background:new 0 0 32 32;" xml:space="preserve">
<g>
	<path d="M28,6v20H4V6H28 M30,4H2v24h28V4L30,4z"/>
</g>
<g>
	<path d="M12.672,11.008l-1.109-1.664c-0.878,0.586-1.632,1.341-2.219,2.219l1.664,1.109C11.448,12.014,12.014,11.448,12.672,11.008
		z"/>
	<path d="M20.992,12.672l1.664-1.109c-0.586-0.878-1.341-1.632-2.219-2.219l-1.109,1.664C19.986,11.448,20.552,12.014,20.992,12.672
		z"/>
	<path d="M16,10c0.403,0,0.796,0.041,1.177,0.117l0.392-1.961C17.061,8.055,16.537,8,16,8s-1.061,0.055-1.569,0.156l0.392,1.961
		C15.204,10.041,15.597,10,16,10z"/>
	<path d="M10,16c0-0.403,0.041-0.796,0.117-1.177l-1.961-0.392C8.055,14.939,8,15.463,8,16s0.055,1.061,0.156,1.569l1.961-0.392
		C10.041,16.796,10,16.403,10,16z"/>
	<path d="M19.328,20.992l1.109,1.664c0.878-0.586,1.632-1.341,2.219-2.219l-1.664-1.109C20.552,19.986,19.986,20.552,19.328,20.992z
		"/>
	<path d="M23.844,14.431l-1.961,0.392C21.959,15.204,22,15.597,22,16s-0.041,0.796-0.117,1.177l1.961,0.392
		C23.945,17.061,24,16.537,24,16S23.945,14.939,23.844,14.431z"/>
	<path d="M11.008,19.328l-1.664,1.109c0.586,0.878,1.341,1.632,2.219,2.219l1.109-1.664C12.014,20.552,11.448,19.986,11.008,19.328z
		"/>
	<path d="M16,22c-0.403,0-0.796-0.041-1.177-0.117l-0.392,1.961C14.939,23.945,15.463,24,16,24s1.061-0.055,1.569-0.156
		l-0.392-1.961C16.796,21.959,16.403,22,16,22z"/>
</g>
</svg>
