<?xml version="1.0" encoding="utf-8"?>
<!-- Generator: Adobe Illustrator 21.1.0, SVG Export Plug-In . SVG Version: 6.00 Build 0)  -->
<svg version="1.1" id="Слой_1" xmlns="http://www.w3.org/2000/svg" xmlns:xlink="http://www.w3.org/1999/xlink" x="0px" y="0px"
	 viewBox="0 0 32 32" style="enable-background:new 0 0 32 32;" xml:space="preserve">
<path id="icon" d="M22.037,23.451C20.13,25.041,17.679,26,15,26C8.926,26,4,21.076,4,15C4,8.926,8.926,4,15,4
	c6.076,0,11,4.926,11,11c0,2.679-0.959,5.13-2.549,7.038C27.147,25.732,28,26.6,28,26.6L26.6,28
	C26.6,28,25.732,27.147,22.037,23.451z M24,14.999C24,10.029,19.971,6,15,6s-9,4.029-9,9s4.029,9,9,9S24,19.97,24,14.999L24,14.999z
	"/>
<polygon points="20,14 16,14 16,10 14,10 14,14 10,14 10,16 14,16 14,20 16,20 16,16 20,16 "/>
</svg>
