<?xml version="1.0" encoding="utf-8"?>
<!-- Generator: Adobe Illustrator 21.1.0, SVG Export Plug-In . SVG Version: 6.00 Build 0)  -->
<svg version="1.1" id="Слой_1" xmlns="http://www.w3.org/2000/svg" xmlns:xlink="http://www.w3.org/1999/xlink" x="0px" y="0px"
	 viewBox="0 0 32 32" style="enable-background:new 0 0 32 32;" xml:space="preserve">
<circle cx="16" cy="16" r="2"/>
<path d="M16,2C8.3,2,2,8.3,2,16h6c0-4.4,3.6-8,8-8s8,3.6,8,8h6C30,8.3,23.7,2,16,2z M25.8,14c-0.9-4.6-5-8-9.8-8s-8.9,3.4-9.8,8h-2
	C5.1,8.3,10.1,4,16,4s10.9,4.3,11.8,10H25.8z"/>
<path d="M23.7,18c-0.9,3.4-4,6-7.7,6s-6.8-2.6-7.7-6H2.2c1,6.8,6.8,12,13.8,12s12.9-5.2,13.8-12H23.7z"/>
</svg>
