<?xml version="1.0" encoding="utf-8"?>
<!-- Generator: Adobe Illustrator 21.1.0, SVG Export Plug-In . SVG Version: 6.00 Build 0)  -->
<svg version="1.1" id="Слой_1" xmlns="http://www.w3.org/2000/svg" xmlns:xlink="http://www.w3.org/1999/xlink" x="0px" y="0px"
	 viewBox="0 0 32 32" style="enable-background:new 0 0 32 32;" xml:space="preserve">
<path d="M6,2v28h20V2H6z M24,28H8V4h16V28z"/>
<polygon points="22,14 22,10 18,10 19.3,11.3 16,14.6 12.7,11.3 14,10 10,10 10,14 11.3,12.7 14.6,16 11.3,19.3 10,18 10,22 14,22 
	12.7,20.7 16,17.4 19.3,20.7 18,22 22,22 22,18 20.7,19.3 17.4,16 20.7,12.7 "/>
</svg>
