<?xml version="1.0" encoding="utf-8"?>
<!-- Generator: Adobe Illustrator 21.1.0, SVG Export Plug-In . SVG Version: 6.00 Build 0)  -->
<svg version="1.1" id="Слой_1" xmlns="http://www.w3.org/2000/svg" xmlns:xlink="http://www.w3.org/1999/xlink" x="0px" y="0px"
	 viewBox="0 0 32 32" style="enable-background:new 0 0 32 32;" xml:space="preserve">
<path d="M30,12V2H2v10l10.4,8H2v10h28V20v0h0l-11.1-8H30z M4,4h2v4h2V4h4v2h2V4h4v4h2V4h4v2h2V4h2v6H4V4z M4,28v-6h2v4h2v-4h4v2h2
	v-2h1.1l7.8,6H4z M15,14l1.1-1.6l3.2,2.3L17,18l1.6,1.2l2.3-3.3l3.2,2.3L23,19.8l1.6,1.2l1.1-1.6l2.3,1.6V28h-1.9L5.3,12H14
	l-0.6,0.9L15,14z"/>
</svg>
