<?xml version="1.0" encoding="utf-8"?>
<!-- Generator: Adobe Illustrator 21.1.0, SVG Export Plug-In . SVG Version: 6.00 Build 0)  -->
<svg version="1.1" id="Слой_1" xmlns="http://www.w3.org/2000/svg" xmlns:xlink="http://www.w3.org/1999/xlink" x="0px" y="0px"
	 viewBox="0 0 32 32" style="enable-background:new 0 0 32 32;" xml:space="preserve">
<polygon points="30,24 26,24 26,20 24,20 24,24 20,24 20,26 24,26 24,30 26,30 26,26 30,26 "/>
<g>
	<path d="M15,8c3.771,0,6.854,2.996,6.995,6.737c-0.327,0.113-0.891,0.22-1.294,0.297c-1.246,0.238-2.797,0.534-3.89,1.627
		c-1.115,1.115-1.446,2.695-1.713,3.965c-0.09,0.43-0.217,1.036-0.345,1.37C11.007,21.865,8,18.777,8,15C8,11.14,11.14,8,15,8 M15,6
		c-4.95,0-9,4.05-9,9s4.05,9,9,9c2.475,0,1.575-4.275,3.225-5.925C19.8,16.5,24,17.475,24,15C24,10.05,19.95,6,15,6L15,6z"/>
</g>
<circle cx="12" cy="18" r="2"/>
<circle cx="12" cy="12" r="2"/>
<circle cx="18" cy="12" r="2"/>
<path d="M4,15c0-0.77,0.081-1.521,0.231-2.246C4.085,12.193,4,11.607,4,11c0-3.86,3.14-7,7-7c0.607,0,1.193,0.085,1.754,0.231
	C13.48,4.08,14.23,4,15,4c0.625,0,1.233,0.064,1.829,0.164C15.255,2.819,13.22,2,11,2c-4.95,0-9,4.05-9,9
	c0,2.22,0.819,4.255,2.164,5.829C4.064,16.233,4,15.625,4,15z"/>
</svg>
