<?xml version="1.0" encoding="utf-8"?>
<!-- Generator: Adobe Illustrator 21.1.0, SVG Export Plug-In . SVG Version: 6.00 Build 0)  -->
<svg version="1.1" id="Слой_1" xmlns="http://www.w3.org/2000/svg" xmlns:xlink="http://www.w3.org/1999/xlink" x="0px" y="0px"
	 viewBox="0 0 32 32" style="enable-background:new 0 0 32 32;" xml:space="preserve">
<path d="M26,7l-3.3,3.3l0,0l0,0l-1.4,1.4l0,0L16,17v5h5l5.3-5.3l1.4-1.4L31,12L26,7z M20.2,20H18v-2.2l4.7-4.7l2.2,2.2L20.2,20z
	 M26.3,13.9l-2.2-2.2L26,9.8l2.2,2.2L26.3,13.9z"/>
<g>
	<path d="M28.5,6c0.5-1.2,1-2.6,1.5-4h-2.1c-0.5,1.4-1,2.8-1.6,4H28.5z"/>
	<path d="M14.8,24c-1.2,1.8-2.3,3.8-3.4,6h2.2c1.1-2.2,2.3-4.1,3.5-6H14.8z"/>
	<path d="M2,27.2c2.8-5.5,5.2-8.5,7.6-11.4C12.4,12.3,15.1,9,17.7,2h-2.1c-2.4,6.3-4.8,9.2-7.5,12.5C6.2,16.8,4.2,19.2,2,23V27.2z"
		/>
</g>
</svg>
