<?xml version="1.0" encoding="utf-8"?>
<!-- Generator: Adobe Illustrator 21.1.0, SVG Export Plug-In . SVG Version: 6.00 Build 0)  -->
<svg version="1.1" id="Слой_1" xmlns="http://www.w3.org/2000/svg" xmlns:xlink="http://www.w3.org/1999/xlink" x="0px" y="0px"
	 viewBox="0 0 32 32" style="enable-background:new 0 0 32 32;" xml:space="preserve">
<path id="icon" d="M9.908,29l-5.657-5.657l1.414-1.414c-4.327-4.327-3.974-11.583,0.354-15.91
	c4.327-4.327,11.348-4.334,15.676-0.006l1.648-1.762L29,9.908L9.908,29z M23.343,7.08l-1.414,1.414L20.515,7.08
	C16.976,3.541,10.98,3.888,7.44,7.427c-3.54,3.541-3.899,9.547-0.36,13.088l1.414,1.414L7.08,23.343l2.828,2.828L26.172,9.908
	L23.343,7.08z M10.299,10.286c1.967-1.967,5.155-1.967,7.123,0l1.424,1.424l-7.123,7.123l-1.424-1.424
	C8.331,15.442,8.331,12.253,10.299,10.286L10.299,10.286z M15.996,11.71c-1.179-1.179-3.093-1.179-4.273,0
	c-1.179,1.181-1.179,3.094,0,4.273L15.996,11.71L15.996,11.71z"/>
</svg>
