<?xml version="1.0" encoding="utf-8"?>
<!-- Generator: Adobe Illustrator 21.1.0, SVG Export Plug-In . SVG Version: 6.00 Build 0)  -->
<svg version="1.1" id="Слой_1" xmlns="http://www.w3.org/2000/svg" xmlns:xlink="http://www.w3.org/1999/xlink" x="0px" y="0px"
	 viewBox="0 0 32 32" style="enable-background:new 0 0 32 32;" xml:space="preserve">
<polygon points="30,24 26,24 26,20 24,20 24,24 20,24 20,26 24,26 24,30 26,30 26,26 30,26 "/>
<path d="M18,25.941C17.368,25.978,16.703,26,16,26c-5.979,0-9.412-1.475-10-2.169V20.21C8.149,21.288,11.824,22,16,22
	c2.19,0,4.234-0.2,6-0.541v-2.04C20.431,19.755,18.43,20,16,20c-5.979,0-9.412-1.475-10-2.169V14.21C8.149,15.288,11.824,16,16,16
	s7.851-0.712,10-1.79V16v1.831V18h2V6c0-2.209-5.373-4-12-4S4,3.791,4,6v18c0,2.209,5.373,4,12,4c0.683,0,1.348-0.023,2-0.06V25.941
	z M16,4c5.528,0,8.879,1.261,9.818,2C24.879,6.739,21.528,8,16,8S7.121,6.739,6.182,6C7.121,5.261,10.472,4,16,4z M6,8.209
	C8.149,9.288,11.824,10,16,10s7.851-0.712,10-1.791v3.622C25.412,12.525,21.979,14,16,14s-9.412-1.475-10-2.169V8.209z"/>
</svg>
