<?xml version="1.0" encoding="utf-8"?>
<!-- Generator: Adobe Illustrator 21.1.0, SVG Export Plug-In . SVG Version: 6.00 Build 0)  -->
<svg version="1.1" id="Слой_1" xmlns="http://www.w3.org/2000/svg" xmlns:xlink="http://www.w3.org/1999/xlink" x="0px" y="0px"
	 viewBox="0 0 32 32" style="enable-background:new 0 0 32 32;" xml:space="preserve">
<path d="M28,12c2.209,0,4-1.791,4-4c0-2.209-1.791-4-4-4h-8.672l2,2H28c1.105,0,2,0.895,2,2c0,1.105-0.895,2-2,2H16
	c-1.105,0-2,0.895-2,2c0,1.105,0.895,2,2,2s2-0.895,2-2h3.672l5.5,5.5L17.5,27.172L4.828,14.5L14.5,4.828L17.672,8H20.5l-6-6
	L8.363,8.137C7.922,8.049,7.467,8,7,8c-3.866,0-7,3.134-7,7v11h2v-7c0-1.219,0.729-2.259,1.774-2.726L17.5,30L30,17.5L24.5,12H28z"
	/>
</svg>
