<?xml version="1.0" encoding="utf-8"?>
<!-- Generator: Adobe Illustrator 21.1.0, SVG Export Plug-In . SVG Version: 6.00 Build 0)  -->
<svg version="1.1" id="Слой_1" xmlns="http://www.w3.org/2000/svg" xmlns:xlink="http://www.w3.org/1999/xlink" x="0px" y="0px"
	 viewBox="0 0 32 32" style="enable-background:new 0 0 32 32;" xml:space="preserve">
<path d="M16,2C8.268,2,2,8.268,2,16s6.268,14,14,14s14-6.268,14-14S23.732,2,16,2z M4,16c0-2.949,1.074-5.649,2.845-7.741
	l16.895,16.895C21.649,26.926,18.949,28,16,28C9.383,28,4,22.617,4,16z M25.155,23.741L8.259,6.845C10.351,5.074,13.051,4,16,4
	c6.617,0,12,5.383,12,12C28,18.949,26.926,21.649,25.155,23.741z"/>
</svg>
