<?xml version="1.0" encoding="utf-8"?>
<!-- Generator: Adobe Illustrator 21.1.0, SVG Export Plug-In . SVG Version: 6.00 Build 0)  -->
<svg version="1.1" id="Слой_1" xmlns="http://www.w3.org/2000/svg" xmlns:xlink="http://www.w3.org/1999/xlink" x="0px" y="0px"
	 viewBox="0 0 32 32" style="enable-background:new 0 0 32 32;" xml:space="preserve">
<path id="icon" d="M28.4,14.3L17,26h9v2H8.2l-5.6-5.8c-0.8-0.8-0.8-2.1,0-2.9L17.9,3.6c0.8-0.8,2-0.8,2.8,0l7.7,7.9
	C29.2,12.3,29.2,13.5,28.4,14.3L28.4,14.3z M11.6,12.9l-7,7.2c-0.4,0.4-0.4,1,0,1.4L9.1,26h5.2l5-5.2L11.6,12.9L11.6,12.9z M30,28
	h-2v-2h2V28L30,28z"/>
</svg>
