<?xml version="1.0" encoding="utf-8"?>
<!-- Generator: Adobe Illustrator 21.1.0, SVG Export Plug-In . SVG Version: 6.00 Build 0)  -->
<svg version="1.1" id="Слой_1" xmlns="http://www.w3.org/2000/svg" xmlns:xlink="http://www.w3.org/1999/xlink" x="0px" y="0px"
	 viewBox="0 0 32 32" style="enable-background:new 0 0 32 32;" xml:space="preserve">
<rect x="26" y="30" width="2" height="2"/>
<path d="M18,0C10.268,0,4,6.268,4,14v2L2.294,26.235L0,27v2l2.455,0.818L3,32h4l0.545-2.182L10,29c1.657,0,3,1.343,3,3h2
	c0-2.761-2.239-5-5-5l-2.294-0.765L6,16v-2C6,7.373,11.373,2,18,2s12,5.373,12,12c0,2.142-0.751,4.106-2,5.651
	c-0.266,0.328-0.558,0.634-0.866,0.922c-0.048,0.045-0.097,0.089-0.146,0.133c-0.312,0.279-0.639,0.543-0.988,0.777
	C24.57,22.44,22.851,23,21,23c-4.971,0-9-4.029-9-9c0-3.866,3.134-7,7-7s7,3.134,7,7v4.894c1.236-1.262,2-2.988,2-4.894
	c0-4.971-4.029-9-9-9s-9,4.029-9,9c0,6.075,4.925,11,11,11c1.802,0,3.499-0.442,5-1.21V28h2v-5.515c2.443-2.018,4-5.07,4-8.485
	C32,6.268,25.732,0,18,0z M7,28c0,1.105-0.895,2-2,2s-2-0.895-2-2c0-1.105,0.895-2,2-2S7,26.895,7,28z"/>
</svg>
