<?xml version="1.0" encoding="utf-8"?>
<!-- Generator: Adobe Illustrator 21.1.0, SVG Export Plug-In . SVG Version: 6.00 Build 0)  -->
<svg version="1.1" id="Слой_1" xmlns="http://www.w3.org/2000/svg" xmlns:xlink="http://www.w3.org/1999/xlink" x="0px" y="0px"
	 viewBox="0 0 32 32" style="enable-background:new 0 0 32 32;" xml:space="preserve">
<polygon points="8,26 8,6 24,6 24,16 26,16 26,4 6,4 6,28 14,28 14,26 "/>
<path d="M23,18c-4.971,0-9,5-9,5s4.029,5,9,5s9-5,9-5S27.971,18,23,18z M23,26c-2.53,0-4.872-1.745-6.229-3
	c0.798-0.738,1.94-1.636,3.255-2.258C20.019,20.828,20,20.911,20,21c0,1.657,1.343,3,3,3s3-1.343,3-3
	c0-0.089-0.019-0.172-0.026-0.258c1.316,0.622,2.458,1.521,3.255,2.258C27.871,24.256,25.53,26,23,26z"/>
</svg>
