<?xml version="1.0" encoding="utf-8"?>
<!-- Generator: Adobe Illustrator 21.1.0, SVG Export Plug-In . SVG Version: 6.00 Build 0)  -->
<svg version="1.1" id="Слой_1" xmlns="http://www.w3.org/2000/svg" xmlns:xlink="http://www.w3.org/1999/xlink" x="0px" y="0px"
	 viewBox="0 0 32 32" style="enable-background:new 0 0 32 32;" xml:space="preserve">
<g id="icon">
	<path d="M14,4c5.5,0,10,4.5,10,10c0,0,0,0,0,0.1c-0.3,0.3-1.5,0.5-2.2,0.6c-1.7,0.3-3.6,0.7-4.9,2.1c-1.3,1.3-1.7,3.2-2,4.9
		c-0.2,0.8-0.4,2.1-0.7,2.3c0,0,0,0-0.1,0C8.5,24,4,19.5,4,14C4,8.5,8.5,4,14,4 M14,2C7.4,2,2,7.4,2,14c0,6.6,5.4,12,12,12
		c3.3,0,2.1-5.7,4.3-7.9C20.4,16,26,17.3,26,14C26,7.4,20.6,2,14,2L14,2z"/>
</g>
<polygon points="30,24 26,24 26,20 24,20 24,24 20,24 20,26 24,26 24,30 26,30 26,26 30,26 "/>
<circle cx="11" cy="19" r="3"/>
<circle cx="9" cy="11" r="3"/>
<circle cx="17" cy="9" r="3"/>
</svg>
