<?xml version="1.0" encoding="utf-8"?>
<!-- Generator: Adobe Illustrator 21.1.0, SVG Export Plug-In . SVG Version: 6.00 Build 0)  -->
<svg version="1.1" id="Слой_1" xmlns="http://www.w3.org/2000/svg" xmlns:xlink="http://www.w3.org/1999/xlink" x="0px" y="0px"
	 viewBox="0 0 32 32" style="enable-background:new 0 0 32 32;" xml:space="preserve">
<path d="M24,5.6V2l-6,3.6V2l-6,3.6V2L2,8v22l6-3.6V30l6-3.6V30l6-3.6V30l10-6V2L24,5.6z M4,26.468V9.132l6-3.6V6.8L8,8v16.068
	L4,26.468z M10,26.468V25.2v-2.332V9.132l6-3.6V6.8L14,8v16.068L10,26.468z M16,26.468V25.2v-2.332V9.132l6-3.6V6.8L20,8v16.068
	L16,26.468z"/>
</svg>
