<?xml version="1.0" encoding="utf-8"?>
<!-- Generator: Adobe Illustrator 21.1.0, SVG Export Plug-In . SVG Version: 6.00 Build 0)  -->
<svg version="1.1" id="Слой_1" xmlns="http://www.w3.org/2000/svg" xmlns:xlink="http://www.w3.org/1999/xlink" x="0px" y="0px"
	 viewBox="0 0 32 32" style="enable-background:new 0 0 32 32;" xml:space="preserve">
<path d="M16,0L2,8v16l14,8l14-8V8L16,0z M28,14.3L24,12V6.9l4,2.3V14.3z M16,10.4l6-3.5v4.4l-6,3.5V10.4z M4,9.2l4-2.3V12l-4,2.3
	V9.2z M4,16.6l4-2.3v5.1l-4,2.3V16.6z M5,23.4l4-2.3l4.1,2.4l-4,2.3L5,23.4z M16,29.7l-4.9-2.8l4-2.3l4.9,2.8L16,29.7z M23,19.5
	l-6.1-2.9l5.4-3.1l5.6,3.2L23,19.5z"/>
</svg>
