<?xml version="1.0" encoding="utf-8"?>
<!-- Generator: Adobe Illustrator 21.1.0, SVG Export Plug-In . SVG Version: 6.00 Build 0)  -->
<svg version="1.1" id="Слой_1" xmlns="http://www.w3.org/2000/svg" xmlns:xlink="http://www.w3.org/1999/xlink" x="0px" y="0px"
	 viewBox="0 0 32 32" style="enable-background:new 0 0 32 32;" xml:space="preserve">
<polygon points="20,8 20,12 22,12 22,10 30,10 30,22 22,22 22,20 20,20 20,24 32,24 32,8 "/>
<polygon points="12,20 12,22 4,22 4,10 12,10 12,12 14,12 14,8 2,8 2,24 14,24 14,20 "/>
<polygon points="22,14 18,14 18,0 16,0 16,14 12,14 12,18 16,18 16,32 18,32 18,18 22,18 "/>
</svg>
