<?xml version="1.0" encoding="utf-8"?>
<!-- Generator: Adobe Illustrator 21.1.0, SVG Export Plug-In . SVG Version: 6.00 Build 0)  -->
<svg version="1.1" id="Слой_1" xmlns="http://www.w3.org/2000/svg" xmlns:xlink="http://www.w3.org/1999/xlink" x="0px" y="0px"
	 viewBox="0 0 32 32" style="enable-background:new 0 0 32 32;" xml:space="preserve">
<path id="icon" d="M3,29V3h26v26H3L3,29z M27,5H5v22h22V5L27,5z M19.6,14.5c-0.1,0.3-0.3,0.5-0.5,0.7c-0.2,0.2-0.4,0.4-0.7,0.7
	c-0.3,0.3-0.6,0.6-0.8,0.8c-0.2,0.2-0.2,0.5-0.2,0.8h-2.1c0-0.5,0.1-0.9,0.3-1.2c0.2-0.3,0.5-0.7,1-1.1c0.3-0.3,0.5-0.5,0.7-0.7
	c0.1-0.2,0.2-0.4,0.2-0.7c0-0.3-0.1-0.6-0.4-0.8c-0.3-0.2-0.6-0.3-1.1-0.3c-0.4,0-0.8,0.1-1.2,0.3c-0.3,0.2-0.6,0.4-0.9,0.8l-1.7-1
	c0.4-0.6,0.9-1.1,1.6-1.4c0.7-0.3,1.5-0.5,2.4-0.5c1.1,0,1.9,0.2,2.6,0.7c0.6,0.5,1,1.1,1,1.9C19.8,13.8,19.8,14.2,19.6,14.5
	L19.6,14.5z M16.4,18.4c0.4,0,0.7,0.1,1,0.4c0.3,0.2,0.4,0.5,0.4,0.9s-0.1,0.7-0.4,0.9c-0.3,0.2-0.6,0.4-1,0.4c-0.4,0-0.7-0.1-1-0.4
	c-0.3-0.2-0.4-0.5-0.4-0.9s0.1-0.7,0.4-0.9C15.7,18.5,16,18.4,16.4,18.4L16.4,18.4z"/>
</svg>
