<?xml version="1.0" encoding="utf-8"?>
<!-- Generator: Adobe Illustrator 21.1.0, SVG Export Plug-In . SVG Version: 6.00 Build 0)  -->
<svg version="1.1" id="Слой_1" xmlns="http://www.w3.org/2000/svg" xmlns:xlink="http://www.w3.org/1999/xlink" x="0px" y="0px"
	 viewBox="0 0 32 32" style="enable-background:new 0 0 32 32;" xml:space="preserve">
<path d="M17.414,25.899L27.314,16c2.343-2.343,2.343-6.142,0-8.485s-6.142-2.343-8.485,0l-9.899,9.899
	c-1.562,1.562-1.562,4.095,0,5.657c1.562,1.562,4.095,1.562,5.657,0L21.657,16l-1.414-1.414l-7.071,7.071
	c-0.78,0.78-2.049,0.78-2.828,0c-0.78-0.78-0.78-2.049,0-2.828l9.899-9.899c1.56-1.56,4.097-1.56,5.657,0
	c1.56,1.56,1.56,4.097,0,5.657L16,24.485c-2.339,2.339-6.146,2.339-8.485,0s-2.339-6.146,0-8.485l7.071-7.071l-1.414-1.414
	l-7.071,7.071c-3.124,3.124-3.124,8.19,0,11.314S14.29,29.024,17.414,25.899z"/>
</svg>
