<?xml version="1.0" encoding="UTF-8" standalone="no"?>
<!-- Generator: Adobe Illustrator 21.1.0, SVG Export Plug-In . SVG Version: 6.00 Build 0)  -->

<svg
   xmlns:dc="http://purl.org/dc/elements/1.1/"
   xmlns:cc="http://creativecommons.org/ns#"
   xmlns:rdf="http://www.w3.org/1999/02/22-rdf-syntax-ns#"
   xmlns:svg="http://www.w3.org/2000/svg"
   xmlns="http://www.w3.org/2000/svg"
   xmlns:sodipodi="http://sodipodi.sourceforge.net/DTD/sodipodi-0.dtd"
   xmlns:inkscape="http://www.inkscape.org/namespaces/inkscape"
   version="1.1"
   id="Слой_1"
   x="0px"
   y="0px"
   viewBox="0 0 32 32"
   style="enable-background:new 0 0 32 32;"
   xml:space="preserve"
   sodipodi:docname="show_labels.svg"
   inkscape:version="0.92.4 (5da689c313, 2019-01-14)"><metadata
   id="metadata48"><rdf:RDF><cc:Work
       rdf:about=""><dc:format>image/svg+xml</dc:format><dc:type
         rdf:resource="http://purl.org/dc/dcmitype/StillImage" /></cc:Work></rdf:RDF></metadata><defs
   id="defs46" /><sodipodi:namedview
   pagecolor="#ffffff"
   bordercolor="#666666"
   borderopacity="1"
   objecttolerance="10"
   gridtolerance="10"
   guidetolerance="10"
   inkscape:pageopacity="0"
   inkscape:pageshadow="2"
   inkscape:window-width="1920"
   inkscape:window-height="1057"
   id="namedview44"
   showgrid="false"
   inkscape:zoom="27.8125"
   inkscape:cx="16"
   inkscape:cy="16"
   inkscape:window-x="-8"
   inkscape:window-y="-8"
   inkscape:window-maximized="1"
   inkscape:current-layer="Слой_1" />
<style
   type="text/css"
   id="style30">
	.st0{display:none;}
</style>
<path
   id="icon"
   class="st0"
   d="M20,28v-8h8v8H20z M26,22h-4v4h4V22L26,22z M28,15v2h-2v-2H28z M24,8h4v2h-4V8L24,8z M28,4v2h-6V4H28  z M17,26v2h-2v-2H17z M17,4v2h-2V4H17z M4,26h8v2H4V26L4,26z M4,4h6v2H4V4L4,4z M4,17v-2h2v2H4z M4,24v-2l6,0.001v2L4,24L4,24z" />
<g
   id="g35">
	
</g>

<g
   id="g41">
	<path
   id="path39"
   d="m 18,14 h -4 -2 v 2 h 2 v 6 h -2 v 2 h 8 V 22 H 18 V 14 Z M 4,4 V 28 H 28 V 4 Z M 26,26 H 6 V 6 H 26 Z M 16,8 c -1.105,0 -2,0.895 -2,2 0,1.105 0.895,2 2,2 1.105,0 2,-0.895 2,-2 0,-1.105 -0.895,-2 -2,-2 z" />
</g>
</svg>