<?xml version="1.0" encoding="utf-8"?>
<!-- Generator: Adobe Illustrator 21.1.0, SVG Export Plug-In . SVG Version: 6.00 Build 0)  -->
<svg version="1.1" id="Слой_1" xmlns="http://www.w3.org/2000/svg" xmlns:xlink="http://www.w3.org/1999/xlink" x="0px" y="0px"
	 viewBox="0 0 32 32" style="enable-background:new 0 0 32 32;" xml:space="preserve">
<polygon points="23.071,20.243 18.828,16 23.071,11.757 20.243,8.929 16,13.172 11.757,8.929 8.929,11.757 13.172,16 8.929,20.243 
	11.757,23.071 16,18.828 20.243,23.071 "/>
<path d="M16,4c6.617,0,12,5.383,12,12s-5.383,12-12,12S4,22.617,4,16S9.383,4,16,4 M16,2C8.268,2,2,8.268,2,16s6.268,14,14,14
	s14-6.268,14-14S23.732,2,16,2L16,2z"/>
</svg>
