<?xml version="1.0" encoding="utf-8"?>
<!-- Generator: Adobe Illustrator 21.1.0, SVG Export Plug-In . SVG Version: 6.00 Build 0)  -->
<svg version="1.1" id="Слой_1" xmlns="http://www.w3.org/2000/svg" xmlns:xlink="http://www.w3.org/1999/xlink" x="0px" y="0px"
	 viewBox="0 0 32 32" style="enable-background:new 0 0 32 32;" xml:space="preserve">
<g>
	<path d="M13.613,23.638l0.597-1.91c-1.872-0.586-3.351-2.066-3.937-3.937l-1.91,0.597C9.142,20.885,11.115,22.858,13.613,23.638z"
		/>
	<path d="M18.387,8.362l-0.597,1.91c1.872,0.586,3.351,2.066,3.937,3.937l1.91-0.597C22.858,11.115,20.885,9.142,18.387,8.362z"/>
</g>
<g>
	<path d="M16,14c1.103,0,2,0.897,2,2s-0.897,2-2,2s-2-0.897-2-2S14.897,14,16,14 M16,12c-2.209,0-4,1.791-4,4s1.791,4,4,4
		s4-1.791,4-4S18.209,12,16,12L16,12z"/>
</g>
<path d="M27,15l-3.293,3.293l0,0l0,0l-1.414,1.414l0,0L17,25v5h5l5.293-5.293l1.414-1.414L32,20L27,15z M21.172,28H19v-2.172
	l4.707-4.707l2.172,2.172L21.172,28z M27.293,21.879l-2.172-2.172L27,17.828L29.172,20L27.293,21.879z"/>
<path d="M15,25.949C9.954,25.446,6,21.176,6,16c0-5.514,4.486-10,10-10c4.641,0,8.542,3.182,9.665,7.476l1.6-1.579
	C25.587,7.293,21.184,4,16,4C9.373,4,4,9.373,4,16c0,6.29,4.842,11.44,11,11.95V25.949z"/>
</svg>
