<?xml version="1.0" encoding="utf-8"?>
<!-- Generator: Adobe Illustrator 21.1.0, SVG Export Plug-In . SVG Version: 6.00 Build 0)  -->
<svg version="1.1" id="Слой_1" xmlns="http://www.w3.org/2000/svg" xmlns:xlink="http://www.w3.org/1999/xlink" x="0px" y="0px"
	 viewBox="0 0 32 32" style="enable-background:new 0 0 32 32;" xml:space="preserve">
<path d="M14,27.737C13.359,27.903,12.692,28,12,28c-4.411,0-8-3.589-8-8c0-2.082,0.806-3.975,2.115-5.4l-1.773-1.024
	C2.882,15.313,2,17.553,2,20c0,5.523,4.477,10,10,10c0.685,0,1.354-0.07,2-0.201V27.737z"/>
<g>
	<path d="M16,18l9.988-5.767C25.99,12.155,26,12.079,26,12c0-5.523-4.477-10-10-10S6,6.477,6,12c0,0.079,0.01,0.155,0.012,0.234
		L16,18z"/>
</g>
<path d="M30,20c0-2.447-0.882-4.687-2.341-6.425l-1.713,0.99L24,15.543v11.375c-0.619,0.359-1.29,0.635-2,0.819V16.846l-2,1.067V28
	c-0.692,0-1.359-0.097-2-0.263v-8.584l-2,1.158v8.851c0.635,0.278,1.305,0.489,2,0.632v0.005C18.646,29.93,19.315,30,20,30
	c2.246,0,4.312-0.75,5.982-2H26v-0.014C28.425,26.162,30,23.268,30,20z M26,14.737c1.238,1.409,2,3.245,2,5.263
	c0,2.021-0.759,3.864-2,5.274V14.737z"/>
</svg>
