<?xml version="1.0" encoding="utf-8"?>
<!-- Generator: Adobe Illustrator 21.1.0, SVG Export Plug-In . SVG Version: 6.00 Build 0)  -->
<svg version="1.1" id="Слой_1" xmlns="http://www.w3.org/2000/svg" xmlns:xlink="http://www.w3.org/1999/xlink" x="0px" y="0px"
	 viewBox="0 0 32 32" style="enable-background:new 0 0 32 32;" xml:space="preserve">
<polygon points="22,8 22,4 24,4 24,10 18,10 18,8 "/>
<path d="M23.451,22.038c1.39-1.668,2.297-3.751,2.504-6.038h-2.014c-0.498,4.499-4.309,8-8.941,8c-4.971,0-9-4.029-9-9s4.029-9,9-9
	c2.904,0,5.479,1.381,7.125,3.516V8.292h1.579C21.693,5.686,18.547,4,15,4C8.926,4,4,8.926,4,15c0,6.076,4.926,11,11,11
	c2.679,0,5.13-0.959,7.037-2.549C25.732,27.147,26.6,28,26.6,28l1.4-1.4C28,26.6,27.147,25.732,23.451,22.038z"/>
<circle cx="25" cy="13" r="1"/>
</svg>
