<?xml version="1.0" encoding="utf-8"?>
<!-- Generator: Adobe Illustrator 21.1.0, SVG Export Plug-In . SVG Version: 6.00 Build 0)  -->
<svg version="1.1" id="Слой_1" xmlns="http://www.w3.org/2000/svg" xmlns:xlink="http://www.w3.org/1999/xlink" x="0px" y="0px"
	 viewBox="0 0 32 32" style="enable-background:new 0 0 32 32;" xml:space="preserve">
<g>
	<path d="M13.613,23.638l0.597-1.91c-1.872-0.586-3.351-2.066-3.937-3.937l-1.91,0.597C9.142,20.885,11.115,22.858,13.613,23.638z"
		/>
	<path d="M18.387,8.362l-0.597,1.91c1.872,0.586,3.351,2.066,3.937,3.937l1.91-0.597C22.858,11.115,20.885,9.142,18.387,8.362z"/>
</g>
<g>
	<path d="M16,14c1.103,0,2,0.897,2,2s-0.897,2-2,2s-2-0.897-2-2S14.897,14,16,14 M16,12c-2.209,0-4,1.791-4,4s1.791,4,4,4
		s4-1.791,4-4S18.209,12,16,12L16,12z"/>
</g>
<polygon points="30.899,29.485 27.364,25.95 30.899,22.414 29.485,21 25.95,24.536 22.414,21 21,22.414 24.536,25.95 21,29.485 
	22.414,30.899 25.95,27.364 29.485,30.899 "/>
<path d="M20.621,24.863C19.238,25.586,17.668,26,16,26c-5.523,0-10-4.477-10-10S10.477,6,16,6s10,4.477,10,10
	c0,1.668-0.414,3.238-1.137,4.621l1.466,1.466C27.384,20.301,28,18.225,28,16c0-6.627-5.373-12-12-12S4,9.373,4,16s5.373,12,12,12
	c2.225,0,4.301-0.616,6.087-1.671L20.621,24.863z"/>
</svg>
