<?xml version="1.0" encoding="utf-8"?>
<!-- Generator: Adobe Illustrator 21.1.0, SVG Export Plug-In . SVG Version: 6.00 Build 0)  -->
<svg version="1.1" id="Слой_1" xmlns="http://www.w3.org/2000/svg" xmlns:xlink="http://www.w3.org/1999/xlink" x="0px" y="0px"
	 viewBox="0 0 32 32" style="enable-background:new 0 0 32 32;" xml:space="preserve">
<style type="text/css">
	.st0{display:none;}
</style>
<g>
	<path d="M13.613,23.638l0.597-1.91c-1.872-0.586-3.351-2.066-3.937-3.937l-1.91,0.597C9.142,20.885,11.115,22.858,13.613,23.638z"
		/>
	<path d="M18.387,8.362l-0.597,1.91c1.872,0.586,3.351,2.066,3.937,3.937l1.91-0.597C22.858,11.115,20.885,9.142,18.387,8.362z"/>
</g>
<polygon points="20,16 20,18 30,18 30,30 28,30 28,32 32,32 32,16 "/>
<path d="M16,26c-5.523,0-10-4.477-10-10S10.477,6,16,6c4.838,0,8.872,3.436,9.799,8h2.021C26.866,8.327,21.944,4,16,4
	C9.373,4,4,9.373,4,16s5.373,12,12,12V26z"/>
<path class="st0" d="M16,18c-1.105,0-2-0.895-2-2s0.895-2,2-2s2,0.895,2,2v-2h1.445c-0.693-1.191-1.968-2-3.445-2
	c-2.209,0-4,1.791-4,4s1.791,4,4,4V18z"/>
<rect x="20" y="18" width="2" height="5"/>
<polygon points="18.343,32 19.414,32 22,29.414 24.586,32 25.657,32 26.536,31.121 23.414,28 26.536,24.879 25.121,23.464 
	22,26.586 18.879,23.464 17.464,24.879 20.586,28 17.464,31.121 "/>
<path d="M18,16c0,1.105-0.895,2-2,2s-2-0.895-2-2s0.895-2,2-2S18,14.895,18,16v-2h1.445c-0.693-1.191-1.968-2-3.445-2
	c-2.209,0-4,1.791-4,4s1.791,4,4,4c0.732,0,1.41-0.211,2-0.555V16z"/>
</svg>
