<?xml version="1.0" encoding="utf-8"?>
<!-- Generator: Adobe Illustrator 21.1.0, SVG Export Plug-In . SVG Version: 6.00 Build 0)  -->
<svg version="1.1" id="Слой_1" xmlns="http://www.w3.org/2000/svg" xmlns:xlink="http://www.w3.org/1999/xlink" x="0px" y="0px"
	 viewBox="0 0 32 32" style="enable-background:new 0 0 32 32;" xml:space="preserve">
<path d="M16,6V4H9L8.752,9.564l1.654,1.241C10.771,10.319,11.347,10,12,10c1.103,0,2,0.897,2,2s-0.897,2-2,2s-2-0.897-2-2H8
	c0,2.2,1.8,4,4,4s4-1.8,4-4s-1.8-4-4-4c-0.403,0-0.784,0.078-1.152,0.19L11,6H16z"/>
<path d="M6.948,10.049C6.948,10.049,8,9.459,8,8c0-2.209-1.791-4-4-4S0,5.791,0,8h2c0-1.103,0.897-2,2-2s2,0.897,2,2S5.103,9,4,9v2
	c1.103,0,2-0.103,2,1s-0.897,2-2,2s-2-0.897-2-2H0c0,2.209,1.791,4,4,4s4-1.791,4-4C8,10.833,6.948,10.049,6.948,10.049z"/>
<g>
	<polygon points="32,10 32,8 26,8 26,10 29.376,10 26.01,14 26,14 26,14.012 26,16 32,16 32,14 28.624,14 31.99,10 	"/>
	<polygon points="24,10 20,10 20,6 18,6 18,16 20,16 20,12 24,12 24,16 26,16 26,6 24,6 	"/>
</g>
<polygon points="17,28 12,20 22,20 "/>
</svg>
