<?xml version="1.0" encoding="utf-8"?>
<!-- Generator: Adobe Illustrator 21.1.0, SVG Export Plug-In . SVG Version: 6.00 Build 0)  -->
<svg version="1.1" id="Слой_1" xmlns="http://www.w3.org/2000/svg" xmlns:xlink="http://www.w3.org/1999/xlink" x="0px" y="0px"
	 viewBox="0 0 32 32" style="enable-background:new 0 0 32 32;" xml:space="preserve">
<g>
	<path d="M8,24H4V14h4h16h4v6h2v-8h-6V4H8v8H2v14h6v2h8v-2h-6v-4h6v-2H8V24z M10,6h12v6H10V6z"/>
</g>
<path d="M29.188,25.999c0-0.439-0.077-0.859-0.187-1.266l0.985-0.745l-1.187-1.978l-1.144,0.442
	c-0.626-0.599-1.416-1.025-2.292-1.256L25.186,20h-2.372l-0.177,1.197c-0.876,0.231-1.665,0.657-2.292,1.256l-1.144-0.442
	l-1.187,1.978l0.985,0.745c-0.111,0.406-0.188,0.826-0.188,1.265c0,0.44,0.077,0.859,0.188,1.265l-0.985,0.745l1.187,1.98
	l1.144-0.443c0.626,0.599,1.416,1.027,2.292,1.258L22.814,32h2.372l0.176-1.196c0.876-0.231,1.665-0.659,2.292-1.258l1.144,0.443
	l1.187-1.98L29,27.264C29.111,26.858,29.188,26.439,29.188,25.999z M23.999,28.999c-1.72,0-3.113-1.342-3.113-3
	c0-1.656,1.393-3,3.113-3s3.114,1.344,3.114,3C27.113,27.657,25.718,28.999,23.999,28.999z"/>
<rect x="6" y="16" width="2" height="2"/>
</svg>
