<?xml version="1.0" encoding="utf-8"?>
<!-- Generator: Adobe Illustrator 21.1.0, SVG Export Plug-In . SVG Version: 6.00 Build 0)  -->
<svg version="1.1" id="Слой_1" xmlns="http://www.w3.org/2000/svg" xmlns:xlink="http://www.w3.org/1999/xlink" x="0px" y="0px"
	 viewBox="0 0 32 32" style="enable-background:new 0 0 32 32;" xml:space="preserve">
<path d="M25.667,7.75l-2.683-0.402c0.115-0.281,0.212-0.528,0.283-0.71c0.065-0.17,0.106-0.294,0.151-0.388
	c0.042-0.016,0.091-0.031,0.148-0.05c0.475-0.158,0.814-0.514,0.935-0.977c0.253-0.974-0.593-2.158-1.347-2.981l-0.445-0.486
	l-1.255,0.439l-0.363-1.451l-4.283,0.476l0.216,0.782C17.016,2.001,17.008,2,17,2c-3.167,0-6.1,0.987-8.521,2.662l2.336,3.229
	C9.379,8.962,8,10.402,8,12c0,3.333,0,5.75,0,8.417C8,23.083,14.333,30,18,30c5,0,8-9,8-13s-4.417-6.417-0.75-6.417
	S25.667,7.75,25.667,7.75z M19.278,2.957l0.297-0.033l0.471,1.882l2.043-0.715c0.114,0.155,0.218,0.308,0.298,0.441
	c-0.548,0.301-0.723,0.699-0.987,1.391c-0.192,0.5-0.481,1.255-1.127,2.547c-0.67,1.34-1.596,2.118-2.394,2.577
	c-0.257-0.942-0.886-1.448-1.492-1.722c0.962-0.784,2.157-1.898,2.611-2.918C19.485,5.308,19.419,3.922,19.278,2.957z M21.79,24.823
	C20,28,18.613,28,18,28c-2.531,0-7.875-5.801-8-7.583v-0.584l2.627-0.001c0.018,0.001,1.832,0.093,2.983,4.901l1.945-0.465
	c-1.575-6.575-4.711-6.46-4.973-6.435H10V12c0-1.191,2.393-2.965,4.308-3.932l0.375,0.056c-0.269,0.208-0.529,0.399-0.75,0.551
	l-0.292,0.2l-0.101,0.339c-0.043,0.146-0.403,1.457,0.281,2.707c0.311,0.567,0.96,1.324,2.292,1.706l0.201,0.058l0.208-0.028
	c0.148-0.02,3.657-0.53,5.54-4.294c0.023-0.045,0.038-0.079,0.059-0.123l0.742,0.111c-0.142,0.125-0.27,0.264-0.385,0.419
	C21.545,11.021,23,13,23.688,14.945C22,17,15.306,14.451,15.262,14.43l-0.858,1.807c0.105,0.05,1.304,0.599,2.987,0.94
	c0.007,0.441,0.044,0.887,0.144,1.254c0.393,1.438,2.11,1.907,2.305,1.956l0.486-1.939c-0.301-0.076-0.807-0.343-0.861-0.543
	c-0.034-0.124-0.055-0.29-0.066-0.48c0.177,0.008,0.349,0.024,0.53,0.024c0.97,0,4.004-0.455,4.004-0.455
	S23.579,21.645,21.79,24.823z"/>
</svg>
