<?xml version="1.0" encoding="utf-8"?>
<!-- Generator: Adobe Illustrator 21.1.0, SVG Export Plug-In . SVG Version: 6.00 Build 0)  -->
<svg version="1.1" id="Слой_2" xmlns="http://www.w3.org/2000/svg" xmlns:xlink="http://www.w3.org/1999/xlink" x="0px" y="0px"
	 viewBox="0 0 32 32" style="enable-background:new 0 0 32 32;" xml:space="preserve">
<polygon points="14,0 14,4 4,4 4,28 14,28 14,32 16,32 16,0 "/>
<g>
	<rect x="26" width="2" height="2"/>
	<rect x="20" width="4" height="2"/>
	<rect x="30" y="8" width="2" height="2"/>
	<rect x="30" y="12" width="2" height="4"/>
	<rect x="30" y="26" width="2" height="2"/>
	<rect x="18" y="30" width="2" height="2"/>
	<polygon points="28,4 20,4 20,2 18,2 18,4 18,28 22,28 22,32 24,32 24,30 26,30 26,28 28,28 28,26 30,26 30,24 28,24 28,22 32,22 
		32,20 28,20 28,18 30,18 30,16 28,16 28,12 30,12 30,10 28,10 28,8 30,8 30,4 	"/>
	<rect x="30" width="2" height="4"/>
	<polygon points="28,32 30,32 32,32 32,30 30,30 30,28 28,28 	"/>
</g>
</svg>
