<?xml version="1.0" encoding="utf-8"?>
<!-- Generator: Adobe Illustrator 21.1.0, SVG Export Plug-In . SVG Version: 6.00 Build 0)  -->
<svg version="1.1" id="Слой_1" xmlns="http://www.w3.org/2000/svg" xmlns:xlink="http://www.w3.org/1999/xlink" x="0px" y="0px"
	 viewBox="0 0 32 32" style="enable-background:new 0 0 32 32;" xml:space="preserve">
<g>
	<path d="M13.613,23.638l0.597-1.91c-1.872-0.586-3.351-2.066-3.937-3.937l-1.91,0.597C9.142,20.885,11.115,22.858,13.613,23.638z"
		/>
	<path d="M18.387,8.362l-0.597,1.91c1.872,0.586,3.351,2.066,3.937,3.937l1.91-0.597C22.858,11.115,20.885,9.142,18.387,8.362z"/>
</g>
<g>
	<path d="M16,14c1.103,0,2,0.897,2,2s-0.897,2-2,2s-2-0.897-2-2S14.897,14,16,14 M16,12c-2.209,0-4,1.791-4,4s1.791,4,4,4
		s4-1.791,4-4S18.209,12,16,12L16,12z"/>
</g>
<rect x="30" y="30" width="2" height="2"/>
<path d="M32,22.5L25.5,16L14,27.5l4.5,4.5H28v-2h-3.5L32,22.5z M16.828,27.5l3.586-3.586l3.672,3.672L21.672,30h-2.344L16.828,27.5z
	"/>
<path d="M27.82,14C26.866,8.327,21.944,4,16,4C9.373,4,4,9.373,4,16c0,5.182,3.291,9.584,7.893,11.263l1.594-1.594
	C9.183,24.553,6,20.653,6,16c0-5.523,4.477-10,10-10c4.838,0,8.872,3.436,9.799,8H27.82z"/>
</svg>
