<?xml version="1.0" encoding="utf-8"?>
<!-- Generator: Adobe Illustrator 21.1.0, SVG Export Plug-In . SVG Version: 6.00 Build 0)  -->
<svg version="1.1" id="Слой_1" xmlns="http://www.w3.org/2000/svg" xmlns:xlink="http://www.w3.org/1999/xlink" x="0px" y="0px"
	 viewBox="0 0 32 32" style="enable-background:new 0 0 32 32;" xml:space="preserve">
<path d="M5,14c-2.761,0-5,2.239-5,5c0,4,5,9,5,9s5-5,5-9C10,16.239,7.761,14,5,14z M5,21c-1.105,0-2-0.895-2-2c0-1.105,0.895-2,2-2
	s2,0.895,2,2C7,20.105,6.105,21,5,21z"/>
<path d="M27,8c-2.761,0-5,2.239-5,5c0,4,5,9,5,9s5-5,5-9C32,10.239,29.761,8,27,8z M27,15c-1.105,0-2-0.895-2-2c0-1.105,0.895-2,2-2
	s2,0.895,2,2C29,14.105,28.105,15,27,15z"/>
<path d="M16,2c-2.761,0-5,2.239-5,5c0,4,5,9,5,9s5-5,5-9C21,4.239,18.761,2,16,2z M16,9c-1.105,0-2-0.895-2-2c0-1.105,0.895-2,2-2
	s2,0.895,2,2C18,8.105,17.105,9,16,9z"/>
<path d="M27,22c-0.38,0-0.732,0.112-1.035,0.296l-7.97-4.347C17.967,16.869,17.087,16,16,16c-1.105,0-2,0.895-2,2
	c0,0.208,0.041,0.404,0.1,0.593l-8.668,9.456C5.292,28.019,5.148,28,5,28c-1.105,0-2,0.895-2,2c0,1.105,0.895,2,2,2s2-0.895,2-2
	c0-0.208-0.041-0.404-0.1-0.593l8.669-9.456C15.708,19.981,15.852,20,16,20c0.38,0,0.732-0.112,1.035-0.296l7.97,4.347
	C25.033,25.131,25.913,26,27,26c1.105,0,2-0.895,2-2C29,22.895,28.105,22,27,22z"/>
</svg>
