<?xml version="1.0" encoding="utf-8"?>
<!-- Generator: Adobe Illustrator 21.1.0, SVG Export Plug-In . SVG Version: 6.00 Build 0)  -->
<svg version="1.1" id="Слой_1" xmlns="http://www.w3.org/2000/svg" xmlns:xlink="http://www.w3.org/1999/xlink" x="0px" y="0px"
	 viewBox="0 0 32 32" style="enable-background:new 0 0 32 32;" xml:space="preserve">
<path d="M18,4v2.184C19.163,6.597,20,7.696,20,9s-0.837,2.403-2,2.816v6.738C18.59,18.211,19.268,18,20,18c2.209,0,4,1.791,4,4
	s-1.791,4-4,4c-0.732,0-1.41-0.211-2-0.555V28h10V4H18z M24,16c-1.105,0-2-0.895-2-2s0.895-2,2-2s2,0.895,2,2S25.105,16,24,16z"/>
<polygon points="14,0 14,4 4,4 4,28 14,28 14,32 16,32 16,0 "/>
</svg>
