<?xml version="1.0" encoding="utf-8"?>
<!-- Generator: Adobe Illustrator 21.1.0, SVG Export Plug-In . SVG Version: 6.00 Build 0)  -->
<svg version="1.1" id="Слой_1" xmlns="http://www.w3.org/2000/svg" xmlns:xlink="http://www.w3.org/1999/xlink" x="0px" y="0px"
	 viewBox="0 0 32 32" style="enable-background:new 0 0 32 32;" xml:space="preserve">
<style type="text/css">
	.st0{display:none;}
	.st1{fill:#FFFFFF;}
</style>
<path class="st0" d="M27.414,4.586c-0.781-0.781-2.047-0.781-2.828,0c0,0-6.256,6.256-11.775,11.775C12.307,16.753,11.688,17,11,17
	c-1.657,0-3-1.343-3-3V8c0-1.1-0.9-2-2-2S4,6.9,4,8v5v7v4c0,4.418,3.582,8,8,8h5c0.52,0,0.99-0.204,1.346-0.529h0.012l6.056-6.056
	c0.781-0.781,0.781-2.047,0-2.828c-0.439-0.439-1.031-0.622-1.604-0.568c0.98-0.98,1.604-1.604,1.604-1.604
	c0.781-0.781,0.781-2.047,0-2.828c-0.465-0.465-1.101-0.647-1.706-0.558c0.463-0.769,0.369-1.779-0.294-2.442
	c-0.439-0.439-1.031-0.622-1.604-0.568c3.642-3.642,6.604-6.604,6.604-6.604C28.195,6.633,28.195,5.367,27.414,4.586z"/>
<polygon points="30.399,8.953 17.848,14.152 23.047,1.601 21.199,0.835 16,13.387 10.801,0.835 8.953,1.601 14.152,14.152 
	1.601,8.953 0.835,10.801 13.387,16 0.835,21.199 1.601,23.047 14.152,17.848 8.953,30.399 10.801,31.165 16,18.613 21.199,31.165 
	23.047,30.399 17.848,17.848 30.399,23.047 31.165,21.199 18.613,16 31.165,10.801 "/>
<circle class="st1" cx="16" cy="16" r="12"/>
<g>
	<rect x="8" y="12" width="2" height="2"/>
	<rect x="12" y="12" width="12" height="2"/>
	<rect x="12" y="16" width="2" height="2"/>
	<rect x="16" y="16" width="8" height="2"/>
	<rect x="16" y="20" width="8" height="2"/>
</g>
</svg>
