<?xml version="1.0" encoding="utf-8"?>
<!-- Generator: Adobe Illustrator 21.1.0, SVG Export Plug-In . SVG Version: 6.00 Build 0)  -->
<svg version="1.1" id="Слой_1" xmlns="http://www.w3.org/2000/svg" xmlns:xlink="http://www.w3.org/1999/xlink" x="0px" y="0px"
	 viewBox="0 0 32 32" style="enable-background:new 0 0 32 32;" xml:space="preserve">
<path id="icon" d="M28,10.5c-2.6,1.2-8,3.9-11,6.5c-1.1,1-2.3,2.2-3.3,3.5c0,0-2.9-3.5,2.3-9.5c2.8-3.2,3.3-5.5,3.2-7H28V10.5z
	 M14.7,9.7c-6.4,6.3-3.2,13.5-3.2,13.5c-0.9,1.2-2.2,3.3-3.2,4.8H4V4h13.5C17.7,5.3,17.2,7.2,14.7,9.7L14.7,9.7z M28,15v13H12.3
	c1.5-2.2,4-5.6,6.7-8C21.6,17.7,25.4,16,28,15L28,15z"/>
</svg>
