<?xml version="1.0" encoding="utf-8"?>
<!-- Generator: Adobe Illustrator 21.1.0, SVG Export Plug-In . SVG Version: 6.00 Build 0)  -->
<svg version="1.1" id="Слой_1" xmlns="http://www.w3.org/2000/svg" xmlns:xlink="http://www.w3.org/1999/xlink" x="0px" y="0px"
	 viewBox="0 0 32 32" style="enable-background:new 0 0 32 32;" xml:space="preserve">
<rect x="6" y="16" width="2" height="2"/>
<g>
	<path d="M8,24H4V14h4h16h4v2h2v-4h-6V4H8v8H2v14h6v2h6v-2h-4v-4h4v-2H8V24z M10,6h12v6H10V6z"/>
</g>
<path d="M30.707,29.293l-2.106-2.106C29.476,26.018,30,24.572,30,23c0-3.866-3.134-7-7-7s-7,3.134-7,7s3.134,7,7,7
	c1.572,0,3.018-0.524,4.187-1.399l2.106,2.106L30.707,29.293z M23,28c-2.757,0-5-2.243-5-5s2.243-5,5-5s5,2.243,5,5S25.757,28,23,28
	z"/>
</svg>
