<?xml version="1.0" encoding="utf-8"?>
<!-- Generator: Adobe Illustrator 21.1.0, SVG Export Plug-In . SVG Version: 6.00 Build 0)  -->
<svg version="1.1" id="Слой_1" xmlns="http://www.w3.org/2000/svg" xmlns:xlink="http://www.w3.org/1999/xlink" x="0px" y="0px"
	 viewBox="0 0 32 32" style="enable-background:new 0 0 32 32;" xml:space="preserve">
<style type="text/css">
	.st0{fill-rule:evenodd;clip-rule:evenodd;}
</style>
<path id="Icon" class="st0" d="M26,16v10H16l-6,6v-6H6v-4l-6,0l6-6V6h10l6-6v6h4l0,4l6,0L26,16L26,16z M10,24v-2H8v2H10z M10,20v-2
	H6l-2,2H10z M8,8v8h2l-0.001-4l4-4L8,8z M14,20h6l2-2h-6L14,20L14,20z M24,8h-8l0,8h8L24,8z M24,18l-4,4h-4v2h8V18L24,18z M26,14
	l2-2h-2V14L26,14z"/>
</svg>
