<?xml version="1.0" encoding="utf-8"?>
<!-- Generator: Adobe Illustrator 21.1.0, SVG Export Plug-In . SVG Version: 6.00 Build 0)  -->
<svg version="1.1" id="Слой_1" xmlns="http://www.w3.org/2000/svg" xmlns:xlink="http://www.w3.org/1999/xlink" x="0px" y="0px"
	 viewBox="0 0 32 32" style="enable-background:new 0 0 32 32;" xml:space="preserve">
<rect x="2" y="4" width="2" height="24"/>
<rect x="28" y="4" width="2" height="24"/>
<path d="M25.707,24.293l-4.82-4.82C21.585,18.492,22,17.296,22,16c0-3.314-2.686-6-6-6s-6,2.686-6,6s2.686,6,6,6
	c1.296,0,2.492-0.415,3.473-1.113l4.82,4.82L25.707,24.293z M12,16c0-2.206,1.794-4,4-4s4,1.794,4,4c0,2.206-1.794,4-4,4
	S12,18.206,12,16z"/>
<polygon points="6,2 6,30 20,30 20,28 8,28 8,4 24,4 24,10 26,10 26,2 "/>
</svg>
