<?xml version="1.0" encoding="utf-8"?>
<!-- Generator: Adobe Illustrator 21.1.0, SVG Export Plug-In . SVG Version: 6.00 Build 0)  -->
<svg version="1.1" id="Слой_1" xmlns="http://www.w3.org/2000/svg" xmlns:xlink="http://www.w3.org/1999/xlink" x="0px" y="0px"
	 viewBox="0 0 32 32" style="enable-background:new 0 0 32 32;" xml:space="preserve">
<g>
	<path d="M8.672,7.008L7.563,5.344C6.685,5.93,5.931,6.685,5.344,7.563l1.664,1.109C7.448,8.014,8.014,7.448,8.672,7.008z"/>
	<path d="M16.992,8.672l1.664-1.109c-0.586-0.878-1.341-1.632-2.219-2.219l-1.109,1.664C15.986,7.448,16.552,8.014,16.992,8.672z"/>
	<path d="M12,6c0.403,0,0.796,0.041,1.177,0.117l0.392-1.961C13.061,4.055,12.537,4,12,4s-1.061,0.055-1.569,0.156l0.392,1.961
		C11.204,6.041,11.597,6,12,6z"/>
	<path d="M6,12c0-0.403,0.041-0.796,0.117-1.177l-1.961-0.392C4.055,10.939,4,11.463,4,12s0.055,1.061,0.156,1.569l1.961-0.392
		C6.041,12.796,6,12.403,6,12z"/>
	<path d="M7.008,15.328l-1.664,1.109c0.586,0.878,1.341,1.632,2.219,2.219l1.109-1.664C8.014,16.552,7.448,15.986,7.008,15.328z"/>
	<path d="M20,12c0-0.537-0.055-1.061-0.156-1.569l-1.961,0.392C17.959,11.204,18,11.597,18,12H20z"/>
	<path d="M12.43,19.978c0.195-0.685,0.455-1.34,0.773-1.964l-0.026-0.132C12.796,17.959,12.403,18,12,18s-0.796-0.041-1.177-0.117
		l-0.392,1.961C10.939,19.945,11.463,20,12,20C12.145,20,12.287,19.986,12.43,19.978z"/>
</g>
<circle cx="23" cy="23" r="3"/>
<path d="M29.364,16.636L27.95,18.05C29.216,19.317,30,21.067,30,23c0,3.866-3.134,7-7,7s-7-3.134-7-7c0-1.903,0.767-3.621,2-4.883
	V20h2v-6h-6v2h3.366C15.319,17.649,14,20.166,14,23c0,4.971,4.029,9,9,9s9-4.029,9-9C32,20.515,30.993,18.265,29.364,16.636z"/>
<polygon points="12,22 2,22 2,2 22,2 22,12 24,12 24,0 0,0 0,24 12,24 "/>
</svg>
