<?xml version="1.0" encoding="utf-8"?>
<!-- Generator: Adobe Illustrator 21.1.0, SVG Export Plug-In . SVG Version: 6.00 Build 0)  -->
<svg version="1.1" id="Слой_1" xmlns="http://www.w3.org/2000/svg" xmlns:xlink="http://www.w3.org/1999/xlink" x="0px" y="0px"
	 viewBox="0 0 32 32" style="enable-background:new 0 0 32 32;" xml:space="preserve">
<path d="M14.8,18.8C14.1,19.6,13.1,20,12,20c-2.2,0-4-1.8-4-4s1.8-4,4-4c1.1,0,2.1,0.4,2.8,1.2l1.4-1.4C15.2,10.7,13.7,10,12,10
	c-3.3,0-6,2.7-6,6s2.7,6,6,6c1.7,0,3.2-0.7,4.2-1.8L14.8,18.8z"/>
<polygon points="28,10 18,10 18,12 22,12 22,22 24,22 24,12 28,12 "/>
</svg>
