<?xml version="1.0" encoding="utf-8"?>
<!-- Generator: Adobe Illustrator 21.1.0, SVG Export Plug-In . SVG Version: 6.00 Build 0)  -->
<svg version="1.1" id="Слой_1" xmlns="http://www.w3.org/2000/svg" xmlns:xlink="http://www.w3.org/1999/xlink" x="0px" y="0px"
	 viewBox="0 0 32 32" style="enable-background:new 0 0 32 32;" xml:space="preserve">
<g>
	<path d="M12,8c1.103,0,2,0.897,2,2s-0.897,2-2,2s-2-0.897-2-2S10.897,8,12,8 M12,6c-2.209,0-4,1.791-4,4s1.791,4,4,4s4-1.791,4-4
		S14.209,6,12,6L12,6z"/>
	<path d="M20,20c1.103,0,2,0.897,2,2s-0.897,2-2,2s-2-0.897-2-2S18.897,20,20,20 M20,18c-2.209,0-4,1.791-4,4s1.791,4,4,4
		s4-1.791,4-4S22.209,18,20,18L20,18z"/>
	<rect x="6.101" y="15" transform="matrix(0.7071 -0.7071 0.7071 0.7071 -6.6274 16)" width="19.799" height="2"/>
</g>
<g>
	<polygon points="4,2 0,2 0,4 4,4 4,6 6,6 6,0 4,0 	"/>
	<polygon points="4,28 0,28 0,30 4,30 4,32 6,32 6,26 4,26 	"/>
	<rect x="4" y="8" width="2" height="4"/>
	<rect x="4" y="20" width="2" height="4"/>
	<rect x="4" y="14" width="2" height="4"/>
	<polygon points="28,26 26,26 26,32 28,32 28,30 32,30 32,28 28,28 	"/>
	<rect x="26" y="8" width="2" height="4"/>
	<rect x="26" y="20" width="2" height="4"/>
	<rect x="26" y="14" width="2" height="4"/>
	<rect x="8" y="28" width="16" height="2"/>
	<rect x="8" y="2" width="16" height="2"/>
	<polygon points="28,2 28,0 26,0 26,6 28,6 28,4 32,4 32,2 	"/>
</g>
</svg>
