<?xml version="1.0" encoding="utf-8"?>
<!-- Generator: Adobe Illustrator 21.1.0, SVG Export Plug-In . SVG Version: 6.00 Build 0)  -->
<svg version="1.1" id="Слой_1" xmlns="http://www.w3.org/2000/svg" xmlns:xlink="http://www.w3.org/1999/xlink" x="0px" y="0px"
	 viewBox="0 0 32 32" style="enable-background:new 0 0 32 32;" xml:space="preserve">
<g>
	<path d="M20,26H4v-6h20v-2H4v-6h24v6h2v-8l-6-6H8l-6,6v18h18V26z M8.828,6h14.343l4,4H4.828L8.828,6z"/>
	<g>
		<rect x="6" y="14" width="2" height="2"/>
	</g>
	<g>
		<rect x="10" y="14" width="2" height="2"/>
	</g>
	<g>
		<rect x="14" y="14" width="2" height="2"/>
	</g>
	<g>
		<rect x="20" y="14" width="6" height="2"/>
	</g>
	<g>
		<rect x="6" y="22" width="2" height="2"/>
	</g>
	<g>
		<rect x="10" y="22" width="2" height="2"/>
	</g>
	<g>
		<rect x="14" y="22" width="2" height="2"/>
	</g>
</g>
<polygon points="32,24 28,24 28,20 26,20 26,24 22,24 22,26 26,26 26,30 28,30 28,26 32,26 "/>
</svg>
