<?xml version="1.0" encoding="utf-8"?>
<!-- Generator: Adobe Illustrator 21.1.0, SVG Export Plug-In . SVG Version: 6.00 Build 0)  -->
<svg version="1.1" id="Слой_1" xmlns="http://www.w3.org/2000/svg" xmlns:xlink="http://www.w3.org/1999/xlink" x="0px" y="0px"
	 viewBox="0 0 32 32" style="enable-background:new 0 0 32 32;" xml:space="preserve">
<style type="text/css">
	.st0{display:none;}
</style>
<polygon class="st0" points="15.207,18.207 13.793,16.793 6,24.586 6,20 4,20 4,28 12,28 12,26 7.414,26 "/>
<polygon class="st0" points="20,4 20,6 24.586,6 16.793,13.793 18.207,15.207 26,7.414 26,12 28,12 28,4 "/>
<polygon class="st0" points="24.586,26 20,26 20,28 28,28 28,20 26,20 26,24.586 18.207,16.793 16.793,18.207 "/>
<polygon class="st0" points="4,4 4,12 6,12 6,7.414 13.793,15.207 15.207,13.793 7.414,6 12,6 12,4 "/>
<polygon points="3,4 9,4 6,8 "/>
<rect x="10" y="6" width="18" height="2"/>
<polygon points="8,10 14,10 11,14 "/>
<rect x="15" y="12" width="13" height="2"/>
<rect x="15" y="16" width="13" height="2"/>
<polygon points="3,18 9,18 6,22 "/>
<rect x="10" y="20" width="18" height="2"/>
<rect x="12" y="24" width="16" height="2"/>
</svg>
