<?xml version="1.0" encoding="utf-8"?>
<!-- Generator: Adobe Illustrator 21.1.0, SVG Export Plug-In . SVG Version: 6.00 Build 0)  -->
<svg version="1.1" id="Слой_1" xmlns="http://www.w3.org/2000/svg" xmlns:xlink="http://www.w3.org/1999/xlink" x="0px" y="0px"
	 viewBox="0 0 32 32" style="enable-background:new 0 0 32 32;" xml:space="preserve">
<path d="M16,4c6.6,0,10,7,10,14c0,6.1-3.9,10-10,10S6,24.1,6,18C6,11,9.4,4,16,4 M16,2C8,2,4,10.3,4,18s5.4,12,12,12s12-4.3,12-12
	S24,2,16,2L16,2z"/>
<path d="M24,16c0-1-0.5-1.9-1.3-2.5c0.2-0.5,0.3-1,0.3-1.5c0-1.9-1.3-3.4-3-3.9c0,0,0-0.1,0-0.1c0-1.1-0.9-2-2-2s-2,0.9-2,2
	c0-1.1-0.9-2-2-2s-2,0.9-2,2c0,0,0,0.1,0,0.1c-1.7,0.4-3,2-3,3.9c0,0.5,0.1,1.1,0.3,1.5C8.5,14.1,8,15,8,16c0,0.7,0.2,1.3,0.6,1.8
	C8.2,18.5,8,19.2,8,20c0,1.5,0.8,2.8,2,3.5c0.2,1.4,1.5,2.5,3,2.5c1.7,0,3-1.3,3-3c0,1.7,1.3,3,3,3c1.5,0,2.7-1.1,3-2.5
	c1.2-0.7,2-2,2-3.5c0-0.8-0.2-1.5-0.6-2.2C23.8,17.3,24,16.7,24,16z"/>
</svg>
