<?xml version="1.0" encoding="utf-8"?>
<!-- Generator: Adobe Illustrator 21.1.0, SVG Export Plug-In . SVG Version: 6.00 Build 0)  -->
<svg version="1.1" id="Слой_1" xmlns="http://www.w3.org/2000/svg" xmlns:xlink="http://www.w3.org/1999/xlink" x="0px" y="0px"
	 viewBox="0 0 32 32" style="enable-background:new 0 0 32 32;" xml:space="preserve">
<g>
	<path d="M0,16h4.078c0.051-0.676,0.132-1.344,0.24-2H0V16z"/>
	<path d="M32,14h-6.12c0.091-1.018,0.098-1.788,0.097-2.002l-2,0.005c0.004,1.561-0.326,5.951-1.878,7.507
		C21.766,19.844,21.416,20,21,20c-1.115,0-2.313-1.966-3.372-4h3.898c0.142-0.618,0.254-1.305,0.331-2h-5.24
		C15.032,10.843,13.474,8,11,8c-4.86,0-5,8.977-5,10h2c0.001-0.563,0.038-1.26,0.115-2h5.03c-0.289-0.575-0.662-1.305-1.05-2H8.421
		c0.433-2.093,1.235-4,2.579-4c1.382,0,2.892,3.021,4.105,5.447C16.791,18.817,18.382,22,21,22c0.955,0,1.802-0.362,2.516-1.078
		c1.161-1.165,1.773-3.127,2.097-4.922H32V14z"/>
</g>
</svg>
