<?xml version="1.0" encoding="utf-8"?>
<!-- Generator: Adobe Illustrator 21.1.0, SVG Export Plug-In . SVG Version: 6.00 Build 0)  -->
<svg version="1.1" id="Слой_1" xmlns="http://www.w3.org/2000/svg" xmlns:xlink="http://www.w3.org/1999/xlink" x="0px" y="0px"
	 viewBox="0 0 32 32" style="enable-background:new 0 0 32 32;" xml:space="preserve">
<path d="M6,11H4c0,3.866,3.134,7,7,7v-2C8.239,16,6,13.761,6,11z"/>
<path d="M2,11c0-4.971,4.029-9,9-9s9,4.029,9,9c0,0.339-0.026,0.671-0.063,1h2.009C21.978,11.67,22,11.338,22,11
	c0-6.075-4.925-11-11-11S0,4.925,0,11s4.925,11,11,11c0.356,0,0.706-0.022,1.053-0.055c0.068-0.711,0.206-1.401,0.403-2.066
	C11.982,19.956,11.496,20,11,20C6.029,20,2,15.971,2,11z"/>
<circle cx="23" cy="23" r="3"/>
<path d="M29.364,16.636L27.95,18.05C29.216,19.317,30,21.067,30,23c0,3.866-3.134,7-7,7s-7-3.134-7-7c0-1.903,0.767-3.621,2-4.883
	V20h2v-6h-6v2h3.366C15.319,17.649,14,20.166,14,23c0,4.971,4.029,9,9,9s9-4.029,9-9C32,20.515,30.993,18.265,29.364,16.636z"/>
</svg>
