<svg width="21" height="18" viewBox="0 0 21 18" fill="none" xmlns="http://www.w3.org/2000/svg">
<path d="M0.539318 0.245894C0.539318 0.245894 2.3547 0.0458984 2.60086 0.0458984C6.10855 0.0458984 9.63163 0.0458989 13.1085 0.322822C15.0536 0.383574 16.9033 1.17926 18.2851 2.54957C19.6668 3.91988 20.4778 5.76295 20.5547 7.70743C20.8778 13.1228 17.8009 16.6305 13.4624 17.2921C11.0892 17.5079 8.70368 17.5542 6.32393 17.4305H2.98547C2.85875 17.43 2.73344 17.4039 2.6171 17.3536C2.50076 17.3034 2.3958 17.2301 2.30855 17.1382C2.70139 17.0484 3.07952 16.9034 3.43163 16.7074C3.68755 16.4165 3.90001 16.09 4.06239 15.7382C4.06239 15.7382 4.06239 1.19974 4.06239 0.892045C4.06239 0.584353 0.985472 0.29205 0.493164 0.199742L0.539318 0.245894ZM7.26239 1.53821C7.16631 1.78425 7.10921 2.04379 7.09316 2.30744C7.09316 6.41513 7.09316 10.5228 7.18547 14.6151C7.1818 14.9884 7.31399 15.3504 7.55742 15.6334C7.80085 15.9165 8.13889 16.1013 8.50855 16.1536C12.2778 16.8921 16.9239 15.9997 17.4316 10.369C17.6429 9.03495 17.5129 7.66916 17.0539 6.39891C16.5949 5.12866 15.8217 3.99531 14.8065 3.10449C13.7913 2.21367 12.567 1.59439 11.2479 1.30437C9.92873 1.01436 8.55764 1.06304 7.26239 1.44589" fill="#26262A"/>
</svg>
