<svg width="18" height="19" viewBox="0 0 18 19" fill="none" xmlns="http://www.w3.org/2000/svg">
<path d="M17.4921 16.2165C17.4921 16.8612 17.236 17.4794 16.7801 17.9353C16.3242 18.3912 15.706 18.6472 15.0613 18.6472C14.4166 18.6472 13.7983 18.3912 13.3425 17.9353C12.8866 17.4794 12.6305 16.8612 12.6305 16.2165C12.6375 16.0085 12.6685 15.802 12.7228 15.6011L4.26128 10.9857C4.03664 11.2369 3.76164 11.4379 3.45416 11.5757C3.14668 11.7136 2.81363 11.7851 2.47667 11.7857C1.83199 11.7857 1.21371 11.5296 0.757854 11.0737C0.301996 10.6179 0.0458984 9.99963 0.0458984 9.35494C0.0458984 8.71026 0.301996 8.09198 0.757854 7.63612C1.21371 7.18026 1.83199 6.92417 2.47667 6.92417C2.81363 6.92477 3.14668 6.9963 3.45416 7.13413C3.76164 7.27197 4.03664 7.473 4.26128 7.72415L12.7228 3.10877C12.6685 2.90787 12.6375 2.70139 12.6305 2.49339C12.6231 1.91795 12.8175 1.35809 13.18 0.911102C13.5424 0.464116 14.0501 0.158266 14.6147 0.0467025C15.1792 -0.0648614 15.765 0.0249068 16.2703 0.300421C16.7756 0.575935 17.1683 1.01979 17.3803 1.55481C17.5923 2.08983 17.6101 2.6822 17.4307 3.22901C17.2513 3.77581 16.8859 4.24248 16.3981 4.54788C15.9104 4.85329 15.331 4.97812 14.7608 4.90071C14.1905 4.82331 13.6654 4.54853 13.2767 4.12416L4.81513 8.73954C4.91802 9.14335 4.91802 9.56651 4.81513 9.97032L13.2767 14.5857C13.604 14.2199 14.035 13.9625 14.5122 13.8477C14.9895 13.733 15.4904 13.7664 15.9482 13.9435C16.406 14.1207 16.799 14.433 17.0748 14.8391C17.3506 15.2452 17.4962 15.7256 17.4921 16.2165Z" fill="#26262A"/>
</svg>
