<svg width="22" height="22" viewBox="0 0 22 22" fill="none" xmlns="http://www.w3.org/2000/svg">
<path d="M3.27712 14.0776H4.81558V15.6161H3.27712V14.0776ZM10.9694 18.693H0.200195V4.84683L4.81558 0.231445H17.1233L21.7387 4.84683V11.0007H20.2002V6.38529H1.73866V11.0007H10.9694V12.5391H1.73866V17.1545H10.9694V18.693ZM2.36943 4.84683H19.554L16.4771 1.76991H5.44635L2.36943 4.84683ZM14.0463 9.46222H18.6617V7.92375H14.0463V9.46222ZM6.35404 15.6161H7.8925V14.0776H6.35404V15.6161ZM9.43096 9.46222H10.9694V7.92375H9.43096V9.46222ZM4.81558 7.92375H3.27712V9.46222H4.81558V7.92375ZM6.35404 9.46222H7.8925V7.92375H6.35404V9.46222ZM16.354 11.0007C15.3789 11.0007 14.4436 11.3881 13.7541 12.0776C13.0645 12.7672 12.6771 13.7024 12.6771 14.6776C12.6771 16.7084 16.354 21.8622 16.354 21.8622C16.354 21.8622 20.0002 16.7084 20.0002 14.6776C20.0002 13.7078 19.6171 12.7771 18.9341 12.0885C18.2512 11.3998 17.3239 11.0088 16.354 11.0007ZM16.354 16.2161C16.0498 16.2161 15.7523 16.1258 15.4993 15.9568C15.2463 15.7877 15.0491 15.5474 14.9327 15.2663C14.8162 14.9852 14.7858 14.6759 14.8451 14.3775C14.9045 14.079 15.051 13.8049 15.2662 13.5897C15.4813 13.3746 15.7555 13.2281 16.0539 13.1687C16.3523 13.1093 16.6617 13.1398 16.9428 13.2563C17.2239 13.3727 17.4642 13.5699 17.6332 13.8229C17.8023 14.0759 17.8925 14.3733 17.8925 14.6776C17.8925 15.0856 17.7304 15.4769 17.4419 15.7655C17.1534 16.054 16.7621 16.2161 16.354 16.2161Z" fill="#26262A"/>
</svg>
