<?xml version="1.0" encoding="utf-8"?>
<!-- Generator: Adobe Illustrator 23.1.0, SVG Export Plug-In . SVG Version: 6.00 Build 0)  -->
<svg version="1.1" id="Слой_1" xmlns="http://www.w3.org/2000/svg" xmlns:xlink="http://www.w3.org/1999/xlink" x="0px" y="0px"
	 viewBox="0 0 203 40" style="enable-background:new 0 0 203 40;" xml:space="preserve">
<style type="text/css">
	.st0{fill:url(#SVGID_1_);}
	.st1{fill:url(#SVGID_2_);}
	.st2{fill:url(#SVGID_3_);}
	.st3{fill:#26272A;}
	.st4{fill:#9A9A9D;}
	.st5{fill:#DA291C;}
</style>
<g>
	
		<linearGradient id="SVGID_1_" gradientUnits="userSpaceOnUse" x1="3" y1="187.4646" x2="3" y2="163.4646" gradientTransform="matrix(1 0 0 1 0 -153.4646)">
		<stop  offset="0.25" style="stop-color:#A73794"/>
		<stop  offset="1" style="stop-color:#963CBD"/>
	</linearGradient>
	<polygon class="st0" points="6,10 6,30 0,34 0,16 	"/>
	
		<linearGradient id="SVGID_2_" gradientUnits="userSpaceOnUse" x1="0" y1="184.4646" x2="24" y2="184.4646" gradientTransform="matrix(1 0 0 1 0 -153.4646)">
		<stop  offset="0.25" style="stop-color:#A73794"/>
		<stop  offset="0.75" style="stop-color:#B7336E"/>
	</linearGradient>
	<polygon class="st1" points="18,28 24,34 0,34 6,28 	"/>
	
		<linearGradient id="SVGID_3_" gradientUnits="userSpaceOnUse" x1="15" y1="187.4646" x2="15" y2="155.4646" gradientTransform="matrix(1 0 0 1 0 -153.4646)">
		<stop  offset="0.1875" style="stop-color:#B7336E"/>
		<stop  offset="1" style="stop-color:#DA291C"/>
	</linearGradient>
	<polygon class="st2" points="6,2 24,20 24,34 18,30 18,22 6,10 	"/>
</g>
<g id="DICOM">
	<path id="D" class="st3" d="M38.8,26H36v8h2.8c2.2,0,4-1.8,4-4S41.1,26,38.8,26z M38.8,33H37v-6h1.8c1.7,0,3,1.3,3,3
		S40.5,33,38.8,33z"/>
	<rect id="I" x="46" y="26" class="st3" width="1" height="8"/>
	<path id="C" class="st3" d="M56,33c-1.7,0-3-1.3-3-3s1.3-3,3-3c0.8,0,1.6,0.3,2.1,0.9l0.7-0.7C58.1,26.4,57.1,26,56,26
		c-2.2,0-4,1.8-4,4s1.8,4,4,4c1.1,0,2.1-0.4,2.8-1.2l-0.7-0.7C57.6,32.7,56.8,33,56,33z"/>
	<path id="O" class="st3" d="M66,27c1.7,0,3,1.3,3,3s-1.3,3-3,3s-3-1.3-3-3S64.3,27,66,27 M66,26c-2.2,0-4,1.8-4,4s1.8,4,4,4
		s4-1.8,4-4S68.2,26,66,26L66,26z"/>
	<polygon id="M" class="st3" points="80.5,26 78,32 75.5,26 74,26 74,34 75,34 75,27.4 77.7,34 78.3,34 81,27.4 81,34 82,34 82,26 	
		"/>
	<rect id="_x2D_" x="86" y="30" class="st3" width="3" height="1"/>
</g>
<g id="СЕРВЕР">
	<path id="C_2_" class="st3" d="M97,33c-1.7,0-3-1.3-3-3s1.3-3,3-3c0.8,0,1.6,0.3,2.1,0.9l0.7-0.7C99.1,26.4,98.1,26,97,26
		c-2.2,0-4,1.8-4,4s1.8,4,4,4c1.1,0,2.1-0.4,2.8-1.2l-0.7-0.7C98.6,32.7,97.8,33,97,33z"/>
	<polygon id="E" class="st3" points="109,27 109,26 104,26 104,34 109,34 109,33 105,33 105,30 109,30 109,29 105,29 105,27 	"/>
	<path id="Р_2_" class="st3" d="M116.5,26H113v8h1v-3h2.5c1.4,0,2.5-1.1,2.5-2.5S117.9,26,116.5,26z M116.5,30H114v-3h2.5
		c0.8,0,1.5,0.7,1.5,1.5S117.3,30,116.5,30z"/>
	<path id="В" class="st3" d="M128.1,29.6c0.5-0.4,0.9-1,0.9-1.6c0-1.1-0.9-2-2-2h-4v3v1v4h3.5c1.4,0,2.5-1.1,2.5-2.5
		C129,30.8,128.7,30.1,128.1,29.6z M124,27h3c0.6,0,1,0.4,1,1s-0.4,1-1,1h-0.5H124V27z M126.5,33H124v-3h2.5c0.8,0,1.5,0.7,1.5,1.5
		C128,32.3,127.3,33,126.5,33z"/>
	<polygon id="E_2_" class="st3" points="138,27 138,26 133,26 133,34 138,34 138,33 134,33 134,30 138,30 138,29 134,29 134,27 	"/>
	<path id="Р_3_" class="st3" d="M145.5,26H142v8h1v-3h2.5c1.4,0,2.5-1.1,2.5-2.5S146.9,26,145.5,26z M145.5,30H143v-3h2.5
		c0.8,0,1.5,0.7,1.5,1.5S146.3,30,145.5,30z"/>
</g>
<g id="ИНОБИТЕК">
	<polygon id="И_1_" class="st4" points="40.3,14 36.8,18.7 36.8,14 36,14 36,20 36.8,20 40.3,15.3 40.3,20 41,20 41,14 	"/>
	<polygon id="Н" class="st4" points="48.3,14 48.3,16.5 44.8,16.5 44.8,14 44,14 44,20 44.8,20 44.8,17.2 48.3,17.2 48.3,20 49,20 
		49,14 	"/>
	<path id="О_1_" class="st4" d="M55,14.7c1.2,0,2.3,1,2.3,2.3s-1,2.3-2.3,2.3s-2.3-1-2.3-2.3S53.8,14.7,55,14.7 M55,14
		c-1.7,0-3,1.3-3,3s1.3,3,3,3s3-1.3,3-3S56.7,14,55,14L55,14z"/>
	<path id="Б" class="st4" d="M63.5,16.5h-1.8v-1.8H65V14h-4v6h2.5c1,0,1.8-0.8,1.8-1.8S64.5,16.5,63.5,16.5z M63.5,19.2h-1.8v-2
		h1.8c0.6,0,1,0.4,1,1S64.1,19.2,63.5,19.2z"/>
	<polygon id="И_2_" class="st4" points="72.3,14 68.8,18.7 68.8,14 68,14 68,20 68.8,20 72.3,15.3 72.3,20 73,20 73,14 	"/>
	<polygon id="T_2_" class="st4" points="76,14 76,14.7 78,14.7 78,20 78.8,20 78.8,14.7 80.8,14.7 80.8,14 	"/>
	<polygon id="E_1_" class="st4" points="88,14.7 88,14 84,14 84,20 88,20 88,19.2 84.8,19.2 84.8,17.2 88,17.2 88,16.5 84.8,16.5 
		84.8,14.7 	"/>
	<polygon id="K" class="st4" points="95.3,14 94.3,14 91.8,17 91.8,14 91,14 91,20 91.8,20 91.8,18.2 92.2,17.6 94.3,20 95.3,20 
		92.7,17 	"/>
</g>
<g id="PACS">
	<path id="Р_1_" class="st5" d="M165.5,26H162v8h1v-3h2.5c1.4,0,2.5-1.1,2.5-2.5S166.9,26,165.5,26z M165.5,30H163v-3h2.5
		c0.8,0,1.5,0.7,1.5,1.5S166.3,30,165.5,30z"/>
	<path id="A" class="st5" d="M176.9,34h1.1l-3.6-8H174h-0.4l-3.6,8h1.1l0.9-2h4L176.9,34z M172.4,31l1.6-3.5l1.6,3.5H172.4z"/>
	<path id="C_1_" class="st5" d="M185,33c-1.7,0-3-1.3-3-3s1.3-3,3-3c0.8,0,1.6,0.3,2.1,0.9l0.7-0.7c-0.7-0.7-1.7-1.2-2.8-1.2
		c-2.2,0-4,1.8-4,4s1.8,4,4,4c1.1,0,2.1-0.4,2.8-1.2l-0.7-0.7C186.6,32.7,185.8,33,185,33z"/>
	<path id="S_1_" class="st5" d="M191,32.8l0.6-0.7c0.5,0.6,1.4,1.1,2.5,1.1c1.4,0,1.9-0.7,1.9-1.3c0-2-4.7-0.9-4.7-3.7
		c0-1.3,1.2-2.1,2.7-2.1c1.2,0,2.2,0.4,2.8,1.1l-0.6,0.7c-0.6-0.6-1.4-0.9-2.3-0.9c-1,0-1.6,0.5-1.6,1.2c0,1.7,4.7,0.7,4.7,3.6
		c0,1.1-0.8,2.3-2.9,2.3C192.7,34,191.7,33.5,191,32.8z"/>
	<path id="_x28_" class="st5" d="M157.7,36.4c-1.1-1.5-1.7-3.4-1.7-5.3c0-1.9,0.6-3.8,1.7-5.3l0.5,0.4c-0.8,1.5-1.2,2.9-1.2,4.9
		c0,2,0.5,3.4,1.2,4.9L157.7,36.4z"/>
	<path id="_x29_" class="st5" d="M200.8,36c0.8-1.5,1.2-2.9,1.2-4.9c0-2-0.5-3.4-1.2-4.9l0.5-0.4c1.1,1.5,1.7,3.4,1.7,5.3
		c0,1.9-0.6,3.8-1.7,5.3L200.8,36z"/>
</g>
</svg>
