<?xml version="1.0" encoding="utf-8"?>
<!-- Generator: Adobe Illustrator 23.1.0, SVG Export Plug-In . SVG Version: 6.00 Build 0)  -->
<svg version="1.1" id="Слой_1" xmlns="http://www.w3.org/2000/svg" xmlns:xlink="http://www.w3.org/1999/xlink" x="0px" y="0px"
	 viewBox="0 0 246 40" style="enable-background:new 0 0 246 40;" xml:space="preserve">
<style type="text/css">
	.st0{fill:url(#SVGID_1_);}
	.st1{fill:url(#SVGID_2_);}
	.st2{fill:url(#SVGID_3_);}
	.st3{fill:#26272A;}
	.st4{fill:#50D691;}
	.st5{fill:#9A9A9D;}
</style>
<g>
	
		<linearGradient id="SVGID_1_" gradientUnits="userSpaceOnUse" x1="3" y1="145.4646" x2="3" y2="121.4646" gradientTransform="matrix(1 0 0 1 0 -111.4646)">
		<stop  offset="0.25" style="stop-color:#4CD3A7"/>
		<stop  offset="1" style="stop-color:#50D691"/>
	</linearGradient>
	<polygon class="st0" points="6,10 6,30 0,34 0,16 	"/>
	
		<linearGradient id="SVGID_2_" gradientUnits="userSpaceOnUse" x1="0" y1="142.4646" x2="24" y2="142.4646" gradientTransform="matrix(1 0 0 1 0 -111.4646)">
		<stop  offset="0.25" style="stop-color:#4CD3A7"/>
		<stop  offset="0.75" style="stop-color:#48D0BB"/>
	</linearGradient>
	<polygon class="st1" points="18,28 24,34 0,34 6,28 	"/>
	
		<linearGradient id="SVGID_3_" gradientUnits="userSpaceOnUse" x1="15" y1="145.4646" x2="15" y2="113.4646" gradientTransform="matrix(1 0 0 1 0 -111.4646)">
		<stop  offset="0.1875" style="stop-color:#48D0BB"/>
		<stop  offset="1" style="stop-color:#3FC9E6"/>
	</linearGradient>
	<polygon class="st2" points="6,2 24,20 24,34 18,30 18,22 6,10 	"/>
</g>
<g id="DICOM">
	<path id="D" class="st3" d="M38.9,26H36v8h2.9c2.2,0,4-1.8,4-4S41.1,26,38.9,26z M38.9,33H37v-6h1.9c1.7,0,3,1.3,3,3
		S40.5,33,38.9,33z"/>
	<rect id="I" x="46" y="26" class="st3" width="1" height="8"/>
	<path id="C" class="st3" d="M56,33c-1.7,0-3-1.3-3-3s1.3-3,3-3c0.8,0,1.6,0.3,2.1,0.9l0.7-0.7C58.1,26.4,57.1,26,56,26
		c-2.2,0-4,1.8-4,4s1.8,4,4,4c1.1,0,2.1-0.4,2.8-1.2l-0.7-0.7C57.6,32.7,56.8,33,56,33z"/>
	<path id="O" class="st3" d="M66,27c1.7,0,3,1.3,3,3s-1.3,3-3,3s-3-1.3-3-3S64.3,27,66,27 M66,26c-2.2,0-4,1.8-4,4s1.8,4,4,4
		s4-1.8,4-4S68.2,26,66,26L66,26z"/>
	<polygon id="M" class="st3" points="80.5,26 78,32 75.5,26 74,26 74,34 75,34 75,27.4 77.7,34 78.3,34 81,27.4 81,34 82,34 82,26 	
		"/>
	<rect id="_x2D_" x="86" y="30" class="st3" width="3" height="1"/>
</g>
<g id="ПРОСМОТРЩИК">
	<polygon id="П" class="st3" points="94,34 94,27 99,27 99,34 100,34 100,26 93,26 93,34 	"/>
	<path id="Р" class="st3" d="M107.5,26H104v8h1v-3h2.5c1.4,0,2.5-1.1,2.5-2.5S108.9,26,107.5,26z M107.5,30H105v-3h2.5
		c0.8,0,1.5,0.7,1.5,1.5S108.3,30,107.5,30z"/>
	<path id="O_1_" class="st3" d="M117,27c1.7,0,3,1.3,3,3s-1.3,3-3,3s-3-1.3-3-3S115.3,27,117,27 M117,26c-2.2,0-4,1.8-4,4s1.8,4,4,4
		s4-1.8,4-4S119.2,26,117,26L117,26z"/>
	<path id="C_1_" class="st3" d="M128.2,33c-1.7,0-3-1.3-3-3s1.3-3,3-3c0.8,0,1.6,0.3,2.1,0.9l0.7-0.7c-0.7-0.7-1.7-1.2-2.8-1.2
		c-2.2,0-4,1.8-4,4s1.8,4,4,4c1.1,0,2.1-0.4,2.8-1.2l-0.7-0.7C129.7,32.7,129,33,128.2,33z"/>
	<polygon id="M_1_" class="st3" points="141.5,26 139,32 136.5,26 135,26 135,34 136,34 136,27.4 138.7,34 139.3,34 142,27.4 
		142,34 143,34 143,26 	"/>
	<path id="O_2_" class="st3" d="M151,27c1.7,0,3,1.3,3,3s-1.3,3-3,3s-3-1.3-3-3S149.3,27,151,27 M151,26c-2.2,0-4,1.8-4,4s1.8,4,4,4
		s4-1.8,4-4S153.2,26,151,26L151,26z"/>
	<polygon id="T" class="st3" points="158,26 158,27 161,27 161,34 162,34 162,27 165,27 165,26 	"/>
	<path id="Р_1_" class="st3" d="M171.5,26H168v8h1v-3h2.5c1.4,0,2.5-1.1,2.5-2.5S172.9,26,171.5,26z M171.5,30H169v-3h2.5
		c0.8,0,1.5,0.7,1.5,1.5S172.3,30,171.5,30z"/>
	<polygon id="Щ" class="st3" points="187,33 187,26 186,26 186,33 183,33 183,26 182,26 182,33 179,33 179,26 178,26 178,34 
		187,34 187,35 188,35 188,33 	"/>
	<polygon id="И" class="st3" points="197,26 193,32 193,26 192,26 192,34 193,34 197,28 197,34 198,34 198,26 	"/>
	<polygon id="К" class="st3" points="209,26 207.7,26 204,30.4 204,26 203,26 203,34 204,34 204,32 205,30.8 207.7,34 209,34 
		205.6,30 	"/>
</g>
<g id="LITE">
	<polygon id="L" class="st4" points="218,33 218,26 217,26 217,34 218,34 222,34 222,33 	"/>
	<rect id="I_1_" x="226" y="26" class="st4" width="1" height="8"/>
	<polygon id="T_1_" class="st4" points="230,26 230,27 233,27 233,34 234,34 234,27 237,27 237,26 	"/>
	<polygon id="E" class="st4" points="246,27 246,26 241,26 241,34 246,34 246,33 242,33 242,30 246,30 246,29 242,29 242,27 	"/>
</g>
<g id="ИНОБИТЕК_1_">
	<polygon id="И_4_" class="st5" points="40.3,14 36.8,18.7 36.8,14 36,14 36,20 36.8,20 40.3,15.3 40.3,20 41,20 41,14 	"/>
	<polygon id="Н_1_" class="st5" points="48.3,14 48.3,16.5 44.8,16.5 44.8,14 44,14 44,20 44.8,20 44.8,17.2 48.3,17.2 48.3,20 
		49,20 49,14 	"/>
	<path id="О_2_" class="st5" d="M55,14.7c1.2,0,2.3,1,2.3,2.3s-1,2.3-2.3,2.3s-2.3-1-2.3-2.3S53.8,14.7,55,14.7 M55,14
		c-1.7,0-3,1.3-3,3s1.3,3,3,3s3-1.3,3-3S56.7,14,55,14L55,14z"/>
	<path id="Б_1_" class="st5" d="M63.5,16.5h-1.8v-1.8H65V14h-4v6h2.5c1,0,1.8-0.8,1.8-1.8S64.5,16.5,63.5,16.5z M63.5,19.2h-1.8v-2
		h1.8c0.6,0,1,0.4,1,1S64.1,19.2,63.5,19.2z"/>
	<polygon id="И_3_" class="st5" points="72.3,14 68.8,18.7 68.8,14 68,14 68,20 68.8,20 72.3,15.3 72.3,20 73,20 73,14 	"/>
	<polygon id="T_3_" class="st5" points="76,14 76,14.7 78,14.7 78,20 78.8,20 78.8,14.7 80.8,14.7 80.8,14 	"/>
	<polygon id="E_2_" class="st5" points="88,14.7 88,14 84,14 84,20 88,20 88,19.2 84.8,19.2 84.8,17.2 88,17.2 88,16.5 84.8,16.5 
		84.8,14.7 	"/>
	<polygon id="K_1_" class="st5" points="95.3,14 94.3,14 91.8,17 91.8,14 91,14 91,20 91.8,20 91.8,18.2 92.2,17.6 94.3,20 95.3,20 
		92.7,17 	"/>
</g>
</svg>
