<svg width="454" height="72" viewBox="0 0 454 72" fill="none" xmlns="http://www.w3.org/2000/svg">
<path d="M13.0335 0V17.4545L39.1005 43.6364V56.7273H13.0335V17.4545L0 30.5455V69.8182H52.134V39.2727L13.0335 0Z" fill="#007EB6"/>
<path d="M84.5007 52.3633H78.2012V69.8178H84.5007C86.8052 69.8178 89.0152 68.8983 90.6447 67.2617C92.2742 65.625 93.1897 63.4052 93.1897 61.0906C93.1897 58.7759 92.2742 56.5561 90.6447 54.9194C89.0152 53.2828 86.8052 52.3633 84.5007 52.3633ZM84.5007 67.636H80.3734V54.5451H84.5007C86.229 54.5451 87.8866 55.2347 89.1087 56.4622C90.3309 57.6897 91.0174 59.3546 91.0174 61.0906C91.0174 62.8265 90.3309 64.4914 89.1087 65.7189C87.8866 66.9464 86.229 67.636 84.5007 67.636Z" fill="#26272A"/>
<path d="M102.096 52.3633H99.9238V69.8178H102.096V52.3633Z" fill="#26272A"/>
<path d="M121.646 67.6372C119.918 67.6372 118.26 66.9476 117.038 65.7201C115.816 64.4926 115.129 62.8277 115.129 61.0917C115.129 59.3558 115.816 57.6909 117.038 56.4634C118.26 55.2359 119.918 54.5463 121.646 54.5463C122.503 54.5217 123.354 54.6846 124.142 55.0237C124.93 55.3628 125.635 55.8699 126.208 56.5099L127.728 54.9826C126.964 54.1297 126.024 53.4538 124.974 53.0017C123.924 52.5496 122.788 52.3322 121.646 52.3645C119.342 52.3645 117.131 53.2839 115.502 54.9206C113.872 56.5573 112.957 58.7771 112.957 61.0917C112.957 63.4063 113.872 65.6262 115.502 67.2628C117.131 68.8995 119.342 69.819 121.646 69.819C122.788 69.8513 123.924 69.6338 124.974 69.1818C126.024 68.7297 126.964 68.0538 127.728 67.2008L126.208 65.6735C125.635 66.3136 124.93 66.8207 124.142 67.1598C123.354 67.4988 122.503 67.6617 121.646 67.6372Z" fill="#26272A"/>
<path d="M143.369 54.5451C144.658 54.5451 145.918 54.929 146.989 55.6482C148.061 56.3674 148.896 57.3897 149.389 58.5857C149.883 59.7817 150.012 61.0978 149.76 62.3675C149.509 63.6372 148.888 64.8035 147.977 65.7189C147.065 66.6343 145.904 67.2577 144.64 67.5102C143.376 67.7628 142.066 67.6332 140.875 67.1378C139.684 66.6424 138.666 65.8034 137.95 64.727C137.234 63.6506 136.852 62.3851 136.852 61.0906C136.837 60.2269 136.996 59.3692 137.318 58.5684C137.64 57.7675 138.12 57.0401 138.728 56.4293C139.336 55.8186 140.06 55.337 140.858 55.0133C141.655 54.6896 142.509 54.5303 143.369 54.5451ZM143.369 52.3633C141.65 52.3633 139.97 52.8751 138.541 53.8341C137.112 54.7931 135.999 56.1561 135.341 57.7508C134.683 59.3455 134.511 61.1002 134.847 62.7932C135.182 64.4861 136.009 66.0411 137.225 67.2617C138.44 68.4822 139.988 69.3134 141.674 69.6501C143.359 69.9869 145.106 69.814 146.694 69.1535C148.282 68.493 149.639 67.3744 150.593 65.9392C151.548 64.504 152.058 62.8166 152.058 61.0906C152.058 58.7759 151.142 56.5561 149.513 54.9194C147.883 53.2828 145.673 52.3633 143.369 52.3633Z" fill="#26272A"/>
<path d="M174.866 52.3633L169.435 65.4542L164.004 52.3633H160.746V69.8178H162.918V55.4178L168.783 69.8178H170.087L175.952 55.4178V69.8178H178.124V52.3633H174.866Z" fill="#26272A"/>
<path d="M193.33 61.0908H186.813V63.2726H193.33V61.0908Z" fill="#26272A"/>
<path d="M204.192 69.8178V54.5451H215.053V69.8178H217.225V52.3633H202.02V69.8178H204.192Z" fill="#26272A"/>
<path d="M233.517 52.3633H225.914V69.8178H228.086V63.2724H233.517C234.957 63.2724 236.339 62.6977 237.357 61.6748C238.375 60.6518 238.948 59.2645 238.948 57.8178C238.948 56.3712 238.375 54.9838 237.357 53.9609C236.339 52.938 234.957 52.3633 233.517 52.3633ZM233.517 61.0906H228.086V54.5451H233.517C234.381 54.5451 235.21 54.8899 235.821 55.5037C236.432 56.1174 236.775 56.9498 236.775 57.8178C236.775 58.6858 236.432 59.5182 235.821 60.132C235.21 60.7457 234.381 61.0906 233.517 61.0906Z" fill="#26272A"/>
<path d="M254.153 54.5451C255.442 54.5451 256.702 54.929 257.773 55.6482C258.845 56.3674 259.68 57.3897 260.174 58.5857C260.667 59.7817 260.796 61.0978 260.544 62.3675C260.293 63.6372 259.672 64.8035 258.761 65.7189C257.85 66.6343 256.688 67.2577 255.424 67.5102C254.16 67.7628 252.85 67.6332 251.659 67.1378C250.468 66.6424 249.45 65.8034 248.734 64.727C248.018 63.6506 247.636 62.3851 247.636 61.0906C247.621 60.2269 247.78 59.3692 248.102 58.5684C248.425 57.7675 248.904 57.0401 249.512 56.4293C250.12 55.8186 250.844 55.337 251.642 55.0133C252.439 54.6896 253.293 54.5303 254.153 54.5451ZM254.153 52.3633C252.434 52.3633 250.754 52.8751 249.326 53.8341C247.897 54.7931 246.783 56.1561 246.125 57.7508C245.468 59.3455 245.296 61.1002 245.631 62.7932C245.966 64.4861 246.794 66.0411 248.009 67.2617C249.224 68.4822 250.772 69.3134 252.458 69.6501C254.143 69.9869 255.89 69.814 257.478 69.1535C259.066 68.493 260.423 67.3744 261.378 65.9392C262.332 64.504 262.842 62.8166 262.842 61.0906C262.842 58.7759 261.926 56.5561 260.297 54.9194C258.667 53.2828 256.457 52.3633 254.153 52.3633Z" fill="#26272A"/>
<path d="M278.482 67.6361C276.754 67.6361 275.096 66.9465 273.874 65.719C272.652 64.4915 271.965 62.8266 271.965 61.0907C271.965 59.3547 272.652 57.6898 273.874 56.4623C275.096 55.2348 276.754 54.5452 278.482 54.5452C279.339 54.5207 280.19 54.6836 280.978 55.0226C281.766 55.3617 282.471 55.8688 283.044 56.5089L284.564 54.9816C283.558 53.9505 282.312 53.1863 280.939 52.7577C279.566 52.329 278.109 52.2492 276.698 52.5254C275.287 52.8016 273.966 53.4252 272.854 54.3403C271.742 55.2554 270.873 56.4334 270.325 57.7686C269.778 59.1039 269.569 60.5547 269.717 61.9911C269.865 63.4274 270.366 64.8044 271.174 65.9985C271.983 67.1927 273.074 68.1667 274.349 68.8333C275.624 69.4999 277.044 69.8382 278.482 69.8179C279.624 69.8502 280.76 69.6328 281.81 69.1807C282.86 68.7286 283.8 68.0527 284.564 67.1998L283.044 65.6725C282.457 66.295 281.749 66.7904 280.965 67.1281C280.18 67.4658 279.335 67.6387 278.482 67.6361Z" fill="#26272A"/>
<path d="M307.374 52.3633L301.943 65.4542L296.512 52.3633H293.254V69.8178H295.426V55.4178L301.291 69.8178H302.595L308.46 55.4178V69.8178H310.632V52.3633H307.374Z" fill="#26272A"/>
<path d="M328.009 54.5451C329.298 54.5451 330.558 54.929 331.63 55.6482C332.702 56.3674 333.537 57.3897 334.03 58.5857C334.523 59.7817 334.652 61.0978 334.401 62.3675C334.149 63.6372 333.529 64.8035 332.617 65.7189C331.706 66.6343 330.545 67.2577 329.281 67.5102C328.017 67.7628 326.706 67.6332 325.515 67.1378C324.325 66.6424 323.307 65.8034 322.591 64.727C321.875 63.6506 321.493 62.3851 321.493 61.0906C321.478 60.2269 321.636 59.3692 321.959 58.5684C322.281 57.7675 322.76 57.0401 323.369 56.4293C323.977 55.8186 324.701 55.337 325.498 55.0133C326.295 54.6896 327.149 54.5303 328.009 54.5451ZM328.009 52.3633C326.291 52.3633 324.611 52.8751 323.182 53.8341C321.753 54.7931 320.639 56.1561 319.982 57.7508C319.324 59.3455 319.152 61.1002 319.487 62.7932C319.823 64.4861 320.65 66.0411 321.865 67.2617C323.08 68.4822 324.629 69.3134 326.314 69.6501C328 69.9869 329.747 69.814 331.334 69.1535C332.922 68.493 334.279 67.3744 335.234 65.9392C336.189 64.504 336.698 62.8166 336.698 61.0906C336.698 58.7759 335.783 56.5561 334.153 54.9194C332.524 53.2828 330.314 52.3633 328.009 52.3633Z" fill="#26272A"/>
<path d="M343.215 52.3633V54.5451H349.732V69.8178H351.904V54.5451H358.421V52.3633H343.215Z" fill="#26272A"/>
<path d="M372.54 52.3633H364.938V69.8178H367.11V63.2724H372.54C373.981 63.2724 375.362 62.6977 376.38 61.6748C377.399 60.6518 377.971 59.2645 377.971 57.8178C377.971 56.3712 377.399 54.9838 376.38 53.9609C375.362 52.938 373.981 52.3633 372.54 52.3633ZM372.54 61.0906H367.11V54.5451H372.54C373.405 54.5451 374.233 54.8899 374.844 55.5037C375.455 56.1174 375.799 56.9498 375.799 57.8178C375.799 58.6858 375.455 59.5182 374.844 60.132C374.233 60.7457 373.405 61.0906 372.54 61.0906Z" fill="#26272A"/>
<path d="M406.21 67.636V52.3633H404.038V67.636H397.521V52.3633H395.349V67.636H388.832V52.3633H386.66V69.8178H406.21V71.9996H408.383V67.636H406.21Z" fill="#26272A"/>
<path d="M427.933 52.3633L419.244 65.4542V52.3633H417.071V69.8178H419.244L427.933 56.7269V69.8178H430.105V52.3633H427.933Z" fill="#26272A"/>
<path d="M454 52.3633H451.176L443.139 61.9633V52.3633H440.967V69.8178H443.139V65.4542L445.311 62.836L451.176 69.8178H454L446.615 61.0906L454 52.3633Z" fill="#26272A"/>
<path d="M87.4332 26.1816L79.8304 36.5235V26.1816H78.2012V39.2726H79.8304L87.4332 28.9307V39.2726H89.0624V26.1816H87.4332Z" fill="#747477"/>
<path d="M104.811 26.1816V31.6362H97.2083V26.1816H95.5791V39.2726H97.2083V33.2726H104.811V39.2726H106.44V26.1816H104.811Z" fill="#747477"/>
<path d="M119.474 27.818C120.44 27.818 121.385 28.1059 122.189 28.6453C122.993 29.1848 123.619 29.9514 123.989 30.8485C124.359 31.7455 124.456 32.7325 124.267 33.6848C124.079 34.6371 123.613 35.5118 122.93 36.1983C122.246 36.8849 121.375 37.3524 120.427 37.5419C119.479 37.7313 118.496 37.6341 117.603 37.2625C116.71 36.8909 115.947 36.2617 115.41 35.4544C114.873 34.6471 114.586 33.698 114.586 32.7271C114.586 31.4251 115.101 30.1765 116.018 29.2558C116.934 28.3352 118.178 27.818 119.474 27.818ZM119.474 26.1816C118.185 26.1816 116.925 26.5655 115.853 27.2847C114.782 28.004 113.946 29.0262 113.453 30.2223C112.96 31.4183 112.831 32.7344 113.082 34.004C113.334 35.2737 113.954 36.44 114.866 37.3554C115.777 38.2708 116.938 38.8942 118.202 39.1468C119.467 39.3993 120.777 39.2697 121.968 38.7743C123.158 38.2789 124.176 37.4399 124.892 36.3636C125.608 35.2872 125.991 34.0217 125.991 32.7271C125.991 30.9911 125.304 29.3263 124.082 28.0988C122.86 26.8712 121.202 26.1816 119.474 26.1816Z" fill="#747477"/>
<path d="M137.937 31.6362H134.136V27.818H141.196V26.1816H132.507V39.2726H137.937C138.946 39.2726 139.913 38.8703 140.625 38.1542C141.338 37.4382 141.739 36.467 141.739 35.4544C141.739 34.4417 141.338 33.4706 140.625 32.7545C139.913 32.0385 138.946 31.6362 137.937 31.6362ZM137.937 37.6362H134.136V33.2726H137.937C138.514 33.2726 139.066 33.5024 139.473 33.9116C139.881 34.3208 140.11 34.8757 140.11 35.4544C140.11 36.033 139.881 36.588 139.473 36.9972C139.066 37.4063 138.514 37.6362 137.937 37.6362Z" fill="#747477"/>
<path d="M156.945 26.1816L149.342 36.5235V26.1816H147.713V39.2726H149.342L156.945 28.9307V39.2726H158.574V26.1816H156.945Z" fill="#747477"/>
<path d="M165.091 26.1816V27.818H169.435V39.2726H171.064V27.818H175.409V26.1816H165.091Z" fill="#747477"/>
<path d="M191.158 27.818V26.1816H182.469V39.2726H191.158V37.6362H184.098V33.2726H191.158V31.6362H184.098V27.818H191.158Z" fill="#747477"/>
<path d="M206.907 26.1816H204.778L199.304 32.7489V26.1816H197.675V39.2726H199.304V35.2798L200.39 33.9926L204.778 39.2726H206.907L201.433 32.7271L206.907 26.1816Z" fill="#747477"/>
<path d="M231.888 39.2726L228.999 28.7125L226.131 39.2726H224.372L220.657 26.1816H222.46L225.349 37.0907L228.347 26.1816H229.694L232.691 37.0907L235.559 26.1816H237.362L233.647 39.2726H231.888Z" fill="#007EB6"/>
<path d="M243.292 39.2726V26.1816H251.851V27.6216H244.921V31.8544H251.699V33.3162H244.921V37.8107H251.851V39.2726H243.292Z" fill="#007EB6"/>
<path d="M258.498 39.2721V26.1812H264.32C264.784 26.1282 265.254 26.1756 265.699 26.3201C266.144 26.4645 266.553 26.7028 266.898 27.0189C267.244 27.335 267.518 27.7216 267.703 28.1529C267.887 28.5841 267.978 29.05 267.969 29.5194C267.998 30.1911 267.798 30.8526 267.404 31.3957C267.009 31.9388 266.442 32.3311 265.797 32.5084C266.522 32.6769 267.169 33.0884 267.631 33.6753C268.093 34.2621 268.343 34.9894 268.338 35.7375C268.359 36.2398 268.27 36.7406 268.076 37.2043C267.883 37.668 267.59 38.0833 267.219 38.4206C266.848 38.758 266.408 39.0091 265.929 39.1563C265.451 39.3034 264.946 39.343 264.45 39.2721H258.498ZM266.275 29.7594C266.275 29.1807 266.046 28.6257 265.638 28.2166C265.231 27.8074 264.679 27.5775 264.102 27.5775H260.192V31.8539H264.102C264.394 31.8769 264.686 31.8362 264.96 31.7347C265.234 31.6332 265.483 31.4732 265.689 31.2658C265.896 31.0585 266.055 30.8086 266.156 30.5335C266.257 30.2583 266.298 29.9645 266.275 29.6721V29.7594ZM266.535 35.4757C266.537 35.1678 266.474 34.863 266.35 34.5814C266.227 34.2997 266.045 34.0476 265.817 33.8415C265.589 33.6354 265.321 33.4801 265.029 33.3857C264.737 33.2913 264.429 33.26 264.124 33.2939H260.127V37.8103H264.124C264.429 37.8441 264.737 37.8129 265.029 37.7185C265.321 37.6241 265.589 37.4688 265.817 37.2627C266.045 37.0566 266.227 36.8045 266.35 36.5228C266.474 36.2411 266.537 35.9363 266.535 35.6284" fill="#007EB6"/>
</svg>
