<svg width="406" height="69" viewBox="0 0 406 69" fill="none" xmlns="http://www.w3.org/2000/svg">
<path d="M11.998 52.1745V16.042L0 28.1007V52.1745V64.2114L11.998 52.1745Z" fill="url(#paint0_linear)"/>
<path d="M35.9939 52.1738H11.998V56.1789L0 64.2107H11.998H47.9919L35.9939 56.1789V52.1738Z" fill="url(#paint1_linear)"/>
<path d="M11.998 52.1738L0 64.2107L11.998 56.1789V52.1738Z" fill="url(#paint2_linear)"/>
<path d="M11.998 52.1738L0 64.2107L11.998 56.1789V52.1738Z" fill="url(#paint3_linear)"/>
<path d="M11.998 16.042L35.994 40.1375V52.1744L47.992 64.2114V52.1744V36.1107L11.998 0V16.042Z" fill="url(#paint4_linear)"/>
<path d="M35.9941 52.1738V56.1789L47.9921 64.2107L35.9941 52.1738Z" fill="url(#paint5_linear)"/>
<path d="M35.9941 52.1738V56.1789L47.9921 64.2107L35.9941 52.1738Z" fill="url(#paint6_linear)"/>
<path d="M77.6942 48.1475H72.0098V64.2112H77.6942C79.8175 64.2112 81.8538 63.365 83.3552 61.8587C84.8566 60.3524 85.7 58.3095 85.7 56.1793C85.7 54.0491 84.8566 52.0062 83.3552 50.4999C81.8538 48.9937 79.8175 48.1475 77.6942 48.1475ZM77.6942 62.2087H74.0058V50.1717H77.6942C78.5123 50.1224 79.3319 50.2414 80.1025 50.5215C80.8731 50.8017 81.5784 51.237 82.1751 51.8007C82.7718 52.3644 83.2473 53.0446 83.5723 53.7995C83.8973 54.5543 84.0649 55.3679 84.0649 56.1902C84.0649 57.0125 83.8973 57.8261 83.5723 58.581C83.2473 59.3358 82.7718 60.016 82.1751 60.5797C81.5784 61.1435 80.8731 61.5788 80.1025 61.8589C79.3319 62.139 78.5123 62.258 77.6942 62.2087Z" fill="#26272A"/>
<path d="M93.9882 48.1475H91.9922V64.2112H93.9882V48.1475Z" fill="#26272A"/>
<path d="M111.996 62.2087C111.009 62.1969 110.041 61.9418 109.176 61.4658C108.312 60.9898 107.577 60.3075 107.037 59.4793C106.497 58.651 106.169 57.7022 106.081 56.7165C105.993 55.7308 106.149 54.7386 106.534 53.8274C106.918 52.9162 107.521 52.1141 108.288 51.4918C109.055 50.8695 109.963 50.4461 110.931 50.2591C111.9 50.072 112.9 50.1271 113.842 50.4193C114.784 50.7116 115.641 51.2321 116.335 51.9348L117.745 50.4982C116.814 49.5647 115.668 48.8759 114.408 48.4928C113.149 48.1097 111.814 48.0442 110.523 48.302C109.232 48.5598 108.024 49.1329 107.007 49.9708C105.989 50.8086 105.193 51.8852 104.69 53.1052C104.186 54.3252 103.99 55.6511 104.119 56.9654C104.247 58.2796 104.697 59.5418 105.428 60.64C106.159 61.7382 107.149 62.6386 108.31 63.2615C109.47 63.8844 110.766 64.2106 112.083 64.2112C113.134 64.214 114.176 64.0077 115.148 63.6042C116.12 63.2007 117.003 62.6081 117.745 61.8604L116.335 60.4456C115.767 61.0168 115.09 61.4673 114.344 61.7702C113.599 62.0731 112.8 62.2222 111.996 62.2087Z" fill="#26272A"/>
<path d="M132 50.1717C133.19 50.1674 134.355 50.518 135.347 51.1788C136.339 51.8397 137.112 52.7811 137.57 53.8837C138.027 54.9863 138.148 56.2004 137.917 57.372C137.686 58.5436 137.113 59.6199 136.271 60.4644C135.429 61.309 134.357 61.8836 133.189 62.1156C132.021 62.3475 130.811 62.2263 129.712 61.7673C128.613 61.3082 127.674 60.5321 127.016 59.5372C126.357 58.5424 126.008 57.3737 126.012 56.1793C126.018 54.5878 126.65 53.0631 127.772 51.9377C128.894 50.8123 130.414 50.1775 132 50.1717ZM132 48.1475C130.417 48.1475 128.869 48.6185 127.552 49.5011C126.236 50.3836 125.21 51.638 124.604 53.1057C123.998 54.5733 123.839 56.1882 124.148 57.7463C124.457 59.3043 125.219 60.7354 126.339 61.8587C127.459 62.982 128.885 63.7469 130.438 64.0569C131.991 64.3668 133.601 64.2077 135.064 63.5998C136.527 62.9919 137.777 61.9624 138.657 60.6416C139.536 59.3208 140.006 57.7679 140.006 56.1793C140.006 54.0491 139.162 52.0062 137.661 50.4999C136.16 48.9937 134.123 48.1475 132 48.1475Z" fill="#26272A"/>
<path d="M161.007 48.1475L155.995 60.2714L151.005 48.1475H148.011V64.2112H150.007V50.9771L155.453 64.2112H156.537L162.005 50.9771V64.2112H164.001V48.1475H161.007Z" fill="#26272A"/>
<path d="M177.996 56.1787H172.008V58.1812H177.996V56.1787Z" fill="#26272A"/>
<path d="M194.006 62.2086C193.02 62.1969 192.051 61.9418 191.187 61.4658C190.322 60.9898 189.587 60.3075 189.047 59.4793C188.507 58.651 188.179 57.7021 188.091 56.7165C188.004 55.7308 188.159 54.7386 188.544 53.8274C188.929 52.9162 189.531 52.1141 190.298 51.4917C191.065 50.8694 191.973 50.4461 192.942 50.2591C193.91 50.072 194.91 50.1271 195.852 50.4193C196.795 50.7116 197.651 51.232 198.345 51.9348L199.604 50.4982C198.672 49.5641 197.525 48.875 196.264 48.492C195.003 48.1091 193.668 48.0442 192.376 48.303C191.084 48.5619 189.876 49.1365 188.859 49.9759C187.842 50.8154 187.046 51.8937 186.544 53.1153C186.041 54.3369 185.847 55.664 185.978 56.9789C186.109 58.2939 186.562 59.556 187.296 60.6535C188.029 61.751 189.022 62.6499 190.185 63.2705C191.348 63.8911 192.645 64.2142 193.963 64.2112C195.012 64.2159 196.051 64.0105 197.02 63.6068C197.988 63.2031 198.867 62.6093 199.604 61.8604L198.193 60.4456C197.626 61.0178 196.949 61.4689 196.203 61.7719C195.458 62.0749 194.659 62.2235 193.854 62.2086" fill="#26272A"/>
<path d="M218.003 50.1717V48.1475H208.001V64.2112H218.003V62.2087H209.997V56.1793H218.003V54.1768H209.997V50.1717H218.003Z" fill="#26272A"/>
<path d="M232.995 48.1476H226.009V64.2113H228.005V58.182H232.995C233.679 58.2272 234.366 58.1311 235.012 57.8994C235.658 57.6677 236.249 57.3055 236.75 56.8352C237.251 56.3649 237.65 55.7965 237.923 55.1651C238.196 54.5338 238.336 53.8529 238.336 53.1648C238.336 52.4766 238.196 51.7958 237.923 51.1645C237.65 50.5331 237.251 49.9647 236.75 49.4944C236.249 49.024 235.658 48.6618 235.012 48.4302C234.366 48.1985 233.679 48.1024 232.995 48.1476ZM232.995 56.1795H228.005V50.1719H232.995C233.789 50.1719 234.551 50.4884 235.112 51.0517C235.674 51.615 235.989 52.379 235.989 53.1757C235.989 53.9723 235.674 54.7364 235.112 55.2997C234.551 55.863 233.789 56.1795 232.995 56.1795Z" fill="#26272A"/>
<path d="M256.297 55.4393C256.996 54.9512 257.521 54.2517 257.795 53.443C258.069 52.6343 258.079 51.7587 257.822 50.9443C257.565 50.1298 257.055 49.4191 256.367 48.9159C255.679 48.4128 254.849 48.1435 253.997 48.1475H245.991V64.2112H252.999C254 64.1986 254.975 63.884 255.795 63.3084C256.616 62.7327 257.245 61.9227 257.601 60.9836C257.957 60.0445 258.022 59.0198 257.79 58.0427C257.557 57.0655 257.037 56.1812 256.297 55.5046V55.4393ZM248.009 50.2371H253.997C254.526 50.2371 255.034 50.4481 255.409 50.8236C255.783 51.1992 255.993 51.7085 255.993 52.2396C255.993 52.7707 255.783 53.2801 255.409 53.6556C255.034 54.0312 254.526 54.2421 253.997 54.2421H248.009V50.2371ZM252.999 62.274H248.009V56.1794H252.999C253.752 56.2436 254.453 56.589 254.964 57.1473C255.476 57.7056 255.759 58.436 255.759 59.194C255.759 59.9521 255.476 60.6825 254.964 61.2408C254.453 61.799 253.752 62.1445 252.999 62.2087" fill="#26272A"/>
<path d="M275.996 50.1717V48.1475H265.994V64.2112H275.996V62.2087H268.012V56.1793H275.996V54.1768H268.012V50.1717H275.996Z" fill="#26272A"/>
<path d="M291.011 48.1475H284.003V64.2112H285.999V58.1818H291.011C292.28 58.0979 293.47 57.5328 294.34 56.6012C295.209 55.6695 295.693 54.4409 295.693 53.1647C295.693 51.8884 295.209 50.6598 294.34 49.7282C293.47 48.7965 292.28 48.2314 291.011 48.1475ZM291.011 56.1793H285.999V50.1717H291.011C291.805 50.1717 292.566 50.4882 293.128 51.0515C293.689 51.6149 294.005 52.3789 294.005 53.1755C294.005 53.9722 293.689 54.7362 293.128 55.2995C292.566 55.8629 291.805 56.1793 291.011 56.1793Z" fill="#26272A"/>
<path d="M80.493 24.0732L73.5068 33.5852V24.0732H72.0098V36.1102H73.5068L80.493 26.6199V36.1102H81.99V24.0732H80.493Z" fill="#9A999C"/>
<path d="M96.5039 24.0732V29.1013H89.4961V24.0732H87.999V36.1102H89.4961V30.6032H96.5039V36.1102H98.0009V24.0732H96.5039Z" fill="#9A999C"/>
<path d="M109.999 25.5751C110.893 25.5708 111.767 25.8327 112.512 26.3275C113.257 26.8224 113.839 27.528 114.184 28.3549C114.529 29.1818 114.621 30.0928 114.449 30.9724C114.278 31.8521 113.85 32.6608 113.219 33.2962C112.589 33.9315 111.785 34.3649 110.909 34.5414C110.033 34.7178 109.125 34.6295 108.299 34.2874C107.473 33.9454 106.767 33.3651 106.27 32.6201C105.773 31.8751 105.508 30.9989 105.508 30.1026C105.508 28.9056 105.98 27.7573 106.822 26.9089C107.664 26.0604 108.806 25.5809 109.999 25.5751ZM109.999 24.0732C108.81 24.0732 107.649 24.4269 106.66 25.0894C105.672 25.7519 104.902 26.6935 104.447 27.7953C103.992 28.897 103.873 30.1093 104.105 31.2788C104.337 32.4484 104.909 33.5227 105.75 34.366C106.59 35.2092 107.661 35.7834 108.827 36.0161C109.992 36.2487 111.201 36.1293 112.299 35.673C113.397 35.2166 114.336 34.4438 114.996 33.4523C115.656 32.4608 116.009 31.2951 116.009 30.1026C116.009 29.3108 115.853 28.5268 115.551 27.7953C115.249 27.0637 114.807 26.3991 114.249 25.8392C113.691 25.2793 113.028 24.8352 112.299 24.5322C111.57 24.2292 110.788 24.0732 109.999 24.0732Z" fill="#9A999C"/>
<path d="M127.01 29.1013H123.495V25.5751H130.004V24.0732H121.998V36.1102H127.01C127.936 36.1102 128.825 35.7409 129.48 35.0837C130.135 34.4265 130.503 33.5352 130.503 32.6057C130.503 31.6763 130.135 30.7849 129.48 30.1277C128.825 29.4705 127.936 29.1013 127.01 29.1013ZM127.01 34.6083H123.495V30.6032H127.01C127.272 30.6032 127.532 30.655 127.774 30.7556C128.016 30.8563 128.236 31.0038 128.421 31.1897C128.607 31.3757 128.754 31.5964 128.854 31.8394C128.954 32.0824 129.006 32.3428 129.006 32.6057C129.006 32.8687 128.954 33.1291 128.854 33.3721C128.754 33.615 128.607 33.8358 128.421 34.0217C128.236 34.2077 128.016 34.3552 127.774 34.4558C127.532 34.5565 127.272 34.6083 127.01 34.6083Z" fill="#9A999C"/>
<path d="M144.496 24.0732L137.51 33.5852V24.0732H135.991V36.1102H137.51L144.496 26.6199V36.1102H145.993V24.0732H144.496Z" fill="#9A999C"/>
<path d="M152.003 24.0732V25.5751H155.995V36.1102H157.492V25.5751H161.506V24.0732H152.003Z" fill="#9A999C"/>
<path d="M175.999 25.5751V24.0732H167.993V36.1102H175.999V34.6083H169.512V30.6032H175.999V29.1013H169.512V25.5751H175.999Z" fill="#9A999C"/>
<path d="M190.492 24.0732H188.539L183.506 30.1026V24.0732H182.009V36.1102H183.506V32.4534L184.482 31.278L188.539 36.1102H190.492L185.458 30.1026L190.492 24.0732Z" fill="#9A999C"/>
<path d="M330.996 48.1476H324.01V64.2113H326.006V58.182H330.996C331.68 58.2272 332.367 58.1311 333.013 57.8994C333.659 57.6677 334.25 57.3055 334.751 56.8352C335.252 56.3649 335.651 55.7965 335.924 55.1651C336.197 54.5338 336.337 53.8529 336.337 53.1648C336.337 52.4766 336.197 51.7958 335.924 51.1645C335.651 50.5331 335.252 49.9647 334.751 49.4944C334.25 49.024 333.659 48.6618 333.013 48.4302C332.367 48.1985 331.68 48.1024 330.996 48.1476ZM330.996 56.1795H326.006V50.1719H330.996C331.79 50.1719 332.552 50.4884 333.113 51.0517C333.675 51.615 333.99 52.379 333.99 53.1757C333.99 53.9723 333.675 54.7364 333.113 55.2997C332.552 55.863 331.79 56.1795 330.996 56.1795Z" fill="#D92B28"/>
<path d="M353.82 64.2112H355.99L348.852 48.1475H347.138L340.021 64.2112H342.191L343.97 60.2061H352.041L353.82 64.2112ZM344.968 58.1818L348.114 51.1077L351.26 58.1818H344.968Z" fill="#D92B28"/>
<path d="M370.006 62.2087C369.02 62.1969 368.052 61.9418 367.187 61.4658C366.322 60.9898 365.587 60.3075 365.048 59.4793C364.508 58.651 364.179 57.7022 364.092 56.7165C364.004 55.7308 364.159 54.7386 364.544 53.8274C364.929 52.9162 365.531 52.1141 366.298 51.4918C367.065 50.8695 367.973 50.4461 368.942 50.2591C369.91 50.072 370.91 50.1271 371.852 50.4193C372.795 50.7116 373.651 51.2321 374.346 51.9348L375.777 50.4982C374.846 49.5647 373.7 48.8759 372.441 48.4928C371.181 48.1097 369.846 48.0442 368.555 48.302C367.264 48.5598 366.057 49.1329 365.039 49.9708C364.022 50.8086 363.226 51.8852 362.722 53.1052C362.218 54.3252 362.022 55.6511 362.151 56.9654C362.28 58.2796 362.729 59.5418 363.46 60.64C364.192 61.7382 365.181 62.6386 366.342 63.2615C367.503 63.8844 368.798 64.2106 370.115 64.2112C371.167 64.214 372.209 64.0077 373.181 63.6042C374.153 63.2007 375.035 62.6081 375.777 61.8604L374.346 60.4456C373.778 61.0178 373.101 61.4689 372.355 61.7719C371.61 62.0749 370.811 62.2235 370.006 62.2087Z" fill="#D92B28"/>
<path d="M382.005 61.7295L383.176 60.2712C383.819 60.9591 384.595 61.5073 385.457 61.8818C386.319 62.2562 387.249 62.4489 388.188 62.4478C391.03 62.4478 391.942 60.9459 391.942 59.7705C391.942 55.7437 382.504 57.9639 382.504 52.4134C382.504 49.8668 384.847 48.0601 387.971 48.0601C389.017 48.0141 390.061 48.1835 391.038 48.5578C392.016 48.9322 392.907 49.5036 393.656 50.2368L392.441 51.6516C391.844 51.0395 391.127 50.5589 390.335 50.2403C389.543 49.9218 388.694 49.7723 387.841 49.8015C385.932 49.8015 384.565 50.8027 384.565 52.2611C384.565 55.7655 394.003 53.763 394.003 59.5529C394.003 61.7295 392.419 64.1238 388.123 64.1238C386.986 64.1731 385.851 63.9771 384.796 63.549C383.74 63.121 382.789 62.4708 382.005 61.6425" fill="#D92B28"/>
<path d="M315.375 68.9993C313.186 65.8886 312.011 62.1742 312.011 58.3664C312.011 54.5585 313.186 50.8441 315.375 47.7334L316.46 48.5388C314.827 51.5435 313.971 54.9113 313.971 58.3337C313.971 61.7561 314.827 65.1239 316.46 68.1287L315.375 68.9993Z" fill="#D92B28"/>
<path d="M401.553 68.1504C403.202 65.1518 404.061 61.7803 404.048 58.3555C404.055 54.9244 403.197 51.5473 401.553 48.5388L402.616 47.7334C404.817 50.8392 406 54.5555 406 58.3664C406 62.1772 404.817 65.8935 402.616 68.9993L401.553 68.1504Z" fill="#D92B28"/>
<defs>
<linearGradient id="paint0_linear" x1="-421.249" y1="81026.4" x2="-409.251" y2="81026.4" gradientUnits="userSpaceOnUse">
<stop stop-color="#A23B8D"/>
<stop offset="0.25" stop-color="#A23B8D"/>
<stop offset="1" stop-color="#7B4694"/>
</linearGradient>
<linearGradient id="paint1_linear" x1="0.937274" y1="73.4206" x2="48.9292" y2="73.4206" gradientUnits="userSpaceOnUse">
<stop stop-color="#A23B8D"/>
<stop offset="0.25" stop-color="#A23B8D"/>
<stop offset="0.75" stop-color="#B7336E"/>
<stop offset="1" stop-color="#B7336E"/>
</linearGradient>
<linearGradient id="paint2_linear" x1="-421.249" y1="20295.6" x2="-409.251" y2="20295.6" gradientUnits="userSpaceOnUse">
<stop stop-color="#A23B8D"/>
<stop offset="0.25" stop-color="#A23B8D"/>
<stop offset="1" stop-color="#7B4694"/>
</linearGradient>
<linearGradient id="paint3_linear" x1="-1003.63" y1="20842.8" x2="-991.632" y2="20842.8" gradientUnits="userSpaceOnUse">
<stop stop-color="#A23B8D"/>
<stop offset="0.25" stop-color="#A23B8D"/>
<stop offset="0.75" stop-color="#B7336E"/>
<stop offset="1" stop-color="#B7336E"/>
</linearGradient>
<linearGradient id="paint4_linear" x1="-1674.68" y1="107965" x2="-1638.68" y2="107965" gradientUnits="userSpaceOnUse">
<stop stop-color="#B7336E"/>
<stop offset="0.19" stop-color="#B7336E"/>
<stop offset="1" stop-color="#D9281C"/>
</linearGradient>
<linearGradient id="paint5_linear" x1="0.937491" y1="73.4206" x2="48.9294" y2="73.4206" gradientUnits="userSpaceOnUse">
<stop stop-color="#A23B8D"/>
<stop offset="0.25" stop-color="#A23B8D"/>
<stop offset="0.75" stop-color="#B7336E"/>
<stop offset="1" stop-color="#B7336E"/>
</linearGradient>
<linearGradient id="paint6_linear" x1="-526.231" y1="20288.7" x2="-514.233" y2="20288.7" gradientUnits="userSpaceOnUse">
<stop stop-color="#B7336E"/>
<stop offset="0.19" stop-color="#B7336E"/>
<stop offset="1" stop-color="#D9281C"/>
</linearGradient>
</defs>
</svg>
