<svg width="434" height="104" viewBox="0 0 434 104" fill="none" xmlns="http://www.w3.org/2000/svg">
<path d="M51.8726 34.6667V69.3334L41.498 76.2668V45.0667L51.8726 34.6667Z" fill="url(#paint0_linear)"/>
<path d="M72.6216 65.8667L82.9961 76.2667H41.498L51.8725 65.8667H72.6216Z" fill="url(#paint1_linear)"/>
<path d="M51.8726 20.8L82.9961 52V76.2667L72.6216 69.3334V55.4667L51.8726 34.6667V20.8Z" fill="url(#paint2_linear)"/>
<path d="M108.673 62.4H103.745V76.2667H108.673C112.493 76.2667 115.589 73.1623 115.589 69.3334C115.589 65.5044 112.493 62.4 108.673 62.4ZM108.673 74.5334H105.474V64.1334H108.673C111.533 64.1334 113.86 66.4664 113.86 69.3334C113.86 72.2003 111.533 74.5334 108.673 74.5334Z" fill="#26272A"/>
<path d="M122.765 62.4H121.036V76.2667H122.765V62.4Z" fill="#26272A"/>
<path d="M138.327 74.5334C135.467 74.5334 133.14 72.2003 133.14 69.3334C133.14 66.4664 135.467 64.1334 138.327 64.1334C139.757 64.1334 141.054 64.7158 141.993 65.6587L143.217 64.4315C141.967 63.1766 140.238 62.4 138.327 62.4C134.507 62.4 131.411 65.5044 131.411 69.3334C131.411 73.1623 134.507 76.2667 138.327 76.2667C140.238 76.2667 141.967 75.4902 143.217 74.2352L141.993 73.008C141.054 73.951 139.757 74.5334 138.327 74.5334Z" fill="#26272A"/>
<path d="M155.618 64.1334C158.477 64.1334 160.805 66.4664 160.805 69.3334C160.805 72.2003 158.477 74.5334 155.618 74.5334C152.758 74.5334 150.43 72.2003 150.43 69.3334C150.43 66.4664 152.758 64.1334 155.618 64.1334ZM155.618 62.4C151.798 62.4 148.701 65.5044 148.701 69.3334C148.701 73.1623 151.798 76.2667 155.618 76.2667C159.437 76.2667 162.534 73.1623 162.534 69.3334C162.534 65.5044 159.437 62.4 155.618 62.4Z" fill="#26272A"/>
<path d="M180.689 62.4L176.367 72.8624L172.044 62.4H169.45V76.2667H171.179V64.8371L175.901 76.2667H176.832L181.554 64.8371V76.2667H183.283V62.4H180.689Z" fill="#26272A"/>
<path d="M195.386 69.3334H190.199V71.0667H195.386V69.3334Z" fill="#26272A"/>
<path d="M209.219 74.5334C206.359 74.5334 204.032 72.2003 204.032 69.3334C204.032 66.4664 206.359 64.1334 209.219 64.1334C210.649 64.1334 211.946 64.7158 212.885 65.6587L214.109 64.4315C212.859 63.1766 211.13 62.4 209.219 62.4C205.4 62.4 202.303 65.5044 202.303 69.3334C202.303 73.1623 205.4 76.2667 209.219 76.2667C211.13 76.2667 212.859 75.4902 214.109 74.2352L212.885 73.008C211.946 73.951 210.649 74.5334 209.219 74.5334Z" fill="#26272A"/>
<path d="M229.968 64.1334V62.4H221.323V76.2667H229.968V74.5334H223.052V69.3334H229.968V67.6H223.052V64.1334H229.968Z" fill="#26272A"/>
<path d="M242.936 62.4H236.884V76.2667H238.613V71.0667H242.936C245.324 71.0667 247.259 69.1271 247.259 66.7334C247.259 64.3396 245.324 62.4 242.936 62.4ZM242.936 69.3334H238.613V64.1334H242.936C244.366 64.1334 245.53 65.2999 245.53 66.7334C245.53 68.1668 244.366 69.3334 242.936 69.3334Z" fill="#26272A"/>
<path d="M263.077 68.699C263.965 68.0715 264.55 67.0384 264.55 65.8667C264.55 63.9514 263.002 62.4 261.092 62.4H254.175V67.6V69.3334V76.2667H260.227C262.615 76.2667 264.55 74.3271 264.55 71.9334C264.55 70.6403 263.974 69.4928 263.077 68.699ZM255.904 64.1334H261.092C262.044 64.1334 262.821 64.9116 262.821 65.8667C262.821 66.8218 262.044 67.6 261.092 67.6H260.227H255.904V64.1334ZM260.227 74.5334H255.904V69.3334H260.227C261.657 69.3334 262.821 70.4999 262.821 71.9334C262.821 73.3668 261.657 74.5334 260.227 74.5334Z" fill="#26272A"/>
<path d="M280.111 64.1334V62.4H271.466V76.2667H280.111V74.5334H273.195V69.3334H280.111V67.6H273.195V64.1334H280.111Z" fill="#26272A"/>
<path d="M293.08 62.4H287.028V76.2667H288.757V71.0667H293.08C295.467 71.0667 297.402 69.1271 297.402 66.7334C297.402 64.3396 295.467 62.4 293.08 62.4ZM293.08 69.3334H288.757V64.1334H293.08C294.51 64.1334 295.673 65.2999 295.673 66.7334C295.673 68.1668 294.51 69.3334 293.08 69.3334Z" fill="#26272A"/>
<path d="M111.094 41.6L105.042 49.8108V41.6H103.745V52H105.042L111.094 43.7892V52H112.391V41.6H111.094Z" fill="#9A9A9D"/>
<path d="M124.926 41.6V45.9333H118.874V41.6H117.578V52H118.874V47.2333H124.926V52H126.223V41.6H124.926Z" fill="#9A9A9D"/>
<path d="M136.598 42.9C138.744 42.9 140.488 44.6489 140.488 46.8C140.488 48.951 138.744 50.7 136.598 50.7C134.452 50.7 132.707 48.951 132.707 46.8C132.707 44.6489 134.452 42.9 136.598 42.9ZM136.598 41.6C133.733 41.6 131.411 43.9278 131.411 46.8C131.411 49.6721 133.733 52 136.598 52C139.463 52 141.785 49.6721 141.785 46.8C141.785 43.9278 139.463 41.6 136.598 41.6Z" fill="#9A9A9D"/>
<path d="M151.295 45.9333H148.269V42.9H153.888V41.6H146.972V52H151.295C152.965 52 154.321 50.641 154.321 48.9666C154.321 47.2922 152.965 45.9333 151.295 45.9333ZM151.295 50.7H148.269V47.2333H151.295C152.248 47.2333 153.024 48.0116 153.024 48.9666C153.024 49.9217 152.248 50.7 151.295 50.7Z" fill="#9A9A9D"/>
<path d="M166.424 41.6L160.372 49.8108V41.6H159.076V52H160.372L166.424 43.7892V52H167.721V41.6H166.424Z" fill="#9A9A9D"/>
<path d="M172.909 41.6V42.9H176.367V52H177.664V42.9H181.122V41.6H172.909Z" fill="#9A9A9D"/>
<path d="M193.658 42.9V41.6H186.741V52H193.658V50.7H188.038V47.2333H193.658V45.9333H188.038V42.9H193.658Z" fill="#9A9A9D"/>
<path d="M206.193 41.6H204.504L200.142 46.8104V41.6H198.845V52H200.142V48.8332L200.997 47.8105L204.504 52H206.193L201.843 46.8L206.193 41.6Z" fill="#9A9A9D"/>
<path d="M327.661 62.4H321.609V76.2667H323.338V71.0667H327.661C330.049 71.0667 331.984 69.1271 331.984 66.7334C331.984 64.3396 330.049 62.4 327.661 62.4ZM327.661 69.3334H323.338V64.1334H327.661C329.091 64.1334 330.255 65.2999 330.255 66.7334C330.255 68.1668 329.091 69.3334 327.661 69.3334Z" fill="#26272A"/>
<path d="M347.381 76.2667H349.275L343.116 62.4H342.358H341.601L335.442 76.2667H337.335L338.874 72.8H345.842L347.381 76.2667ZM339.644 71.0667L342.358 64.955L345.073 71.0667H339.644Z" fill="#26272A"/>
<path d="M361.378 74.5334C358.518 74.5334 356.191 72.2003 356.191 69.3334C356.191 66.4664 358.518 64.1334 361.378 64.1334C362.808 64.1334 364.105 64.7158 365.044 65.6587L366.268 64.4315C365.018 63.1766 363.289 62.4 361.378 62.4C357.559 62.4 354.462 65.5044 354.462 69.3334C354.462 73.1623 357.559 76.2667 361.378 76.2667C363.289 76.2667 365.018 75.4902 366.268 74.2352L365.044 73.008C364.105 73.951 362.808 74.5334 361.378 74.5334Z" fill="#26272A"/>
<path d="M371.753 74.1329L372.766 72.8659C373.676 73.8521 375.163 74.7777 377.106 74.7777C379.565 74.7777 380.352 73.4899 380.352 72.4637C380.352 69.0023 372.189 70.9141 372.189 66.1249C372.189 63.9115 374.213 62.4017 376.921 62.4017C379.029 62.4017 380.661 63.0864 381.82 64.2737L380.786 65.5009C379.752 64.3933 378.306 63.8907 376.797 63.8907C375.144 63.8907 373.966 64.7556 373.966 66.0227C373.966 69.0421 382.129 67.3105 382.129 72.3216C382.129 74.2733 380.765 76.2667 377.046 76.2667C374.646 76.2667 372.889 75.3809 371.753 74.1329Z" fill="#26272A"/>
<path d="M314.159 80.4043C312.291 77.8459 311.235 74.563 311.235 71.2142C311.235 67.8671 312.291 64.605 314.159 62.0258L315.091 62.733C313.763 65.3711 312.935 67.7423 312.935 71.2142C312.935 74.6652 313.763 77.0555 315.091 79.6763L314.159 80.4043Z" fill="#26272A"/>
<path d="M388.646 79.6763C389.974 77.0555 390.802 74.6652 390.802 71.2142C390.802 67.7423 389.974 65.3728 388.646 62.733L389.578 62.0258C391.445 64.6032 392.502 67.8671 392.502 71.2142C392.502 74.563 391.445 77.8459 389.578 80.4043L388.646 79.6763Z" fill="#26272A"/>
<defs>
<linearGradient id="paint0_linear" x1="46.6853" y1="76.2668" x2="46.6853" y2="34.6667" gradientUnits="userSpaceOnUse">
<stop offset="0.25" stop-color="#A73794"/>
<stop offset="1" stop-color="#963CBD"/>
</linearGradient>
<linearGradient id="paint1_linear" x1="41.498" y1="71.0667" x2="82.9961" y2="71.0667" gradientUnits="userSpaceOnUse">
<stop offset="0.25" stop-color="#A73794"/>
<stop offset="0.75" stop-color="#B7336E"/>
</linearGradient>
<linearGradient id="paint2_linear" x1="67.4343" y1="76.2667" x2="67.4343" y2="20.8" gradientUnits="userSpaceOnUse">
<stop offset="0.1875" stop-color="#B7336E"/>
<stop offset="1" stop-color="#DA291C"/>
</linearGradient>
</defs>
</svg>
