<svg id="Слой_1" data-name="Слой 1" xmlns="http://www.w3.org/2000/svg" xmlns:xlink="http://www.w3.org/1999/xlink" viewBox="0 0 413.06 72"><defs><style>.cls-1{fill:url(#Безымянный_градиент);}.cls-2{fill:url(#Безымянный_градиент_2);}.cls-3{fill:url(#Безымянный_градиент_3);}.cls-4{fill:#26272a;}.cls-5{fill:#963cbd;}.cls-6{fill:#9a9a9d;}</style><linearGradient id="Безымянный_градиент" x1="6.89" y1="180.27" x2="6.89" y2="233.87" gradientTransform="matrix(1, 0, 0, -1, 0, 252)" gradientUnits="userSpaceOnUse"><stop offset="0.25" stop-color="#55a5dc"/><stop offset="1" stop-color="#3fc9e6"/></linearGradient><linearGradient id="Безымянный_градиент_2" x1="0.19" y1="186.97" x2="53.82" y2="186.97" gradientTransform="matrix(1, 0, 0, -1, 0, 252)" gradientUnits="userSpaceOnUse"><stop offset="0.25" stop-color="#55a5dc"/><stop offset="0.75" stop-color="#6a84d2"/></linearGradient><linearGradient id="Безымянный_градиент_3" x1="33.71" y1="180.27" x2="33.71" y2="251.73" gradientTransform="matrix(1, 0, 0, -1, 0, 252)" gradientUnits="userSpaceOnUse"><stop offset="0.19" stop-color="#6a84d2"/><stop offset="1" stop-color="#963cbd"/></linearGradient></defs><title>inobitec_viewer_pro_en</title><path class="cls-1" d="M13.6,18.13V62.8L.19,71.73V31.53Z"/><path class="cls-2" d="M40.41,58.33l13.41,13.4H.19L13.6,58.33Z"/><path class="cls-3" d="M13.6.27l40.22,40.2V71.73L40.41,62.8V44.93L13.6,18.13Z"/><path class="cls-4" d="M87.12,53.87H80.64V71.73h6.48a8.93,8.93,0,1,0,0-17.86Zm0,15.63H82.87V56.1h4.25a6.58,6.58,0,0,1,6.7,6.7A6.71,6.71,0,0,1,87.12,69.5Z"/><path class="cls-4" d="M105.22,53.87H103V71.73h2.23Z"/><path class="cls-4" d="M125.33,69.5a6.7,6.7,0,0,1,0-13.4,6.1,6.1,0,0,1,4.7,2l1.56-1.56a8.1,8.1,0,0,0-6.26-2.68,8.93,8.93,0,1,0,0,17.86,8.1,8.1,0,0,0,6.26-2.68L130,67.49A6.1,6.1,0,0,1,125.33,69.5Z"/><path class="cls-4" d="M147.68,56.1a6.7,6.7,0,1,1-6.7,6.7A6.58,6.58,0,0,1,147.68,56.1Zm0-2.23a8.93,8.93,0,1,0,8.94,8.93A9,9,0,0,0,147.68,53.87Z"/><path class="cls-4" d="M180.09,53.87l-5.59,13.4-5.59-13.4h-3.35V71.73h2.24V57l6,14.74h1.34l6-14.74V71.73h2.24V53.87Z"/><path class="cls-4" d="M199.08,62.8h-6.7V65h6.7Z"/><path class="cls-4" d="M223.45,53.87,217,68.44l-6.49-14.57H208l8,17.86h2l8-17.86Z"/><path class="cls-4" d="M234.84,53.87H232.6V71.73h2.24Z"/><path class="cls-4" d="M255,56.1V53.87H243.78V71.73H255V69.5H246V62.8H255V60.57H246V56.1Z"/><path class="cls-4" d="M283.93,53.87l-3.76,14-3.75-14h-2.71l-3.75,14-3.75-14h-2.32l4.79,17.86h2.55l3.84-14.29,3.83,14.29h2.55l4.79-17.86Z"/><path class="cls-4" d="M328.7,59.45a5.58,5.58,0,0,0-5.59-5.58h-7.82V71.73h2.24V65h4.15l4.35,6.7h2.67l-4.43-6.82A5.58,5.58,0,0,0,328.7,59.45ZM317.53,56.1h5.58a3.35,3.35,0,1,1,0,6.7h-5.58Z"/><path class="cls-4" d="M306.35,56.1V53.87H295.18V71.73h11.17V69.5h-8.94V62.8h8.94V60.57h-8.94V56.1Z"/><path class="cls-5" d="M398,56.1a6.7,6.7,0,1,1-6.71,6.7A6.58,6.58,0,0,1,398,56.1Zm0-2.23a8.93,8.93,0,1,0,8.94,8.93A9,9,0,0,0,398,53.87Z"/><path class="cls-5" d="M356.63,53.87h-7.82V71.73h2.24V65h5.58a5.58,5.58,0,1,0,0-11.16Zm0,8.93h-5.58V56.1h5.58a3.35,3.35,0,1,1,0,6.7Z"/><path class="cls-5" d="M382.34,59.45a5.53,5.53,0,0,0-5.59-5.58h-7.82V71.73h2.23V65h4.25l4.24,6.7h2.69l-4.47-6.92A5.53,5.53,0,0,0,382.34,59.45ZM371.16,56.1h5.59a3.35,3.35,0,1,1,0,6.7h-5.59Z"/><path class="cls-6" d="M82.32,27.07H80.64v13.4h1.68Z"/><path class="cls-6" d="M89.58,27.07v13.4h1.67v-10l6.71,10h1.67V27.07H98v10l-6.71-10Z"/><path class="cls-6" d="M114.16,28.74a5,5,0,1,1-5,5A5,5,0,0,1,114.16,28.74Zm0-1.67a6.7,6.7,0,1,0,6.7,6.7A6.7,6.7,0,0,0,114.16,27.07Z"/><path class="cls-6" d="M136.2,33.15a3.34,3.34,0,0,0-1.93-6.08h-6.7v13.4h5.87a4.17,4.17,0,0,0,2.76-7.32Zm-6.95-4.41h5a1.68,1.68,0,1,1,0,3.35h-5Zm4.19,10.05h-4.19v-5h4.19a2.51,2.51,0,0,1,0,5Z"/><path class="cls-6" d="M147.12,27.07h-1.67v13.4h1.67Z"/><path class="cls-6" d="M154.39,27.07v1.67h4.47V40.47h1.67V28.74H165V27.07Z"/><path class="cls-6" d="M180.65,28.74V27.07h-8.39v13.4h8.39V38.79h-6.71v-5h6.71V32.09h-6.71V28.74Z"/><path class="cls-6" d="M194.61,38.79a5,5,0,1,1,3.56-8.57L199.35,29a6.71,6.71,0,1,0,0,9.47l-1.18-1.18A5,5,0,0,1,194.61,38.79Z"/></svg>