<svg id="Слой_1" data-name="Слой 1" xmlns="http://www.w3.org/2000/svg" xmlns:xlink="http://www.w3.org/1999/xlink" viewBox="0 0 413.06 72"><defs><style>.cls-1{fill:url(#Безымянный_градиент_7);}.cls-2{fill:url(#Безымянный_градиент_6);}.cls-3{fill:url(#Безымянный_градиент_5);}.cls-4{fill:#26272a;}.cls-5{fill:#50d691;}.cls-6{fill:#9a9a9d;}</style><linearGradient id="Безымянный_градиент_7" x1="6.88" y1="349.48" x2="6.88" y2="403.08" gradientTransform="matrix(1, 0, 0, -1, 0, 421.22)" gradientUnits="userSpaceOnUse"><stop offset="0.25" stop-color="#4cd3a7"/><stop offset="1" stop-color="#50d691"/></linearGradient><linearGradient id="Безымянный_градиент_6" x1="0.19" y1="356.18" x2="53.75" y2="356.18" gradientTransform="matrix(1, 0, 0, -1, 0, 421.22)" gradientUnits="userSpaceOnUse"><stop offset="0.25" stop-color="#4cd3a7"/><stop offset="0.75" stop-color="#48d0bb"/></linearGradient><linearGradient id="Безымянный_градиент_5" x1="33.66" y1="349.48" x2="33.66" y2="420.95" gradientTransform="matrix(1, 0, 0, -1, 0, 421.22)" gradientUnits="userSpaceOnUse"><stop offset="0.19" stop-color="#48d0bb"/><stop offset="1" stop-color="#3fc9e6"/></linearGradient></defs><title>inobitec_viewer_lite_en</title><path class="cls-1" d="M13.58,18.13V62.8L.19,71.73V31.53Z"/><path class="cls-2" d="M40.36,58.33l13.39,13.4H.19l13.39-13.4Z"/><path class="cls-3" d="M13.58.27l40.17,40.2V71.73L40.36,62.8V44.93L13.58,18.13Z"/><path class="cls-4" d="M87,53.87H80.53V71.73H87a8.93,8.93,0,1,0,0-17.86ZM87,69.5H82.76V56.1H87a6.58,6.58,0,0,1,6.7,6.7A6.72,6.72,0,0,1,87,69.5Z"/><path class="cls-4" d="M105.08,53.87h-2.23V71.73h2.23Z"/><path class="cls-4" d="M125.17,69.5a6.7,6.7,0,0,1,0-13.4,6.06,6.06,0,0,1,4.68,2l1.56-1.56a8.08,8.08,0,0,0-6.24-2.68,8.93,8.93,0,0,0,0,17.86,8.08,8.08,0,0,0,6.24-2.68l-1.56-1.56A6.06,6.06,0,0,1,125.17,69.5Z"/><path class="cls-4" d="M147.48,56.1a6.7,6.7,0,1,1-6.69,6.7A6.58,6.58,0,0,1,147.48,56.1Zm0-2.23a8.93,8.93,0,1,0,8.93,8.93A8.95,8.95,0,0,0,147.48,53.87Z"/><path class="cls-4" d="M179.84,53.87l-5.58,13.4-5.58-13.4h-3.34V71.73h2.23V57l6,14.74h1.33L181,57V71.73h2.23V53.87Z"/><path class="cls-4" d="M198.81,62.8h-6.69V65h6.69Z"/><path class="cls-5" d="M350.57,69.5V53.87h-2.23V71.73H359.5V69.5Z"/><path class="cls-5" d="M370.66,53.87h-2.23V71.73h2.23Z"/><path class="cls-5" d="M377.35,53.87V56.1h6.7V71.73h2.23V56.1H393V53.87Z"/><path class="cls-5" d="M413.06,56.1V53.87H401.9V71.73h11.16V69.5h-8.92V62.8h8.92V60.57h-8.92V56.1Z"/><path class="cls-6" d="M82.2,27.07H80.53v13.4H82.2Z"/><path class="cls-6" d="M89.46,27.07v13.4h1.67v-10l6.7,10H99.5V27.07H97.83v10l-6.7-10Z"/><path class="cls-6" d="M114,28.74a5,5,0,1,1-5,5A5,5,0,0,1,114,28.74Zm0-1.67a6.7,6.7,0,1,0,6.69,6.7A6.7,6.7,0,0,0,114,27.07Z"/><path class="cls-6" d="M136,33.15a3.34,3.34,0,0,0-1.92-6.08H127.4v13.4h5.86A4.17,4.17,0,0,0,136,33.15Zm-6.94-4.41h5a1.68,1.68,0,1,1,0,3.35h-5Zm4.19,10.05h-4.19v-5h4.19a2.51,2.51,0,1,1,0,5Z"/><path class="cls-6" d="M146.93,27.07h-1.68v13.4h1.68Z"/><path class="cls-6" d="M154.18,27.07v1.67h4.46V40.47h1.68V28.74h4.46V27.07Z"/><path class="cls-6" d="M180.4,28.74V27.07H172v13.4h8.37V38.79h-6.69v-5h6.69V32.09h-6.69V28.74Z"/><path class="cls-6" d="M194.35,38.79a5,5,0,1,1,3.55-8.58L199.08,29a6.71,6.71,0,1,0,0,9.47l-1.18-1.18A5,5,0,0,1,194.35,38.79Z"/><path class="cls-4" d="M223.15,53.87l-6.48,14.57-6.49-14.57h-2.44l7.95,17.86h1.95l8-17.86Z"/><path class="cls-4" d="M234.52,53.87h-2.23V71.73h2.23Z"/><path class="cls-4" d="M254.61,56.1V53.87H243.45V71.73h11.16V69.5h-8.93V62.8h8.93V60.57h-8.93V56.1Z"/><path class="cls-4" d="M283.54,53.87l-3.75,14-3.74-14h-2.71l-3.75,14-3.75-14h-2.31l4.79,17.86h2.55l3.82-14.29,3.83,14.29h2.55l4.78-17.86Z"/><path class="cls-4" d="M328.26,59.45a5.58,5.58,0,0,0-5.58-5.58h-7.81V71.73h2.23V65h4.15l4.34,6.7h2.67l-4.43-6.82A5.58,5.58,0,0,0,328.26,59.45ZM317.1,56.1h5.58a3.35,3.35,0,0,1,0,6.7H317.1Z"/><path class="cls-4" d="M305.94,56.1V53.87H294.78V71.73h11.16V69.5H297V62.8h8.93V60.57H297V56.1Z"/></svg>