<svg width="25" height="22" viewBox="0 0 25 22" fill="none" xmlns="http://www.w3.org/2000/svg">
<path d="M25 14.6161C25 15.7614 22.3427 16.1432 20.8002 16.1432C20.5671 14.0478 20.0535 11.9931 19.2731 10.0345C18.8663 9.29249 18.2711 8.67089 17.5473 8.23243C18.3128 7.15838 18.7101 5.86544 18.6798 4.54689C18.6495 3.22834 18.1933 1.955 17.3794 0.917217C17.7373 0.578125 18.1631 0.318905 18.6287 0.156708C19.0943 -0.00548762 19.589 -0.066961 20.0801 -0.0236437C20.5712 0.0196735 21.0475 0.166794 21.4775 0.407982C21.9075 0.649169 22.2814 0.978926 22.5745 1.37543C22.8675 1.77193 23.073 2.22614 23.1773 2.708C23.2816 3.18987 23.2824 3.68839 23.1797 4.17059C23.0769 4.65279 22.8729 5.10767 22.5812 5.50513C22.2895 5.90259 21.9167 6.23357 21.4875 6.47617C22.3878 6.71495 23.1797 7.25367 23.7324 8.00335C24.5166 10.1068 24.9449 12.3261 25 14.5702V14.6161ZM7.49847 8.23243C6.7287 7.16164 6.32612 5.8705 6.3509 4.55197C6.37567 3.23344 6.82647 1.95833 7.63592 0.917217C7.27724 0.583773 6.85226 0.329741 6.38873 0.171711C5.92519 0.0136806 5.43354 -0.0447924 4.94587 0.000110526C4.4582 0.0450135 3.98549 0.192282 3.55861 0.432299C3.13173 0.672316 2.76028 0.999681 2.46852 1.39302C2.17677 1.78635 1.97126 2.23681 1.86543 2.71496C1.7596 3.19312 1.75582 3.68823 1.85435 4.16794C1.95287 4.64766 2.15149 5.1012 2.43721 5.49894C2.72294 5.89667 3.08935 6.22967 3.51252 6.47617C2.61223 6.71495 1.82031 7.25367 1.26756 8.00335C0.471624 10.1193 0.0429397 12.3557 0 14.6161C0 15.7614 2.6573 16.1432 4.19976 16.1432C4.43288 14.0478 4.94654 11.9931 5.72694 10.0345C6.14139 9.283 6.75416 8.65966 7.49847 8.23243ZM12.5076 1.52809C11.6976 1.52809 10.9207 1.84989 10.3479 2.42269C9.77507 2.9955 9.45327 3.77239 9.45327 4.58246C9.44843 5.12325 9.58726 5.65563 9.85558 6.12519C10.1239 6.59475 10.5121 6.98465 10.9805 7.25503L12.5076 8.20188L14.0348 7.25503C14.6312 6.9253 15.1001 6.40562 15.3671 5.77866C15.634 5.15171 15.6837 4.45348 15.5081 3.79507C15.3325 3.13665 14.9418 2.55585 14.3981 2.14507C13.8544 1.73429 13.189 1.51711 12.5076 1.52809ZM12.5076 9.36255L10.6903 10.0498C8.91875 10.6912 8.55223 11.3021 8.50641 11.409C7.59655 13.9261 7.0814 16.5688 6.97923 19.2434C8.74501 19.9014 10.6251 20.1974 12.5076 20.1139C14.3803 20.1983 16.2506 19.9022 18.0055 19.2434C17.9108 16.568 17.3954 13.9241 16.4783 11.409C16.4783 11.3021 16.066 10.7217 14.3097 10.0498L12.5076 9.36255ZM12.5076 0.000906888C13.5483 -0.0476884 14.5745 0.259848 15.4169 0.872798C16.2593 1.48575 16.8677 2.3675 17.1416 3.37265C17.4156 4.37779 17.3388 5.44629 16.924 6.40194C16.5091 7.35758 15.7809 8.14329 14.8595 8.6295C16.0873 8.95629 17.1656 9.69492 17.9139 10.7217C18.9687 13.5274 19.5418 16.4911 19.609 19.4878C19.609 21.6411 12.5687 21.6411 12.5687 21.6411C12.5687 21.6411 5.51313 21.6411 5.51313 19.4878C5.55966 16.4859 6.10678 13.5129 7.13195 10.6912C7.87935 9.66347 8.95799 8.9246 10.1863 8.59895C9.28508 8.10521 8.576 7.32281 8.17303 6.37748C7.77005 5.43216 7.69659 4.37881 7.96444 3.38671C8.23229 2.3946 8.8259 1.52135 9.64988 0.90728C10.4739 0.293213 11.4804 -0.026011 12.5076 0.000906888Z" fill="#26272A"/>
</svg>
