<svg width="25" height="25" viewBox="0 0 25 25" fill="none" xmlns="http://www.w3.org/2000/svg">
<path d="M5.21558 6.70769H5.36943V11.6923H4.87712L2.73866 11.3385L0.846349 11.0769H0.200195V6.66154H1.73866H5.16943L5.21558 6.70769ZM2.66173 1.53846L0.907888 1.72308H0.200195V6.06154C0.21558 6.15385 0.277118 6.15385 0.338657 6.15385H5.24635H5.36943V1.12308L4.61558 1.21538L2.66173 1.53846ZM12.9079 6.75385H6.04635V11.7846L12.9079 12.7538V6.75385ZM12.9079 5.84615V0.153846C12.9003 0.102844 12.9003 0.0510018 12.9079 0V0L11.0771 0.276923L9.10789 0.569231L6.95404 0.876923L6.04635 1.01538V6.15385H12.9079V5.84615ZM16.6156 11.2923C16.6156 11.2923 16.5387 11.2923 16.5079 11.2923L16.6925 11.0615H16.8463L16.6156 11.2615V11.2923ZM15.954 12.3077L15.6617 12C15.6657 12.0789 15.6998 12.1533 15.7571 12.2077C15.8144 12.2621 15.8904 12.2924 15.9694 12.2923L15.954 12.3077ZM16.8617 12.7692C17.4949 12.6889 18.0896 12.421 18.5694 12C18.5694 12 18.5694 11.8769 18.6771 11.8308C18.7848 11.7846 18.5079 11.8308 18.4771 11.8308C18.1976 12.1015 17.8613 12.3065 17.4925 12.4308C17.3171 12.532 17.1181 12.5854 16.9156 12.5854C16.713 12.5854 16.5141 12.532 16.3387 12.4308C16.2156 12.3077 16.1387 12.3077 16.0002 12.3077C16.0492 12.3894 16.1116 12.4622 16.1848 12.5231C16.368 12.6849 16.6021 12.7774 16.8463 12.7846L16.8617 12.7692ZM17.6156 11.2462L17.354 11.0462H17.2463C17.2463 11.0462 17.3848 11.1846 17.4771 11.2462C17.5694 11.3077 17.4771 11.2462 17.6156 11.2462ZM24.6156 22.3077C24.3448 22.548 24.0387 22.7452 23.7079 22.8923C23.1743 23.1282 22.6931 23.4681 22.2925 23.8923C22.1275 24.0623 21.9473 24.2168 21.754 24.3538C21.6258 24.4617 21.4745 24.5386 21.3117 24.5787C21.149 24.6187 20.9792 24.6207 20.8156 24.5846C20.5331 24.6408 20.2398 24.5921 19.9907 24.4477C19.7415 24.3032 19.5535 24.073 19.4617 23.8C19.4617 23.7077 19.4617 23.6308 19.2925 23.6154C18.6771 23.6154 18.0617 23.5231 17.4463 23.5077C17.0128 23.5105 16.5803 23.5517 16.154 23.6308C15.9848 23.6308 15.7387 23.7846 15.6925 23.9385C15.6463 24.0923 15.3079 24.1692 15.1848 24.3538C14.8463 24.3538 14.5233 24.6769 14.1848 24.3538C13.5498 24.2151 12.9232 24.0404 12.3079 23.8308C12.2177 23.798 12.1251 23.7723 12.031 23.7538C11.6463 23.7538 11.2617 23.7538 10.8771 23.6154C10.7284 23.5841 10.5887 23.5194 10.4688 23.4261C10.3488 23.3328 10.2517 23.2134 10.1848 23.0769C10.1168 22.8512 10.1168 22.6104 10.1848 22.3846C10.2225 22.2415 10.274 22.1024 10.3387 21.9692C10.3686 21.8952 10.3686 21.8125 10.3387 21.7385C10.1233 21.4923 10.231 21.2 10.231 20.9231C10.2179 20.6978 10.2921 20.4762 10.4382 20.3043C10.5844 20.1323 10.7912 20.0234 11.0156 20C11.5694 19.9077 11.7694 19.4462 12.0771 19.0923C12.1096 19.0135 12.1096 18.925 12.0771 18.8462C12.0728 17.7893 12.3718 16.7535 12.9387 15.8615C13.2156 15.3692 13.5694 14.9385 13.8771 14.4769C14.3329 13.9574 14.6877 13.3574 14.9233 12.7077C15.0208 12.397 15.0878 12.0775 15.1233 11.7538C15.1233 11.4462 15.2617 11.0769 15.0156 10.7692C14.9803 10.2546 15.0113 9.73751 15.1079 9.23077C15.2002 9.01538 15.1848 8.73846 15.2617 8.49231C15.3755 8.13101 15.5747 7.80249 15.8425 7.53466C16.1104 7.26682 16.4389 7.06758 16.8002 6.95385C17.1387 6.95385 17.4463 6.81538 17.7848 6.83077C18.0919 6.82409 18.3982 6.86562 18.6925 6.95385C19.176 7.13471 19.5904 7.46301 19.8771 7.89231C20.1299 8.37368 20.3014 8.8935 20.3848 9.43077C20.4744 10.2635 20.5104 11.1011 20.4925 11.9385C20.5653 12.3736 20.751 12.7821 21.031 13.1231C21.3233 13.5538 21.6925 13.9385 22.0156 14.3538C22.6231 15.1115 23.0683 15.986 23.3233 16.9231C23.4806 17.3574 23.5638 17.815 23.5694 18.2769C23.5694 18.4308 23.5694 18.5846 23.4771 18.7385C23.3848 18.8923 23.4771 19.0923 23.3387 19.2154C23.4261 19.3459 23.5354 19.4604 23.6617 19.5538C24.0156 19.7385 23.9848 20.1231 24.031 20.3846C24.1094 20.683 24.2511 20.9611 24.4463 21.2C24.5372 21.3223 24.6195 21.4508 24.6925 21.5846C24.7399 21.642 24.7748 21.7086 24.7951 21.7802C24.8155 21.8518 24.8207 21.9268 24.8106 22.0005C24.8005 22.0743 24.7752 22.1451 24.7363 22.2085C24.6975 22.272 24.6459 22.3267 24.5848 22.3692L24.6156 22.3077ZM22.7233 18.6769C22.7233 18.6769 22.8002 18.7538 22.8463 19.0308C22.8463 19.0308 22.8463 19.1538 22.8463 19.2154C22.855 19.1439 22.855 19.0715 22.8463 19C22.8622 18.9447 22.8622 18.8861 22.8463 18.8308C22.8463 18.8308 22.8463 18.8308 22.8463 18.7385C22.8463 18.7385 22.8463 18.8615 22.8463 18.7385L22.7233 18.6769ZM21.2617 15.6769C21.2617 15.6769 21.2617 15.6769 21.3694 15.6769C21.378 15.6467 21.378 15.6148 21.3694 15.5846L21.2617 15.6769ZM21.1848 15.3846H21.2771H21.1848ZM21.154 15.2462L21.2617 15.3231V15.2308H21.1848L21.154 15.2462ZM17.3694 10.2462C17.331 10.3767 17.331 10.5156 17.3694 10.6462C17.3694 10.6462 17.5233 10.7538 17.6002 10.8L17.6925 10.6308C17.7803 10.529 17.8529 10.415 17.9079 10.2923C17.9079 10.0769 18.0617 10.0769 18.231 10.0615C18.4002 10.0462 18.4617 10.2308 18.4771 10.3231C18.5365 10.5291 18.5365 10.7478 18.4771 10.9538C18.4002 11.1538 18.4771 11.2308 18.5848 11.2923C18.6925 11.3538 18.8617 11.2923 18.9079 11.0615C18.954 10.8308 18.9079 10.7231 19.0156 10.5538C19.0247 10.3855 18.9947 10.2174 18.928 10.0626C18.8612 9.90777 18.7596 9.77051 18.631 9.66154C18.5645 9.58364 18.482 9.52108 18.389 9.47818C18.2961 9.43529 18.1949 9.41307 18.0925 9.41307C17.9901 9.41307 17.889 9.43529 17.796 9.47818C17.703 9.52108 17.6205 9.58364 17.554 9.66154C17.4428 9.81728 17.3547 9.98828 17.2925 10.1692L17.3694 10.2462ZM15.5848 11.1692C15.6086 11.1814 15.635 11.1877 15.6617 11.1877C15.6885 11.1877 15.7148 11.1814 15.7387 11.1692C15.7387 11.1692 15.8156 11.0462 15.7387 11.0308C15.6617 11.0154 15.6156 10.5385 15.631 10.2923C15.6457 10.2231 15.6849 10.1616 15.7415 10.1192C15.7981 10.0768 15.8681 10.0563 15.9387 10.0615C16.0617 10.0615 16.0771 10.0615 16.1233 10.2308C16.1735 10.3347 16.2147 10.4428 16.2463 10.5538C16.2463 10.7077 16.354 10.7231 16.4771 10.5538C16.6002 10.3846 16.6771 10.4 16.4771 10.2615C16.4639 10.2163 16.4639 10.1683 16.4771 10.1231C16.4771 9.8 16.3079 9.64615 16.1233 9.47692C15.9387 9.30769 15.8617 9.36923 15.7079 9.47692C15.5761 9.56627 15.4746 9.69359 15.4169 9.84197C15.3592 9.99036 15.348 10.1528 15.3848 10.3077C15.3448 10.5624 15.3937 10.8232 15.5233 11.0462L15.5848 11.1692ZM15.5233 12.1385C15.6925 12.3077 15.8925 12.4154 16.0617 12.5846C16.1722 12.7088 16.311 12.8044 16.4664 12.8633C16.6217 12.9223 16.789 12.9428 16.954 12.9231C17.1106 12.95 17.2715 12.9373 17.4219 12.8863C17.5724 12.8352 17.7077 12.7474 17.8156 12.6308C17.8907 12.5452 17.9948 12.4904 18.1079 12.4769C18.431 12.4769 18.5848 12.2308 18.7694 12.0308C18.954 11.8308 18.9848 11.5077 18.6463 11.3385C18.3079 11.1692 17.8156 10.9231 17.3848 10.7385C17.2318 10.6625 17.0633 10.623 16.8925 10.623C16.7217 10.623 16.5532 10.6625 16.4002 10.7385C16.082 10.9698 15.7836 11.2271 15.5079 11.5077C15.4601 11.5435 15.4213 11.59 15.3946 11.6434C15.3679 11.6968 15.354 11.7557 15.354 11.8154C15.354 11.8751 15.3679 11.934 15.3946 11.9874C15.4213 12.0408 15.4601 12.0873 15.5079 12.1231L15.5233 12.1385ZM13.954 15.5231C13.954 15.5231 13.954 15.5231 13.954 15.6V15.5231ZM13.8002 15.8308H13.8771H13.7848H13.8002ZM13.6771 16.0769H13.754H13.6771ZM13.6156 16.3538V16.4923C13.6156 16.4923 13.6156 16.4923 13.6156 16.4C13.6221 16.3541 13.6221 16.3075 13.6156 16.2615V16.3538ZM13.5079 16.7385C13.5012 16.774 13.5012 16.8106 13.5079 16.8462H13.6156C13.6196 16.795 13.6196 16.7435 13.6156 16.6923V16.7846L13.5079 16.7385ZM15.631 23.0769C15.6112 22.7494 15.4872 22.4367 15.2771 22.1846C15.1848 22.0308 15.0771 21.8923 14.9848 21.7538C14.8925 21.6154 14.7848 21.4769 14.6617 21.3385C14.2721 20.8428 13.9465 20.3001 13.6925 19.7231C13.6102 19.5003 13.4534 19.3128 13.2488 19.1923C13.0442 19.0717 12.8042 19.0255 12.5694 19.0615C12.4931 19.0645 12.4192 19.0893 12.3565 19.1329C12.2938 19.1765 12.2449 19.2372 12.2156 19.3077C11.9342 19.7799 11.4828 20.1267 10.954 20.2769C10.8848 20.2839 10.8185 20.3089 10.7618 20.3494C10.7052 20.3899 10.6601 20.4444 10.631 20.5077C10.5736 20.6278 10.5438 20.7592 10.5438 20.8923C10.5438 21.0254 10.5736 21.1568 10.631 21.2769C10.7236 21.5408 10.7236 21.8284 10.631 22.0923C10.5849 22.3828 10.5849 22.6787 10.631 22.9692C10.6415 23.0174 10.6621 23.0627 10.6912 23.1025C10.7204 23.1422 10.7575 23.1754 10.8002 23.2C10.9552 23.2713 11.1222 23.3131 11.2925 23.3231C11.631 23.3231 11.954 23.3231 12.2771 23.4308C12.6349 23.4945 12.9819 23.6085 13.3079 23.7692C13.6594 23.9818 14.0669 24.0837 14.4771 24.0615H14.7694C14.9256 24.0634 15.0801 24.0297 15.2214 23.9631C15.3627 23.8965 15.4869 23.7986 15.5848 23.6769C15.8156 23.4923 15.7233 23.2769 15.7387 23.0769H15.631ZM19.6925 21.8769C19.7984 21.6539 19.866 21.4147 19.8925 21.1692C19.8981 20.7365 19.934 20.3046 20.0002 19.8769C20.0479 19.5132 20.2095 19.174 20.4617 18.9077C20.6463 18.7385 20.9079 18.6154 20.8925 18.2769C20.8925 18.1846 21.031 18.0769 21.2002 18.0769C21.5963 18.034 21.9957 18.1203 22.3387 18.3231C22.452 18.389 22.5777 18.4309 22.7079 18.4462C22.6156 18.2 22.3694 18.1846 22.1694 18.0769C22.1318 18.0667 22.0968 18.0486 22.0667 18.0239C22.0366 17.9992 22.012 17.9684 21.9946 17.9336C21.9771 17.8987 21.9673 17.8606 21.9656 17.8217C21.9639 17.7828 21.9705 17.7439 21.9848 17.7077C22.0771 17.4923 22.1694 17.3077 21.9848 17.1077C21.8002 16.9077 21.9848 16.6308 21.831 16.4615C21.6771 16.2923 21.831 16.1538 21.6771 16.1385C21.5233 16.1231 21.6771 15.8923 21.554 15.8923C21.431 15.8923 21.554 15.6923 21.431 15.6615C21.3079 15.6308 21.431 15.8769 21.554 15.8923C21.6771 15.9077 21.554 16.1231 21.6771 16.1385C21.6645 16.3075 21.6645 16.4772 21.6771 16.6462C21.8107 16.998 21.8107 17.3866 21.6771 17.7385C21.5694 17.9385 21.431 17.7385 21.3079 17.8308C21.2784 17.8183 21.252 17.7994 21.2307 17.7754C21.2094 17.7515 21.1937 17.7231 21.1848 17.6923C21.098 17.1538 20.9212 16.6337 20.6617 16.1538C20.0516 15.0489 19.5715 13.877 19.231 12.6615C19.231 12.5077 19.1079 12.5231 19.0002 12.5846L17.5848 13.2769C17.3792 13.3889 17.1433 13.4329 16.9111 13.4025C16.6789 13.3721 16.4624 13.2689 16.2925 13.1077C16.1694 12.9846 16.0925 12.8 15.8771 12.7846C15.6617 12.7692 15.6771 12.5385 15.6925 12.7846C15.6452 13.1522 15.5414 13.5103 15.3848 13.8462C15.1044 14.6449 14.7755 15.4258 14.4002 16.1846C14.0988 16.7632 13.9157 17.396 13.8617 18.0462C13.8617 18.2154 13.8617 18.4 13.8617 18.5692L13.5387 18.1231C13.3694 17.9077 13.431 17.6462 13.4002 17.3846C13.3694 17.1231 13.4925 17.0308 13.4002 16.8923C13.4002 17.0462 13.4002 17.2462 13.4002 17.3538C13.4002 17.4615 13.4002 17.8154 13.4002 18.0462C13.4324 18.2712 13.5087 18.4876 13.6249 18.683C13.7411 18.8784 13.8948 19.0489 14.0771 19.1846C14.3233 19.3846 14.631 19.5077 14.8925 19.6923C15.3062 19.9652 15.628 20.3566 15.8156 20.8154C15.8711 20.9301 15.8877 21.0598 15.8627 21.1848C15.8377 21.3098 15.7725 21.4232 15.6771 21.5077L15.3848 21.6923C15.4617 21.7692 15.5848 21.8615 15.6002 21.9385C15.6125 22.0301 15.6489 22.1168 15.7057 22.1897C15.7624 22.2627 15.8375 22.3193 15.9233 22.3538C16.2803 22.5658 16.6794 22.6971 17.0925 22.7385C17.685 22.8137 18.2868 22.7231 18.831 22.4769C19.1687 22.3784 19.4655 22.1733 19.6771 21.8923L19.6925 21.8769ZM24.3848 21.5385C24.3437 21.4329 24.2866 21.3344 24.2156 21.2462C23.9181 20.9425 23.7335 20.5462 23.6925 20.1231C23.6867 20.0246 23.6612 19.9284 23.6176 19.8399C23.574 19.7515 23.5131 19.6727 23.4386 19.6082C23.364 19.5436 23.2773 19.4947 23.1835 19.4642C23.0897 19.4338 22.9908 19.4224 22.8925 19.4308C22.8038 19.4355 22.7171 19.4584 22.6377 19.4981C22.5583 19.5378 22.4879 19.5934 22.431 19.6615C22.3331 19.7726 22.2114 19.8601 22.075 19.9176C21.9386 19.9752 21.791 20.0012 21.6432 19.9938C21.4954 19.9864 21.3511 19.9458 21.2211 19.875C21.0911 19.8041 20.9788 19.7049 20.8925 19.5846C20.8925 19.5846 20.8925 19.4308 20.8156 19.3692L20.631 19.0769L20.4463 19.3692C20.2517 19.6815 20.1653 20.0491 20.2002 20.4154C20.1888 20.8428 20.1215 21.2669 20.0002 21.6769C19.821 22.2296 19.7174 22.8041 19.6925 23.3846C19.7228 23.6352 19.8366 23.8682 20.0156 24.0462C20.2417 24.2023 20.51 24.2859 20.7848 24.2859C21.0596 24.2859 21.3279 24.2023 21.554 24.0462C21.8793 23.818 22.1785 23.5549 22.4463 23.2615C22.7428 22.9595 23.0922 22.7144 23.4771 22.5385C23.7233 22.4308 23.954 22.2923 24.1848 22.1692C24.4156 22.0462 24.5848 21.8154 24.4002 21.4615" fill="#26262A"/>
</svg>
