<svg width="40" height="36" viewBox="0 0 40 36" fill="none" xmlns="http://www.w3.org/2000/svg">
<g clip-path="url(#clip0)">
<path d="M31.8571 11.0878C33 6.04777 32.4286 2.01577 30 0.575775C29.3415 0.214222 28.6068 0.0167245 27.8571 -0.000225248C25.7143 -0.000225248 22.8571 1.58377 20 4.17578C17.1429 1.58377 14.2857 -0.000225248 12.1429 -0.000225248C11.3891 -0.0148668 10.6465 0.184752 10 0.575775C7.57143 2.01577 7 6.04777 8.14286 11.0878C3.14286 12.6718 0 15.1198 0 17.9998C0 20.8798 3.14286 23.3278 8.14286 24.9118C7 29.9518 7.57143 33.9838 10 35.4238C10.6585 35.7853 11.3932 35.9828 12.1429 35.9998C14.4286 35.9998 17.2857 34.4158 20 31.8238C22.8571 34.4158 25.7143 35.9998 27.8571 35.9998C28.6109 36.0144 29.3535 35.8148 30 35.4238C32.4286 33.9838 33 29.9518 31.8571 24.9118C36.8571 23.3278 40 20.8798 40 17.9998C40 15.1198 36.8571 12.6718 31.8571 11.0878ZM27.8571 2.87977C28.1046 2.84096 28.3578 2.89199 28.5714 3.02377C29.2857 3.45577 29.8571 5.32778 29.4286 8.35178C29.2857 8.92778 29.2857 9.64777 29.1429 10.3678C27.7143 10.0798 26.2857 9.79177 24.8571 9.64777C24.0158 8.40691 23.0591 7.24968 22 6.19178C24.2857 4.03177 26.4286 2.87977 27.8571 2.87977ZM27.8571 14.5438L27.4286 13.6798C27.2872 13.3617 27.0941 13.0696 26.8571 12.8158C27.4286 12.9598 27.8571 12.9598 28.2857 13.1038C28.1429 13.5358 28 14.1118 27.8571 14.5438ZM28.2857 22.8958C27.8571 23.0398 27.2857 23.0398 26.8571 23.1838C26.9985 22.8657 27.1916 22.5736 27.4286 22.3198L27.8571 21.4558C28 21.8878 28.1429 22.4638 28.2857 22.8958ZM26.5714 17.9998C25.9975 18.9311 25.473 19.8925 25 20.8798C24.4286 21.8878 23.8571 22.7518 23.2857 23.6158C22.1948 23.7359 21.0972 23.784 20 23.7598C18.9028 23.784 17.8052 23.7359 16.7143 23.6158C16.1429 22.7518 15.5714 21.8878 15 20.8798C14.4286 19.8718 14 19.0078 13.4286 17.9998C13.9016 17.0125 14.4261 16.0511 15 15.1198C15.5714 14.1118 16.1429 13.2478 16.7143 12.3838C17.8052 12.2637 18.9028 12.2156 20 12.2398C21.0972 12.2156 22.1948 12.2637 23.2857 12.3838C23.8571 13.2478 24.4286 14.1118 25 15.1198C25.5714 16.1278 26 16.9918 26.5714 17.9998ZM20 8.20778C20.2857 8.63977 20.7143 8.92778 21 9.35977H19C19.2857 8.92778 19.7143 8.63977 20 8.20778ZM11.4286 3.02377C11.6422 2.89199 11.8954 2.84096 12.1429 2.87977C13.5714 2.87977 15.7143 4.03177 18 6.19178C16.9783 7.28366 16.0241 8.43784 15.1429 9.64777C13.7003 9.79412 12.2688 10.0346 10.8571 10.3678C10.6981 9.70654 10.6024 9.03145 10.5714 8.35178C10.1429 5.32778 10.7143 3.45577 11.4286 3.02377ZM12.5714 13.6798L12.1429 14.5438C12 14.1118 11.8571 13.5358 11.7143 13.1038C12.1429 12.9598 12.7143 12.9598 13.1429 12.8158C13.0015 13.1339 12.8084 13.4259 12.5714 13.6798ZM13.1429 23.1838C12.5714 23.0398 12.1429 23.0398 11.7143 22.8958C11.8571 22.4638 12 21.8878 12.1429 21.4558L12.5714 22.3198C12.7128 22.6379 12.9059 22.9299 13.1429 23.1838ZM8.85714 22.1758C5 20.8798 2.85714 19.1518 2.85714 17.9998C2.85714 16.8478 5 15.1198 8.85714 13.8238C9.25716 15.26 9.78304 16.6575 10.4286 17.9998C9.85714 19.4398 9.28571 20.7358 8.85714 22.1758ZM12.1429 33.1198C11.8954 33.1586 11.6422 33.1076 11.4286 32.9758C10.7143 32.5438 10.1429 30.6718 10.5714 27.6478C10.7143 27.0718 10.7143 26.3518 10.8571 25.6318C12.2857 25.9198 13.7143 26.2078 15.1429 26.3518C15.9842 27.5926 16.9409 28.7499 18 29.8078C15.7143 31.9678 13.5714 33.1198 12.1429 33.1198ZM20 27.7918C19.7143 27.3598 19.2857 27.0718 19 26.6398H21C20.7143 27.0718 20.2857 27.3598 20 27.7918ZM28.5714 32.9758C28.3578 33.1076 28.1046 33.1586 27.8571 33.1198C26.4286 33.1198 24.2857 31.9678 22 29.8078C23.0217 28.7159 23.9759 27.5617 24.8571 26.3518C26.2997 26.2054 27.7312 25.9649 29.1429 25.6318C29.3019 26.293 29.3976 26.9681 29.4286 27.6478C29.8571 30.6718 29.1429 32.5438 28.5714 32.9758ZM31.1429 22.1758C30.7143 20.8798 30.1429 19.4398 29.5714 17.9998C30.1429 16.5598 30.7143 15.2638 31.1429 13.8238C35 15.1198 37.1429 16.8478 37.1429 17.9998C37.1429 19.1518 35 20.8798 31.1429 22.1758Z" fill="url(#paint0_linear)"/>
<path d="M19.9997 20.8801C21.5777 20.8801 22.8569 19.5907 22.8569 18.0001C22.8569 16.4095 21.5777 15.1201 19.9997 15.1201C18.4218 15.1201 17.1426 16.4095 17.1426 18.0001C17.1426 19.5907 18.4218 20.8801 19.9997 20.8801Z" fill="url(#paint1_linear)"/>
</g>
<defs>
<linearGradient id="paint0_linear" x1="-0.114286" y1="17.9854" x2="39.8857" y2="17.9854" gradientUnits="userSpaceOnUse">
<stop stop-color="#4DBFDD"/>
<stop offset="1" stop-color="#963CBD"/>
</linearGradient>
<linearGradient id="paint1_linear" x1="-0.114568" y1="17.9857" x2="39.8854" y2="17.9857" gradientUnits="userSpaceOnUse">
<stop stop-color="#4DBFDD"/>
<stop offset="1" stop-color="#963CBD"/>
</linearGradient>
<clipPath id="clip0">
<rect width="40" height="36" fill="white"/>
</clipPath>
</defs>
</svg>
