<svg width="29" height="41" viewBox="0 0 29 41" fill="none" xmlns="http://www.w3.org/2000/svg">
<path d="M24.9522 22.784C24.9522 17.1791 18.825 13.7881 23.9125 13.7881C29 13.7881 24.4947 9.80861 24.4947 9.80861L20.7935 9.24812C20.946 8.85578 21.0846 8.51948 21.1816 8.25325C21.2365 8.07032 21.306 7.89224 21.3896 7.72078H21.5975C21.9116 7.61556 22.1944 7.43201 22.4197 7.1871C22.645 6.94219 22.8056 6.64381 22.8867 6.31955C23.2333 4.91832 22.0688 3.29289 21.0153 2.11586L20.3915 1.40123L18.6448 2.01777L18.1458 0L12.2127 0.672591L12.4761 1.76555C8.25381 1.75162 4.12983 3.05309 0.665392 5.49282L3.89532 10.0188C1.913 11.5181 0 13.5359 0 15.7779V27.5622C0 31.3035 8.77486 41 13.8623 41C20.7935 41 24.9522 28.3889 24.9522 22.784ZM15.2486 7.93096C15.8051 6.38403 15.9392 4.71413 15.6367 3.09672H16.0526L16.7041 5.73103L19.4766 4.73616C19.6278 4.93273 19.7666 5.13864 19.8924 5.3527C19.13 5.77307 18.8944 6.33356 18.5062 7.30041C18.0468 8.51857 17.524 9.71129 16.9398 10.8735C16.227 12.3556 15.099 13.5933 13.696 14.4327C13.5579 13.8976 13.2997 13.4019 12.9415 12.9839C12.5833 12.566 12.1347 12.237 11.6305 12.0226C13.0987 10.921 14.3297 9.52884 15.2486 7.93096ZM13.8623 38.1975C10.3552 38.1975 2.93881 30.0564 2.77247 27.5622V26.7495H6.41826C6.41826 26.7495 8.95507 26.8756 10.577 33.6155L13.3494 32.9569C11.0899 23.8209 6.72323 23.905 6.34895 23.947H2.77247V15.7779C2.77247 14.0964 6.08556 11.5742 8.74713 10.257L9.26004 10.3411C8.88575 10.6353 8.52533 10.9016 8.22036 11.1118L7.81836 11.392L7.67973 11.8684C7.34691 13.1397 7.48494 14.4901 8.06788 15.6658C8.40986 16.2594 8.86757 16.7767 9.41325 17.1861C9.95894 17.5956 10.5812 17.8888 11.2424 18.0478L11.5335 18.1319H11.8107C13.4671 17.8079 15.025 17.0951 16.359 16.051C17.6929 15.0069 18.7655 13.6606 19.4904 12.1206L19.5736 11.9525L20.5994 12.1066C20.3994 12.2789 20.2223 12.4768 20.0727 12.6951C18.7835 14.4467 20.7935 17.2211 21.75 19.9395C19.4073 22.826 10.1334 19.2529 10.0641 19.2249L8.87189 21.7471C10.2061 22.3392 11.6007 22.7809 13.0306 23.0643C13.0327 23.6581 13.0977 24.25 13.2247 24.8298C13.4944 25.5239 13.9267 26.1415 14.4844 26.6296C15.0421 27.1177 15.7087 27.4618 16.4269 27.6323L17.1061 24.9139C16.6902 24.8158 15.9833 24.4375 15.914 24.1572C15.8547 23.9378 15.8221 23.712 15.8169 23.4846H16.5516C17.9379 23.4846 22.0966 22.8541 22.0966 22.8541C21.781 26.6641 20.7755 30.3831 19.13 33.8257C16.6348 38.1975 14.7079 38.1975 13.8623 38.1975Z" fill="url(#paint0_linear)"/>
<defs>
<linearGradient id="paint0_linear" x1="-0.388145" y1="20.458" x2="25.9503" y2="20.458" gradientUnits="userSpaceOnUse">
<stop stop-color="#4DBFDD"/>
<stop offset="1" stop-color="#963CBD"/>
</linearGradient>
</defs>
</svg>
