<svg id="Layer_5" data-name="Layer 5" xmlns="http://www.w3.org/2000/svg" viewBox="10 3 49.4 22.68"><defs><style>.cls-1{fill:#222e53;}.cls-2{fill:#1c2a52;}</style></defs><title>logo_white</title><g id="logo"><path class="cls-2" d="M30,11.46l-.74-.72h-3v3H30Zm-.76,1.48H27V11.45h2.21Z" transform="translate(-0.06)"/><polygon class="cls-2" points="26.21 9.19 26.21 9.93 29.19 9.93 29.93 9.19 26.21 9.19"/><path class="cls-2" d="M11.66,13.67h-.74V10l.74-.74Z" transform="translate(-0.06)"/><path class="cls-2" d="M33.17,13.67h-.74V10l.74-.74Z" transform="translate(-0.06)"/><polygon class="cls-2" points="36.59 11.46 36.59 13.68 37.33 13.68 37.33 10.72 36.59 11.46"/><polygon class="cls-2" points="35.11 9.21 35.11 9.95 38.08 9.95 38.82 9.21 35.11 9.21"/><path class="cls-2" d="M22,9.22a2.22,2.22,0,1,0,2.22,2.22A2.22,2.22,0,0,0,22,9.22Zm0,3.7a1.48,1.48,0,1,1,1.48-1.48A1.49,1.49,0,0,1,22,12.92Z" transform="translate(-0.06)"/><polygon class="cls-2" points="41.35 12.93 41.35 11.47 42.14 11.47 42.87 10.73 40.61 10.73 40.61 11.41 40.61 11.41 40.61 12.93 40.61 13.25 40.61 13.67 43.56 13.67 44.3 12.93 41.35 12.93"/><polygon class="cls-2" points="44.34 9.21 40.6 9.21 40.6 9.95 43.63 9.95 44.34 9.21"/><path class="cls-2" d="M49.3,12.45l0,0a1.51,1.51,0,1,1-1.1-2.56,1.37,1.37,0,0,1,1.1.45l.06.07.5-.5a2.22,2.22,0,1,0,0,3h0l-.49-.49Z" transform="translate(-0.06)"/><path class="cls-2" d="M17,9.21v2.22h0l-.15-.16-.44-.44L15.52,10l0,0h0l-.36-.36-.36-.36H14v4.47h.74V10.32c.63.61,1.82,1.76,2.19,2.15v1.19h.75V9.21Z" transform="translate(-0.06)"/></g></svg>