<svg width="106" height="106" viewBox="0 0 106 106" fill="none" xmlns="http://www.w3.org/2000/svg">
<path d="M55.3112 46.5221C41.9433 43.0476 37.6445 39.485 37.6445 33.8905C37.6445 27.4717 43.5629 22.9667 53.5445 22.9667C64.0267 22.9667 67.9133 27.9721 68.2667 35.3333H81.2812C80.8983 25.175 74.6857 15.9295 62.3779 12.8967V0H44.7112V12.72C33.2867 15.2229 24.1 22.5838 24.1 33.9788C24.1 47.5821 35.3771 54.3543 51.7779 58.3C66.5295 61.8333 69.4445 66.9862 69.4445 72.5217C69.4445 76.5555 66.5883 83.0333 53.5445 83.0333C41.4133 83.0333 36.6141 77.5862 35.9957 70.6667H23.0107C23.7469 83.5633 33.3753 90.7771 44.7112 93.2212V106H62.3779V93.3388C73.8317 91.1305 82.9891 84.5055 82.9891 72.4038C82.9891 55.7383 68.6791 50.0262 55.3112 46.5221Z" fill="#426DA9"/>
</svg>
