<svg width="176" height="175" viewBox="0 0 176 175" fill="none" xmlns="http://www.w3.org/2000/svg">
<path d="M162.503 115.164V56.1321C162.499 53.06 161.271 50.1147 159.086 47.9421C156.902 45.7696 153.94 44.5472 150.85 44.543H58.1976C55.1084 44.5472 52.1469 45.7692 49.9625 47.9412C47.7781 50.1132 46.5491 53.0578 46.5449 56.1294V70.9331H30.1864C29.4813 70.9331 28.8051 71.2116 28.3065 71.7073C27.8079 72.2031 27.5278 72.8755 27.5278 73.5766C27.5278 74.2777 27.8079 74.9501 28.3065 75.4458C28.8051 75.9416 29.4813 76.2201 30.1864 76.2201H46.5422V83.006H8.25822C7.55311 83.006 6.87688 83.2845 6.3783 83.7802C5.87971 84.276 5.59961 84.9484 5.59961 85.6495C5.59961 86.3506 5.87971 87.0229 6.3783 87.5187C6.87688 88.0145 7.55311 88.293 8.25822 88.293H46.5422V115.164C46.5464 118.236 47.7755 121.18 49.9599 123.352C52.1443 125.524 55.1057 126.746 58.1949 126.751H150.85C153.941 126.751 156.905 125.53 159.09 123.357C161.275 121.184 162.503 118.237 162.503 115.164ZM52.5666 118.046C52.102 117.155 51.8594 116.167 51.8594 115.164V56.1321C51.8604 55.026 52.1544 53.9396 52.7116 52.9823C53.2688 52.025 54.0697 51.2304 55.0338 50.6785L87.6789 83.1328L52.5666 118.046ZM79.3255 67.3511L73.8488 61.9055L79.3255 67.3511ZM68.5316 56.6185L61.7043 49.83H147.343L109.004 87.9519C107.814 89.1321 106.203 89.795 104.523 89.795C102.842 89.795 101.231 89.1321 100.041 87.9519L84.6428 72.6408L68.5316 56.6185ZM150.85 121.464H58.1976C57.7296 121.462 57.2633 121.409 56.8071 121.305L91.4382 86.8734L96.2822 91.6899C98.4693 93.8607 101.433 95.08 104.524 95.08C107.614 95.08 110.578 93.8607 112.766 91.6899L117.61 86.8734L139.158 108.299H117.399C116.694 108.299 116.018 108.577 115.52 109.073C115.021 109.569 114.741 110.241 114.741 110.942C114.741 111.644 115.021 112.316 115.52 112.812C116.018 113.307 116.694 113.586 117.399 113.586H144.475L152.243 121.31C151.786 121.412 151.319 121.464 150.85 121.464ZM121.369 83.1328L154.009 50.6785C154.973 51.2301 155.775 52.0245 156.332 52.9819C156.89 53.9392 157.184 55.0257 157.186 56.1321V115.164C157.188 116.168 156.947 117.158 156.484 118.051L121.369 83.1328Z" fill="#426DA9"/>
<path d="M119.698 59.2622C119.698 58.6506 119.485 58.0579 119.095 57.5851C118.705 57.1122 118.162 56.7885 117.559 56.6691C116.955 56.5496 116.329 56.6419 115.787 56.9301C115.244 57.2183 114.819 57.6846 114.583 58.2496C114.348 58.8146 114.317 59.4433 114.495 60.0286C114.674 60.6139 115.051 61.1196 115.562 61.4594C116.073 61.7993 116.688 61.9523 117.3 61.8925C117.912 61.8326 118.484 61.5636 118.919 61.1312C119.418 60.6356 119.698 59.9633 119.698 59.2622Z" fill="#DDDDDD"/>
<path d="M23.077 73.5845C23.0771 72.9729 22.864 72.3802 22.4739 71.9073C22.0837 71.4345 21.5408 71.1108 20.9376 70.9913C20.3343 70.8719 19.7081 70.9641 19.1656 71.2523C18.623 71.5405 18.1978 72.0069 17.9623 72.5719C17.7268 73.1369 17.6957 73.7656 17.8741 74.3509C18.0526 74.9362 18.4296 75.4418 18.941 75.7817C19.4523 76.1216 20.0664 76.2746 20.6785 76.2148C21.2907 76.1549 21.863 75.8859 22.298 75.4535C22.7947 74.9565 23.0745 74.2851 23.077 73.5845Z" fill="#DDDDDD"/>
<path d="M40.1456 97.7089C40.1456 97.0078 39.8655 96.3354 39.3669 95.8397C38.8683 95.3439 38.1921 95.0654 37.487 95.0654H20.4028C19.6976 95.0654 19.0214 95.3439 18.5228 95.8397C18.0242 96.3354 17.7441 97.0078 17.7441 97.7089C17.7441 98.41 18.0242 99.0824 18.5228 99.5782C19.0214 100.074 19.6976 100.352 20.4028 100.352H37.487C38.1921 100.352 38.8683 100.074 39.3669 99.5782C39.8655 99.0824 40.1456 98.41 40.1456 97.7089Z" fill="#B4C2D3"/>
<path d="M50.6909 82.832H8.1983C6.48478 82.832 5.0957 84.2126 5.0957 85.9157C5.0957 87.6187 6.48478 88.9993 8.1983 88.9993H50.6909C52.4044 88.9993 53.7935 87.6187 53.7935 85.9157C53.7935 84.2126 52.4044 82.832 50.6909 82.832Z" fill="#DDDDDD"/>
<path d="M37.5744 94.6396H18.4776C16.7641 94.6396 15.375 96.0202 15.375 97.7233C15.375 99.4264 16.7641 100.807 18.4776 100.807H37.5744C39.2879 100.807 40.677 99.4264 40.677 97.7233C40.677 96.0202 39.2879 94.6396 37.5744 94.6396Z" fill="#DDDDDD"/>
<path d="M94.0511 65.4414H116.705C119.454 65.4414 120.831 68.7911 118.888 70.7578L107.571 82.177C106.992 82.7606 106.207 83.0885 105.389 83.0885C104.571 83.0885 103.786 82.7606 103.208 82.177L91.8727 70.7578C89.9187 68.7911 91.3004 65.4414 94.0511 65.4414Z" fill="#DDDDDD"/>
</svg>
