<svg width="17" height="17" viewBox="0 0 17 17" fill="none" xmlns="http://www.w3.org/2000/svg">
<path d="M1.15927 14.2952H3.86386V16.6137C3.86386 16.7265 3.89995 16.8188 3.97257 16.891C4.04498 16.9637 4.13756 17 4.25033 17H6.26656C6.3712 17 6.46175 16.9637 6.53823 16.891C6.61471 16.8188 6.65283 16.7265 6.65283 16.6137V14.2952H12.7501C12.8627 14.2952 12.9553 14.2593 13.0278 14.1867C13.1005 14.1141 13.1365 14.0217 13.1365 13.9089V12.3634C13.1365 12.2512 13.1005 12.1582 13.0278 12.0861C12.9555 12.0134 12.8627 11.9771 12.7501 11.9771H6.65263V10.5523H10.7577C12.3675 10.5523 13.6813 10.0618 14.6999 9.07937C15.718 8.09798 16.2273 6.83027 16.2273 5.27615C16.2273 3.72307 15.718 2.45532 14.6999 1.47293C13.6815 0.491511 12.3675 0 10.7577 0H4.25013C4.13733 0 4.04495 0.036291 3.97237 0.108506C3.89995 0.181122 3.86366 0.274098 3.86366 0.38627V7.98091H1.15927C1.0465 7.98091 0.954085 8.01907 0.881503 8.09552C0.809121 8.172 0.772797 8.26254 0.772797 8.36715V10.166C0.772797 10.2788 0.808888 10.3712 0.881503 10.4438C0.954118 10.5164 1.0463 10.5523 1.15927 10.5523H3.86386V11.9771H1.15927C1.0465 11.9771 0.954085 12.0134 0.881503 12.086C0.809121 12.1582 0.772797 12.251 0.772797 12.3634V13.9089C0.772797 14.0217 0.808888 14.1141 0.881503 14.1867C0.954085 14.2593 1.04646 14.2952 1.15927 14.2952ZM6.65263 2.57199H10.5163C11.3694 2.57199 12.0575 2.82143 12.5809 3.32047C13.104 3.81955 13.3656 4.47175 13.3656 5.27635C13.3656 6.08135 13.104 6.73376 12.5809 7.23223C12.0575 7.73171 11.3694 7.98115 10.5163 7.98115H6.65263V2.57199Z" fill="black"/>
</svg>
