<svg width="25" height="25" viewBox="0 0 25 25" fill="none" xmlns="http://www.w3.org/2000/svg">
<path d="M0.6875 1.72593H2.375V22.437H0.6875V1.72593ZM22.625 1.72593H24.3125V22.437H22.625V1.72593ZM20.6844 19.2441L16.6175 15.0846C17.3801 14.0123 17.7204 12.6858 17.5708 11.3687C17.4212 10.0516 16.7927 8.84018 15.8101 7.97519C14.8274 7.11021 13.5626 6.65491 12.2669 6.69974C10.9712 6.74458 9.73941 7.28626 8.8162 8.2172C7.89299 9.14813 7.34594 10.4002 7.28373 11.7246C7.22152 13.0491 7.6487 14.349 8.48041 15.3662C9.31211 16.3833 10.4875 17.0433 11.773 17.2149C13.0586 17.3866 14.3602 17.0574 15.4194 16.2927L19.4862 20.4522L20.6844 19.2441ZM9.125 12.0815C9.125 11.3988 9.32294 10.7314 9.69379 10.1637C10.0646 9.59608 10.5917 9.15365 11.2084 8.89239C11.8251 8.63112 12.5037 8.56276 13.1584 8.69596C13.8131 8.82915 14.4145 9.1579 14.8865 9.64065C15.3585 10.1234 15.6799 10.7385 15.8102 11.4081C15.9404 12.0777 15.8735 12.7717 15.6181 13.4024C15.3626 14.0332 14.9301 14.5723 14.375 14.9516C13.82 15.3309 13.1675 15.5333 12.5 15.5333C11.6049 15.5333 10.7464 15.1697 10.1135 14.5223C9.48058 13.875 9.125 12.997 9.125 12.0815ZM4.0625 0V24.163H15.875V22.437H5.75V1.72593H19.25V6.9037H20.9375V0H4.0625Z" fill="#26272A"/>
</svg>
