<svg width="25" height="21" viewBox="0 0 25 21" fill="none" xmlns="http://www.w3.org/2000/svg">
<path d="M19.25 0H5.75L0.6875 5.17779V20.7112H24.3125V5.17779L19.25 0ZM6.44187 1.72593H18.5413L21.9163 5.17779H3.06688L6.44187 1.72593ZM22.625 18.9852H2.375V13.8074H22.625V18.9852ZM22.625 12.0815H2.375V6.90372H22.625V12.0815ZM4.0625 8.62965H5.75V10.3556H4.0625V8.62965ZM7.4375 8.62965H9.125V10.3556H7.4375V8.62965ZM10.8125 8.62965H12.5V10.3556H10.8125V8.62965ZM15.875 8.62965H20.9375V10.3556H15.875V8.62965ZM4.0625 15.5334H5.75V17.2593H4.0625V15.5334ZM7.4375 15.5334H9.125V17.2593H7.4375V15.5334ZM10.8125 15.5334H12.5V17.2593H10.8125V15.5334ZM15.875 15.5334H20.9375V17.2593H15.875V15.5334Z" fill="#26272A"/>
</svg>
