<svg width="22" height="25" viewBox="0 0 22 25" fill="none" xmlns="http://www.w3.org/2000/svg">
<path d="M11.2553 0L0.532227 6.12286V18.3686L11.2553 24.4914L21.9783 18.3686V6.12286L11.2553 0ZM20.4464 10.9446L17.3827 9.18429V5.28097L20.4464 7.04129V10.9446ZM11.2553 7.95972L15.8509 5.28097V8.64854L11.2553 11.3273V7.95972ZM2.06409 7.04129L5.12782 5.28097V9.18429L2.06409 10.9446V7.04129ZM2.06409 12.7049L5.12782 10.9446V14.8479L2.06409 16.6083V12.7049ZM2.83002 17.9094L5.89375 16.149L9.03407 17.9859L5.97034 19.7462L2.83002 17.9094ZM11.2553 22.7311L7.5022 20.5881L10.5659 18.8278L14.319 20.9708L11.2553 22.7311ZM16.6168 14.9245L11.9446 12.7049L16.0806 10.3323L20.4464 12.7815L16.6168 14.9245Z" fill="#26272A"/>
</svg>
