<svg width="25" height="25" viewBox="0 0 25 25" fill="none" xmlns="http://www.w3.org/2000/svg">
<path d="M19.9142 22.9607H21.4461V24.4914H19.9142V22.9607ZM13.7868 0C10.9428 0 8.21539 1.12889 6.20443 3.13834C4.19347 5.14779 3.06373 7.8732 3.06373 10.715V12.2457L1.76164 20.0829L0 20.6646V22.1953L1.88419 22.8229L2.29779 24.4914H5.36152L5.77512 22.8229L7.65931 22.1953C8.26873 22.1953 8.85318 22.4373 9.2841 22.8679C9.71502 23.2984 9.95711 23.8825 9.95711 24.4914H11.489C11.489 23.4765 11.0855 22.5031 10.3673 21.7855C9.64909 21.0678 8.675 20.6646 7.65931 20.6646L5.89767 20.0829L4.59559 12.2457V10.715C4.59559 8.27917 5.56394 5.94311 7.28762 4.22072C9.0113 2.49833 11.3491 1.53071 13.7868 1.53071C16.2244 1.53071 18.5622 2.49833 20.2859 4.22072C22.0096 5.94311 22.9779 8.27917 22.9779 10.715C22.9748 12.291 22.4345 13.8188 21.4461 15.0469C21.2386 15.2927 21.0188 15.5277 20.7874 15.751L20.6648 15.8429C20.4322 16.063 20.1811 16.2627 19.9142 16.4399C18.8765 17.1327 17.6699 17.531 16.4233 17.5923C15.1768 17.6536 13.9369 17.3756 12.8361 16.7879C11.7353 16.2002 10.8148 15.3248 10.1729 14.2553C9.53094 13.1858 9.19164 11.9621 9.19118 10.715C9.19118 9.2941 9.75605 7.9314 10.7615 6.92668C11.767 5.92195 13.1307 5.3575 14.5527 5.3575C15.9747 5.3575 17.3384 5.92195 18.3439 6.92668C19.3493 7.9314 19.9142 9.2941 19.9142 10.715V14.4652C20.8977 13.4646 21.4479 12.1175 21.4461 10.715C21.4461 8.88813 20.7198 7.13609 19.4271 5.8443C18.1343 4.55251 16.3809 3.82678 14.5527 3.82678C12.7245 3.82678 10.9711 4.55251 9.67834 5.8443C8.38558 7.13609 7.65931 8.88813 7.65931 10.715C7.65905 12.156 8.02896 13.573 8.73363 14.8303C9.43831 16.0876 10.4542 17.1432 11.684 17.8958C12.9137 18.6485 14.3163 19.0732 15.7573 19.1291C17.1984 19.1851 18.6297 18.8705 19.9142 18.2155V21.43H21.4461V17.2052C22.4046 16.4165 23.1764 15.4255 23.7061 14.3033C24.2358 13.1811 24.5103 11.9557 24.5098 10.715C24.5098 7.8732 23.3801 5.14779 21.3691 3.13834C19.3581 1.12889 16.6307 0 13.7868 0ZM5.36152 21.43C5.36152 21.7327 5.27168 22.0287 5.10335 22.2804C4.93503 22.5321 4.69579 22.7283 4.41588 22.8442C4.13596 22.96 3.82796 22.9904 3.53081 22.9313C3.23365 22.8722 2.9607 22.7264 2.74647 22.5124C2.53223 22.2983 2.38634 22.0255 2.32723 21.7286C2.26812 21.4317 2.29846 21.1239 2.4144 20.8442C2.53034 20.5645 2.72669 20.3254 2.9786 20.1572C3.23051 19.989 3.52668 19.8993 3.82966 19.8993C4.23593 19.8993 4.62557 20.0605 4.91285 20.3476C5.20013 20.6347 5.36152 21.024 5.36152 21.43Z" fill="#26272A"/>
</svg>
