<svg width="25" height="17" viewBox="0 0 25 17" fill="none" xmlns="http://www.w3.org/2000/svg">
<path d="M22.212 4.59214C22.8214 4.59214 23.4059 4.35023 23.8368 3.91963C24.2677 3.48903 24.5098 2.90503 24.5098 2.29607C24.5098 1.68712 24.2677 1.10311 23.8368 0.672514C23.4059 0.241917 22.8214 0 22.212 0H18.3824V1.53071H7.65931L4.59559 4.59214H0V16.8379H16.8505V14.1591L21.4461 15.3071H22.9779V6.12286H21.4461L16.8505 7.27089V3.06143H18.3824V4.59214H22.212ZM10.723 12.2457H3.06373V7.65357H10.723V12.2457ZM15.3186 4.59214H7.07721L8.60907 3.06143H15.3186V4.59214Z" fill="#26272A"/>
</svg>
