<?xml version="1.0" encoding="utf-8"?>
<!-- Generator: Adobe Illustrator 23.1.0, SVG Export Plug-In . SVG Version: 6.00 Build 0)  -->
<svg version="1.1" id="Слой_1" xmlns="http://www.w3.org/2000/svg" xmlns:xlink="http://www.w3.org/1999/xlink" x="0px" y="0px"
	 viewBox="0 0 32 32" style="enable-background:new 0 0 32 32;" xml:space="preserve">
<style type="text/css">
	.st0{fill:url(#SVGID_1_);}
</style>
<linearGradient id="SVGID_1_" gradientUnits="userSpaceOnUse" x1="4.4995" y1="16" x2="27.5" y2="16">
	<stop  offset="0" style="stop-color:#3FC9E6"/>
	<stop  offset="1" style="stop-color:#963CBD"/>
</linearGradient>
<path class="st0" d="M18.5,12h6l3-5l-3-5h-6l-3,5L18.5,12z M18.5,24h6l3-5l-3-5h-6l-3,5L18.5,24z M8.6,28l-1.8-3l1.8-3h3.7l1.8,3
	l-1.8,3H8.6 M7.5,30h6l3-5l-3-5h-6l-3,5L7.5,30L7.5,30z M8.6,16l3.7-6l1.8,3l-1.8,3H8.6 M7.5,18h6l3-5l-3-5h-6l-3,5L7.5,18L7.5,18z"
	/>
</svg>
