<svg width="25" height="15" viewBox="0 0 25 15" fill="none" xmlns="http://www.w3.org/2000/svg">
<path d="M16.3715 2.22925C17.728 2.23263 19.03 2.76366 20.002 3.70995C20.9739 4.65625 21.5395 5.94356 21.5792 7.2995V8.18527L22.3733 8.61288C22.7013 8.79503 22.9755 9.06027 23.1685 9.38194C23.3615 9.70362 23.4665 10.0704 23.4729 10.4455C23.4811 10.7253 23.433 11.004 23.3315 11.2649C23.2301 11.5259 23.0772 11.7638 22.8821 11.9646C22.687 12.1654 22.4536 12.325 22.1957 12.4339C21.9378 12.5429 21.6606 12.5989 21.3807 12.5988H19.8535H3.94023C3.41423 12.5539 2.92423 12.3132 2.56716 11.9244C2.21009 11.5356 2.01196 11.0269 2.01196 10.4989C2.01196 9.97103 2.21009 9.46234 2.56716 9.07349C2.92423 8.68465 3.41423 8.44397 3.94023 8.39907H5.46742V7.97146L5.68122 7.39112C5.92371 6.70525 6.37231 6.11112 6.96557 5.6901C7.55883 5.26908 8.26774 5.04175 8.99521 5.03926C9.40234 5.03315 9.80682 5.10576 10.1864 5.25308L11.3318 5.66541L11.9885 4.6422C12.4613 3.91003 13.1104 3.30826 13.8762 2.89202C14.6419 2.47578 15.4999 2.25839 16.3715 2.25979V2.22925ZM16.3715 0.732602C15.247 0.726942 14.139 1.00361 13.1491 1.53724C12.1592 2.07088 11.319 2.84441 10.7057 3.78697C10.1585 3.58316 9.57909 3.4797 8.99521 3.48154C7.9518 3.48323 6.93432 3.80679 6.08159 4.40808C5.22885 5.00936 4.58239 5.85909 4.2304 6.84134H3.94023C3.01895 6.90115 2.15496 7.3093 1.52365 7.98293C0.892333 8.65656 0.541016 9.54518 0.541016 10.4684C0.541016 11.3916 0.892333 12.2802 1.52365 12.9539C2.15496 13.6275 3.01895 14.0356 3.94023 14.0955H21.3807C22.1911 14.1073 22.9818 13.8456 23.6251 13.3526C24.2685 12.8597 24.7269 12.1643 24.9264 11.3788C25.1259 10.5932 25.0548 9.76334 24.7245 9.02318C24.3943 8.28302 23.8242 7.67577 23.1064 7.2995C23.0784 5.53048 22.3569 3.84318 21.0974 2.60073C19.8378 1.35829 18.1407 0.660031 16.3715 0.65625" fill="#26262A"/>
</svg>
