<svg width="19" height="21" viewBox="0 0 19 21" fill="none" xmlns="http://www.w3.org/2000/svg">
<path d="M9.49249 0.538086C4.40018 0.538086 0.261719 1.9227 0.261719 3.61501V17.4612C0.261719 19.1535 4.40018 20.5381 9.49249 20.5381C14.5848 20.5381 18.7233 19.1535 18.7233 17.4612V3.61501C18.7233 1.9227 14.6002 0.538086 9.49249 0.538086ZM9.49249 2.07655C13.754 2.07655 16.3233 3.04578 17.0463 3.61501C16.3233 4.18424 13.754 5.15347 9.49249 5.15347C5.23095 5.15347 2.6771 4.18424 1.95403 3.61501C2.6771 3.04578 5.24633 2.07655 9.49249 2.07655ZM17.1848 17.3381C16.7386 17.8612 14.1079 18.9996 9.49249 18.9996C4.8771 18.9996 2.26172 17.8612 1.80018 17.3381V14.5381C4.23701 15.5401 6.85919 16.0121 9.49249 15.9227C12.126 16.0154 14.7489 15.5433 17.1848 14.5381V17.3381ZM17.1848 12.7227C16.7386 13.2458 14.1079 14.3842 9.49249 14.3842C4.8771 14.3842 2.26172 13.2458 1.80018 12.7227V9.9227C4.23701 10.9247 6.85919 11.3967 9.49249 11.3073C12.126 11.4001 14.7489 10.9279 17.1848 9.9227V12.7227ZM17.1848 8.10731C16.7386 8.63039 14.1079 9.76885 9.49249 9.76885C4.8771 9.76885 2.26172 8.63039 1.80018 8.10731V5.30731C4.23701 6.30936 6.85919 6.78136 9.49249 6.69193C12.126 6.78468 14.7489 6.31256 17.1848 5.30731V8.10731Z" fill="#26262A"/>
</svg>
