<?xml version="1.0" encoding="utf-8"?>
<!-- Generator: Adobe Illustrator 21.1.0, SVG Export Plug-In . SVG Version: 6.00 Build 0)  -->
<svg version="1.1" id="Слой_1" xmlns="http://www.w3.org/2000/svg" xmlns:xlink="http://www.w3.org/1999/xlink" x="0px" y="0px"
	 viewBox="0 0 32 32" style="enable-background:new 0 0 32 32;" xml:space="preserve">
<path d="M29,16.9c-0.2-1.2-0.5-3.2-0.8-4.7L28,10.8C27.6,8.5,26.1,8,25,8s-2.6,0.5-3,2.8l-0.2,1.4c-0.2,1.5-0.6,3.5-0.8,4.7
	c-0.1,0.9-1.2,1.2-1.2,1.2l0.4,2c0.9-0.2,2.5-1,2.8-2.8c0.2-1.2,0.5-3.2,0.8-4.6l0.2-1.4c0.2-1.1,0.5-1.2,1-1.2c0.5,0,0.8,0.1,1,1.2
	l0.2,1.4c0.2,1.5,0.6,3.5,0.8,4.6c0.3,1.8,1.9,2.6,2.8,2.8l0.4-2C30.2,18,29.1,17.8,29,16.9z"/>
<rect x="20" y="22" width="10" height="2"/>
<path d="M22.6,26c-0.5,0.3-1,0.6-1.6,0.9c0.2-0.3,0.4-0.6,0.6-0.9h-2.4c-1,1.3-2.1,2-3.2,2c-1.6,0-3.4-1.7-4.6-4.4
	c1.4,0.3,3,0.4,4.6,0.4c0.7,0,1.3,0,2-0.1v-2C17.4,22,16.7,22,16,22c-2,0-3.8-0.3-5.3-0.7C10.3,19.8,10,18,10,16s0.3-3.8,0.7-5.3
	C12.2,10.3,14,10,16,10c1.5,0,2.8,0.1,4.1,0.4c0.3-1.5,1-2.7,2-3.5c-0.3-0.7-0.7-1.3-1.1-1.8c0.7,0.3,1.4,0.8,2.1,1.2
	C23.7,6.1,24.3,6,25,6c0.3,0,0.6,0,0.9,0.1C23.3,3.6,19.9,2,16,2C8.3,2,2,8.3,2,16s6.3,14,14,14c3.8,0,7.3-1.5,9.8-4H22.6z M16,4
	c1.6,0,3.4,1.7,4.6,4.4C19.1,8.2,17.6,8,16,8s-3.1,0.2-4.6,0.4C12.6,5.7,14.4,4,16,4z M11,5.1c-0.8,1.1-1.4,2.4-1.9,3.9
	C7.5,9.6,6.2,10.2,5.1,11C6.3,8.4,8.4,6.3,11,5.1z M8.4,11.4C8.2,12.9,8,14.4,8,16s0.2,3.1,0.4,4.6C5.7,19.4,4,17.6,4,16
	S5.7,12.6,8.4,11.4z M5.1,21c1.1,0.8,2.4,1.4,3.9,1.9c0.5,1.5,1.1,2.8,1.9,3.9C8.4,25.7,6.3,23.6,5.1,21z"/>
</svg>
