<?xml version="1.0" encoding="utf-8"?>
<!-- Generator: Adobe Illustrator 21.1.0, SVG Export Plug-In . SVG Version: 6.00 Build 0)  -->
<svg version="1.1" id="Слой_1" xmlns="http://www.w3.org/2000/svg" xmlns:xlink="http://www.w3.org/1999/xlink" x="0px" y="0px"
	 viewBox="0 0 32 32" style="enable-background:new 0 0 32 32;" xml:space="preserve">
<path d="M16,4c6.6,0,12,5.4,12,12s-5.4,12-12,12S4,22.6,4,16S9.4,4,16,4 M16,2C8.3,2,2,8.3,2,16s6.3,14,14,14s14-6.3,14-14
	S23.7,2,16,2L16,2z"/>
<path d="M20,7l-0.3,0.3l-2.4,2.4L8,19v5h5l9.3-9.3l2.4-2.4L25,12L20,7L20,7z M10,22v-2.2l8.7-8.7l2.2,2.2L12.2,22H10L10,22z"/>
</svg>
