<?xml version="1.0" encoding="utf-8"?>
<!-- Generator: Adobe Illustrator 21.1.0, SVG Export Plug-In . SVG Version: 6.00 Build 0)  -->
<svg version="1.1" id="Слой_1" xmlns="http://www.w3.org/2000/svg" xmlns:xlink="http://www.w3.org/1999/xlink" x="0px" y="0px"
	 viewBox="0 0 32 32" style="enable-background:new 0 0 32 32;" xml:space="preserve">
<path d="M24.451,22.038C26.041,20.13,27,17.679,27,15c0-6.075-4.926-11-11-11C9.924,4,5,8.926,5,15c0,6.076,4.924,11,11,11
	c2.677,0,5.129-0.959,7.037-2.549C26.733,27.147,27.6,28,27.6,28l1.4-1.4C29,26.6,28.146,25.732,24.451,22.038z M16,24
	c-4.971,0-9.001-4.03-9.001-9.001C6.999,10.029,11.029,6,16,6s8.999,4.029,8.999,8.999C24.999,19.97,20.971,24,16,24z"/>
<path d="M11.11,20c1.263,1.235,2.988,2,4.89,2c0.695,0,1.366-0.105,2-0.295V8.295C17.366,8.105,16.695,8,16,8
	c-1.902,0-3.628,0.765-4.891,2H16v10H11.11z"/>
<path d="M5.425,18H4v-6h1.425c0.198-0.698,0.461-1.366,0.786-2H2v10h4.21C5.886,19.366,5.622,18.698,5.425,18z"/>
</svg>
