<?xml version="1.0" encoding="utf-8"?>
<!-- Generator: Adobe Illustrator 21.1.0, SVG Export Plug-In . SVG Version: 6.00 Build 0)  -->
<svg version="1.1" id="Слой_1" xmlns="http://www.w3.org/2000/svg" xmlns:xlink="http://www.w3.org/1999/xlink" x="0px" y="0px"
	 viewBox="0 0 32 32" style="enable-background:new 0 0 32 32;" xml:space="preserve">
<g>
	<path d="M13.613,23.638l0.597-1.91c-1.872-0.586-3.351-2.066-3.937-3.937l-1.91,0.597C9.142,20.885,11.115,22.858,13.613,23.638z"
		/>
	<path d="M20,9.08c-0.507-0.294-1.044-0.54-1.613-0.718l-0.597,1.91c0.831,0.26,1.578,0.704,2.21,1.273V9.08z"/>
</g>
<path d="M16,14c1.103,0,2,0.897,2,2s-0.897,2-2,2s-2-0.897-2-2S14.897,14,16,14 M16,12c-2.209,0-4,1.791-4,4s1.791,4,4,4
	s4-1.791,4-4S18.209,12,16,12L16,12z"/>
<polygon points="22,12 22,17.75 28,24 28,28 22,28 22,17.75 18,22 18,32 32,32 32,23 "/>
<path d="M16,26c-5.523,0-10-4.477-10-10S10.477,6,16,6c1.423,0,2.774,0.302,4,0.838V6.827l0.018,0.02
	c2.579,1.134,4.585,3.323,5.475,6.022l2.487,2.736C27.77,9.162,22.494,4,16,4C9.373,4,4,9.373,4,16s5.373,12,12,12V26z"/>
</svg>
