<?xml version="1.0" encoding="utf-8"?>
<!-- Generator: Adobe Illustrator 21.1.0, SVG Export Plug-In . SVG Version: 6.00 Build 0)  -->
<svg version="1.1" id="Слой_1" xmlns="http://www.w3.org/2000/svg" xmlns:xlink="http://www.w3.org/1999/xlink" x="0px" y="0px"
	 viewBox="0 0 32 32" style="enable-background:new 0 0 32 32;" xml:space="preserve">
<rect x="6" y="16" width="2" height="2"/>
<rect x="30" y="30" width="2" height="2"/>
<path d="M32,22.5L25.5,16L14,27.5l4.5,4.5H28v-2h-3.5L32,22.5z M16.828,27.5l3.586-3.586l3.672,3.672L21.672,30h-2.344L16.828,27.5z
	"/>
<path d="M10,22h8v-2H8v4H4V14h24v2h2v-4h-6V4H8v8H2v14h6v2h4v-2h-2V22z M10,6h12v6H10V6z"/>
</svg>
