<?xml version="1.0" encoding="utf-8"?>
<!-- Generator: Adobe Illustrator 21.1.0, SVG Export Plug-In . SVG Version: 6.00 Build 0)  -->
<svg version="1.1" id="Слой_1" xmlns="http://www.w3.org/2000/svg" xmlns:xlink="http://www.w3.org/1999/xlink" x="0px" y="0px"
	 viewBox="0 0 32 32" style="enable-background:new 0 0 32 32;" xml:space="preserve">
<style type="text/css">
	.st0{display:none;}
</style>
<path class="st0" d="M18.705,2.138L18.705,2.138c0.305,1.803,1.45,2.616,2.134,3.102c0.478,0.339,0.481,0.359,0.506,0.508
	c0,0.001,0,0.001,0,0.002l-1.972,0.334l0,0c-0.243-1.433-1.015-2.316-1.894-2.723c0.068-0.066,0.134-0.136,0.196-0.21
	c0.232-0.275,0.413-0.588,0.54-0.93L18.705,2.138 M13.619,3.413c0.227,0.201,0.474,0.36,0.73,0.478
	c-0.068,0.066-0.134,0.136-0.196,0.21c-0.646,0.764-0.893,1.824-0.696,2.985l0.167,0.986l0.045,0.263
	c-0.663,0.312-2.031,0.695-3.381,0.695c-0.167,0-0.312-0.007-0.435-0.017c0.018-0.188,0.044-0.394,0.072-0.611
	c0.127-1.003,0.293-2.309-0.073-3.864C11.222,4.317,12.586,3.84,13.619,3.413 M19.65,0c-0.297,0-0.704,0.069-1.279,0.166
	C16.399,0.5,16.399,0.5,16.399,0.5c0.181,1.069-0.316,1.657-0.861,1.657c-0.461,0-0.958-0.419-1.111-1.323
	c0,0-3.432,1.828-6.025,1.828c-0.714,0-1.365-0.139-1.863-0.492c2.64,3.612,1.002,5.918,1.336,7.89
	c0.116,0.683,1.139,0.97,2.413,0.97c2.401,0,5.694-1.017,5.475-2.306c-0.334-1.972,0,0-0.334-1.972
	c-0.181-1.069,0.316-1.657,0.861-1.657c0.461,0,0.958,0.419,1.111,1.323c0.334,1.972,0.334,1.972,0.334,1.972l5.916-1.002
	c0-0.002,0-0.002-0.334-1.974s-2.306-1.638-2.64-3.61C20.44,0.407,20.371,0,19.65,0L19.65,0z"/>
<path class="st0" d="M21.239,25.74c0.356-1.968,0.356-1.968-1.612-2.324c-1.968-0.356-1.968-0.356-1.968-0.356
	c-0.356,1.968-2.324,1.612-1.968-0.356c0,0-6.26,0.9-7.872-1.424c1.256,4.292-1.068,5.904-1.424,7.872
	c-0.356,1.968,7.516,3.392,7.872,1.424c0.356-1.968,0,0,0.356-1.968s2.324-1.612,1.968,0.356s-0.356,1.968-0.356,1.968L22.139,32
	c0,0,0,0,0.356-1.968C22.851,28.064,20.883,27.708,21.239,25.74z"/>
<path class="st0" d="M22.539,14c0-2,0-2-2-2s-2,0-2,0c0,1-0.5,1.5-1,1.5s-1-0.5-1-1.5c0,0-2.667,0.889-5.037,0.889
	c-1.185,0-2.296-0.222-2.963-0.889c2,4,0,6,0,8c0,1,2,1.5,4,1.5s4-0.5,4-1.5c0-2,0,0,0-2c0-1,0.5-1.5,1-1.5s1,0.5,1,1.5c0,2,0,2,0,2
	h6c0,0,0,0,0-2S22.539,16,22.539,14z M14.539,18v1v0.264c-0.405,0.115-1.09,0.236-2,0.236c-0.823,0-1.461-0.098-1.875-0.203
	c0.049-0.182,0.109-0.38,0.173-0.59c0.293-0.967,0.674-2.226,0.573-3.819c0.031,0,0.061,0,0.092,0c1.343,0,2.742-0.242,3.815-0.487
	c0.191,0.237,0.41,0.436,0.645,0.598C15.149,15.557,14.539,16.572,14.539,18z"/>
<g>
	<path d="M4,4v26h26V4H4z M6,28V18h2v10H6z M10,28V18h2v10H10z M16,28h-2V18h2V28z M16,10h-2v2h2v2h-2v2h-2v-2h-2v2H8v-2H6v-2h2v-2
		H6V8h2V6h2v2h2V6h2v2h2V10z M28,16H18V6h10V16z"/>
	<rect x="8" y="8" width="2" height="2"/>
	<rect x="10" y="10" width="2" height="2"/>
	<rect x="12" y="8" width="2" height="2"/>
	<rect x="8" y="12" width="2" height="2"/>
	<rect x="12" y="12" width="2" height="2"/>
</g>
</svg>
