<?xml version="1.0" encoding="utf-8"?>
<!-- Generator: Adobe Illustrator 21.1.0, SVG Export Plug-In . SVG Version: 6.00 Build 0)  -->
<svg version="1.1" id="Слой_1" xmlns="http://www.w3.org/2000/svg" xmlns:xlink="http://www.w3.org/1999/xlink" x="0px" y="0px"
	 viewBox="0 0 32 32" style="enable-background:new 0 0 32 32;" xml:space="preserve">
<polygon points="26.5,2 25,3.5 27.5,6 18,6 18,8 27.5,8 25,10.5 26.5,12 31.5,7 "/>
<path d="M28,18h-1.2c-0.5-2.3-2-4-3.8-4s-3.2,1.7-3.8,4h-1.9L16,6h-2l-1.4,12h-1.1c-0.7-1.2-2-2-3.4-2s-2.8,0.8-3.4,2H4V4h18V2H2v28
	h28V14h-2V18z M28,28H4v-8h2c0-1.1,0.9-2,2-2s2,0.9,2,2h1.2l1,4h1.7l1.1-9l1.2,11h1.7l1-6H21c0-2.4,1.2-4,2-4s2,1.6,2,4h3V28z"/>
</svg>
