<?xml version="1.0" encoding="utf-8"?>
<!-- Generator: Adobe Illustrator 21.1.0, SVG Export Plug-In . SVG Version: 6.00 Build 0)  -->
<svg version="1.1" id="Слой_1" xmlns="http://www.w3.org/2000/svg" xmlns:xlink="http://www.w3.org/1999/xlink" x="0px" y="0px"
	 viewBox="0 0 32 32" style="enable-background:new 0 0 32 32;" xml:space="preserve">
<style type="text/css">
	.st0{fill:#FFFFFF;}
</style>
<path d="M18.4,8.4l-0.6,1.9c1.9,0.6,3.4,2.1,3.9,3.9l1.9-0.6C22.9,11.1,20.9,9.1,18.4,8.4z"/>
<polygon points="31,20 26,20 24,18 14,18 14,32 32,32 32,20 "/>
<polygon class="st0" points="22,22 22,20 16,20 16,22 18,24 18,26 16,28 16,30 22,30 22,28 20,26 20,24 "/>
<path d="M16,14c1.1,0,2,0.9,2,2h2c0-2.2-1.8-4-4-4s-4,1.8-4,4h2C14,14.9,14.9,14,16,14z"/>
<path d="M12,20.5c-0.8-0.7-1.4-1.6-1.7-2.7l-1.9,0.6c0.6,1.9,1.9,3.5,3.6,4.5V20.5z"/>
<path d="M12,25.2c-3.5-1.5-6-5.1-6-9.2c0-5.5,4.5-10,10-10s10,4.5,10,10c0,0.4,0,0.7-0.1,1.1l0.9,0.9h1c0.1-0.7,0.2-1.3,0.2-2
	c0-6.6-5.4-12-12-12S4,9.4,4,16c0,5.2,3.3,9.7,8,11.3V25.2z"/>
</svg>
