<?xml version="1.0" encoding="utf-8"?>
<!-- Generator: Adobe Illustrator 21.1.0, SVG Export Plug-In . SVG Version: 6.00 Build 0)  -->
<svg version="1.1" id="Слой_1" xmlns="http://www.w3.org/2000/svg" xmlns:xlink="http://www.w3.org/1999/xlink" x="0px" y="0px"
	 viewBox="0 0 32 32" style="enable-background:new 0 0 32 32;" xml:space="preserve">
<path d="M26,30V2H6v28H26z M8,4h16v24H8V4z"/>
<path d="M10.748,24c-0.597,0-1.12-0.326-1.45-0.909c-0.354-0.626-0.396-1.298-0.122-1.945c0.184-0.435,0.673-1.59,3.991-2.833
	c0.219-0.478,0.437-0.997,0.646-1.558c0.243-0.648,0.45-1.287,0.624-1.899c-1.044-2.249-1.267-4.442-0.752-5.653
	c0.304-0.714,0.872-1.151,1.557-1.199c0.547-0.044,1.064,0.198,1.399,0.648c0.837,1.121,0.497,3.709-0.079,5.982
	c0.328,0.604,0.738,1.222,1.246,1.829c0.188,0.225,0.366,0.434,0.534,0.629c2.204-0.077,3.702,0.745,4.327,1.707
	c0.453,0.699,0.441,1.501-0.032,2.092c-0.512,0.639-1.096,0.778-1.496,0.782c-0.975-0.001-1.956-0.652-3.639-2.509
	c-0.313,0.044-0.647,0.111-1.003,0.204c-0.724,0.189-1.353,0.376-1.899,0.559c-0.913,1.813-2.286,3.954-3.721,4.067
	C10.835,23.998,10.792,24,10.748,24z M15.8,17.146c-0.038,0.107-0.076,0.211-0.113,0.311c-0.007,0.018-0.015,0.04-0.025,0.066
	c0.108-0.029,0.219-0.06,0.332-0.089c0.008-0.002,0.015-0.004,0.022-0.006C15.942,17.334,15.87,17.24,15.8,17.146z"/>
</svg>
