<?xml version="1.0" encoding="utf-8"?>
<!-- Generator: Adobe Illustrator 21.1.0, SVG Export Plug-In . SVG Version: 6.00 Build 0)  -->
<svg version="1.1" id="Слой_1" xmlns="http://www.w3.org/2000/svg" xmlns:xlink="http://www.w3.org/1999/xlink" x="0px" y="0px"
	 viewBox="0 0 32 32" style="enable-background:new 0 0 32 32;" xml:space="preserve">
<g>
	<path d="M25.98,13.196c0.274-1.373,0.725-3.623,1.158-4.181C27.95,9.198,28,10.984,28,11h2c0-1.383-0.627-4-3-4
		c-1.819,0-2.332,2.561-2.98,5.804c-0.256,1.28-0.664,3.322-1.069,4.045c-0.187-0.365-0.372-1.134-0.492-1.63
		C22.052,13.539,21.438,11,19,11c-2.405,0-3.47,3.706-4.598,7.63c-0.389,1.352-0.943,3.281-1.389,4.096
		c-0.691-1.094-1.756-4.144-2.624-6.726h2.704c0.212-0.687,0.435-1.36,0.679-2H9.72C7.496,7.36,6.527,5,5,5C2.627,5,2,7.617,2,9
		l2,0.003c0-0.019,0.048-1.729,0.811-1.975c0.784,0.918,2.253,5.324,3.241,8.288C10.442,22.49,11.42,25,13,25
		c1.652,0,2.317-2.314,3.324-5.817C16.856,17.332,18.102,13,19,13c0.739,0,1.064,0.829,1.514,2.688C20.87,17.163,21.313,19,23,19
		c1.246,0,1.879-1.202,2.362-3H30v-2h-4.182C25.872,13.737,25.926,13.47,25.98,13.196z"/>
	<path d="M6.154,15.949c-0.17-0.511-0.4-1.199-0.655-1.949H2v2h4.171C6.165,15.982,6.16,15.966,6.154,15.949z"/>
</g>
<rect x="2" width="2" height="2"/>
<rect x="6" width="2" height="2"/>
<rect x="10" width="2" height="2"/>
<rect x="14" width="2" height="2"/>
<rect x="18" width="2" height="2"/>
<rect x="22" width="2" height="2"/>
<rect x="26" width="2" height="2"/>
<rect x="4" y="28" width="2" height="2"/>
<rect x="8" y="28" width="2" height="2"/>
<rect x="12" y="28" width="2" height="2"/>
<rect x="16" y="28" width="2" height="2"/>
<rect x="20" y="28" width="2" height="2"/>
<rect x="24" y="28" width="2" height="2"/>
<rect x="28" y="28" width="2" height="2"/>
</svg>
