<?xml version="1.0" encoding="utf-8"?>
<!-- Generator: Adobe Illustrator 21.1.0, SVG Export Plug-In . SVG Version: 6.00 Build 0)  -->
<svg version="1.1" id="Слой_1" xmlns="http://www.w3.org/2000/svg" xmlns:xlink="http://www.w3.org/1999/xlink" x="0px" y="0px"
	 viewBox="0 0 32 32" style="enable-background:new 0 0 32 32;" xml:space="preserve">
<path d="M16,26c-1.746,0-3.38-0.458-4.806-1.246L14,23l-8-5v10l3.295-2.06C11.21,27.236,13.514,28,16,28
	c2.188,0,4.234-0.595,6-1.619v-2.395C20.327,25.245,18.254,26,16,26z M8,21.608L10.226,23L8,24.391V21.608z"/>
<path d="M24,24l8-5l-4.021-2.513C27.987,16.325,28,16.164,28,16c0-4.273-2.24-8.014-5.602-10.14l-1.927,1.204
	c3.052,1.53,5.192,4.576,5.473,8.151L24,14V24z M26,20.391v-2.783L28.226,19L26,20.391z"/>
<path d="M20,5l-8-5v4.701C7.81,6.184,4.693,9.919,4.11,14.46l1.908,1.192C6.154,11.704,8.573,8.344,12,6.844V10L20,5z M14,3.608
	L16.226,5L14,6.391V3.608z"/>
</svg>
