<?xml version="1.0" encoding="utf-8"?>
<!-- Generator: Adobe Illustrator 21.1.0, SVG Export Plug-In . SVG Version: 6.00 Build 0)  -->
<svg version="1.1" id="Слой_1" xmlns="http://www.w3.org/2000/svg" xmlns:xlink="http://www.w3.org/1999/xlink" x="0px" y="0px"
	 viewBox="0 0 32 32" style="enable-background:new 0 0 32 32;" xml:space="preserve">
<path d="M23.2,13.5l4.8-3L16,3L4,10.5l4.8,3l-4.8,3l4.8,3l-4.8,3L16,30l12-7.5l-4.8-3l4.8-3L23.2,13.5z M16,5.4l8.2,5.1L16,15.6
	l-8.2-5.1L16,5.4z M10.7,14.7L16,18l5.3-3.3l2.9,1.8L16,21.6l-8.2-5.1L10.7,14.7z M24.2,22.5L16,27.6l-8.2-5.1l2.9-1.8L16,24
	l5.3-3.3L24.2,22.5z"/>
</svg>
