<?xml version="1.0" encoding="utf-8"?>
<!-- Generator: Adobe Illustrator 21.1.0, SVG Export Plug-In . SVG Version: 6.00 Build 0)  -->
<svg version="1.1" id="Слой_1" xmlns="http://www.w3.org/2000/svg" xmlns:xlink="http://www.w3.org/1999/xlink" x="0px" y="0px"
	 viewBox="0 0 32 32" style="enable-background:new 0 0 32 32;" xml:space="preserve">
<g>
	<path d="M26.383,11.358c-0.677-0.04-1.383,0.04-2.05,0.367c-0.862,0.422-1.53,1.212-2.014,2.312C22.545,14.02,22.77,14,23,14
		c0.52,0,1.026,0.054,1.523,0.139c0.206-0.284,0.435-0.493,0.689-0.618c0.577-0.283,1.397-0.224,2.554,0.166
		C27.903,14.116,28,14.551,28,15c0,0.178-0.037,0.326-0.061,0.484c0.627,0.414,1.195,0.907,1.7,1.46C29.871,16.394,30,15.753,30,15
		c0-3.907-3.669-6.892-7.347-8.905C22.868,4.852,23,3.503,23,2h-4c0,0.827-0.042,1.594-0.12,2.314
		c-1.947-0.793-3.421-1.223-3.606-1.276l-0.55,1.923C17.476,5.749,23.492,8.097,26.383,11.358z"/>
	<path d="M23,20c-0.815,0-1.552,0.329-2.093,0.857c0.323-0.062,0.646-0.122,0.969-0.18c2.02,0.025,2.757,1.141,3.777,2.957
		c0.057,0.102,0.119,0.209,0.179,0.314C25.933,23.648,26,23.333,26,23C26,21.346,24.654,20,23,20z"/>
	<path d="M14,23c0-3.391,1.896-6.33,4.673-7.865c1.113-1.531,2.178-3.232,2.973-5.31c-1.217-0.664-2.465-1.231-3.619-1.7
		c-0.936,2.603-2.448,4.536-4.1,6.639c-0.065,0.083-0.131,0.168-0.197,0.252c-0.401-1.225-1.062-2.374-1.743-3.547
		C10.587,9.056,9,6.321,9,2H7c0,1.61,0.21,3.014,0.528,4.282C6.111,5.638,4.164,5,2,5v2c3.085,0,5.751,1.599,6.48,2.077
		c0.557,1.277,1.193,2.39,1.777,3.396c1.011,1.743,1.809,3.126,1.854,4.686C9.936,20.208,8,23.971,8,30h4
		c0-1.711,0.178-3.172,0.483-4.47c0.422-0.78,0.951-1.416,1.554-1.95C14.024,23.387,14,23.196,14,23z"/>
</g>
<path d="M30.707,29.293l-2.106-2.106C29.476,26.018,30,24.572,30,23c0-3.866-3.134-7-7-7s-7,3.134-7,7s3.134,7,7,7
	c1.572,0,3.018-0.524,4.187-1.399l2.106,2.106L30.707,29.293z M23,28c-2.757,0-5-2.243-5-5s2.243-5,5-5s5,2.243,5,5S25.757,28,23,28
	z"/>
<path d="M23,20c-1.657,0-3,1.343-3,3c0,0.032,0.008,0.061,0.009,0.093c0.64-0.144,1.308-0.28,2.024-0.411
	c0.65,0.028,0.919,0.229,1.877,1.933c0.167,0.298,0.356,0.632,0.572,0.979C25.385,25.076,26,24.115,26,23C26,21.343,24.657,20,23,20
	z"/>
</svg>
