<?xml version="1.0" encoding="utf-8"?>
<!-- Generator: Adobe Illustrator 21.1.0, SVG Export Plug-In . SVG Version: 6.00 Build 0)  -->
<svg version="1.1" id="Слой_1" xmlns="http://www.w3.org/2000/svg" xmlns:xlink="http://www.w3.org/1999/xlink" x="0px" y="0px"
	 viewBox="0 0 32 32" style="enable-background:new 0 0 32 32;" xml:space="preserve">
<path d="M16,4c-4.418,0-8,3.582-8,8v8c0,4.418,3.582,8,8,8s8-3.582,8-8v-8C24,7.582,20.418,4,16,4z M22,20c0,3.308-2.692,6-6,6
	s-6-2.692-6-6v-6h6h6V20z M16,12V6c3.308,0,6,2.692,6,6H16z"/>
<g>
	<path d="M24,2v2h2.586l-2.343,2.343c0.393,0.571,0.727,1.184,0.996,1.832L28,5.414V8h2V2H24z"/>
	<path d="M7.757,25.657c-0.393-0.571-0.727-1.184-0.996-1.832L4,26.586V24H2v6h6v-2H5.414L7.757,25.657z"/>
	<path d="M28,26.586l-2.761-2.761c-0.269,0.648-0.603,1.261-0.996,1.832L26.586,28H24v2h6v-6h-2V26.586z"/>
	<path d="M8,2v2H5.414l2.343,2.343C7.364,6.914,7.03,7.527,6.761,8.175L4,5.414V8H2V2H8z"/>
</g>
</svg>
