<?xml version="1.0" encoding="utf-8"?>
<!-- Generator: Adobe Illustrator 21.1.0, SVG Export Plug-In . SVG Version: 6.00 Build 0)  -->
<svg version="1.1" id="Слой_1" xmlns="http://www.w3.org/2000/svg" xmlns:xlink="http://www.w3.org/1999/xlink" x="0px" y="0px"
	 viewBox="0 0 32 32" style="enable-background:new 0 0 32 32;" xml:space="preserve">
<polygon points="14,20 8,20 5,25 8,30 14,30 17,25 "/>
<polygon points="25,14 19,14 16,19 19,24 25,24 28,19 "/>
<g>
	<polygon points="14,8 8,8 5,13 8,18 14,18 17,13 	"/>
</g>
<path d="M23.868,4l1.8,3l-1.8,3h-3.735l-1.8-3l1.8-3H23.868 M25,2h-6l-3,5l3,5h6l3-5L25,2L25,2z"/>
</svg>
