<?xml version="1.0" encoding="utf-8"?>
<!-- Generator: Adobe Illustrator 21.1.0, SVG Export Plug-In . SVG Version: 6.00 Build 0)  -->
<svg version="1.1" id="Слой_1" xmlns="http://www.w3.org/2000/svg" xmlns:xlink="http://www.w3.org/1999/xlink" x="0px" y="0px"
	 viewBox="0 0 32 32" style="enable-background:new 0 0 32 32;" xml:space="preserve">
<path d="M16,2C9.373,2,4,3.791,4,6v18c0,2.209,5.373,4,12,4s12-1.791,12-4V6C28,3.791,22.627,2,16,2z M16,4
	c5.528,0,8.879,1.261,9.818,2C24.879,6.739,21.528,8,16,8S7.121,6.739,6.182,6C7.121,5.261,10.472,4,16,4z M26,23.831
	C25.412,24.525,21.979,26,16,26s-9.412-1.475-10-2.169V20.21C8.149,21.288,11.824,22,16,22s7.851-0.712,10-1.79V23.831z M26,17.831
	C25.412,18.525,21.979,20,16,20s-9.412-1.475-10-2.169V14.21C8.149,15.288,11.824,16,16,16s7.851-0.712,10-1.79V17.831z M26,11.831
	C25.412,12.525,21.979,14,16,14s-9.412-1.475-10-2.169V8.209C8.149,9.288,11.824,10,16,10s7.851-0.712,10-1.791V11.831z"/>
</svg>
