<?xml version="1.0" encoding="utf-8"?>
<!-- Generator: Adobe Illustrator 21.1.0, SVG Export Plug-In . SVG Version: 6.00 Build 0)  -->
<svg version="1.1" id="Слой_1" xmlns="http://www.w3.org/2000/svg" xmlns:xlink="http://www.w3.org/1999/xlink" x="0px" y="0px"
	 viewBox="0 0 32 32" style="enable-background:new 0 0 32 32;" xml:space="preserve">
<style type="text/css">
	.st0{display:none;}
</style>
<path class="st0" d="M31.6,7.6l-7.2-7.2c-1.4,1.5-4.1,4.1-6.3,6.3l-1.4-1.4c0,0-11.4,11.5-12.7,12.8c-2.7,2.7-2.7,7.2,0,9.9
	C5.4,29.3,7.2,30,9,30s3.6-0.7,4.9-2.1c1.2-1.2,12.8-12.7,12.8-12.7l-1.4-1.4C27.5,11.6,30.1,9,31.6,7.6z M21.1,6.6L22.6,8L24,6.6
	l-1.4-1.4c0.7-0.7,1.3-1.3,1.9-1.9l4.3,4.3c-0.6,0.6-1.2,1.2-1.9,1.9L25.4,8L24,9.4l1.4,1.4l-1.6,1.6l-4.3-4.3L21.1,6.6z M12.5,26.5
	C11.6,27.5,10.3,28,9,28s-2.6-0.5-3.5-1.5c-1.9-1.9-1.9-5.1,0-7.1c1.2-1.2,8-8.1,11.3-11.3l7.2,7.2C20.6,18.5,13.8,25.3,12.5,26.5z"
	/>
<path d="M31,7.6L24.4,1l-6,6L17,5.6L5.9,16.6c-2.6,2.6-2.6,6.8,0,9.4c1.3,1.3,3,1.9,4.7,1.9s3.4-0.6,4.7-1.9L26.4,15L25,13.6L31,7.6
	z M21.4,6.8L22.6,8L24,6.6l-1.2-1.2l1.6-1.6l3.8,3.8l-1.6,1.6L25.4,8L24,9.4l1.2,1.2l-1.6,1.6l-3.8-3.8L21.4,6.8z M17.3,21.3
	l-3.3,3.3c-1.8,1.8-4.8,1.8-6.6,0c-1.8-1.8-1.8-4.8,0-6.6L17,8.4l6.6,6.6L17.3,21.3L17.3,21.3z"/>
</svg>
