<?xml version="1.0" encoding="utf-8"?>
<!-- Generator: Adobe Illustrator 21.1.0, SVG Export Plug-In . SVG Version: 6.00 Build 0)  -->
<svg version="1.1" id="Слой_1" xmlns="http://www.w3.org/2000/svg" xmlns:xlink="http://www.w3.org/1999/xlink" x="0px" y="0px"
	 viewBox="0 0 32 32" style="enable-background:new 0 0 32 32;" xml:space="preserve">
<path d="M26,18h-4v12h2v-4h2c2.2,0,4-1.8,4-4S28.2,18,26,18z M26,24h-2v-4h2c1.1,0,2,0.9,2,2S27.1,24,26,24z"/>
<polygon points="14,18 10,25.1 6,18 4,18 4,30 6,30 6,28 6,22 9.4,28 10.6,28 14,22 14,28 14,30 16,30 16,18 "/>
<rect x="18" y="18" width="2" height="12"/>
<path d="M12.9,8c0,0,1.1-0.6,1.1-2c0-2.2-1.8-4-4-4S6,3.8,6,6h2c0-1.1,0.9-2,2-2s2,0.9,2,2s-0.9,1-2,1v2c1.1,0,2-0.1,2,1s-0.9,2-2,2
	s-2-0.9-2-2H6c0,2.2,1.8,4,4,4s4-1.8,4-4C14,8.8,12.9,8,12.9,8z"/>
<path d="M20,2h-4v12h4c3.3,0,6-2.7,6-6S23.3,2,20,2z M20,12h-2V4h2c2.2,0,4,1.8,4,4S22.2,12,20,12z"/>
</svg>
