<?xml version="1.0" encoding="utf-8"?>
<!-- Generator: Adobe Illustrator 21.1.0, SVG Export Plug-In . SVG Version: 6.00 Build 0)  -->
<svg version="1.1" id="Слой_1" xmlns="http://www.w3.org/2000/svg" xmlns:xlink="http://www.w3.org/1999/xlink" x="0px" y="0px"
	 viewBox="0 0 32 32" style="enable-background:new 0 0 32 32;" xml:space="preserve">
<path d="M18,10h-4v12h2v-4h2c2.209,0,4-1.791,4-4C22,11.791,20.209,10,18,10z M18,16h-2v-4h2c1.105,0,2,0.895,2,2
	C20,15.105,19.105,16,18,16z"/>
<path d="M32,14c0-2.209-1.791-4-4-4h-4v12h2v-4h1.381l2.309,4H32l-2.484-4.302C30.973,17.1,32,15.672,32,14z M26,12h2
	c1.105,0,2,0.895,2,2c0,1.105-0.895,2-2,2h-2V12z"/>
<polygon points="10,10 6,17.081 2,10 0,10 0,22 2,22 2,20 2,14 5.365,20 6.635,20 10,14 10,20 10,22 12,22 12,10 "/>
</svg>
