<?xml version="1.0" encoding="utf-8"?>
<!-- Generator: Adobe Illustrator 21.1.0, SVG Export Plug-In . SVG Version: 6.00 Build 0)  -->
<svg version="1.1" id="Слой_1" xmlns="http://www.w3.org/2000/svg" xmlns:xlink="http://www.w3.org/1999/xlink" x="0px" y="0px"
	 viewBox="0 0 32 32" style="enable-background:new 0 0 32 32;" xml:space="preserve">
<style type="text/css">
	.st0{display:none;}
	.st1{display:inline;}
</style>
<g>
	<polygon points="28,14 18,14 18,4 14,4 14,14 4,14 4,18 14,18 14,28 18,28 18,18 28,18 	"/>
	<polygon points="11,7 12.4,8.4 16,4.8 19.6,8.4 21,7 16,2 	"/>
	<polygon points="25,11 23.6,12.4 27.2,16 23.6,19.6 25,21 30,16 	"/>
	<polygon points="7,11 2,16 7,21 8.4,19.6 4.8,16 8.4,12.4 	"/>
	<polygon points="16,27.2 12.4,23.6 11,25 16,30 21,25 19.6,23.6 	"/>
</g>
<g class="st0">
	<polygon class="st1" points="22,16 17,16 17,11 16,11 16,16 11,16 11,17 16,17 16,22 17,22 17,17 22,17 	"/>
	<polygon class="st1" points="20.8,18.7 23,16.5 20.8,14.3 20.1,15 21.6,16.5 20.1,18 	"/>
	<polygon class="st1" points="15,12.9 16.5,11.4 18,12.9 18.7,12.2 16.5,10 14.3,12.2 	"/>
	<polygon class="st1" points="12.9,18 11.4,16.5 12.9,15 12.2,14.3 10,16.5 12.2,18.7 	"/>
	<polygon class="st1" points="18,20.1 16.5,21.6 15,20.1 14.3,20.8 16.5,23 18.7,20.8 	"/>
</g>
</svg>
