<?xml version="1.0" encoding="utf-8"?>
<!-- Generator: Adobe Illustrator 21.1.0, SVG Export Plug-In . SVG Version: 6.00 Build 0)  -->
<svg version="1.1" id="Слой_1" xmlns="http://www.w3.org/2000/svg" xmlns:xlink="http://www.w3.org/1999/xlink" x="0px" y="0px"
	 viewBox="0 0 32 32" style="enable-background:new 0 0 32 32;" xml:space="preserve">
<path d="M30,15h-2.1C27.5,9.2,22.8,4.5,17,4.1V2h-2v2.1C9.2,4.5,4.5,9.2,4.1,15H2v2h2.1C4.5,22.8,9.2,27.5,15,27.9V30h2v-2.1
	c5.8-0.5,10.5-5.1,10.9-10.9H30V15z M25.9,15H17V6.1C21.7,6.5,25.5,10.3,25.9,15z M15,6.1V15H6.1C6.5,10.3,10.3,6.5,15,6.1z M6.1,17
	H15v8.9C10.3,25.5,6.5,21.7,6.1,17z M17,25.9V17h8.9C25.5,21.7,21.7,25.5,17,25.9z"/>
</svg>
