<?xml version="1.0" encoding="utf-8"?>
<!-- Generator: Adobe Illustrator 21.1.0, SVG Export Plug-In . SVG Version: 6.00 Build 0)  -->
<svg version="1.1" id="Слой_1" xmlns="http://www.w3.org/2000/svg" xmlns:xlink="http://www.w3.org/1999/xlink" x="0px" y="0px"
	 viewBox="0 0 32 32" style="enable-background:new 0 0 32 32;" xml:space="preserve">
<polygon points="26.942,30.529 25.343,27.329 30,25 18,16 18,31 22.657,28.67 24.258,31.871 "/>
<g>
	<rect x="14" y="0" width="2" height="26"/>
	<rect x="18" y="12" width="2" height="2"/>
	<rect x="22" y="12" width="2" height="2"/>
	<rect x="26" y="12" width="2" height="2"/>
	<rect x="2" y="12" width="2" height="2"/>
	<rect x="6" y="12" width="2" height="2"/>
	<rect x="22" y="4" width="2" height="2"/>
	<rect x="10" y="16" width="2" height="2"/>
	<rect x="6" y="20" width="2" height="2"/>
	<rect x="10" y="12" width="2" height="2"/>
	<rect x="18" y="8" width="2" height="2"/>
</g>
</svg>
