<?xml version="1.0" encoding="utf-8"?>
<!-- Generator: Adobe Illustrator 21.1.0, SVG Export Plug-In . SVG Version: 6.00 Build 0)  -->
<svg version="1.1" id="Слой_1" xmlns="http://www.w3.org/2000/svg" xmlns:xlink="http://www.w3.org/1999/xlink" x="0px" y="0px"
	 viewBox="0 0 32 32" style="enable-background:new 0 0 32 32;" xml:space="preserve">
<path d="M24,22v10h8V22H24z M30,30h-4v-6h4V30z"/>
<path d="M14,22v10h8V22H14z M20,30h-4v-6h4V30z"/>
<g>
	<path d="M11.779,25.878L12,25.657v-2.829l-1.636,1.636c-0.568,0.568-0.741,1.419-0.44,2.164C9.974,26.752,10,26.877,10,27
		c0,0.551-0.449,1-1,1s-1-0.449-1-1c0-1.57-1.43-3-3-3c-0.551,0-1-0.449-1-1s0.449-1,1-1c0.123,0,0.248,0.026,0.372,0.076
		c0.243,0.098,0.497,0.146,0.749,0.146c0.521,0,1.032-0.203,1.415-0.586l4.929-4.929l-1.414-1.414l-4.929,4.929
		C5.775,20.081,5.397,20,5,20c-1.657,0-3,1.343-3,3s1.343,3,3,3c0.475,0,1,0.525,1,1c0,1.657,1.343,3,3,3s3-1.343,3-3
		C12,26.603,11.919,26.225,11.779,25.878z"/>
	<path d="M21.414,20l-1.879-1.879l6.343-6.343C26.225,11.919,26.603,12,27,12c1.657,0,3-1.343,3-3s-1.343-3-3-3
		c-0.475,0-1-0.525-1-1c0-1.657-1.343-3-3-3s-3,1.343-3,3c0,0.397,0.081,0.775,0.221,1.122l-6.342,6.343L4.707,3.293L3.293,4.707
		L18.586,20H21.414z M21.636,7.536c0.568-0.568,0.741-1.419,0.44-2.164C22.026,5.248,22,5.123,22,5c0-0.551,0.449-1,1-1s1,0.449,1,1
		c0,1.57,1.43,3,3,3c0.551,0,1,0.449,1,1s-0.449,1-1,1c-0.123,0-0.248-0.026-0.372-0.076c-0.243-0.098-0.497-0.146-0.749-0.146
		c-0.521,0-1.032,0.203-1.415,0.586l-6.343,6.343l-2.828-2.828L21.636,7.536z"/>
</g>
</svg>
