<?xml version="1.0" encoding="utf-8"?>
<!-- Generator: Adobe Illustrator 21.1.0, SVG Export Plug-In . SVG Version: 6.00 Build 0)  -->
<svg version="1.1" id="Слой_1" xmlns="http://www.w3.org/2000/svg" xmlns:xlink="http://www.w3.org/1999/xlink" x="0px" y="0px"
	 viewBox="0 0 32 32" style="enable-background:new 0 0 32 32;" xml:space="preserve">
<path d="M16,4c6.6,0,10,7,10,14c0,6.1-3.9,10-10,10S6,24.1,6,18C6,11,9.4,4,16,4 M16,2C8,2,4,10.3,4,18s5.4,12,12,12s12-4.3,12-12
	S24,2,16,2L16,2z"/>
<path d="M24,16c0-0.8-0.3-1.5-0.8-2.1c-0.6,0.6-1.1,1.3-1.5,2c-1-0.1-1.7-1-1.7-2c0-0.4,0.1-0.7,0.3-1c0.4-0.2,0.7-0.4,1.2-0.6
	c0.5-0.2,1-0.5,1.5-0.8c-0.1-0.7-0.3-1.4-0.7-1.9c-0.5,0.3-1,0.6-1.7,0.9c-0.8,0.4-1.8,0.9-2.6,1.5V12c0-1.8,0.8-2.5,1.7-3.3
	c0.2-0.1,0.3-0.3,0.5-0.5c-0.1,0-0.1-0.1-0.2-0.1V8c0-0.7-0.3-1.3-0.8-1.6c-0.2,0.2-0.4,0.5-0.8,0.8C17.4,8.1,16,9.3,16,12
	c0-2.7-1.4-3.9-2.4-4.8c-0.3-0.3-0.6-0.6-0.8-0.8C12.3,6.7,12,7.3,12,8v0.1c-0.1,0-0.2,0.1-0.2,0.1c0.2,0.2,0.3,0.3,0.5,0.5
	C13.2,9.5,14,10.2,14,12v0.1c-0.8-0.6-1.7-1.1-2.6-1.5c-0.7-0.3-1.2-0.6-1.7-0.9c-0.4,0.5-0.6,1.2-0.7,1.9c0.5,0.3,1,0.6,1.5,0.8
	c0.4,0.2,0.8,0.4,1.2,0.6c0.2,0.3,0.3,0.6,0.3,1c0,1-0.7,1.8-1.7,2c-0.4-0.8-0.9-1.4-1.5-2C8.3,14.5,8,15.2,8,16c0,0,0,0,0,0
	c0.6,0.8,1,1.9,1,3c0,0.9-0.3,1.8-0.7,2.5c0.3,0.8,0.9,1.5,1.7,2c0,0.1,0.1,0.3,0.1,0.4c1.4-0.8,2.8-1.9,3.8-3.1
	c-0.2,1.2-0.9,1.8-1.7,2.5c-0.5,0.5-1.1,1-1.5,1.7c0.5,0.5,1.1,0.8,1.8,0.9c0.2-0.4,0.5-0.7,1-1.1c1-0.9,2.4-2.2,2.4-4.8
	c0,2.7,1.4,3.9,2.4,4.8c0.5,0.5,0.8,0.8,1,1.1c0.7-0.1,1.3-0.4,1.8-0.9c-0.3-0.7-0.9-1.2-1.4-1.7c-0.8-0.7-1.4-1.3-1.7-2.5
	c1.1,1.2,2.4,2.2,3.8,3.1c0-0.1,0.1-0.2,0.1-0.4c0.8-0.4,1.4-1.1,1.7-2C23.3,20.8,23,19.9,23,19C23,17.9,23.4,16.9,24,16
	C24,16,24,16,24,16z M10.7,21.1c0.2-0.7,0.3-1.4,0.3-2.1c0-0.4,0-0.7-0.1-1.1c1.4-0.3,2.5-1.4,2.9-2.8c0.1,0.3,0.2,0.6,0.2,0.9
	C14,17.9,12.5,19.7,10.7,21.1z M18,16c0-0.4,0.1-0.7,0.2-0.9c0.4,1.4,1.5,2.5,2.9,2.8C21,18.3,21,18.6,21,19c0,0.7,0.1,1.4,0.3,2.1
	C19.5,19.7,18,17.9,18,16z"/>
</svg>
