<?xml version="1.0" encoding="utf-8"?>
<!-- Generator: Adobe Illustrator 21.1.0, SVG Export Plug-In . SVG Version: 6.00 Build 0)  -->
<svg version="1.1" id="Слой_1" xmlns="http://www.w3.org/2000/svg" xmlns:xlink="http://www.w3.org/1999/xlink" x="0px" y="0px"
	 viewBox="0 0 32 32" style="enable-background:new 0 0 32 32;" xml:space="preserve">
<style type="text/css">
	.st0{display:none;}
	.st1{display:none;opacity:0.5;}
</style>
<path class="st0" d="M21,12c-4.971,0-9,4.029-9,9s4.029,9,9,9s9-4.029,9-9S25.971,12,21,12z M28,21c0,1.194-2.792,3-7,3
	c-0.995,0-1.908-0.103-2.727-0.273C18.103,22.908,18,21.995,18,21c0-4.208,1.806-7,3-7C24.86,14,28,17.14,28,21z M17.222,15.116
	C16.463,16.695,16,18.748,16,21c0,0.704,0.049,1.386,0.134,2.044C14.783,22.428,14,21.63,14,21
	C14,18.532,15.287,16.363,17.222,15.116z M15.116,24.778c0.466,0.224,0.971,0.424,1.514,0.592c0.168,0.543,0.367,1.048,0.592,1.514
	C16.378,26.34,15.66,25.622,15.116,24.778z M21,28c-0.63,0-1.428-0.783-2.044-2.134C19.614,25.951,20.296,26,21,26
	c2.252,0,4.305-0.463,5.884-1.222C25.637,26.713,23.468,28,21,28z"/>
<path class="st0" d="M10.468,17.834c-0.51-0.295-1.059-0.976-1.511-1.968C9.614,15.951,10.296,16,11,16
	c0.074,0,0.142-0.01,0.216-0.011c0.383-0.747,0.845-1.445,1.382-2.081C12.092,13.966,11.56,14,11,14
	c-0.995,0-1.908-0.103-2.727-0.273C8.103,12.908,8,11.995,8,11c0-4.208,1.806-7,3-7c3.668,0,6.681,2.838,6.971,6.432
	c0.638-0.183,1.298-0.315,1.978-0.379C19.476,5.528,15.651,2,11,2c-4.971,0-9,4.029-9,9c0,4.651,3.528,8.476,8.053,8.949
	C10.122,19.221,10.263,18.514,10.468,17.834z M5.116,14.778c0.466,0.224,0.971,0.424,1.514,0.592
	c0.168,0.543,0.367,1.048,0.592,1.514C6.378,16.34,5.66,15.622,5.116,14.778z M6,11c0,0.704,0.049,1.386,0.134,2.044
	C4.783,12.428,4,11.63,4,11c0-2.468,1.287-4.637,3.222-5.884C6.463,6.695,6,8.748,6,11z"/>
<path class="st1" d="M21,12l-9,5v9l9,6l9-5.143V16.571L21,12z M28.028,16.925l-1.756,1.317l-3.031-4.052L28.028,16.925z
	 M25.34,19.143H21h-4.34L21,13.34L25.34,19.143z M23.74,20.429L21,24.539l-2.74-4.111H21H23.74z M18.758,14.19l-3.031,4.052
	l-1.756-1.317L18.758,14.19z M13.286,18.018l1.813,1.36l-1.813,4.621V18.018z M16.293,19.796l3.85,5.775h-6.099L16.293,19.796z
	 M21,30.519l-6.409-3.662H21h6.409L21,30.519z M21.857,25.571l3.85-5.775l2.249,5.775H21.857z M28.714,23.999l-1.813-4.621
	l1.813-1.36V23.999z"/>
<path d="M21,12l-9,5v10l9,5l9-5V17L21,12z M27.247,17.758l-1.193,0.596l-1.491-2.088L27.247,17.758z M17,20h8l-4,6L17,20z M21,14.72
	L23.343,18h-4.686L21,14.72z M17.438,16.267l-1.491,2.088l-1.193-0.596L17.438,16.267z M14,19.618l0.946,0.473L14,23.877V19.618z
	 M21,29.596V28h3.394L21,29.596z M26.394,26h-2.991l2.23-3.344l0.825,3.302L26.394,26z M28,23.877l-0.946-3.785L28,19.618V23.877z"
	/>
<path d="M10,15.823l3.476-1.931l2.158-3.237l0.447,1.789l1.81-1.006l-0.837-3.348L18,7.618v3.76l2-1.111V5l-9-5L2,5v10l8,4.444
	V15.823z M11,14L7,8h8L11,14z M17.247,5.758l-1.193,0.596l-1.491-2.088L17.247,5.758z M11,2.72L13.343,6H8.657L11,2.72z M4,11.877
	V7.618l0.946,0.473L4,11.877z M4.753,5.758l2.684-1.491L5.946,6.355L4.753,5.758z"/>
</svg>
