<?xml version="1.0" encoding="utf-8"?>
<!-- Generator: Adobe Illustrator 21.1.0, SVG Export Plug-In . SVG Version: 6.00 Build 0)  -->
<svg version="1.1" id="Слой_1" xmlns="http://www.w3.org/2000/svg" xmlns:xlink="http://www.w3.org/1999/xlink" x="0px" y="0px"
	 viewBox="0 0 32 32" style="enable-background:new 0 0 32 32;" xml:space="preserve">
<path d="M24,13c0-2.198-1.428-4.044-3.4-4.714C19.957,6.938,18.593,6,17,6c-0.531,0-1.036,0.109-1.5,0.297
	C15.036,6.109,14.531,6,14,6c-1.623,0-3.013,0.971-3.64,2.36C8.971,8.987,8,10.377,8,12c0,2.209,1.791,4,4,4
	c0.944,0,1.799-0.34,2.483-0.887c0.663,1.413,1.955,2.471,3.527,2.787C18.008,17.934,18,17.966,18,18c0,1.105,0.895,2,2,2
	s2-0.895,2-2c0-0.308-0.076-0.597-0.2-0.858C23.127,16.243,24,14.724,24,13z"/>
<path d="M6,23c0,0,0,5,2,5s2,0,4,0c1.227,0,2.075,1.127,2.55,2h2.211c-0.438-1.09-1.876-4-4.76-4H8.458
	C8.212,25.414,8.003,24.104,8,23l-0.002-1.439l-1.363-0.458c-0.448-0.15-0.955-0.369-1.341-0.569
	c0.007-0.014,0.014-0.027,0.02-0.041c0.308-0.625,0.73-1.481,1.071-2.553l0.184-0.578l-0.169-0.583C6.135,15.859,6,14.924,6,14
	C6,8.486,10.486,4,16,4s10,4.486,10,10c0,1.837-0.514,3.643-1.487,5.224l-0.192,0.312l-0.069,0.36
	c-0.41,2.138-0.874,4.562-0.149,6.737c0.37,1.111,1.135,2.278,2.015,3.368h2.652c-1.185-1.257-2.343-2.719-2.77-4
	c-0.539-1.618-0.205-3.529,0.216-5.728C27.34,18.445,28,16.302,28,14c0-6.627-5.373-12-12-12S4,7.373,4,14
	c0,1.158,0.173,2.275,0.479,3.335C3.887,19.197,3,20.331,3,21C3,22,6,23,6,23z"/>
</svg>
