<?xml version="1.0" encoding="utf-8"?>
<!-- Generator: Adobe Illustrator 21.1.0, SVG Export Plug-In . SVG Version: 6.00 Build 0)  -->
<svg version="1.1" id="Слой_1" xmlns="http://www.w3.org/2000/svg" xmlns:xlink="http://www.w3.org/1999/xlink" x="0px" y="0px"
	 viewBox="0 0 32 32" style="enable-background:new 0 0 32 32;" xml:space="preserve">
<style type="text/css">
	.st0{fill:#1D1D1B;}
</style>
<path class="st0" d="M16,0L4,9v2.5V21v0.462V23l12,9l12-9v-1.538V21v-9.5V9L16,0z M16,18l-2.333-1.75L16,14.5l2.333,1.75L16,18z
	 M14,4v9.5L12,15l-6.333-4.75L14,4z M6,22l4.333-3.25L8.667,17.5L6,19.5V13l8.8,6.6l1.2,0.9v9L6,22z M26,22l-8,6v-9l8-6v6.5
	l-2.667-2l-1.667,1.25L26,22z M20,15l-4-3V2.5l10.333,7.75L20,15z"/>
</svg>
