<?xml version="1.0" encoding="utf-8"?>
<!-- Generator: Adobe Illustrator 21.1.0, SVG Export Plug-In . SVG Version: 6.00 Build 0)  -->
<svg version="1.1" id="Слой_1" xmlns="http://www.w3.org/2000/svg" xmlns:xlink="http://www.w3.org/1999/xlink" x="0px" y="0px"
	 viewBox="0 0 32 32" style="enable-background:new 0 0 32 32;" xml:space="preserve">
<circle cx="23" cy="23" r="3"/>
<path d="M29.364,16.636L27.95,18.05C29.216,19.317,30,21.067,30,23c0,3.866-3.134,7-7,7s-7-3.134-7-7c0-1.903,0.767-3.621,2-4.883
	V20h2v-6h-6v2h3.366C15.319,17.649,14,20.166,14,23c0,4.971,4.029,9,9,9s9-4.029,9-9C32,20.515,30.993,18.265,29.364,16.636z"/>
<polygon points="6,4 6,28 12,28 12,26 8,26 8,6 24,6 24,16 26,16 26,4 "/>
</svg>
