<?xml version="1.0" encoding="utf-8"?>
<!-- Generator: Adobe Illustrator 21.1.0, SVG Export Plug-In . SVG Version: 6.00 Build 0)  -->
<svg version="1.1" id="Слой_1" xmlns="http://www.w3.org/2000/svg" xmlns:xlink="http://www.w3.org/1999/xlink" x="0px" y="0px"
	 viewBox="0 0 32 32" style="enable-background:new 0 0 32 32;" xml:space="preserve">
<g>
	<path d="M13.613,23.638l0.597-1.91c-1.872-0.586-3.351-2.066-3.937-3.937l-1.91,0.597C9.142,20.885,11.115,22.858,13.613,23.638z"
		/>
	<path d="M18.387,8.362l-0.597,1.91c1.872,0.586,3.351,2.066,3.937,3.937l1.91-0.597C22.858,11.115,20.885,9.142,18.387,8.362z"/>
</g>
<g>
	<path d="M16,14c1.103,0,2,0.897,2,2s-0.897,2-2,2s-2-0.897-2-2S14.897,14,16,14 M16,12c-2.209,0-4,1.791-4,4s1.791,4,4,4
		s4-1.791,4-4S18.209,12,16,12L16,12z"/>
</g>
<path d="M29,13c0-3.745-1.224-7.194-3.277-9.999C25.895,3.296,26,3.634,26,4c0,1.105-0.895,2-2,2c-0.952,0-1.89-3.768-4.574-5.4
	C19.78,0.961,20,1.454,20,2c0,1.105-0.895,2-2,2h-1.6H14c-1.105,0-2-0.895-2-2s0.895-2,2-2C8.477,0,4,7.163,4,16
	c0,6.627,5.373,12,12,12c4.439,0,8.305-2.417,10.381-6h0.022C28.039,19.388,29,16.309,29,13z M16,26c-5.514,0-10-4.486-10-10
	S10.486,6,16,6s10,4.486,10,10S21.514,26,16,26z"/>
</svg>
