<?xml version="1.0" encoding="utf-8"?>
<!-- Generator: Adobe Illustrator 21.1.0, SVG Export Plug-In . SVG Version: 6.00 Build 0)  -->
<svg version="1.1" id="Слой_1" xmlns="http://www.w3.org/2000/svg" xmlns:xlink="http://www.w3.org/1999/xlink" x="0px" y="0px"
	 viewBox="0 0 32 32" style="enable-background:new 0 0 32 32;" xml:space="preserve">
<polygon points="18,4 16,4 16,2 14,2 14,4 12,4 12,6 14,6 14,8 16,8 16,6 18,6 "/>
<rect x="14" y="22" transform="matrix(-1.836970e-16 1 -1 -1.836970e-16 40 10)" width="2" height="6"/>
<g>
	<path d="M9.346,24.423l1.028-1.713C7.757,21.136,6,18.277,6,15s1.757-6.136,4.374-7.71L9.346,5.577C6.148,7.502,4,10.996,4,15
		C4,19.005,6.148,22.499,9.346,24.423z"/>
	<path d="M23.451,22.038C25.041,20.13,26,17.679,26,15c0-4.004-2.147-7.499-5.346-9.423L19.626,7.29
		C22.243,8.864,24,11.723,24,14.999c0,3.277-1.757,6.136-4.374,7.711l1.03,1.717c0.485-0.292,0.949-0.615,1.381-0.976
		C25.732,27.147,26.6,28,26.6,28l1.4-1.4C28,26.6,27.147,25.732,23.451,22.038z"/>
</g>
</svg>
