<?xml version="1.0" encoding="utf-8"?>
<!-- Generator: Adobe Illustrator 21.1.0, SVG Export Plug-In . SVG Version: 6.00 Build 0)  -->
<svg version="1.1" id="Слой_1" xmlns="http://www.w3.org/2000/svg" xmlns:xlink="http://www.w3.org/1999/xlink" x="0px" y="0px"
	 viewBox="0 0 32 32" style="enable-background:new 0 0 32 32;" xml:space="preserve">
<style type="text/css">
	.st0{fill-rule:evenodd;clip-rule:evenodd;}
</style>
<path id="icon" class="st0" d="M20.982,20.816C18.444,23.399,19.909,30,16.001,30C8.268,30,2,23.733,2,16.001
	C2,8.268,8.268,2,16.001,2C23.733,2,30,8.268,30,16.001C30,19.825,23.468,18.29,20.982,20.816L20.982,20.816z M4.001,18
	c0,1.656,1.342,3,2.999,3c1.658,0,3-1.344,3-3c0-1.656-1.342-3-3-3C5.344,15,4.001,16.344,4.001,18L4.001,18z M9.001,7.001
	c-1.658,0-3,1.342-3,2.999c0,1.658,1.342,3,3,3C10.658,13,12,11.658,12,10C12,8.344,10.658,7.001,9.001,7.001L9.001,7.001z
	 M10,24.001c0,1.656,1.344,3,3,3c1.656,0,3-1.344,3-3c0-1.656-1.344-3-3-3C11.344,21.001,10,22.345,10,24.001L10,24.001z M18,4.001
	c-1.656,0-3,1.342-3,3C15,8.658,16.344,10,18,10c1.656,0,3-1.342,3-2.999C21.001,5.344,19.657,4.001,18,4.001L18,4.001z M25,10
	c-1.656,0-2.999,1.344-2.999,3c0,1.656,1.342,3,2.999,3c1.658,0,3-1.344,3-3C28,11.344,26.658,10,25,10L25,10z"/>
</svg>
