<?xml version="1.0" encoding="utf-8"?>
<!-- Generator: Adobe Illustrator 21.1.0, SVG Export Plug-In . SVG Version: 6.00 Build 0)  -->
<svg version="1.1" id="Слой_1" xmlns="http://www.w3.org/2000/svg" xmlns:xlink="http://www.w3.org/1999/xlink" x="0px" y="0px"
	 viewBox="0 0 32 32" style="enable-background:new 0 0 32 32;" xml:space="preserve">
<path d="M22,4l-6,24h8l6-24H22z M22.4,26h-3.9l1-4h1.9l0.5-2h-1.9l0.5-2h2.9l0.5-2h-2.9l0.5-2h1.9l0.5-2h-1.9l0.5-2h2.9L26,8h-2.9
	l0.5-2h3.9L22.4,26z"/>
<path d="M16,19.8v-8.3l2.8-2.8L19.9,4H10l-6,6v18h9.9L16,19.8z M12,6h6.6l-4,4H12V6z M12,12h2v8h-2V12z M11.4,22H14v4H7.4L11.4,22z
	 M10,6.8V10H6.8L10,6.8z M6,12h4v8.6l-4,4V12z"/>
</svg>
