<?xml version="1.0" encoding="utf-8"?>
<!-- Generator: Adobe Illustrator 21.1.0, SVG Export Plug-In . SVG Version: 6.00 Build 0)  -->
<svg version="1.1" id="Слой_1" xmlns="http://www.w3.org/2000/svg" xmlns:xlink="http://www.w3.org/1999/xlink" x="0px" y="0px"
	 viewBox="0 0 32 32" style="enable-background:new 0 0 32 32;" xml:space="preserve">
<polygon points="25.2,14 18,14 18,6.8 18,4 16,2 11,7 12.4,8.4 14,6.8 14,14 6.8,14 8.4,12.4 7,11 2,16 7,21 8.4,19.6 6.8,18 14,18 
	14,25.2 12.4,23.6 11,25 16,30 21,25 19.6,23.6 18,25.2 18,18 25.2,18 23.6,19.6 25,21 30,16 28,14 "/>
<path d="M22.8,10h4.4l0.8,2h2L26,2h-2l-4,10h2L22.8,10z M25,4.5L26.4,8h-2.8L25,4.5z"/>
</svg>
