<?xml version="1.0" encoding="utf-8"?>
<!-- Generator: Adobe Illustrator 21.1.0, SVG Export Plug-In . SVG Version: 6.00 Build 0)  -->
<svg version="1.1" id="Слой_1" xmlns="http://www.w3.org/2000/svg" xmlns:xlink="http://www.w3.org/1999/xlink" x="0px" y="0px"
	 viewBox="0 0 32 32" style="enable-background:new 0 0 32 32;" xml:space="preserve">
<path id="icon" d="M27.2,10c0,0.4-0.1,0.9-0.2,1.3l1,0.7l-1.2,2l-1.1-0.4c-0.6,0.6-1.4,1-2.3,1.3L23.2,16h-2.4l-0.2-1.2
	c-0.9-0.2-1.7-0.7-2.3-1.3L17.2,14L16,12l1-0.7c-0.1-0.4-0.2-0.8-0.2-1.3c0-0.4,0.1-0.9,0.2-1.3L16,8l1.2-2l1.1,0.4
	c0.6-0.6,1.4-1,2.3-1.3L20.8,4h2.4l0.2,1.2c0.9,0.2,1.7,0.7,2.3,1.3L26.8,6L28,8l-1,0.7C27.1,9.1,27.2,9.6,27.2,10L27.2,10z M22,7
	c-1.7,0-3.1,1.3-3.1,3c0,1.7,1.4,3,3.1,3c1.7,0,3.1-1.3,3.1-3C25.1,8.3,23.7,7,22,7L22,7z M22,19c2.3,0,4.4-0.9,6-2.3
	C27.6,23,22.4,28,16,28C9.4,28,4,22.6,4,16C4,9.6,9,4.4,15.3,4c-0.6,0.7-1.1,1.4-1.4,2.3C9.4,7.3,6,11.2,6,16c0,5.5,4.5,10,10,10
	c0-5.5,0-7.6,0-9.3C17.6,18.1,19.7,19,22,19L22,19z"/>
</svg>
