<?xml version="1.0" encoding="utf-8"?>
<!-- Generator: Adobe Illustrator 21.1.0, SVG Export Plug-In . SVG Version: 6.00 Build 0)  -->
<svg version="1.1" id="Слой_1" xmlns="http://www.w3.org/2000/svg" xmlns:xlink="http://www.w3.org/1999/xlink" x="0px" y="0px"
	 viewBox="0 0 32 32" style="enable-background:new 0 0 32 32;" xml:space="preserve">
<g>
	<path d="M26.383,11.358c-0.677-0.04-1.383,0.039-2.051,0.367c-1.026,0.502-1.794,1.498-2.281,2.958l1.897,0.633
		c0.311-0.933,0.736-1.537,1.263-1.795c0.577-0.283,1.397-0.224,2.554,0.166C27.903,14.116,28,14.551,28,15
		c0,1.688-1.115,2.448-3.124,3h4.074c0.648-0.737,1.05-1.693,1.05-3c0-3.907-3.669-6.892-7.347-8.905C22.868,4.852,23,3.503,23,2h-4
		c0,0.827-0.042,1.594-0.119,2.315c-1.947-0.793-3.421-1.223-3.606-1.276l-0.55,1.923C17.476,5.749,23.492,8.097,26.383,11.358z"/>
	<path d="M22,20.687V18.62c-0.074,0.013-0.138,0.026-0.213,0.04c-2.368,0.429-5.066,0.92-7.347,2.202
		c0.777-1.259,1.68-2.415,2.633-3.627c1.638-2.084,3.4-4.339,4.574-7.41c-1.217-0.664-2.464-1.232-3.619-1.7
		c-0.936,2.603-2.448,4.536-4.1,6.639c-0.065,0.083-0.132,0.168-0.197,0.252c-0.401-1.226-1.062-2.374-1.743-3.547
		C10.587,9.056,9,6.321,9,2H7c0,1.61,0.21,3.014,0.528,4.282C6.111,5.638,4.164,5,2,5v2c3.085,0,5.751,1.599,6.48,2.077
		c0.558,1.277,1.194,2.39,1.777,3.396c1.012,1.743,1.81,3.126,1.854,4.686C9.936,20.208,8,23.971,8,30h4
		c0-1.711,0.178-3.172,0.484-4.47c1.844-3.411,5.651-4.175,9.393-4.853C21.921,20.677,21.957,20.685,22,20.687z"/>
</g>
<polygon points="30,24 26,24 26,20 24,20 24,24 20,24 20,26 24,26 24,30 26,30 26,26 30,26 "/>
</svg>
