<?xml version="1.0" encoding="utf-8"?>
<!-- Generator: Adobe Illustrator 21.1.0, SVG Export Plug-In . SVG Version: 6.00 Build 0)  -->
<svg version="1.1" id="Слой_1" xmlns="http://www.w3.org/2000/svg" xmlns:xlink="http://www.w3.org/1999/xlink" x="0px" y="0px"
	 viewBox="0 0 32 32" style="enable-background:new 0 0 32 32;" xml:space="preserve">
<path d="M28.99,20.803C28.885,17.581,26.247,15,23,15s-5.885,2.581-5.99,5.803C15.213,21.84,14,23.776,14,26c0,3.314,2.686,6,6,6
	c1.094,0,2.117-0.298,3-0.809C23.883,31.702,24.906,32,26,32c3.314,0,6-2.686,6-6C32,23.776,30.787,21.84,28.99,20.803z
	 M25.643,23.979c-0.227-0.634-0.554-1.22-0.969-1.735C25.092,22.096,25.533,22,26,22c0.285,0,0.562,0.032,0.83,0.089
	C26.619,22.831,26.205,23.48,25.643,23.979z M23,28.618c-0.418-0.479-0.727-1.051-0.88-1.689C22.408,26.971,22.7,27,23,27
	s0.592-0.029,0.88-0.072C23.727,27.566,23.418,28.139,23,28.618z M19.17,22.089C19.438,22.032,19.715,22,20,22
	c0.467,0,0.908,0.096,1.325,0.243c-0.414,0.515-0.742,1.101-0.969,1.735C19.795,23.48,19.381,22.831,19.17,22.089z M23,17
	c1.885,0,3.459,1.314,3.88,3.072C26.592,20.029,26.3,20,26,20c-1.094,0-2.117,0.298-3,0.809C22.117,20.298,21.094,20,20,20
	c-0.3,0-0.592,0.029-0.88,0.072C19.541,18.314,21.115,17,23,17z M16,26c0-1.188,0.531-2.245,1.357-2.979
	c0.483,1.347,1.43,2.47,2.653,3.175c0.044,1.346,0.526,2.579,1.315,3.56C20.908,29.904,20.467,30,20,30C17.794,30,16,28.206,16,26z
	 M26,30c-0.467,0-0.908-0.096-1.325-0.243c0.789-0.981,1.272-2.214,1.315-3.56c1.223-0.705,2.171-1.828,2.653-3.175
	C29.469,23.755,30,24.812,30,26C30,28.206,28.206,30,26,30z"/>
<g>
	<path d="M26.383,11.358c-0.677-0.04-1.383,0.04-2.05,0.367c-0.563,0.275-1.04,0.713-1.443,1.28C22.927,13.004,22.963,13,23,13
		c0.893,0,1.747,0.151,2.548,0.417c0.549-0.135,1.264-0.052,2.218,0.27c0.109,0.341,0.178,0.689,0.207,1.042
		c0.685,0.543,1.276,1.195,1.75,1.934C29.891,16.175,30,15.635,30,15c0-3.907-3.669-6.892-7.347-8.905C22.868,4.852,23,3.503,23,2
		h-4c0,0.827-0.042,1.594-0.12,2.314c-1.947-0.793-3.421-1.223-3.606-1.276l-0.55,1.923C17.476,5.749,23.492,8.097,26.383,11.358z"
		/>
	<path d="M12,26c0-2.485,1.171-4.825,3.115-6.329c0.438-2.661,2.167-4.85,4.52-5.935c0.752-1.166,1.45-2.444,2.011-3.911
		c-1.217-0.664-2.465-1.231-3.619-1.7c-0.936,2.603-2.448,4.536-4.1,6.639c-0.065,0.083-0.131,0.168-0.197,0.252
		c-0.401-1.225-1.062-2.374-1.743-3.547C10.587,9.056,9,6.321,9,2H7c0,1.61,0.21,3.014,0.528,4.282C6.111,5.638,4.164,5,2,5v2
		c3.085,0,5.751,1.599,6.48,2.077c0.557,1.277,1.193,2.39,1.777,3.396c1.011,1.743,1.809,3.126,1.854,4.686
		C9.936,20.208,8,23.971,8,30h4c0-0.904,0.052-1.734,0.144-2.511C12.053,27.006,12,26.509,12,26z"/>
</g>
</svg>
