<?xml version="1.0" encoding="utf-8"?>
<!-- Generator: Adobe Illustrator 21.1.0, SVG Export Plug-In . SVG Version: 6.00 Build 0)  -->
<svg version="1.1" id="Слой_1" xmlns="http://www.w3.org/2000/svg" xmlns:xlink="http://www.w3.org/1999/xlink" x="0px" y="0px"
	 viewBox="0 0 32 32" style="enable-background:new 0 0 32 32;" xml:space="preserve">
<path d="M14,4c5.5,0,10,4.5,10,10c0,0,0,0,0,0.1c-0.3,0.3-1.5,0.5-2.2,0.6c-1.7,0.3-3.6,0.7-4.9,2.1c-1.3,1.3-1.7,3.2-2,4.9
	c-0.2,0.8-0.4,2.1-0.7,2.3c0,0,0,0-0.1,0C8.5,24,4,19.5,4,14S8.5,4,14,4 M14,2C7.4,2,2,7.4,2,14s5.4,12,12,12c3.3,0,2.1-5.7,4.3-7.9
	C20.4,16,26,17.3,26,14C26,7.4,20.6,2,14,2L14,2z"/>
<circle cx="11" cy="19" r="3"/>
<circle cx="9" cy="11" r="3"/>
<circle cx="17" cy="9" r="3"/>
<path d="M18,24c0,3.4,2.6,6,6,6c1.6,0,3.2-0.6,4.2-1.8l-1.4-1.4C26.2,27.6,25.2,28,24,28c-2.2,0-4-1.8-4-4s1.8-4,4-4
	c1.6,0,3,1,3.6,2.4L26,24h2h2v-4l-0.8,0.8C28,19.2,26.2,18,24,18C20.6,18,18,20.6,18,24z"/>
</svg>
