<?xml version="1.0" encoding="utf-8"?>
<!-- Generator: Adobe Illustrator 21.1.0, SVG Export Plug-In . SVG Version: 6.00 Build 0)  -->
<svg version="1.1" id="Слой_1" xmlns="http://www.w3.org/2000/svg" xmlns:xlink="http://www.w3.org/1999/xlink" x="0px" y="0px"
	 viewBox="0 0 32 32" style="enable-background:new 0 0 32 32;" xml:space="preserve">
<path id="icon" d="M16,28C9.373,28,4,22.627,4,16C4,9.373,9.373,4,16,4c6.627,0,12,5.372,12,12C28,22.627,22.627,28,16,28L16,28z
	 M16,6C10.477,6,6,10.477,6,16s4.477,10,10,10s10-4.477,10-10S21.523,6,16,6L16,6z M13.606,13.829c-0.477,0-0.902,0.103-1.276,0.313
	s-0.667,0.5-0.876,0.874c-0.208,0.374-0.313,0.8-0.313,1.276c0,0.477,0.105,0.902,0.313,1.276c0.209,0.374,0.502,0.665,0.876,0.874
	s0.799,0.314,1.276,0.314c0.77,0,1.415-0.305,1.935-0.913l1.144,1.056c-0.366,0.446-0.821,0.788-1.364,1.022
	c-0.542,0.236-1.147,0.353-1.815,0.353c-0.785,0-1.493-0.171-2.127-0.511c-0.636-0.342-1.135-0.814-1.496-1.419
	c-0.363-0.605-0.545-1.288-0.545-2.052c0-0.762,0.182-1.445,0.545-2.05c0.362-0.605,0.861-1.079,1.496-1.419
	c0.634-0.342,1.347-0.513,2.138-0.513c0.668,0,1.272,0.119,1.81,0.353c0.539,0.236,0.991,0.573,1.358,1.013l-1.144,1.056
	C15.021,14.13,14.376,13.829,13.606,13.829L13.606,13.829z M21.349,20.142v-0.737c-0.323,0.551-0.924,0.825-1.804,0.825
	c-0.454,0-0.848-0.077-1.182-0.231c-0.334-0.154-0.588-0.366-0.765-0.637c-0.176-0.271-0.263-0.579-0.263-0.924
	c0-0.551,0.206-0.984,0.622-1.299c0.414-0.314,1.053-0.473,1.918-0.473h1.365c0-0.374-0.114-0.662-0.342-0.864
	c-0.228-0.202-0.568-0.302-1.024-0.302c-0.314,0-0.625,0.049-0.928,0.148c-0.305,0.1-0.563,0.232-0.776,0.402l-0.616-1.199
	c0.322-0.226,0.71-0.403,1.161-0.528c0.451-0.125,0.914-0.186,1.39-0.186c0.917,0,1.621,0.217,2.112,0.654
	c0.493,0.436,0.737,1.094,0.737,1.973v3.377H21.349L21.349,20.142z M21.24,17.667h-1.178c-0.704,0-1.056,0.232-1.056,0.694
	c0,0.22,0.086,0.394,0.259,0.522c0.172,0.128,0.408,0.192,0.71,0.192c0.292,0,0.553-0.068,0.78-0.203
	c0.228-0.135,0.389-0.336,0.485-0.6V17.667L21.24,17.667z"/>
</svg>
