<?xml version="1.0" encoding="utf-8"?>
<!-- Generator: Adobe Illustrator 21.1.0, SVG Export Plug-In . SVG Version: 6.00 Build 0)  -->
<svg version="1.1" id="Слой_1" xmlns="http://www.w3.org/2000/svg" xmlns:xlink="http://www.w3.org/1999/xlink" x="0px" y="0px"
	 viewBox="0 0 32 32" style="enable-background:new 0 0 32 32;" xml:space="preserve">
<rect x="22" y="26" width="10" height="2"/>
<path d="M20,27.411l-4,2.285V24h4h5.969H30v-2V8L16,0L2,8v14v2l14,8l4-2.286V27.411z M17.333,22l5.989-8.984L26.821,22H17.333z
	 M28,19.554l-2.821-7.189L28,10.25V19.554z M26.933,8.551L24.202,10.6l-4.714-6.303L26.933,8.551z M4,19.554V10.25l2.821,2.116
	L4,19.554z M5.067,8.551l7.446-4.255l-4.714,6.303L5.067,8.551z M16,2.973L22.751,12H16H9.249L16,2.973z M11.737,14H16h4.263
	L16,20.394L11.737,14z"/>
</svg>
