<?xml version="1.0" encoding="utf-8"?>
<!-- Generator: Adobe Illustrator 21.1.0, SVG Export Plug-In . SVG Version: 6.00 Build 0)  -->
<svg version="1.1" id="Слой_1" xmlns="http://www.w3.org/2000/svg" xmlns:xlink="http://www.w3.org/1999/xlink" x="0px" y="0px"
	 viewBox="0 0 32 32" style="enable-background:new 0 0 32 32;" xml:space="preserve">
<style type="text/css">
	.st0{fill-rule:evenodd;clip-rule:evenodd;}
</style>
<path id="icon" class="st0" d="M4,28V4h2v22h22v2H4L4,28z M19,18c1.857-1.857,3.572-6,9-6c0,4.57,0,12,0,12H8c0,0,0-1.542,0-3
	C14.625,21,17.142,19.858,19,18z M14.999,14.999C12.218,17.25,8,17,8,17v-2c0,0,4.142-0.142,6-2C15.857,11.143,22.572,4,28,4
	c0,0.633,0,1.468,0,2C22.813,6,17.781,12.75,14.999,14.999L14.999,14.999z"/>
</svg>
