<?xml version="1.0" encoding="utf-8"?>
<!-- Generator: Adobe Illustrator 21.1.0, SVG Export Plug-In . SVG Version: 6.00 Build 0)  -->
<svg version="1.1" id="Слой_1" xmlns="http://www.w3.org/2000/svg" xmlns:xlink="http://www.w3.org/1999/xlink" x="0px" y="0px"
	 viewBox="0 0 32 32" style="enable-background:new 0 0 32 32;" xml:space="preserve">
<g>
	<path d="M22,26H4v-6h18h2v-2H4v-6h24v2h2v-4l-6-6H8l-6,6v18h20V26z M8.828,6h14.343l4,4H4.828L8.828,6z"/>
	<g>
		<rect x="6" y="14" width="2" height="2"/>
	</g>
	<g>
		<rect x="10" y="14" width="2" height="2"/>
	</g>
	<g>
		<rect x="14" y="14" width="2" height="2"/>
	</g>
	<g>
		<rect x="20" y="14" width="4" height="2"/>
	</g>
	<g>
		<rect x="6" y="22" width="2" height="2"/>
	</g>
	<g>
		<rect x="10" y="22" width="2" height="2"/>
	</g>
	<g>
		<rect x="14" y="22" width="2" height="2"/>
	</g>
	<rect x="20" y="22" width="2" height="2"/>
</g>
<g>
	<path d="M28,16c-1.105,0-2,0.895-2,2s0.895,2,2,2s2-0.895,2-2S29.105,16,28,16L28,16z"/>
</g>
<g>
	<path d="M30,22h-4h-2v2h2v6h-2v2h8v-2h-2V22L30,22z"/>
</g>
</svg>
