<?xml version="1.0" encoding="utf-8"?>
<!-- Generator: Adobe Illustrator 21.1.0, SVG Export Plug-In . SVG Version: 6.00 Build 0)  -->
<svg version="1.1" id="Слой_1" xmlns="http://www.w3.org/2000/svg" xmlns:xlink="http://www.w3.org/1999/xlink" x="0px" y="0px"
	 viewBox="0 0 32 32" style="enable-background:new 0 0 32 32;" xml:space="preserve">
<path d="M7,12c-2.761,0-5,2.239-5,5c0,4,5,9,5,9s5-5,5-9C12,14.239,9.761,12,7,12z M7,19c-1.105,0-2-0.895-2-2c0-1.105,0.895-2,2-2
	s2,0.895,2,2C9,18.105,8.105,19,7,19z"/>
<path d="M25,2c-2.761,0-5,2.239-5,5c0,4,5,9,5,9s5-5,5-9C30,4.239,27.761,2,25,2z M25,9c-1.105,0-2-0.895-2-2c0-1.105,0.895-2,2-2
	s2,0.895,2,2C27,8.105,26.105,9,25,9z"/>
<path d="M25,16c-1.033,0-1.873,0.786-1.979,1.792L8.157,26.373C7.83,26.14,7.432,26,7,26c-1.105,0-2,0.895-2,2c0,1.105,0.895,2,2,2
	c1.033,0,1.873-0.786,1.979-1.792l14.864-8.582C24.17,19.86,24.568,20,25,20c1.105,0,2-0.895,2-2C27,16.895,26.105,16,25,16z"/>
</svg>
