<?xml version="1.0" encoding="utf-8"?>
<!-- Generator: Adobe Illustrator 21.1.0, SVG Export Plug-In . SVG Version: 6.00 Build 0)  -->
<svg version="1.1" id="Слой_1" xmlns="http://www.w3.org/2000/svg" xmlns:xlink="http://www.w3.org/1999/xlink" x="0px" y="0px"
	 viewBox="0 0 32 32" style="enable-background:new 0 0 32 32;" xml:space="preserve">
<path d="M29.202,9.999c0-0.439-0.077-0.859-0.187-1.266L30,7.988L28.813,6.01l-1.144,0.442c-0.626-0.599-1.416-1.025-2.292-1.256
	L25.2,4h-2.372l-0.177,1.197c-0.876,0.231-1.665,0.657-2.292,1.256l-1.144-0.442l-1.187,1.978l0.985,0.745
	c-0.111,0.406-0.188,0.826-0.188,1.265c0,0.44,0.077,0.859,0.188,1.265l-0.985,0.745l1.187,1.98l1.144-0.443
	c0.626,0.599,1.416,1.027,2.292,1.258L22.828,16H25.2l0.176-1.196c0.876-0.231,1.665-0.659,2.292-1.258l1.144,0.443l1.187-1.98
	l-0.985-0.745C29.125,10.858,29.202,10.439,29.202,9.999z M24.013,12.999c-1.72,0-3.113-1.342-3.113-3c0-1.656,1.393-3,3.113-3
	s3.114,1.344,3.114,3C27.127,11.657,25.732,12.999,24.013,12.999z"/>
<path d="M23.451,22.038c1.008-1.21,1.76-2.639,2.177-4.205C25.102,17.942,24.558,18,24,18c-0.173,0-0.343-0.015-0.514-0.026
	C22.257,21.481,18.927,24,15,24c-4.971,0-9-4.029-9-9s4.029-9,9-9c0.671,0,1.322,0.079,1.951,0.218
	C17.293,5.581,17.723,5,18.218,4.481C17.2,4.17,16.12,4,15,4C8.926,4,4,8.926,4,15c0,6.076,4.926,11,11,11
	c2.679,0,5.13-0.959,7.037-2.549C25.732,27.147,26.6,28,26.6,28l1.4-1.4C28,26.6,27.147,25.732,23.451,22.038z"/>
</svg>
