<?xml version="1.0" encoding="utf-8"?>
<!-- Generator: Adobe Illustrator 21.1.0, SVG Export Plug-In . SVG Version: 6.00 Build 0)  -->
<svg version="1.1" id="Слой_1" xmlns="http://www.w3.org/2000/svg" xmlns:xlink="http://www.w3.org/1999/xlink" x="0px" y="0px"
	 viewBox="0 0 32 32" style="enable-background:new 0 0 32 32;" xml:space="preserve">
<g>
	<path d="M28,26.586V18h2v-6l-8-8H10L7.707,6.293l-5-5L1.293,2.707l28,28l1.414-1.414L28,26.586z M24,22.586V18h2v6.586L24,22.586z
		 M20,18.586V18h2v2h-0.586L20,18.586z M28,14v2H17.414l-2-2H28z"/>
	<path d="M4,16v-2h5.758L4.879,9.121L2,12v6h2v10h6v-6h4v-3.758L11.758,16H4z M8,26H6v-8h2V26z M12,20h-2v-2h2V20z"/>
</g>
</svg>
