<?xml version="1.0" encoding="utf-8"?>
<!-- Generator: Adobe Illustrator 21.1.0, SVG Export Plug-In . SVG Version: 6.00 Build 0)  -->
<svg version="1.1" id="Слой_1" xmlns="http://www.w3.org/2000/svg" xmlns:xlink="http://www.w3.org/1999/xlink" x="0px" y="0px"
	 viewBox="0 0 32 32" style="enable-background:new 0 0 32 32;" xml:space="preserve">
<polygon points="26.999,4.001 25.484,5.484 28,8 16,8 16,10 28,10 25.484,12.516 26.999,13.999 32,9 "/>
<path d="M28,16v3.554l-1.649-4.203L23,12h-0.249H16H9.249L16,2.973L18.264,6h2.498l-1.274-1.704L22.17,5.83l1.466-1.466L16,0L2,8v14
	v2l14,8l14-8v-2v-8L28,16z M16,14h4.263L16,20.394L11.737,14H16z M12.513,4.296l-4.714,6.303L5.067,8.551L12.513,4.296z M4,10.25
	l2.821,2.116L4,19.554V10.25z M16,29.696V24h9.969L16,29.696z M17.333,22l5.989-8.984L26.821,22H17.333z"/>
</svg>
