<?xml version="1.0" encoding="utf-8"?>
<!-- Generator: Adobe Illustrator 21.1.0, SVG Export Plug-In . SVG Version: 6.00 Build 0)  -->
<svg version="1.1" id="Слой_1" xmlns="http://www.w3.org/2000/svg" xmlns:xlink="http://www.w3.org/1999/xlink" x="0px" y="0px"
	 viewBox="0 0 32 32" style="enable-background:new 0 0 32 32;" xml:space="preserve">
<path d="M20,6c0,3.4,2.6,6,6,6c1.6,0,3.2-0.6,4.2-1.8l-1.4-1.4C28.2,9.6,27.2,10,26,10c-2.2,0-4-1.8-4-4s1.8-4,4-4
	c1.6,0,3,1,3.6,2.4L28,6h2h2V2l-0.8,0.8C30,1.2,28.2,0,26,0C22.6,0,20,2.6,20,6z"/>
<polygon points="25.2,14 18,14 18,6.8 18,4 16,2 11,7 12.4,8.4 14,6.8 14,14 6.8,14 8.4,12.4 7,11 2,16 7,21 8.4,19.6 6.8,18 14,18 
	14,25.2 12.4,23.6 11,25 16,30 21,25 19.6,23.6 18,25.2 18,18 25.2,18 23.6,19.6 25,21 30,16 28,14 "/>
</svg>
