<?xml version="1.0" encoding="utf-8"?>
<!-- Generator: Adobe Illustrator 21.1.0, SVG Export Plug-In . SVG Version: 6.00 Build 0)  -->
<svg version="1.1" id="Слой_1" xmlns="http://www.w3.org/2000/svg" xmlns:xlink="http://www.w3.org/1999/xlink" x="0px" y="0px"
	 viewBox="0 0 32 32" style="enable-background:new 0 0 32 32;" xml:space="preserve">
<g>
	<rect x="2" y="2" width="2" height="2"/>
	<rect x="26" y="6" width="2" height="2"/>
	<rect x="24" y="10" width="2" height="2"/>
	<rect x="8" y="10" width="2" height="2"/>
	<polygon points="18,14 16,14 16,12 20,12 20,8 16,8 16,10 14,10 14,12 12,12 12,14 10,14 10,18 12,18 12,20 16,20 20,20 20,16 
		18,16 	"/>
	<rect x="12" y="8" width="2" height="2"/>
	<rect x="6" y="16" width="2" height="2"/>
	<rect x="18" y="20" width="2" height="2"/>
	<rect x="22" y="16" width="2" height="2"/>
	<rect x="20" y="14" width="2" height="2"/>
	<rect x="2" y="28" width="2" height="2"/>
	<rect x="10" y="20" width="2" height="2"/>
	<rect x="26" y="20" width="2" height="2"/>
	<rect x="16" y="4" width="2" height="2"/>
</g>
<polygon points="12,28 12,30 8,30 8,32 14,32 14,30 14,28 "/>
<polygon points="10,28 10,26 14,26 14,24 8,24 8,26 8,28 "/>
<polygon points="20,24 20,30 18,30 18,24 16,24 16,32 18,32 20,32 22,32 22,24 "/>
<polygon points="28.872,24 27,29.149 25.128,24 23,24 25.909,32 25.963,32 28.037,32 28.091,32 31,24 "/>
</svg>
