<?xml version="1.0" encoding="utf-8"?>
<!-- Generator: Adobe Illustrator 21.1.0, SVG Export Plug-In . SVG Version: 6.00 Build 0)  -->
<svg version="1.1" id="Слой_1" xmlns="http://www.w3.org/2000/svg" xmlns:xlink="http://www.w3.org/1999/xlink" x="0px" y="0px"
	 viewBox="0 0 32 32" style="enable-background:new 0 0 32 32;" xml:space="preserve">
<polygon points="16,16 16,32 22,26 30,24 "/>
<g>
	<polygon points="18,15 20,16 20,12 14,12 12,12 4,12 4,28 14,28 14,26 6,26 6,14 12,14 12,20 14,20 14,18 14,14 18,14 	"/>
	<polygon points="12,4 12,10 14,10 14,6 26,6 26,18 24,18 28,20 28,20 28,4 	"/>
</g>
</svg>
