<?xml version="1.0" encoding="utf-8"?>
<!-- Generator: Adobe Illustrator 21.1.0, SVG Export Plug-In . SVG Version: 6.00 Build 0)  -->
<svg version="1.1" id="Слой_1" xmlns="http://www.w3.org/2000/svg" xmlns:xlink="http://www.w3.org/1999/xlink" x="0px" y="0px"
	 viewBox="0 0 32 32" style="enable-background:new 0 0 32 32;" xml:space="preserve">
<path d="M23,28.179C25,26,25,22,25,22c1.105,0,2-1.791,2-4c0-1.066-0.212-2.029-0.552-2.746C26.8,14.232,27,13.141,27,12
	c0-5.523-4.477-10-10-10S7,6.477,7,12c0,1.141,0.2,2.232,0.552,3.254C7.212,15.971,7,16.934,7,18c0,2.209,0.895,4,2,4
	c0,0,0,4,2,6.179c-0.908,0-2.845,0.723-4.691,1.821c0,0,5.966,0,6.828,0c1.863,0-0.663-3.173-0.663-3.173
	C11.279,25.526,11.005,22.898,11,22v-2H9.406C9.231,19.682,9,18.99,9,18c0-0.72,0.131-1.408,0.359-1.889l0.35-0.737l-0.266-0.771
	C9.149,13.749,9,12.873,9,12c0-4.411,3.589-8,8-8s8,3.589,8,8c0,0.873-0.149,1.749-0.443,2.602l-0.266,0.771l0.35,0.737
	C24.869,16.592,25,17.28,25,18c0,0.99-0.231,1.682-0.406,2H23v2c-0.005,0.898-0.279,3.526-1.474,4.827c0,0-2.526,3.173-0.663,3.173
	c0.863,0,6.828,0,6.828,0C25.845,28.903,23.908,28.179,23,28.179z"/>
<path d="M23,11c0-2.761-2.239-5-5-5c-0.343,0-0.677,0.035-1,0.101C16.677,6.035,16.343,6,16,6c-2.761,0-5,2.239-5,5
	c0,0.596,0.122,1.16,0.313,1.69C11.119,13.087,11,13.528,11,14c0,1.657,1.343,3,3,3c0.061,0,0.118-0.014,0.178-0.018
	C14.586,18.154,15.689,19,17,19s2.414-0.846,2.822-2.018C19.882,16.986,19.939,17,20,17c1.657,0,3-1.343,3-3
	c0-0.472-0.119-0.913-0.313-1.31C22.878,12.16,23,11.596,23,11z"/>
</svg>
