<?xml version="1.0" encoding="utf-8"?>
<!-- Generator: Adobe Illustrator 21.1.0, SVG Export Plug-In . SVG Version: 6.00 Build 0)  -->
<svg version="1.1" id="Слой_1" xmlns="http://www.w3.org/2000/svg" xmlns:xlink="http://www.w3.org/1999/xlink" x="0px" y="0px"
	 viewBox="0 0 32 32" style="enable-background:new 0 0 32 32;" xml:space="preserve">
<g>
	<path d="M13.613,23.638l0.597-1.91c-1.872-0.586-3.351-2.066-3.937-3.937l-1.91,0.597C9.142,20.885,11.115,22.858,13.613,23.638z"
		/>
	<path d="M18.387,8.362l-0.597,1.91c1.872,0.586,3.351,2.066,3.937,3.937l1.91-0.597C22.858,11.115,20.885,9.142,18.387,8.362z"/>
</g>
<path d="M26.243,26.243l-1.414-1.414C24.105,25.552,23.105,26,22,26c-1.477,0-2.752-0.809-3.445-2H22v-2h-6v6h2v-1.537
	C19.062,27.416,20.461,28,22,28C23.657,28,25.157,27.328,26.243,26.243z"/>
<polygon points="20,16 20,20 22,20 22,18 30,18 30,30 22,30 22,26 20,26 20,32 32,32 32,16 "/>
<path d="M6,16c0-5.514,4.486-10,10-10c4.829,0,8.869,3.441,9.798,8h2.022C26.866,8.327,21.944,4,16,4C9.373,4,4,9.373,4,16
	c0,5.944,4.327,10.866,10,11.82v-2.022C9.441,24.869,6,20.829,6,16z"/>
<path d="M18,16c0,1.105-0.895,2-2,2s-2-0.895-2-2s0.895-2,2-2S18,14.895,18,16v-2h1.445c-0.693-1.191-1.968-2-3.445-2
	c-2.209,0-4,1.791-4,4s1.791,4,4,4c0.732,0,1.41-0.211,2-0.555V16z"/>
</svg>
