<?xml version="1.0" encoding="utf-8"?>
<!-- Generator: Adobe Illustrator 21.1.0, SVG Export Plug-In . SVG Version: 6.00 Build 0)  -->
<svg version="1.1" id="Слой_1" xmlns="http://www.w3.org/2000/svg" xmlns:xlink="http://www.w3.org/1999/xlink" x="0px" y="0px"
	 viewBox="0 0 32 32" style="enable-background:new 0 0 32 32;" xml:space="preserve">
<g>
	<path d="M7.113,16.857l0.918,1.571L7.113,20H5.235l-0.918-1.571l0.918-1.571H7.113 M8.261,14.857H4.087L2,18.429L4.087,22h4.174
		l2.087-3.571L8.261,14.857L8.261,14.857z"/>
	<path d="M7.113,8.286l0.918,1.571l-0.918,1.571H5.235L4.316,9.857l0.918-1.571H7.113 M8.261,6.286H4.087L2,9.857l2.087,3.571h4.174
		l2.087-3.571L8.261,6.286L8.261,6.286z"/>
	<path d="M14.765,4l0.918,1.571l-0.918,1.571h-1.878l-0.918-1.571L12.887,4H14.765 M15.913,2h-4.174L9.652,5.571l2.087,3.571h4.174
		L18,5.571L15.913,2L15.913,2z"/>
	<polygon points="11.808,17.643 12.972,15.643 12.887,15.643 11.968,14.071 12.887,12.5 14.765,12.5 14.783,12.53 15.938,10.544 
		15.913,10.5 11.739,10.5 9.652,14.071 11.739,17.643 	"/>
</g>
<g>
	<polygon points="20.261,22.857 16.087,22.857 14,26.429 16.087,30 20.261,30 22.348,26.429 	"/>
	<polygon points="20.261,14.286 16.087,14.286 14,17.857 16.087,21.429 20.261,21.429 22.348,17.857 	"/>
	<path d="M27.913,10h-4.174l-2.087,3.571l2.087,3.571h4.174L30,13.571L27.913,10L27.913,10z"/>
	<polygon points="27.913,18.571 23.739,18.571 21.652,22.143 23.739,25.714 27.913,25.714 30,22.143 	"/>
</g>
</svg>
