<?xml version="1.0" encoding="utf-8"?>
<!-- Generator: Adobe Illustrator 21.1.0, SVG Export Plug-In . SVG Version: 6.00 Build 0)  -->
<svg version="1.1" id="Слой_1" xmlns="http://www.w3.org/2000/svg" xmlns:xlink="http://www.w3.org/1999/xlink" x="0px" y="0px"
	 viewBox="0 0 32 32" style="enable-background:new 0 0 32 32;" xml:space="preserve">
<polygon points="30,16.586 30,13.8 29.52,13.512 25.17,20.659 26.36,22.614 "/>
<path d="M29,26c-0.914,0-1.723,0.418-2.273,1.063L18.48,13.512L18,13.8v2.786l4.806,7.959l-1.533,2.518
	C20.723,26.418,19.914,26,19,26c-1.657,0-3,1.343-3,3s1.343,3,3,3c0.913,0,1.721-0.417,2.271-1.06
	c0.037-0.041,0.31-0.409,0.327-0.44L24,26.522l2.402,3.978c0.018,0.031,0.29,0.399,0.327,0.44C27.279,31.583,28.087,32,29,32
	c1.657,0,3-1.343,3-3S30.657,26,29,26z M19,30c-0.552,0-1-0.448-1-1s0.448-1,1-1s1,0.448,1,1S19.552,30,19,30z M29,30
	c-0.552,0-1-0.448-1-1s0.448-1,1-1s1,0.448,1,1S29.552,30,29,30z"/>
<path d="M24,7.54V6h-2v0.487C19.379,8.268,15.846,10,12,10S4.621,8.268,2,6.487V6H0v1.54C0.525,7.926,1.091,8.318,1.7,8.7L0,11.2
	c0.5,0.4,1.1,0.7,1.7,1.1l1.7-2.6c1.3,0.7,2.8,1.3,4.3,1.7l-0.6,3c0.6,0.2,1.3,0.3,2,0.4l0.6-3c0.8,0.1,1.5,0.2,2.3,0.2
	s1.6-0.1,2.3-0.2l0.6,3c0.7-0.1,1.3-0.2,2-0.4l-0.6-3c1.5-0.4,3-1,4.3-1.7l1.7,2.6c0.6-0.3,1.1-0.7,1.7-1.1l-1.7-2.5
	C22.909,8.318,23.475,7.926,24,7.54z"/>
</svg>
