<?xml version="1.0" encoding="utf-8"?>
<!-- Generator: Adobe Illustrator 21.1.0, SVG Export Plug-In . SVG Version: 6.00 Build 0)  -->
<svg version="1.1" id="Слой_1" xmlns="http://www.w3.org/2000/svg" xmlns:xlink="http://www.w3.org/1999/xlink" x="0px" y="0px"
	 viewBox="0 0 32 32" style="enable-background:new 0 0 32 32;" xml:space="preserve">
<path d="M29.353,10.535c-0.064-0.85-0.351-1.752-0.669-2.52c-0.476-1.148-1.473-2.97-2.689-4.073C25.963,2.865,25.085,2,24,2
	c-1.105,0-2,0.895-2,2s0.895,2,2,2c0.35,0,0.674-0.098,0.96-0.256c0.57,0.624,1.256,1.607,1.801,2.862
	c0.269,0.618,0.426,1.129,0.511,1.535C26.529,10.432,26,11.153,26,12c0,0.147,0.018,0.289,0.048,0.426
	c-1.421,1.116-3.763,2.291-8.351,2.527C17.345,14.383,16.719,14,16,14c-0.757,0-1.408,0.425-1.747,1.046
	c-5.349,0.262-8.033,1.715-9.666,3.052C4.4,18.04,4.206,18,4,18c-1.105,0-2,0.895-2,2c0,0.581,0.252,1.1,0.647,1.465
	c0.064,0.85,0.351,1.752,0.669,2.52c0.476,1.148,1.473,2.97,2.69,4.073C6.038,29.135,6.915,30,8,30c1.105,0,2-0.895,2-2
	s-0.895-2-2-2c-0.35,0-0.674,0.098-0.96,0.256c-0.57-0.624-1.256-1.606-1.802-2.862c-0.269-0.618-0.425-1.129-0.511-1.535
	C5.471,21.568,6,20.848,6,20c0-0.147-0.018-0.289-0.048-0.426c1.421-1.116,3.763-2.291,8.351-2.527C14.655,17.617,15.281,18,16,18
	c0.757,0,1.408-0.425,1.747-1.046c5.349-0.262,8.033-1.715,9.666-3.052C27.6,13.96,27.794,14,28,14c1.105,0,2-0.895,2-2
	C30,11.419,29.748,10.9,29.353,10.535z"/>
</svg>
