<?xml version="1.0" encoding="utf-8"?>
<!-- Generator: Adobe Illustrator 21.1.0, SVG Export Plug-In . SVG Version: 6.00 Build 0)  -->
<svg version="1.1" id="Слой_1" xmlns="http://www.w3.org/2000/svg" xmlns:xlink="http://www.w3.org/1999/xlink" x="0px" y="0px"
	 viewBox="0 0 32 32" style="enable-background:new 0 0 32 32;" xml:space="preserve">
<style type="text/css">
	.st0{display:none;}
</style>
<path class="st0" d="M27.3,12c0.445,1.253,0.7,2.596,0.7,4c0,2.838-4.928,6-12,6c-1.967,0-3.76-0.251-5.335-0.665
	C10.251,19.76,10,17.967,10,16c0-7.072,3.162-12,6-12c0.682,0,1.349,0.063,1.999,0.173l1.671-1.67C18.499,2.184,17.273,2,16,2
	C8.268,2,2,8.268,2,16s6.268,14,14,14s14-6.268,14-14c0-1.391-0.21-2.732-0.587-4H27.3z M10.97,5.12C9.159,7.687,8,11.605,8,16
	c0,1.608,0.163,3.147,0.448,4.585C5.67,19.401,4,17.648,4,16C4,11.181,6.862,7.027,10.97,5.12z M5.12,21.03
	c1.09,0.769,2.427,1.417,3.939,1.911c0.495,1.512,1.142,2.849,1.911,3.939C8.394,25.684,6.316,23.606,5.12,21.03z M16,28
	c-1.648,0-3.401-1.67-4.585-4.448C12.853,23.837,14.392,24,16,24c4.395,0,8.313-1.159,10.88-2.97C24.973,25.138,20.819,28,16,28z"/>
<polygon points="3,23 8,11 10,13 15,21 16,24 16,31 3,24 "/>
<polygon points="16,9 21.001,13.999 22.516,12.516 20,10 32,10 32,8 20,8 22.516,5.484 21.001,4.001 "/>
<g>
	<path d="M28,19.554l-2.724-6.941l-1.528,1.496L26.821,22h-9.488l3.536-5.304l-1.442-1.442L16,20.394L11.737,14H16h2.173l-2.001-2
		H16H9.249L16,2.973l1.369,1.83l2.56-2.559L16,0L2,8v14v2l14,8l14-8v-2V12h-2V19.554z M12.513,4.296l-4.714,6.303L5.067,8.551
		L12.513,4.296z M4,10.25l2.821,2.116L4,19.554V10.25z M8.677,13.016L14.667,22H5.179L8.677,13.016z M16,29.696L6.031,24H16h9.969
		L16,29.696z"/>
</g>
</svg>
