<?xml version="1.0" encoding="utf-8"?>
<!-- Generator: Adobe Illustrator 21.1.0, SVG Export Plug-In . SVG Version: 6.00 Build 0)  -->
<svg version="1.1" id="Слой_1" xmlns="http://www.w3.org/2000/svg" xmlns:xlink="http://www.w3.org/1999/xlink" x="0px" y="0px"
	 viewBox="0 0 32 32" style="enable-background:new 0 0 32 32;" xml:space="preserve">
<path d="M26,4v24H6V4H26 M28,2H4v28h24V2L28,2z"/>
<rect x="16" y="8" width="2" height="2"/>
<rect x="14" y="10" width="2" height="2"/>
<path d="M18,16.555V14h-4v2.555c-1.191,0.693-2,1.968-2,3.445c0,2.209,1.791,4,4,4s4-1.791,4-4C20,18.523,19.191,17.248,18,16.555z
	 M16,22c-1.105,0-2-0.895-2-2c0-1.105,0.895-2,2-2s2,0.895,2,2C18,21.105,17.105,22,16,22z"/>
<rect x="16" y="4" width="2" height="2"/>
<rect x="14" y="6" width="2" height="2"/>
<rect x="16" y="12" width="2" height="2"/>
</svg>
