<?xml version="1.0" encoding="utf-8"?>
<!-- Generator: Adobe Illustrator 21.1.0, SVG Export Plug-In . SVG Version: 6.00 Build 0)  -->
<svg version="1.1" id="Слой_1" xmlns="http://www.w3.org/2000/svg" xmlns:xlink="http://www.w3.org/1999/xlink" x="0px" y="0px"
	 viewBox="0 0 32 32" style="enable-background:new 0 0 32 32;" xml:space="preserve">
<path d="M10.257,12.473c1.011,1.743,1.809,3.126,1.854,4.686C9.936,20.208,8,23.971,8,30h4c0-1.711,0.178-3.172,0.483-4.47
	c1.844-3.41,5.652-4.174,9.393-4.853c2.02,0.025,2.757,1.141,3.777,2.957C26.496,25.134,27.544,27,30,27v-2
	c-1.228,0-1.737-0.805-2.603-2.347c-0.051-0.089-0.108-0.185-0.16-0.277C28.088,22.007,29.377,22,30,22v-2
	c-0.901,0-2.585,0.012-3.881,0.706c-0.222-0.269-0.459-0.529-0.733-0.766C27.959,19.23,30,18.005,30,15
	c0-3.907-3.669-6.892-7.347-8.905C22.868,4.852,23,3.503,23,2h-4c0,0.827-0.042,1.594-0.12,2.314
	c-1.947-0.793-3.421-1.223-3.606-1.276l-0.55,1.923c2.752,0.788,8.768,3.136,11.659,6.397c-0.677-0.04-1.383,0.04-2.05,0.367
	c-1.027,0.502-1.794,1.498-2.281,2.958l1.897,0.633c0.311-0.933,0.736-1.537,1.263-1.795c0.577-0.283,1.397-0.224,2.554,0.166
	C27.903,14.116,28,14.551,28,15c0,2.419-2.245,2.942-6.214,3.66c-2.368,0.428-5.066,0.92-7.347,2.202
	c0.777-1.258,1.681-2.415,2.633-3.627c1.638-2.084,3.4-4.34,4.574-7.41c-1.217-0.664-2.465-1.231-3.619-1.7
	c-0.936,2.603-2.448,4.536-4.1,6.639c-0.065,0.083-0.131,0.168-0.197,0.252c-0.401-1.225-1.062-2.374-1.743-3.547
	C10.587,9.056,9,6.321,9,2H7c0,1.61,0.21,3.014,0.528,4.282C6.111,5.638,4.164,5,2,5v2c3.085,0,5.751,1.599,6.48,2.077
	C9.037,10.354,9.673,11.467,10.257,12.473z"/>
</svg>
