<?xml version="1.0" encoding="utf-8"?>
<!-- Generator: Adobe Illustrator 21.1.0, SVG Export Plug-In . SVG Version: 6.00 Build 0)  -->
<svg version="1.1" id="Слой_1" xmlns="http://www.w3.org/2000/svg" xmlns:xlink="http://www.w3.org/1999/xlink" x="0px" y="0px"
	 viewBox="0 0 32 32" style="enable-background:new 0 0 32 32;" xml:space="preserve">
<g>
	<circle cx="11" cy="9" r="3"/>
</g>
<path d="M5,14c0.551,0,1,0.449,1,1s-0.449,1-1,1s-1-0.449-1-1S4.449,14,5,14 M5,12c-1.657,0-3,1.343-3,3c0,1.657,1.343,3,3,3
	s3-1.343,3-3C8,13.343,6.657,12,5,12L5,12z"/>
<path d="M11,20c0.551,0,1,0.449,1,1s-0.449,1-1,1s-1-0.449-1-1S10.449,20,11,20 M11,18c-1.657,0-3,1.343-3,3s1.343,3,3,3
	s3-1.343,3-3S12.657,18,11,18L11,18z"/>
<g>
	<circle cx="27" cy="7" r="3"/>
</g>
<g>
	<circle cx="23" cy="15" r="3"/>
</g>
<path d="M23,24c0.551,0,1,0.449,1,1s-0.449,1-1,1s-1-0.449-1-1S22.449,24,23,24 M23,22c-1.657,0-3,1.343-3,3s1.343,3,3,3
	s3-1.343,3-3S24.657,22,23,22L23,22z"/>
<rect x="12" y="8" width="8" height="2"/>
<rect x="14" y="24" width="8" height="2"/>
<g>
	<rect x="16" y="12" width="2" height="14"/>
	<polygon points="16,28 4,28 4,4 16,4 16,10 18,10 18,2 2,2 2,30 18,30 18,28 	"/>
</g>
</svg>
