<?xml version="1.0" encoding="utf-8"?>
<!-- Generator: Adobe Illustrator 21.1.0, SVG Export Plug-In . SVG Version: 6.00 Build 0)  -->
<svg version="1.1" id="Слой_1" xmlns="http://www.w3.org/2000/svg" xmlns:xlink="http://www.w3.org/1999/xlink" x="0px" y="0px"
	 viewBox="0 0 32 32" style="enable-background:new 0 0 32 32;" xml:space="preserve">
<g>
	<path d="M24,2v2h2.586l-6.399,6.399c0.537,0.402,1.012,0.878,1.414,1.414L28,5.414V8h2V2H24z"/>
	<path d="M11.813,21.601c-0.537-0.402-1.012-0.877-1.414-1.414L4,26.586V24H2v6h6v-2H5.414L11.813,21.601z"/>
	<path d="M28,24v2.586l-6.399-6.399c-0.402,0.537-0.877,1.012-1.414,1.414L26.586,28H24v2h6v-6H28z"/>
	<path d="M11.813,10.399L5.414,4H8V2H2v6h2V5.414l6.399,6.399C10.801,11.277,11.277,10.801,11.813,10.399z"/>
</g>
<circle cx="16" cy="16" r="5"/>
</svg>
