<?xml version="1.0" encoding="utf-8"?>
<!-- Generator: Adobe Illustrator 21.1.0, SVG Export Plug-In . SVG Version: 6.00 Build 0)  -->
<svg version="1.1" id="Слой_1" xmlns="http://www.w3.org/2000/svg" xmlns:xlink="http://www.w3.org/1999/xlink" x="0px" y="0px"
	 viewBox="0 0 32 32" style="enable-background:new 0 0 32 32;" xml:space="preserve">
<style type="text/css">
	.st0{display:none;}
	.st1{display:inline;}
</style>
<g class="st0">
	<path class="st1" d="M6,10l-6,6l16,16l6-6L6,10z M2.8,16L6,12.8l1.9,1.9L6,16.6L7.4,18l1.9-1.9l2.6,2.6L10,20.6l1.4,1.4l1.9-1.9
		l2.6,2.6L14,24.6l1.4,1.4l1.9-1.9l1.9,1.9L16,29.2L2.8,16z"/>
</g>
<g class="st0">
	<path class="st1" d="M6,2v28H2V2H6 M8,0H0v32h8V0L8,0z"/>
</g>
<path id="icon_2_" class="st0" d="M26.9,2.9l-3,9.1l4.2,11.1l-10.6-6.6l-6.2-9.3L26.9,2.9 M30,0L8,6l8,12l16,10l-6-16L30,0L30,0z"/>
<g class="st0">
	<path class="st1" d="M8,2L2,8l16,16l6-6L8,2z M4.8,8L8,4.8l1.9,1.9L8,8.6L9.4,10l1.9-1.9l2.6,2.6L12,12.6l1.4,1.4l1.9-1.9l2.6,2.6
		L16,16.6l1.4,1.4l1.9-1.9l1.9,1.9L18,21.2L4.8,8z"/>
</g>
<g>
	<path d="M32,10H0v12h32V10L32,10z M24,14h2v-2h4v8H2v-8h4v4h2v-4h4v2h2v-2h4v4h2v-4h4V14L24,14z"/>
</g>
</svg>
