<?xml version="1.0" encoding="utf-8"?>
<!-- Generator: Adobe Illustrator 21.1.0, SVG Export Plug-In . SVG Version: 6.00 Build 0)  -->
<svg version="1.1" id="Слой_1" xmlns="http://www.w3.org/2000/svg" xmlns:xlink="http://www.w3.org/1999/xlink" x="0px" y="0px"
	 viewBox="0 0 32 32" style="enable-background:new 0 0 32 32;" xml:space="preserve">
<circle cx="10" cy="16" r="2"/>
<path d="M19.899,6.101C22.433,8.634,24,12.134,24,16c0,3.866-1.567,7.366-4.101,9.899l1.414,1.414C24.209,24.418,26,20.418,26,16
	s-1.791-8.418-4.686-11.314L19.899,6.101z"/>
<path d="M16,16c0,1.657-0.672,3.157-1.757,4.243l1.414,1.414C17.105,20.209,18,18.209,18,16c0-2.209-0.895-4.209-2.343-5.657
	l-1.414,1.414C15.328,12.843,16,14.343,16,16z"/>
<path d="M20,16c0,2.761-1.119,5.261-2.929,7.071l1.414,1.414C20.657,22.314,22,19.314,22,16c0-3.314-1.343-6.314-3.515-8.485
	l-1.414,1.414C18.881,10.739,20,13.239,20,16z"/>
</svg>
