<svg width="32" height="32" viewBox="0 0 32 32" fill="none" xmlns="http://www.w3.org/2000/svg">
<path d="M18 2.75131V0L2 8H6.47213L16 3.23607V3.74711L18 2.75131Z" fill="#18181B"/>
<path d="M18 4.98126L16 5.97706V6L12 8H16.4721L22 5.23607V5.76713L24 4.77133V2L18 5V4.98126Z" fill="#18181B"/>
<path d="M27.5 5.25866L27.4961 5.25196L30 4V18.6715L28 16.6715V7.23607L16 13.2361V28.7639L25.528 23.9999L30 24L14 32V12L22 8V7.99708L27.5 5.25866Z" fill="#18181B"/>
<path d="M12 28V25.7639L10 26.7639V21.3284L8 19.3284V30L12 28Z" fill="#18181B"/>
<path d="M6 23.7639V26L2 28V13.3284L4 15.3284V24.7639L6 23.7639Z" fill="#18181B"/>
<path d="M1.5 10L10 18.5V13.5L13.5 10L1.5 10Z" fill="#18181B"/>
<path d="M30.5 22L22 13.5V18.5L18.5 22H30.5Z" fill="#18181B"/>
</svg>

