<svg width="40" height="39" viewBox="0 0 40 39" fill="none" xmlns="http://www.w3.org/2000/svg">
<path d="M40 18.1071C40 12.6611 34.7571 8.51036 29.5 5.69679C29.8377 3.81583 30.005 1.90955 30 0L24.2857 0C24.2856 1.07467 24.2284 2.14861 24.1143 3.2175C22.4304 2.51857 20.7088 1.90946 18.9571 1.39286L18.1714 4.17857C22.1143 5.27893 30.7 8.55214 34.8286 13.0929C33.8245 13.0135 32.8163 13.1861 31.9 13.5943C31.0961 14.0406 30.3931 14.6408 29.8333 15.3589C29.2735 16.077 28.8686 16.8982 28.6429 17.7729L31.3571 18.6643C31.4736 18.1516 31.6925 17.6663 32.0013 17.2361C32.3102 16.8059 32.7029 16.4393 33.1571 16.1571C34.3628 15.7805 35.6703 15.8651 36.8143 16.3939C37.0018 16.9481 37.1123 17.5243 37.1429 18.1071C37.1429 21.4779 33.9286 22.2021 28.2714 23.205C24.6237 23.6624 21.077 24.6975 17.7714 26.2693C18.928 24.5182 20.1823 22.8303 21.5286 21.2132C24.2472 18.131 26.4548 14.6533 28.0714 10.9061C26.3822 10.0141 24.6412 9.21886 22.8571 8.52429C21.448 11.9043 19.4683 15.0304 17 17.7729L16.7143 18.135C16.0857 16.408 15.2717 14.7505 14.2857 13.1904C12.2714 9.83357 10 6.01714 10 0H7.14286C7.14464 2.00983 7.39892 4.01188 7.9 5.96143C5.42502 4.8308 2.73279 4.22323 0 4.17857L0 6.96429C3.29871 7.09019 6.49954 8.09193 9.25714 9.86143C10.0107 11.4818 10.8597 13.0584 11.8 14.5832C13.2286 17.0207 14.3857 18.9429 14.4429 21.1157C10.4847 26.2668 8.41689 32.5654 8.57143 39H14.2857C14.2712 36.906 14.5013 34.8172 14.9714 32.7739C17.6143 28.0243 23.0429 26.9518 28.4 26.0186C31.2571 26.0186 32.3286 27.6064 33.7857 30.1275C35 32.2168 36.4857 34.8214 40 34.8214V32.0357C38.2429 32.0357 37.5143 30.9214 36.2857 28.7625L36.0571 28.3864C37.3283 27.9813 38.6638 27.802 40 27.8571V25.0714C38.0983 24.9717 36.1994 25.3105 34.4571 26.0604C34.1394 25.6763 33.7906 25.3177 33.4143 24.9879C37.1429 23.9989 40 22.2857 40 18.1071Z" fill="url(#paint0_linear)"/>
<defs>
<linearGradient id="paint0_linear" x1="-0.0857143" y1="19.5418" x2="39.9143" y2="19.5418" gradientUnits="userSpaceOnUse">
<stop stop-color="#4DBFDD"/>
<stop offset="1" stop-color="#963CBD"/>
</linearGradient>
</defs>
</svg>
