<svg width="294" height="294" viewBox="0 0 294 294" fill="none" xmlns="http://www.w3.org/2000/svg">
<path d="M247.334 226.012C247.129 222.248 246.133 218.569 244.412 215.214C242.691 211.86 240.284 208.905 237.346 206.542L187.162 167.114C195.689 152.51 199.137 135.492 196.968 118.721C194.798 101.949 187.133 86.3692 175.171 74.4154C145.283 44.5268 96.6616 44.5091 66.8086 74.3754C36.9556 104.242 36.9556 152.867 66.8485 182.738C78.9226 194.813 94.6889 202.502 111.638 204.58C128.587 206.659 145.744 203.008 160.378 194.209L199.681 244.26C202.044 247.189 204.996 249.589 208.345 251.303C211.695 253.018 215.367 254.009 219.125 254.213C219.6 254.239 220.079 254.253 220.555 254.253C224.196 254.253 227.8 253.512 231.146 252.073C234.492 250.635 237.51 248.53 240.015 245.887C242.521 243.244 244.461 240.118 245.719 236.7C246.977 233.282 247.525 229.644 247.33 226.007L247.334 226.012ZM72.582 177.018C45.8555 150.291 45.8378 106.826 72.542 80.1177C85.3918 67.268 102.82 60.049 120.992 60.049C139.164 60.049 156.592 67.268 169.442 80.1177C182.292 92.9675 189.511 110.395 189.511 128.568C189.511 146.74 182.292 164.168 169.442 177.018C142.733 203.718 99.2862 203.718 72.582 177.018ZM233.793 240.663C231.941 242.515 229.721 243.956 227.276 244.895C224.831 245.833 222.216 246.247 219.601 246.11C216.985 245.973 214.428 245.288 212.095 244.1C209.761 242.911 207.703 241.246 206.054 239.211L167.128 189.635C169.97 187.525 172.661 185.22 175.184 182.738C177.9 179.982 180.404 177.027 182.677 173.896L232.27 212.893C234.312 214.539 235.984 216.597 237.179 218.932C238.373 221.267 239.063 223.827 239.203 226.446C239.343 229.065 238.931 231.685 237.993 234.134C237.055 236.583 235.612 238.808 233.758 240.663H233.793Z" fill="#B4C2D3"/>
<path d="M160.007 89.5942C138.481 68.0727 103.486 68.0549 81.982 89.5542C60.4782 111.054 60.496 146.058 82.0175 167.584C92.3596 177.926 106.386 183.736 121.012 183.736C135.638 183.736 149.665 177.926 160.007 167.584C170.35 157.242 176.16 143.215 176.16 128.589C176.16 113.963 170.35 99.9363 160.007 89.5942ZM154.265 161.837C145.44 170.644 133.481 175.591 121.012 175.591C108.544 175.591 96.5853 170.644 87.7598 161.837C69.4048 143.482 69.387 113.629 87.7243 95.2921C96.5594 86.5195 108.511 81.6062 120.962 81.6285C133.413 81.6508 145.347 86.6069 154.15 95.4112C162.954 104.215 167.909 116.15 167.931 128.601C167.952 141.051 163.038 153.003 154.265 161.837Z" fill="#B4C2D3"/>
<path d="M120.887 193.676C84.936 193.676 55.6914 164.431 55.6914 128.48C55.6914 92.5297 84.936 63.2852 120.887 63.2852C156.837 63.2852 186.082 92.5297 186.082 128.48C186.082 164.431 156.837 193.676 120.887 193.676ZM120.887 73.4997C110.012 73.4997 99.3825 76.7242 90.3409 82.7656C81.2994 88.8069 74.2524 97.3937 70.0911 107.44C65.9297 117.487 64.8409 128.541 66.9623 139.207C69.0838 149.872 74.3202 159.668 82.0094 167.358C89.6986 175.047 99.4952 180.283 110.16 182.405C120.826 184.526 131.88 183.437 141.927 179.276C151.973 175.114 160.56 168.067 166.601 159.026C172.643 149.984 175.867 139.354 175.867 128.48C175.851 113.904 170.053 99.9286 159.746 89.6213C149.438 79.314 135.463 73.5161 120.887 73.4997Z" fill="#426DA9"/>
<path d="M238.931 106.142C235.242 106.142 231.636 105.048 228.568 102.999C225.501 100.949 223.11 98.0358 221.698 94.6275C220.286 91.2192 219.917 87.4688 220.637 83.8506C221.356 80.2323 223.133 76.9087 225.742 74.3001C228.35 71.6915 231.674 69.915 235.292 69.1953C238.91 68.4756 242.661 68.845 246.069 70.2568C249.477 71.6685 252.39 74.0593 254.44 77.1267C256.49 80.1941 257.583 83.8004 257.583 87.4895C257.583 92.4365 255.618 97.1808 252.12 100.679C248.622 104.177 243.878 106.142 238.931 106.142ZM238.931 77.7191C236.999 77.7191 235.11 78.2921 233.503 79.3657C231.896 80.4393 230.644 81.9652 229.904 83.7505C229.165 85.5358 228.971 87.5003 229.348 89.3956C229.725 91.2909 230.656 93.0318 232.022 94.3982C233.389 95.7646 235.13 96.6951 237.025 97.0721C238.92 97.4491 240.885 97.2556 242.67 96.5161C244.455 95.7767 245.981 94.5244 247.055 92.9176C248.128 91.3109 248.701 89.4219 248.701 87.4895C248.701 84.8982 247.672 82.4131 245.84 80.5808C244.007 78.7485 241.522 77.7191 238.931 77.7191Z" fill="#426DA9"/>
<path d="M75.9427 254.03C71.9022 254.03 67.9525 252.832 64.5929 250.587C61.2334 248.342 58.615 245.152 57.0687 241.419C55.5225 237.686 55.118 233.578 55.9062 229.615C56.6945 225.653 58.6401 222.012 61.4972 219.155C64.3542 216.298 67.9943 214.353 71.9572 213.564C75.92 212.776 80.0276 213.181 83.7605 214.727C87.4934 216.273 90.684 218.892 92.9288 222.251C95.1736 225.611 96.3717 229.56 96.3717 233.601C96.3658 239.017 94.2116 244.21 90.3817 248.04C86.5518 251.87 81.359 254.024 75.9427 254.03ZM75.9427 222.054C73.6589 222.054 71.4265 222.731 69.5276 224C67.6287 225.269 66.1488 227.072 65.2748 229.182C64.4009 231.292 64.1722 233.614 64.6177 235.854C65.0633 238.093 66.163 240.151 67.7778 241.766C69.3927 243.381 71.4501 244.48 73.69 244.926C75.9299 245.371 78.2516 245.143 80.3615 244.269C82.4714 243.395 84.2747 241.915 85.5435 240.016C86.8123 238.117 87.4895 235.885 87.4895 233.601C87.4895 230.538 86.273 227.601 84.1075 225.436C81.9421 223.271 79.0051 222.054 75.9427 222.054Z" fill="#B4C2D3"/>
<path d="M193.187 63.9517C188.004 63.9517 182.938 62.415 178.63 59.5358C174.321 56.6566 170.962 52.5644 168.979 47.7765C166.996 42.9887 166.477 37.7202 167.488 32.6375C168.499 27.5547 170.994 22.8859 174.659 19.2214C178.323 15.5569 182.992 13.0614 188.075 12.0504C193.158 11.0393 198.426 11.5582 203.214 13.5414C208.002 15.5246 212.094 18.8831 214.973 23.192C217.852 27.501 219.389 32.5669 219.389 37.7493C219.381 44.6961 216.618 51.356 211.706 56.2681C206.794 61.1802 200.134 63.9435 193.187 63.9517ZM193.187 20.4291C189.761 20.4291 186.412 21.4449 183.564 23.348C180.716 25.2512 178.496 27.9563 177.185 31.1211C175.874 34.286 175.531 37.7685 176.199 41.1283C176.868 44.4881 178.517 47.5743 180.94 49.9966C183.362 52.4188 186.448 54.0684 189.808 54.7367C193.168 55.405 196.65 55.062 199.815 53.7511C202.98 52.4402 205.685 50.2202 207.588 47.3719C209.491 44.5236 210.507 41.1749 210.507 37.7493C210.507 33.1557 208.682 28.7502 205.434 25.502C202.186 22.2539 197.78 20.4291 193.187 20.4291Z" fill="#B4C2D3"/>
</svg>
