<?xml version="1.0" encoding="utf-8"?>
<!-- Generator: Adobe Illustrator 23.1.0, SVG Export Plug-In . SVG Version: 6.00 Build 0)  -->
<svg version="1.1" id="Слой_1" xmlns="http://www.w3.org/2000/svg" xmlns:xlink="http://www.w3.org/1999/xlink" x="0px" y="0px"
	 viewBox="0 0 185 40" style="enable-background:new 0 0 185 40;" xml:space="preserve">
<style type="text/css">
	.st0{fill:url(#SVGID_1_);}
	.st1{fill:url(#SVGID_2_);}
	.st2{fill:url(#SVGID_3_);}
	.st3{fill:#9A9A9D;}
	.st4{fill:#26272A;}
	.st5{fill:#50D691;}
</style>
<g>
	
		<linearGradient id="SVGID_1_" gradientUnits="userSpaceOnUse" x1="3" y1="-164.5354" x2="3" y2="-140.5354" gradientTransform="matrix(1 0 0 -1 0 -128.5354)">
		<stop  offset="0.25" style="stop-color:#4CD3A7"/>
		<stop  offset="1" style="stop-color:#50D691"/>
	</linearGradient>
	<polygon class="st0" points="6,12 6,32 0,36 0,18 	"/>
	
		<linearGradient id="SVGID_2_" gradientUnits="userSpaceOnUse" x1="0" y1="-161.5354" x2="24" y2="-161.5354" gradientTransform="matrix(1 0 0 -1 0 -128.5354)">
		<stop  offset="0.25" style="stop-color:#4CD3A7"/>
		<stop  offset="0.75" style="stop-color:#48D0BB"/>
	</linearGradient>
	<polygon class="st1" points="18,30 24,36 0,36 6,30 	"/>
	
		<linearGradient id="SVGID_3_" gradientUnits="userSpaceOnUse" x1="15" y1="-164.5354" x2="15" y2="-132.5354" gradientTransform="matrix(1 0 0 -1 0 -128.5354)">
		<stop  offset="0.1875" style="stop-color:#48D0BB"/>
		<stop  offset="1" style="stop-color:#3FC9E6"/>
	</linearGradient>
	<polygon class="st2" points="6,4 24,22 24,36 18,32 18,24 6,12 	"/>
</g>
<g id="INOBITEC">
	<rect id="I_3_" x="36" y="16" class="st3" width="0.8" height="6"/>
	<polygon id="И_1_" class="st3" points="40,16 40,22 40.8,22 40.8,17.5 43.8,22 44.5,22 44.5,16 43.8,16 43.8,20.5 40.8,16 	"/>
	<path id="O_3_" class="st3" d="M51,16.8c1.2,0,2.3,1,2.3,2.3s-1,2.3-2.3,2.3s-2.3-1-2.3-2.3S49.8,16.8,51,16.8 M51,16
		c-1.7,0-3,1.3-3,3s1.3,3,3,3s3-1.3,3-3S52.7,16,51,16L51,16z"/>
	<path id="В" class="st3" d="M60.9,18.7c0.4-0.3,0.6-0.7,0.6-1.2c0-0.8-0.7-1.5-1.5-1.5h-3v2.3V19v3h2.6c1,0,1.9-0.8,1.9-1.9
		C61.5,19.6,61.3,19.1,60.9,18.7z M57.8,16.8H60c0.4,0,0.8,0.3,0.8,0.8s-0.3,0.8-0.8,0.8h-0.4h-1.9v-1.6
		C57.7,16.8,57.8,16.8,57.8,16.8z M59.6,21.3h-1.9V19h1.9c0.6,0,1.1,0.5,1.1,1.1S60.2,21.3,59.6,21.3z"/>
	<rect id="I_2_" x="65" y="16" class="st3" width="0.8" height="6"/>
	<polygon id="T_2_" class="st3" points="69,16 69,16.8 71,16.8 71,22 71.8,22 71.8,16.8 73.8,16.8 73.8,16 	"/>
	<polygon id="E_1_" class="st3" points="80.8,16.8 80.8,16 77,16 77,22 80.8,22 80.8,21.3 77.8,21.3 77.8,19 80.8,19 80.8,18.3 
		77.8,18.3 77.8,16.8 	"/>
	<path id="C_2_" class="st3" d="M87,21.3c-1.2,0-2.3-1-2.3-2.3s1-2.3,2.3-2.3c0.6,0,1.2,0.3,1.6,0.7l0.5-0.5
		C88.6,16.3,87.8,16,87,16c-1.7,0-3,1.3-3,3s1.3,3,3,3c0.8,0,1.6-0.3,2.1-0.9l-0.5-0.5C88.2,21,87.6,21.3,87,21.3z"/>
</g>
<g>
	<path class="st4" d="M36,28h2.7c2.5,0,4.1,1.7,4.1,4c0,2.3-1.6,4-4.1,4H36V28z M38.7,35.1c1.9,0,3.1-1.4,3.1-3.1
		c0-1.7-1.1-3.1-3.1-3.1H37v6.2H38.7z"/>
	<path class="st4" d="M46.8,28h1v8h-1V28z"/>
	<path class="st4" d="M51.8,32c0-2.5,1.8-4.1,4.1-4.1c1.5,0,2.4,0.7,3.1,1.6l-0.8,0.5c-0.5-0.7-1.3-1.2-2.2-1.2c-1.7,0-3,1.3-3,3.3
		c0,1.9,1.3,3.3,3,3.3c0.9,0,1.8-0.5,2.2-1.2l0.9,0.5c-0.7,0.9-1.6,1.6-3.1,1.6C53.6,36.1,51.8,34.5,51.8,32z"/>
	<path class="st4" d="M66.3,27.9c2.4,0,4,1.8,4,4.1c0,2.4-1.6,4.1-4,4.1c-2.4,0-4-1.8-4-4.1C62.3,29.6,63.9,27.9,66.3,27.9z
		 M66.3,28.8c-1.8,0-2.9,1.4-2.9,3.3c0,1.9,1.1,3.3,2.9,3.3c1.8,0,2.9-1.4,2.9-3.3C69.2,30.1,68.1,28.8,66.3,28.8z"/>
	<path class="st4" d="M81.1,29.3L78.4,36H78l-2.7-6.7V36h-1v-8h1.4l2.5,6.1l2.5-6.1h1.4v8h-1V29.3z"/>
	<path class="st4" d="M91.1,28h1.1l2.7,6.9l2.7-6.9h1.1l-3.2,8h-1.2L91.1,28z"/>
	<path class="st4" d="M102.2,28h1v8h-1V28z"/>
	<path class="st4" d="M107.5,28h5.2v0.9h-4.2v2.6h4.2v0.9h-4.2v2.8h4.2V36h-5.2V28z"/>
	<path class="st4" d="M121.1,29.5l-1.8,6.5h-1.1l-2.3-8h1.1l1.8,6.7l1.8-6.7h0.8l1.8,6.7l1.8-6.7h1.1l-2.3,8h-1.1L121.1,29.5z"/>
	<path class="st4" d="M129.8,28h5.2v0.9h-4.2v2.6h4.2v0.9h-4.2v2.8h4.2V36h-5.2V28z"/>
	<path class="st4" d="M141.6,32.8H140V36h-1v-8h3.2c1.5,0,2.5,0.9,2.5,2.4c0,1.4-1,2.2-2.1,2.3l2.2,3.3h-1.2L141.6,32.8z
		 M142.1,28.9H140v3.1h2.1c0.9,0,1.6-0.6,1.6-1.5S143.1,28.9,142.1,28.9z"/>
	<path class="st5" d="M154.3,28h1v7.1h3.7V36h-4.7V28z"/>
	<path class="st5" d="M162.8,28h1v8h-1V28z"/>
	<path class="st5" d="M170.1,28.9h-2.5V28h6.1v0.9h-2.5V36h-1V28.9z"/>
	<path class="st5" d="M177.4,28h5.2v0.9h-4.2v2.6h4.2v0.9h-4.2v2.8h4.2V36h-5.2V28z"/>
</g>
</svg>
