<svg id="Слой_1" data-name="Слой 1" xmlns="http://www.w3.org/2000/svg" xmlns:xlink="http://www.w3.org/1999/xlink" viewBox="0 0 527.94 72"><defs><style>.cls-1{fill:url(#Безымянный_градиент_7);}.cls-2{fill:url(#Безымянный_градиент_6);}.cls-3{fill:url(#Безымянный_градиент_5);}.cls-4{fill:#26272a;}.cls-5{fill:#50d691;}.cls-6{fill:#9a9a9d;}</style><linearGradient id="Безымянный_градиент_7" x1="6.44" y1="-179.89" x2="6.44" y2="-127.91" gradientTransform="matrix(1, 0, 0, -1, 0, -110.32)" gradientUnits="userSpaceOnUse"><stop offset="0.25" stop-color="#4cd3a7"/><stop offset="1" stop-color="#50d691"/></linearGradient><linearGradient id="Безымянный_градиент_6" y1="-173.39" x2="51.51" y2="-173.39" gradientTransform="matrix(1, 0, 0, -1, 0, -110.32)" gradientUnits="userSpaceOnUse"><stop offset="0.25" stop-color="#4cd3a7"/><stop offset="0.75" stop-color="#48d0bb"/></linearGradient><linearGradient id="Безымянный_градиент_5" x1="32.19" y1="-179.89" x2="32.19" y2="-110.59" gradientTransform="matrix(1, 0, 0, -1, 0, -110.32)" gradientUnits="userSpaceOnUse"><stop offset="0.19" stop-color="#48d0bb"/><stop offset="1" stop-color="#3fc9e6"/></linearGradient></defs><title>inobitec_viewer_lite_ru</title><path class="cls-1" d="M12.88,17.59V60.91L0,69.57v-39Z"/><path class="cls-2" d="M38.63,56.57l12.88,13H0l12.88-13Z"/><path class="cls-3" d="M12.88.27l38.63,39V69.57L38.63,60.91V43.58l-25.75-26Z"/><path class="cls-4" d="M83.48,52.24H77.26V69.57h6.22a8.67,8.67,0,0,0,0-17.33Zm0,15.16H79.41v-13h4.07a6.35,6.35,0,0,1,6.44,6.5A6.48,6.48,0,0,1,83.48,67.4Z"/><path class="cls-4" d="M100.87,52.24H98.72V69.57h2.15Z"/><path class="cls-4" d="M120.18,67.4a6.5,6.5,0,0,1,0-13,5.82,5.82,0,0,1,4.51,2l1.5-1.52a7.77,7.77,0,0,0-6-2.6,8.67,8.67,0,0,0,0,17.33,7.77,7.77,0,0,0,6-2.6l-1.5-1.52A5.82,5.82,0,0,1,120.18,67.4Z"/><path class="cls-4" d="M141.64,54.41a6.5,6.5,0,1,1-6.43,6.5A6.35,6.35,0,0,1,141.64,54.41Zm0-2.17a8.67,8.67,0,1,0,8.59,8.67A8.65,8.65,0,0,0,141.64,52.24Z"/><path class="cls-4" d="M172.76,52.24l-5.36,13-5.37-13h-3.22V69.57H161V55.27l5.79,14.3H168l5.8-14.3v14.3H176V52.24Z"/><path class="cls-4" d="M191,60.91h-6.43v2.16H191Z"/><path class="cls-4" d="M201.74,69.57V54.41h10.73V69.57h2.14V52.24h-15V69.57Z"/><path class="cls-4" d="M230.71,52.24H223.2V69.57h2.14v-6.5h5.37a5.42,5.42,0,0,0,0-10.83Zm0,8.67h-5.37v-6.5h5.37a3.25,3.25,0,0,1,0,6.5Z"/><path class="cls-4" d="M251.1,54.41a6.5,6.5,0,1,1-6.44,6.5A6.35,6.35,0,0,1,251.1,54.41Zm0-2.17a8.67,8.67,0,1,0,8.58,8.67A8.65,8.65,0,0,0,251.1,52.24Z"/><path class="cls-4" d="M275.13,67.4a6.5,6.5,0,0,1,0-13,5.82,5.82,0,0,1,4.51,2l1.5-1.52a8.59,8.59,0,1,0-6,14.73,7.77,7.77,0,0,0,6-2.6l-1.5-1.52A6.15,6.15,0,0,1,275.13,67.4Z"/><path class="cls-4" d="M303.67,52.24l-5.36,13-5.36-13h-3.22V69.57h2.14V55.27l5.8,14.3H299l5.8-14.3v14.3h2.14V52.24Z"/><path class="cls-4" d="M324.06,54.41a6.5,6.5,0,1,1-6.44,6.5A6.35,6.35,0,0,1,324.06,54.41Zm0-2.17a8.67,8.67,0,1,0,8.59,8.67A8.65,8.65,0,0,0,324.06,52.24Z"/><path class="cls-4" d="M339.09,52.24v2.17h6.43V69.57h2.15V54.41h6.44V52.24Z"/><path class="cls-4" d="M368.06,52.24h-7.51V69.57h2.14v-6.5h5.37a5.42,5.42,0,0,0,0-10.83Zm0,8.67h-5.37v-6.5h5.37a3.25,3.25,0,0,1,0,6.5Z"/><path class="cls-4" d="M401.32,67.4V52.24h-2.14V67.4h-6.44V52.24h-2.15V67.4h-6.44V52.24H382V69.57h19.31v2.16h2.15V67.4Z"/><path class="cls-4" d="M422.78,52.24l-8.58,13v-13h-2.15V69.57h2.15l8.58-13v13h2.15V52.24Z"/><path class="cls-4" d="M448.54,52.24h-2.79l-7.94,9.53V52.24h-2.15V69.57h2.15V65.24l2.14-2.6,5.8,6.93h2.79l-7.3-8.66Z"/><path class="cls-5" d="M467.85,67.4V52.24h-2.14V69.57h10.73V67.4Z"/><path class="cls-5" d="M487.17,52.24H485V69.57h2.15Z"/><path class="cls-5" d="M493.61,52.24v2.17h6.44V69.57h2.14V54.41h6.44V52.24Z"/><path class="cls-5" d="M527.94,54.41V52.24H517.21V69.57h10.73V67.4h-8.58V60.91h8.58V58.74h-8.58V54.41Z"/><path class="cls-6" d="M86.38,26.25,78.87,36.51V26.25H77.26v13h1.61L86.38,29V39.25H88v-13Z"/><path class="cls-6" d="M103.55,26.25v5.42H96V26.25H94.43v13H96v-6h7.51v6h1.61v-13Z"/><path class="cls-6" d="M118,27.88a4.87,4.87,0,1,1-4.83,4.87A4.85,4.85,0,0,1,118,27.88Zm0-1.63a6.5,6.5,0,1,0,6.43,6.5A6.47,6.47,0,0,0,118,26.25Z"/><path class="cls-6" d="M136.28,31.67h-3.76V27.88h7V26.25h-8.59v13h5.37a3.79,3.79,0,0,0,0-7.58Zm0,5.95h-3.76V33.29h3.76a2.17,2.17,0,0,1,0,4.33Z"/><path class="cls-6" d="M155.06,26.25l-7.52,10.26V26.25h-1.6v13h1.6L155.06,29V39.25h1.61v-13Z"/><path class="cls-6" d="M163.1,26.25v1.63h4.3V39.25H169V27.88h4.29V26.25Z"/><path class="cls-6" d="M188.86,27.88V26.25h-8.59v13h8.59V37.62h-7V33.29h7V31.67h-7V27.88Z"/><path class="cls-6" d="M204.42,26.25h-2.1l-5.41,6.51V26.25H195.3v13h1.61v-4L198,34l4.35,5.24h2.1l-5.4-6.5Z"/></svg>