<svg width="453" height="77" viewBox="0 0 453 77" fill="none" xmlns="http://www.w3.org/2000/svg">
<path d="M13.3676 17.8662V62.5343L0 71.4679V31.2666L13.3676 17.8662Z" fill="url(#paint0_linear)"/>
<path d="M40.1027 58.0684L53.4702 71.4688H0L13.3676 58.0684H40.1027Z" fill="url(#paint1_linear)"/>
<path d="M13.3677 0L53.4704 40.2012V71.4689L40.1028 62.5353V44.6681L13.3677 17.8672V0Z" fill="url(#paint2_linear)"/>
<path d="M86.5552 53.6025H80.2056V71.4698H86.5552C91.4766 71.4698 95.4669 67.4697 95.4669 62.5362C95.4669 57.6026 91.4766 53.6025 86.5552 53.6025ZM86.5552 69.2364H82.4335V55.8359H86.5552C90.2401 55.8359 93.2389 58.8421 93.2389 62.5362C93.2389 66.2302 90.2401 69.2364 86.5552 69.2364Z" fill="#26272A"/>
<path d="M104.713 53.6025H102.485V71.4698H104.713V53.6025Z" fill="#26272A"/>
<path d="M124.764 69.2364C121.079 69.2364 118.08 66.2302 118.08 62.5362C118.08 58.8421 121.079 55.8359 124.764 55.8359C126.606 55.8359 128.277 56.5864 129.487 57.8013L131.065 56.2201C129.454 54.6031 127.226 53.6025 124.764 53.6025C119.843 53.6025 115.852 57.6026 115.852 62.5362C115.852 67.4697 119.843 71.4698 124.764 71.4698C127.226 71.4698 129.454 70.4692 131.065 68.8522L129.487 67.271C128.277 68.4859 126.606 69.2364 124.764 69.2364Z" fill="#26272A"/>
<path d="M147.043 55.8359C150.728 55.8359 153.727 58.8421 153.727 62.5362C153.727 66.2302 150.728 69.2364 147.043 69.2364C143.358 69.2364 140.359 66.2302 140.359 62.5362C140.359 58.8421 143.358 55.8359 147.043 55.8359ZM147.043 53.6025C142.122 53.6025 138.131 57.6026 138.131 62.5362C138.131 67.4697 142.122 71.4698 147.043 71.4698C151.965 71.4698 155.955 67.4697 155.955 62.5362C155.955 57.6026 151.965 53.6025 147.043 53.6025Z" fill="#26272A"/>
<path d="M179.348 53.6025L173.778 67.0834L168.208 53.6025H164.866V71.4698H167.094V56.7427L173.179 71.4698H174.377L180.462 56.7427V71.4698H182.69V53.6025H179.348Z" fill="#26272A"/>
<path d="M198.286 62.5361H191.602V64.7695H198.286V62.5361Z" fill="#26272A"/>
<path d="M216.109 69.2364C212.424 69.2364 209.425 66.2302 209.425 62.5362C209.425 58.8421 212.424 55.8359 216.109 55.8359C217.951 55.8359 219.622 56.5864 220.832 57.8013L222.409 56.2201C220.799 54.6031 218.571 53.6025 216.109 53.6025C211.187 53.6025 207.197 57.6026 207.197 62.5362C207.197 67.4697 211.187 71.4698 216.109 71.4698C218.571 71.4698 220.799 70.4692 222.409 68.8522L220.832 67.271C219.622 68.4859 217.951 69.2364 216.109 69.2364Z" fill="#26272A"/>
<path d="M242.844 55.8359V53.6025H231.704V71.4698H242.844V69.2364H233.932V62.5362H242.844V60.3027H233.932V55.8359H242.844Z" fill="#26272A"/>
<path d="M259.553 53.6025H251.755V71.4698H253.983V64.7696H259.553C262.63 64.7696 265.123 62.2704 265.123 59.186C265.123 56.1017 262.63 53.6025 259.553 53.6025ZM259.553 62.5362H253.983V55.8359H259.553C261.396 55.8359 262.895 57.339 262.895 59.186C262.895 61.0331 261.396 62.5362 259.553 62.5362Z" fill="#26272A"/>
<path d="M285.504 61.7187C286.649 60.9102 287.402 59.5791 287.402 58.0693C287.402 55.6014 285.408 53.6025 282.947 53.6025H274.035V60.3027V62.5362V71.4698H281.833C284.909 71.4698 287.402 68.9706 287.402 65.8863C287.402 64.2201 286.661 62.7416 285.504 61.7187ZM276.263 55.8359H282.947C284.174 55.8359 285.175 56.8387 285.175 58.0693C285.175 59.3 284.174 60.3027 282.947 60.3027H281.833H276.263V55.8359ZM281.833 69.2364H276.263V62.5362H281.833C283.675 62.5362 285.175 64.0392 285.175 65.8863C285.175 67.7333 283.675 69.2364 281.833 69.2364Z" fill="#26272A"/>
<path d="M307.454 55.8359V53.6025H296.314V71.4698H307.454V69.2364H298.542V62.5362H307.454V60.3027H298.542V55.8359H307.454Z" fill="#26272A"/>
<path d="M324.163 53.6025H316.365V71.4698H318.593V64.7696H324.163C327.24 64.7696 329.733 62.2704 329.733 59.186C329.733 56.1017 327.24 53.6025 324.163 53.6025ZM324.163 62.5362H318.593V55.8359H324.163C326.006 55.8359 327.505 57.339 327.505 59.186C327.505 61.0331 326.006 62.5362 324.163 62.5362Z" fill="#26272A"/>
<path d="M89.6743 26.8008L81.8765 37.3804V26.8008H80.2056V40.2012H81.8765L89.6743 29.6216V40.2012H91.3452V26.8008H89.6743Z" fill="#9A9A9D"/>
<path d="M107.498 26.8008V32.3843H99.7V26.8008H98.0291V40.2012H99.7V34.0593H107.498V40.2012H109.169V26.8008H107.498Z" fill="#9A9A9D"/>
<path d="M122.536 28.4758C125.301 28.4758 127.549 30.7293 127.549 33.501C127.549 36.2726 125.301 38.5261 122.536 38.5261C119.771 38.5261 117.523 36.2726 117.523 33.501C117.523 30.7293 119.771 28.4758 122.536 28.4758ZM122.536 26.8008C118.844 26.8008 115.852 29.8002 115.852 33.501C115.852 37.2017 118.844 40.2012 122.536 40.2012C126.228 40.2012 129.22 37.2017 129.22 33.501C129.22 29.8002 126.228 26.8008 122.536 26.8008Z" fill="#9A9A9D"/>
<path d="M141.473 32.3843H137.575V28.4758H144.815V26.8008H135.904V40.2012H141.473C143.626 40.2012 145.372 38.4502 145.372 36.2927C145.372 34.1353 143.626 32.3843 141.473 32.3843ZM141.473 38.5261H137.575V34.0593H141.473C142.701 34.0593 143.701 35.0621 143.701 36.2927C143.701 37.5233 142.701 38.5261 141.473 38.5261Z" fill="#9A9A9D"/>
<path d="M160.968 26.8008L153.17 37.3804V26.8008H151.499V40.2012H153.17L160.968 29.6216V40.2012H162.639V26.8008H160.968Z" fill="#9A9A9D"/>
<path d="M169.323 26.8008V28.4758H173.778V40.2012H175.449V28.4758H179.905V26.8008H169.323Z" fill="#9A9A9D"/>
<path d="M196.058 28.4758V26.8008H187.146V40.2012H196.058V38.5261H188.817V34.0593H196.058V32.3843H188.817V28.4758H196.058Z" fill="#9A9A9D"/>
<path d="M212.21 26.8008H210.033L204.412 33.5144V26.8008H202.741V40.2012H204.412V36.1208L205.515 34.8031L210.033 40.2012H212.21L206.605 33.501L212.21 26.8008Z" fill="#9A9A9D"/>
<path d="M368.722 53.6016H360.924V71.4688H363.152V64.7686H368.722C371.799 64.7686 374.292 62.2694 374.292 59.1851C374.292 56.1007 371.799 53.6016 368.722 53.6016ZM368.722 62.5352H363.152V55.835H368.722C370.565 55.835 372.064 57.338 372.064 59.1851C372.064 61.0321 370.565 62.5352 368.722 62.5352Z" fill="#26272A"/>
<path d="M394.132 71.4688H396.571L388.635 53.6016H387.66H386.684L378.748 71.4688H381.187L383.17 67.002H392.149L394.132 71.4688ZM384.162 64.7686L387.66 56.8936L391.157 64.7686H384.162Z" fill="#26272A"/>
<path d="M412.166 69.2354C408.481 69.2354 405.483 66.2292 405.483 62.5352C405.483 58.8411 408.481 55.835 412.166 55.835C414.009 55.835 415.68 56.5854 416.89 57.8004L418.467 56.2191C416.856 54.6021 414.628 53.6016 412.166 53.6016C407.245 53.6016 403.255 57.6016 403.255 62.5352C403.255 67.4688 407.245 71.4688 412.166 71.4688C414.628 71.4688 416.856 70.4682 418.467 68.8512L416.89 67.27C415.68 68.485 414.009 69.2354 412.166 69.2354Z" fill="#26272A"/>
<path d="M425.534 68.7192L426.839 67.0866C428.011 68.3574 429.927 69.55 432.432 69.55C435.6 69.55 436.613 67.8906 436.613 66.5684C436.613 62.1083 426.095 64.5717 426.095 58.4009C426.095 55.5488 428.704 53.6035 432.193 53.6035C434.909 53.6035 437.012 54.4857 438.505 56.0156L437.173 57.5968C435.84 56.1697 433.978 55.522 432.033 55.522C429.903 55.522 428.386 56.6365 428.386 58.2691C428.386 62.1597 438.904 59.9285 438.904 66.3853C438.904 68.9001 437.146 71.4685 432.354 71.4685C429.261 71.4685 426.998 70.3272 425.534 68.7192Z" fill="#26272A"/>
<path d="M351.324 76.7999C348.918 73.5034 347.557 69.2733 347.557 64.9584C347.557 60.6457 348.918 56.4424 351.324 53.1191L352.525 54.0304C350.814 57.4296 349.747 60.4849 349.747 64.9584C349.747 69.4051 350.814 72.485 352.525 75.8619L351.324 76.7999Z" fill="#26272A"/>
<path d="M447.301 75.8619C449.012 72.485 450.079 69.4051 450.079 64.9584C450.079 60.4849 449.012 57.4318 447.301 54.0304L448.502 53.1191C450.908 56.4402 452.269 60.6457 452.269 64.9584C452.269 69.2733 450.908 73.5034 448.502 76.7999L447.301 75.8619Z" fill="#26272A"/>
<defs>
<linearGradient id="paint0_linear" x1="6.68378" y1="71.4679" x2="6.68378" y2="17.8662" gradientUnits="userSpaceOnUse">
<stop offset="0.25" stop-color="#A73794"/>
<stop offset="1" stop-color="#963CBD"/>
</linearGradient>
<linearGradient id="paint1_linear" x1="0" y1="64.7686" x2="53.4702" y2="64.7686" gradientUnits="userSpaceOnUse">
<stop offset="0.25" stop-color="#A73794"/>
<stop offset="0.75" stop-color="#B7336E"/>
</linearGradient>
<linearGradient id="paint2_linear" x1="33.419" y1="71.4689" x2="33.419" y2="0" gradientUnits="userSpaceOnUse">
<stop offset="0.1875" stop-color="#B7336E"/>
<stop offset="1" stop-color="#DA291C"/>
</linearGradient>
</defs>
</svg>
