<svg xmlns="http://www.w3.org/2000/svg" version="1.1" id="Слой_1" x="0" y="0" viewBox="0 0 201.477 34.387" width="453" height="77" xml:space="preserve"><style type="text/css" id="style2">.st3{fill:#26272a}.st4{fill:#9a9a9d}</style><g id="g25" transform="translate(-24.949 -12)"><linearGradient id="SVGID_1_" gradientUnits="userSpaceOnUse" x1="27" y1="-24" x2="27" y2="-48" gradientTransform="translate(24.949 80)"><stop offset=".25" id="stop4" stop-color="#a73794"/><stop offset="1" id="stop6" stop-color="#963cbd"/></linearGradient><path id="polygon9" fill="url(#SVGID_1_)" d="M24 44V26l6-6v20z"/><linearGradient id="SVGID_2_" gradientUnits="userSpaceOnUse" x1="24" y1="-27" x2="48" y2="-27" gradientTransform="translate(24.949 80)"><stop offset=".25" id="stop11" stop-color="#a73794"/><stop offset=".75" id="stop13" stop-color="#b7336e"/></linearGradient><path id="polygon16" fill="url(#SVGID_2_)" d="M24 44l6-6h12l6 6z"/><linearGradient id="SVGID_3_" gradientUnits="userSpaceOnUse" x1="39" y1="-24" x2="39" y2="-56" gradientTransform="translate(24.949 80)"><stop offset=".188" id="stop18" stop-color="#b7336e"/><stop offset="1" id="stop20" stop-color="#da291c"/></linearGradient><path id="polygon23" fill="url(#SVGID_3_)" d="M48 44l-6-4v-8L30 20v-8l18 18z"/></g><g id="DICOM" transform="translate(-24.949 -12)"><path id="D" class="st3" d="M62.85 36H60v8h2.85a4 4 0 000-8zm0 7H61v-6h1.85c1.654 0 3 1.346 3 3s-1.346 3-3 3z"/><path id="I" class="st3" d="M70 36h1v8h-1z"/><path id="C" class="st3" d="M80 43c-1.654 0-3-1.346-3-3s1.346-3 3-3c.827 0 1.577.336 2.12.88l.708-.708a4 4 0 100 5.656l-.708-.708A2.987 2.987 0 0180 43z"/><path id="O" class="st3" d="M90 37c1.654 0 3 1.346 3 3s-1.346 3-3 3-3-1.346-3-3 1.346-3 3-3m0-1a4 4 0 100 8 4 4 0 000-8z"/><path id="M" class="st3" d="M99.5 36H98v8h1v-6.594L101.731 44h.538L105 37.406V44h1v-8h-1.5l-2.5 6.036z"/><path id="_x2D_" class="st3" d="M110 40h3v1h-3z"/></g><g id="SERVER" transform="translate(-24.949 -12)"><path id="S" class="st3" d="M117 42.769l.586-.731a3.41 3.41 0 002.51 1.103c1.422 0 1.877-.743 1.877-1.335 0-1.997-4.721-.894-4.721-3.657 0-1.277 1.171-2.148 2.737-2.148 1.219 0 2.163.395 2.833 1.08l-.598.708c-.598-.639-1.434-.929-2.307-.929-.956 0-1.637.499-1.637 1.23 0 1.742 4.721.743 4.721 3.634 0 1.126-.789 2.276-2.94 2.276-1.388 0-2.404-.511-3.061-1.231z"/><path id="E_3_" class="st3" d="M127 36v8h5v-1h-4v-3h4v-1h-4v-2h4v-1z"/><path id="R" class="st3" d="M142 38.5a2.5 2.5 0 00-2.5-2.5H136v8h1v-3h1.859l1.948 3H142l-1.984-3.055A2.5 2.5 0 00142 38.5zm-5-1.5h2.5c.827 0 1.5.673 1.5 1.5s-.673 1.5-1.5 1.5H137z"/><path id="V" class="st3" d="M146.095 36H145l3.562 8h.876L153 36h-1.095L149 42.526z"/><path id="E_4_" class="st3" d="M156 36v8h5v-1h-4v-3h4v-1h-4v-2h4v-1z"/><path id="R_1_" class="st3" d="M171 38.5a2.5 2.5 0 00-2.5-2.5H165v8h1v-3h1.859l1.948 3H171l-1.984-3.055A2.5 2.5 0 00171 38.5zm-5-1.5h2.5c.827 0 1.5.673 1.5 1.5s-.673 1.5-1.5 1.5H166z"/></g><g id="PACS" transform="translate(-24.949 -12)"><path id="Р_1_" class="st3" d="M189.5 36H186v8h1v-3h2.5a2.5 2.5 0 100-5zm0 4H187v-3h2.5c.827 0 1.5.673 1.5 1.5s-.673 1.5-1.5 1.5z"/><path id="A" class="st3" d="M200.905 44H202l-3.562-8h-.876L194 44h1.095l.89-2h4.03zm-4.475-3l1.57-3.526L199.57 41z"/><path id="C_1_" class="st3" d="M209 43c-1.654 0-3-1.346-3-3s1.346-3 3-3c.827 0 1.577.336 2.12.88l.708-.708a4 4 0 100 5.656l-.708-.708A2.987 2.987 0 01209 43z"/><path id="S_1_" class="st3" d="M215 42.769l.586-.731a3.41 3.41 0 002.51 1.103c1.422 0 1.877-.743 1.877-1.335 0-1.997-4.721-.894-4.721-3.657 0-1.277 1.171-2.148 2.737-2.148 1.219 0 2.163.395 2.833 1.08l-.598.708c-.598-.639-1.434-.929-2.307-.929-.956 0-1.637.499-1.637 1.23 0 1.742 4.721.743 4.721 3.634 0 1.126-.789 2.276-2.94 2.276-1.388 0-2.404-.511-3.061-1.231z"/><path id="_x28_" class="st3" d="M181.691 46.387c-1.08-1.476-1.691-3.37-1.691-5.302 0-1.931.611-3.813 1.691-5.301l.539.408c-.768 1.522-1.247 2.89-1.247 4.893 0 1.991.479 3.37 1.247 4.882z"/><path id="_x29_" class="st3" d="M224.77 45.967c.768-1.512 1.247-2.891 1.247-4.882 0-2.003-.479-3.37-1.247-4.893l.539-.408c1.08 1.487 1.691 3.37 1.691 5.301 0 1.932-.611 3.826-1.691 5.302z"/></g><g id="INOBITEC" transform="translate(-24.949 -12)"><path id="I_1_" class="st4" d="M60 24h.75v6H60z"/><path id="И" class="st4" d="M64.75 30v-4.5l3 4.5h.75v-6h-.75v4.5l-3-4.5H64v6z"/><path id="O_1_" class="st4" d="M75 24.75A2.252 2.252 0 0177.25 27 2.252 2.252 0 0175 29.25 2.252 2.252 0 0172.75 27 2.252 2.252 0 0175 24.75m0-.75a3 3 0 100 6 3 3 0 000-6z"/><path id="В" class="st4" d="M84.861 26.725A1.497 1.497 0 0084 24h-3v6h2.625a1.874 1.874 0 001.875-1.875c0-.56-.25-1.056-.639-1.4zM81.75 24.75H84a.75.75 0 010 1.5h-2.25zm1.875 4.5H81.75V27h1.875c.62 0 1.125.505 1.125 1.125s-.505 1.125-1.125 1.125z"/><path id="I_2_" class="st4" d="M89 24h.75v6H89z"/><path id="T_1_" class="st4" d="M95 24.75V30h.75v-5.25h2V24H93v.75z"/><path id="E_2_" class="st4" d="M101 24v6h3.75v-.75h-3V27h3v-.75h-3v-1.5h3V24z"/><path id="C_2_" class="st4" d="M111 29.25a2.252 2.252 0 01-2.25-2.25 2.252 2.252 0 012.25-2.25c.62 0 1.183.252 1.59.66l.531-.531a3 3 0 100 4.242l-.531-.531a2.24 2.24 0 01-1.59.66z"/></g></svg>