<svg width="252" height="24" viewBox="0 0 252 24" fill="none" xmlns="http://www.w3.org/2000/svg">
<path d="M9.872 13.968H3.728V21H0.44V4.2H3.728V11.04H9.872V4.2H13.16V21H9.872V13.968ZM22.2648 12.6C22.2648 9.8 22.8808 7.648 24.1128 6.144C25.3448 4.624 27.1048 3.864 29.3928 3.864C30.5928 3.864 31.6408 4.072 32.5368 4.488C33.4328 4.904 34.1768 5.496 34.7688 6.264C35.3608 7.032 35.8008 7.952 36.0888 9.024C36.3768 10.096 36.5208 11.288 36.5208 12.6C36.5208 15.4 35.8968 17.56 34.6488 19.08C33.4168 20.584 31.6648 21.336 29.3928 21.336C28.1768 21.336 27.1208 21.128 26.2248 20.712C25.3288 20.296 24.5848 19.704 23.9928 18.936C23.4168 18.168 22.9848 17.248 22.6968 16.176C22.4088 15.104 22.2648 13.912 22.2648 12.6ZM25.7208 12.6C25.7208 13.448 25.7928 14.232 25.9368 14.952C26.0808 15.656 26.2968 16.264 26.5848 16.776C26.8888 17.288 27.2728 17.688 27.7368 17.976C28.2008 18.264 28.7528 18.408 29.3928 18.408C30.5608 18.408 31.4648 17.952 32.1048 17.04C32.7448 16.128 33.0648 14.648 33.0648 12.6C33.0648 11.784 32.9928 11.024 32.8488 10.32C32.7208 9.616 32.5128 9 32.2248 8.472C31.9368 7.944 31.5608 7.536 31.0968 7.248C30.6328 6.944 30.0648 6.792 29.3928 6.792C28.2248 6.792 27.3208 7.264 26.6808 8.208C26.0408 9.136 25.7208 10.6 25.7208 12.6ZM56.8949 8.112C56.8949 8.528 56.8389 8.944 56.7269 9.36C56.6309 9.776 56.4629 10.16 56.2229 10.512C55.9829 10.848 55.6709 11.152 55.2869 11.424C54.9029 11.68 54.4389 11.872 53.8949 12V12.144C54.3749 12.224 54.8309 12.36 55.2629 12.552C55.6949 12.744 56.0709 13.008 56.3909 13.344C56.7109 13.68 56.9589 14.088 57.1349 14.568C57.3269 15.048 57.4229 15.616 57.4229 16.272C57.4229 17.136 57.2389 17.888 56.8709 18.528C56.5029 19.152 56.0069 19.664 55.3829 20.064C54.7749 20.464 54.0789 20.76 53.2949 20.952C52.5109 21.144 51.7029 21.24 50.8709 21.24C50.5989 21.24 50.2469 21.24 49.8149 21.24C49.3989 21.24 48.9429 21.224 48.4469 21.192C47.9669 21.176 47.4709 21.144 46.9589 21.096C46.4629 21.048 46.0069 20.976 45.5909 20.88V4.32C45.8949 4.272 46.2389 4.224 46.6229 4.176C47.0229 4.128 47.4469 4.088 47.8949 4.056C48.3429 4.024 48.7989 4 49.2629 3.984C49.7429 3.968 50.2149 3.96 50.6789 3.96C51.4629 3.96 52.2229 4.024 52.9589 4.152C53.7109 4.264 54.3749 4.472 54.9509 4.776C55.5429 5.08 56.0149 5.504 56.3669 6.048C56.7189 6.592 56.8949 7.28 56.8949 8.112ZM50.8949 18.528C51.2949 18.528 51.6789 18.48 52.0469 18.384C52.4309 18.288 52.7669 18.144 53.0549 17.952C53.3429 17.744 53.5749 17.488 53.7509 17.184C53.9269 16.88 54.0149 16.52 54.0149 16.104C54.0149 15.576 53.9109 15.16 53.7029 14.856C53.4949 14.552 53.2229 14.32 52.8869 14.16C52.5509 13.984 52.1749 13.872 51.7589 13.824C51.3429 13.776 50.9269 13.752 50.5109 13.752H48.7589V18.384C48.8389 18.416 48.9669 18.44 49.1429 18.456C49.3189 18.472 49.5029 18.488 49.6949 18.504C49.9029 18.504 50.1109 18.512 50.3189 18.528C50.5429 18.528 50.7349 18.528 50.8949 18.528ZM49.8149 11.256C50.0389 11.256 50.2949 11.248 50.5829 11.232C50.8869 11.216 51.1349 11.192 51.3269 11.16C51.9349 10.968 52.4549 10.68 52.8869 10.296C53.3349 9.912 53.5589 9.408 53.5589 8.784C53.5589 8.368 53.4789 8.024 53.3189 7.752C53.1589 7.48 52.9429 7.264 52.6709 7.104C52.4149 6.944 52.1189 6.832 51.7829 6.768C51.4469 6.704 51.0949 6.672 50.7269 6.672C50.3109 6.672 49.9269 6.68 49.5749 6.696C49.2229 6.712 48.9509 6.736 48.7589 6.768V11.256H49.8149ZM79.4506 4.2H82.7386V21H79.4506V4.2ZM66.4906 4.2H69.7786V10.224C69.9546 10.192 70.2346 10.152 70.6186 10.104C71.0026 10.056 71.3786 10.032 71.7466 10.032C72.5466 10.032 73.3066 10.112 74.0266 10.272C74.7626 10.432 75.4026 10.72 75.9466 11.136C76.4906 11.536 76.9226 12.088 77.2426 12.792C77.5626 13.48 77.7226 14.352 77.7226 15.408C77.7226 17.36 77.1546 18.824 76.0186 19.8C74.8826 20.76 73.1946 21.24 70.9546 21.24C70.7306 21.24 70.4426 21.232 70.0906 21.216C69.7386 21.216 69.3546 21.2 68.9386 21.168C68.5386 21.136 68.1226 21.096 67.6906 21.048C67.2586 21 66.8586 20.928 66.4906 20.832V4.2ZM71.1946 18.312C72.1066 18.312 72.8426 18.104 73.4026 17.688C73.9786 17.256 74.2666 16.544 74.2666 15.552C74.2666 15.024 74.1866 14.592 74.0266 14.256C73.8666 13.92 73.6506 13.656 73.3786 13.464C73.1066 13.272 72.7866 13.144 72.4186 13.08C72.0506 13 71.6506 12.96 71.2186 12.96C70.9946 12.96 70.7306 12.984 70.4266 13.032C70.1226 13.064 69.9066 13.104 69.7786 13.152V18.168C69.9546 18.216 70.1626 18.256 70.4026 18.288C70.6586 18.304 70.9226 18.312 71.1946 18.312ZM102.151 11.688L102.343 9.504H102.223L101.095 11.76L94.8311 21H92.3591V4.2H95.6471V13.344L95.4071 15.6H95.5511L96.7271 13.272L102.991 4.2H105.439V21H102.151V11.688ZM97.4711 0.0239997C97.5351 0.535999 97.7191 0.903998 98.0231 1.128C98.3431 1.352 98.7511 1.464 99.2471 1.464C100.319 1.464 100.911 0.992 101.023 0.0479994L103.687 0.455998C103.511 1.464 103.047 2.2 102.295 2.664C101.559 3.128 100.535 3.36 99.2231 3.36C98.5671 3.36 97.9671 3.312 97.4231 3.216C96.8791 3.12 96.3991 2.968 95.9831 2.76C95.5831 2.536 95.2471 2.24 94.9751 1.872C94.7191 1.504 94.5591 1.048 94.4951 0.503999L97.4711 0.0239997ZM140.886 12.288L141.246 8.952H141.102L140.07 11.64L136.494 17.904H135.438L131.67 11.616L130.614 8.952H130.494L130.974 12.264V21H127.854V4.2H130.854L135.342 11.88L136.134 13.8H136.23L136.95 11.832L141.198 4.2H144.174V21H140.886V12.288ZM153.241 12.6C153.241 9.8 153.857 7.648 155.089 6.144C156.321 4.624 158.081 3.864 160.369 3.864C161.569 3.864 162.617 4.072 163.513 4.488C164.409 4.904 165.153 5.496 165.745 6.264C166.337 7.032 166.777 7.952 167.065 9.024C167.353 10.096 167.497 11.288 167.497 12.6C167.497 15.4 166.873 17.56 165.625 19.08C164.393 20.584 162.641 21.336 160.369 21.336C159.153 21.336 158.097 21.128 157.201 20.712C156.305 20.296 155.561 19.704 154.969 18.936C154.393 18.168 153.961 17.248 153.673 16.176C153.385 15.104 153.241 13.912 153.241 12.6ZM156.697 12.6C156.697 13.448 156.769 14.232 156.913 14.952C157.057 15.656 157.273 16.264 157.561 16.776C157.865 17.288 158.249 17.688 158.713 17.976C159.177 18.264 159.729 18.408 160.369 18.408C161.537 18.408 162.441 17.952 163.081 17.04C163.721 16.128 164.041 14.648 164.041 12.6C164.041 11.784 163.969 11.024 163.825 10.32C163.697 9.616 163.489 9 163.201 8.472C162.913 7.944 162.537 7.536 162.073 7.248C161.609 6.944 161.041 6.792 160.369 6.792C159.201 6.792 158.297 7.264 157.657 8.208C157.017 9.136 156.697 10.6 156.697 12.6ZM190.858 24H188.53L188.17 21H177.37L177.01 24H174.682V18.072H176.458C176.57 17.896 176.754 17.504 177.01 16.896C177.266 16.288 177.522 15.432 177.778 14.328C178.034 13.208 178.25 11.816 178.426 10.152C178.602 8.472 178.682 6.488 178.666 4.2H188.722V18.072H190.858V24ZM185.434 18.072V7.128H181.714C181.618 9.976 181.386 12.312 181.018 14.136C180.666 15.944 180.306 17.256 179.938 18.072H185.434ZM204.067 11.616L204.547 13.8H204.691L205.075 11.544L207.595 4.2H210.979L206.515 15.816C206.163 16.728 205.819 17.52 205.483 18.192C205.163 18.864 204.811 19.424 204.427 19.872C204.059 20.304 203.643 20.632 203.179 20.856C202.715 21.064 202.171 21.168 201.547 21.168C201.019 21.168 200.587 21.128 200.251 21.048C199.931 20.984 199.579 20.832 199.195 20.592L200.035 17.928C200.307 18.072 200.555 18.16 200.779 18.192C201.003 18.224 201.243 18.24 201.499 18.24C202.251 18.24 202.779 17.648 203.083 16.464L196.795 4.2H200.659L204.067 11.616ZM226.869 7.128H223.293C223.229 8.648 223.157 10.032 223.077 11.28C222.997 12.528 222.885 13.656 222.741 14.664C222.613 15.656 222.437 16.536 222.213 17.304C221.989 18.072 221.701 18.736 221.349 19.296C221.125 19.664 220.869 19.968 220.581 20.208C220.309 20.448 220.021 20.64 219.717 20.784C219.413 20.928 219.109 21.024 218.805 21.072C218.517 21.136 218.245 21.168 217.989 21.168C217.621 21.168 217.309 21.136 217.053 21.072C216.813 21.024 216.573 20.944 216.333 20.832L216.693 18C216.789 18.032 216.885 18.056 216.981 18.072C217.077 18.088 217.173 18.096 217.269 18.096C217.525 18.096 217.773 18.032 218.013 17.904C218.269 17.776 218.485 17.56 218.661 17.256C218.901 16.904 219.109 16.392 219.285 15.72C219.461 15.032 219.613 14.16 219.741 13.104C219.885 12.048 219.997 10.792 220.077 9.336C220.157 7.864 220.213 6.152 220.245 4.2H230.157V21H226.869V7.128ZM239.758 4.2H243.046V10.224C243.126 10.208 243.254 10.192 243.43 10.176C243.622 10.144 243.822 10.12 244.03 10.104C244.254 10.088 244.478 10.072 244.702 10.056C244.926 10.04 245.134 10.032 245.326 10.032C246.11 10.032 246.87 10.112 247.606 10.272C248.342 10.432 248.99 10.72 249.55 11.136C250.126 11.536 250.582 12.088 250.918 12.792C251.254 13.48 251.422 14.36 251.422 15.432C251.422 17.352 250.822 18.8 249.622 19.776C248.438 20.752 246.734 21.24 244.51 21.24C244.286 21.24 243.982 21.232 243.598 21.216C243.23 21.216 242.822 21.2 242.374 21.168C241.926 21.136 241.47 21.096 241.006 21.048C240.558 21 240.142 20.928 239.758 20.832V4.2ZM244.678 18.312C245.126 18.312 245.55 18.272 245.95 18.192C246.35 18.096 246.702 17.944 247.006 17.736C247.31 17.512 247.542 17.224 247.702 16.872C247.878 16.52 247.966 16.088 247.966 15.576C247.966 15.032 247.87 14.592 247.678 14.256C247.502 13.904 247.262 13.632 246.958 13.44C246.67 13.248 246.326 13.12 245.926 13.056C245.526 12.992 245.11 12.96 244.678 12.96C244.566 12.96 244.43 12.968 244.27 12.984C244.11 13 243.95 13.016 243.79 13.032C243.63 13.048 243.478 13.072 243.334 13.104C243.206 13.12 243.11 13.136 243.046 13.152V18.168C243.222 18.216 243.454 18.256 243.742 18.288C244.046 18.304 244.358 18.312 244.678 18.312Z" fill="url(#paint0_linear)"/>
<defs>
<linearGradient id="paint0_linear" x1="-1" y1="19" x2="252" y2="19" gradientUnits="userSpaceOnUse">
<stop stop-color="#963CBD"/>
<stop offset="1" stop-color="#3FC9E6"/>
</linearGradient>
</defs>
</svg>
