<svg width="235" height="19" viewBox="0 0 235 19" fill="none" xmlns="http://www.w3.org/2000/svg">
<path d="M11.744 5.112C11.744 5.528 11.688 5.944 11.576 6.36C11.48 6.776 11.312 7.16 11.072 7.512C10.832 7.848 10.52 8.152 10.136 8.424C9.752 8.68 9.288 8.872 8.744 9V9.144C9.224 9.224 9.68 9.36 10.112 9.552C10.544 9.744 10.92 10.008 11.24 10.344C11.56 10.68 11.808 11.088 11.984 11.568C12.176 12.048 12.272 12.616 12.272 13.272C12.272 14.136 12.088 14.888 11.72 15.528C11.352 16.152 10.856 16.664 10.232 17.064C9.624 17.464 8.928 17.76 8.144 17.952C7.36 18.144 6.552 18.24 5.72 18.24C5.448 18.24 5.096 18.24 4.664 18.24C4.248 18.24 3.792 18.224 3.296 18.192C2.816 18.176 2.32 18.144 1.808 18.096C1.312 18.048 0.856 17.976 0.44 17.88V1.32C0.744 1.272 1.088 1.224 1.472 1.176C1.872 1.128 2.296 1.088 2.744 1.056C3.192 1.024 3.648 1 4.112 0.983999C4.592 0.967999 5.064 0.959999 5.528 0.959999C6.312 0.959999 7.072 1.024 7.808 1.152C8.56 1.264 9.224 1.472 9.8 1.776C10.392 2.08 10.864 2.504 11.216 3.048C11.568 3.592 11.744 4.28 11.744 5.112ZM5.744 15.528C6.144 15.528 6.528 15.48 6.896 15.384C7.28 15.288 7.616 15.144 7.904 14.952C8.192 14.744 8.424 14.488 8.6 14.184C8.776 13.88 8.864 13.52 8.864 13.104C8.864 12.576 8.76 12.16 8.552 11.856C8.344 11.552 8.072 11.32 7.736 11.16C7.4 10.984 7.024 10.872 6.608 10.824C6.192 10.776 5.776 10.752 5.36 10.752H3.608V15.384C3.688 15.416 3.816 15.44 3.992 15.456C4.168 15.472 4.352 15.488 4.544 15.504C4.752 15.504 4.96 15.512 5.168 15.528C5.392 15.528 5.584 15.528 5.744 15.528ZM4.664 8.256C4.888 8.256 5.144 8.248 5.432 8.232C5.736 8.216 5.984 8.192 6.176 8.16C6.784 7.968 7.304 7.68 7.736 7.296C8.184 6.912 8.408 6.408 8.408 5.784C8.408 5.368 8.328 5.024 8.168 4.752C8.008 4.48 7.792 4.264 7.52 4.104C7.264 3.944 6.968 3.832 6.632 3.768C6.296 3.704 5.944 3.672 5.576 3.672C5.16 3.672 4.776 3.68 4.424 3.696C4.072 3.712 3.8 3.736 3.608 3.768V8.256H4.664ZM20.8117 9.6C20.8117 6.8 21.4277 4.648 22.6597 3.144C23.8917 1.624 25.6517 0.863999 27.9397 0.863999C29.1397 0.863999 30.1877 1.072 31.0837 1.488C31.9797 1.904 32.7237 2.496 33.3157 3.264C33.9077 4.032 34.3477 4.952 34.6357 6.024C34.9237 7.096 35.0677 8.288 35.0677 9.6C35.0677 12.4 34.4437 14.56 33.1957 16.08C31.9637 17.584 30.2117 18.336 27.9397 18.336C26.7237 18.336 25.6677 18.128 24.7717 17.712C23.8757 17.296 23.1317 16.704 22.5397 15.936C21.9637 15.168 21.5317 14.248 21.2437 13.176C20.9557 12.104 20.8117 10.912 20.8117 9.6ZM24.2677 9.6C24.2677 10.448 24.3397 11.232 24.4837 11.952C24.6277 12.656 24.8437 13.264 25.1317 13.776C25.4357 14.288 25.8197 14.688 26.2837 14.976C26.7477 15.264 27.2997 15.408 27.9397 15.408C29.1077 15.408 30.0117 14.952 30.6517 14.04C31.2917 13.128 31.6117 11.648 31.6117 9.6C31.6117 8.784 31.5397 8.024 31.3957 7.32C31.2677 6.616 31.0597 6 30.7717 5.472C30.4837 4.944 30.1077 4.536 29.6437 4.248C29.1797 3.944 28.6117 3.792 27.9397 3.792C26.7717 3.792 25.8677 4.264 25.2277 5.208C24.5877 6.136 24.2677 7.6 24.2677 9.6ZM45.5778 10.56V7.992H46.1538C46.2978 7.992 46.4738 7.992 46.6818 7.992C46.8898 7.992 47.0978 7.992 47.3058 7.992C47.5298 7.976 47.7458 7.96 47.9538 7.944C48.1618 7.912 48.3298 7.88 48.4578 7.848C49.0178 7.72 49.4978 7.496 49.8978 7.176C50.2978 6.84 50.4978 6.392 50.4978 5.832C50.4978 5.064 50.2498 4.544 49.7538 4.272C49.2738 3.984 48.6338 3.84 47.8338 3.84C47.1138 3.84 46.4418 3.936 45.8178 4.128C45.1938 4.32 44.7218 4.504 44.4018 4.68L43.5618 1.896C43.7378 1.8 43.9858 1.696 44.3058 1.584C44.6418 1.472 45.0178 1.368 45.4338 1.272C45.8658 1.16 46.3298 1.072 46.8258 1.008C47.3218 0.944 47.8258 0.912 48.3378 0.912C49.0418 0.912 49.7298 0.975999 50.4018 1.104C51.0738 1.232 51.6738 1.456 52.2018 1.776C52.7298 2.096 53.1538 2.528 53.4738 3.072C53.7938 3.6 53.9538 4.28 53.9538 5.112C53.9538 5.944 53.7298 6.712 53.2818 7.416C52.8498 8.12 52.1458 8.632 51.1698 8.952V9.072C52.2098 9.28 53.0178 9.728 53.5938 10.416C54.1858 11.104 54.4818 12.024 54.4818 13.176C54.4818 14.088 54.2978 14.872 53.9298 15.528C53.5618 16.168 53.0738 16.696 52.4658 17.112C51.8738 17.528 51.1858 17.832 50.4018 18.024C49.6178 18.232 48.8178 18.336 48.0018 18.336C46.9458 18.336 45.9858 18.248 45.1218 18.072C44.2578 17.896 43.5938 17.688 43.1298 17.448L43.9698 14.592C44.3378 14.768 44.8658 14.952 45.5538 15.144C46.2418 15.32 47.0578 15.408 48.0018 15.408C48.3538 15.408 48.7058 15.368 49.0578 15.288C49.4258 15.192 49.7538 15.048 50.0418 14.856C50.3298 14.648 50.5618 14.384 50.7378 14.064C50.9138 13.744 51.0018 13.36 51.0018 12.912C51.0018 12.16 50.7218 11.592 50.1618 11.208C49.6018 10.824 48.6018 10.616 47.1618 10.584C46.9698 10.568 46.8258 10.56 46.7298 10.56C46.6338 10.56 46.4658 10.56 46.2258 10.56H45.5778ZM76.5226 9.288L76.8826 5.952H76.7386L75.7066 8.64L72.1306 14.904H71.0746L67.3066 8.616L66.2506 5.952H66.1306L66.6106 9.264V18H63.4906V1.2H66.4906L70.9786 8.88L71.7706 10.8H71.8666L72.5866 8.832L76.8346 1.2H79.8106V18H76.5226V9.288ZM88.8779 9.6C88.8779 6.8 89.4939 4.648 90.7259 3.144C91.9579 1.624 93.7179 0.863999 96.0059 0.863999C97.2059 0.863999 98.2539 1.072 99.1499 1.488C100.046 1.904 100.79 2.496 101.382 3.264C101.974 4.032 102.414 4.952 102.702 6.024C102.99 7.096 103.134 8.288 103.134 9.6C103.134 12.4 102.51 14.56 101.262 16.08C100.03 17.584 98.2779 18.336 96.0059 18.336C94.7899 18.336 93.7339 18.128 92.8379 17.712C91.9419 17.296 91.1979 16.704 90.6059 15.936C90.0299 15.168 89.5979 14.248 89.3099 13.176C89.0219 12.104 88.8779 10.912 88.8779 9.6ZM92.3339 9.6C92.3339 10.448 92.4059 11.232 92.5499 11.952C92.6939 12.656 92.9099 13.264 93.1979 13.776C93.5019 14.288 93.8859 14.688 94.3499 14.976C94.8139 15.264 95.3659 15.408 96.0059 15.408C97.1739 15.408 98.0779 14.952 98.7179 14.04C99.3579 13.128 99.6779 11.648 99.6779 9.6C99.6779 8.784 99.6059 8.024 99.4619 7.32C99.3339 6.616 99.1259 6 98.8379 5.472C98.5499 4.944 98.1739 4.536 97.7099 4.248C97.2459 3.944 96.6779 3.792 96.0059 3.792C94.8379 3.792 93.9339 4.264 93.2939 5.208C92.6539 6.136 92.3339 7.6 92.3339 9.6ZM118.531 1.2H121.651V8.664L122.491 8.328L125.971 1.2H129.667L125.755 8.568L124.627 9.384L125.995 10.392L130.411 18H126.451L122.587 10.704H121.651V18H118.531V10.416L117.667 10.752L113.803 18H109.963L114.355 10.632L115.651 9.696L114.403 8.808L110.299 1.2H114.115L117.595 8.376H118.531V1.2ZM147.856 10.968H141.712V18H138.424V1.2H141.712V8.04H147.856V1.2H151.144V18H147.856V10.968ZM160.249 9.6C160.249 6.8 160.865 4.648 162.097 3.144C163.329 1.624 165.089 0.863999 167.377 0.863999C168.577 0.863999 169.625 1.072 170.521 1.488C171.417 1.904 172.161 2.496 172.753 3.264C173.345 4.032 173.785 4.952 174.073 6.024C174.361 7.096 174.505 8.288 174.505 9.6C174.505 12.4 173.881 14.56 172.633 16.08C171.401 17.584 169.649 18.336 167.377 18.336C166.161 18.336 165.105 18.128 164.209 17.712C163.313 17.296 162.569 16.704 161.977 15.936C161.401 15.168 160.969 14.248 160.681 13.176C160.393 12.104 160.249 10.912 160.249 9.6ZM163.705 9.6C163.705 10.448 163.777 11.232 163.921 11.952C164.065 12.656 164.281 13.264 164.569 13.776C164.873 14.288 165.257 14.688 165.721 14.976C166.185 15.264 166.737 15.408 167.377 15.408C168.545 15.408 169.449 14.952 170.089 14.04C170.729 13.128 171.049 11.648 171.049 9.6C171.049 8.784 170.977 8.024 170.833 7.32C170.705 6.616 170.497 6 170.209 5.472C169.921 4.944 169.545 4.536 169.081 4.248C168.617 3.944 168.049 3.792 167.377 3.792C166.209 3.792 165.305 4.264 164.665 5.208C164.025 6.136 163.705 7.6 163.705 9.6ZM194.951 17.304C194.439 17.672 193.783 17.936 192.983 18.096C192.199 18.256 191.391 18.336 190.559 18.336C189.551 18.336 188.591 18.184 187.679 17.88C186.783 17.56 185.991 17.056 185.303 16.368C184.615 15.664 184.063 14.76 183.647 13.656C183.247 12.536 183.047 11.184 183.047 9.6C183.047 7.952 183.271 6.576 183.719 5.472C184.183 4.352 184.775 3.456 185.495 2.784C186.231 2.096 187.047 1.608 187.943 1.32C188.839 1.016 189.735 0.863999 190.631 0.863999C191.591 0.863999 192.399 0.927999 193.055 1.056C193.727 1.184 194.279 1.336 194.711 1.512L194.063 4.296C193.695 4.12 193.255 3.992 192.743 3.912C192.247 3.832 191.639 3.792 190.919 3.792C189.591 3.792 188.519 4.264 187.703 5.208C186.903 6.152 186.503 7.616 186.503 9.6C186.503 10.464 186.599 11.256 186.791 11.976C186.983 12.68 187.271 13.288 187.655 13.8C188.055 14.296 188.543 14.688 189.119 14.976C189.711 15.248 190.391 15.384 191.159 15.384C191.879 15.384 192.487 15.312 192.983 15.168C193.479 15.024 193.911 14.84 194.279 14.616L194.951 17.304ZM214.575 4.128H209.679V18H206.391V4.128H201.471V1.2H214.575V4.128ZM223.007 1.2H226.295V7.224C226.375 7.208 226.503 7.192 226.679 7.176C226.871 7.144 227.071 7.12 227.279 7.104C227.503 7.088 227.727 7.072 227.951 7.056C228.175 7.04 228.383 7.032 228.575 7.032C229.359 7.032 230.119 7.112 230.855 7.272C231.591 7.432 232.239 7.72 232.799 8.136C233.375 8.536 233.831 9.088 234.167 9.792C234.503 10.48 234.671 11.36 234.671 12.432C234.671 14.352 234.071 15.8 232.871 16.776C231.687 17.752 229.983 18.24 227.759 18.24C227.535 18.24 227.231 18.232 226.847 18.216C226.479 18.216 226.071 18.2 225.623 18.168C225.175 18.136 224.719 18.096 224.255 18.048C223.807 18 223.391 17.928 223.007 17.832V1.2ZM227.927 15.312C228.375 15.312 228.799 15.272 229.199 15.192C229.599 15.096 229.951 14.944 230.255 14.736C230.559 14.512 230.791 14.224 230.951 13.872C231.127 13.52 231.215 13.088 231.215 12.576C231.215 12.032 231.119 11.592 230.927 11.256C230.751 10.904 230.511 10.632 230.207 10.44C229.919 10.248 229.575 10.12 229.175 10.056C228.775 9.992 228.359 9.96 227.927 9.96C227.815 9.96 227.679 9.968 227.519 9.984C227.359 10 227.199 10.016 227.039 10.032C226.879 10.048 226.727 10.072 226.583 10.104C226.455 10.12 226.359 10.136 226.295 10.152V15.168C226.471 15.216 226.703 15.256 226.991 15.288C227.295 15.304 227.607 15.312 227.927 15.312Z" fill="url(#paint0_linear)"/>
<defs>
<linearGradient id="paint0_linear" x1="-1" y1="18" x2="236" y2="18" gradientUnits="userSpaceOnUse">
<stop stop-color="#963CBD"/>
<stop offset="1" stop-color="#3FC9E6"/>
</linearGradient>
</defs>
</svg>
