<?xml version="1.0" standalone="no"?>
<!DOCTYPE svg PUBLIC "-//W3C//DTD SVG 20010904//EN"
 "http://www.w3.org/TR/2001/REC-SVG-20010904/DTD/svg10.dtd">
<svg version="1.0" xmlns="http://www.w3.org/2000/svg"
 width="190.000000pt" height="190.000000pt" viewBox="0 0 190.000000 190.000000"
 preserveAspectRatio="xMidYMid meet">
<metadata>
Created by potrace 1.11, written by Peter Selinger 2001-2013
</metadata>
<g transform="translate(0.000000,190.000000) scale(0.100000,-0.100000)"
fill="#000000" stroke="none">
<path d="M167 1891 c-2 -3 -3 -73 -3 -156 l1 -150 631 -1 632 -2 157 158 157
157 -786 0 c-433 0 -788 -2 -789 -6z"/>
<path d="M163 640 l0 -630 36 -1 c204 -3 1534 0 1538 5 3 3 6 217 6 476 l0
471 -158 153 -158 153 -632 2 -632 1 0 -630z m1258 303 c1 -5 2 -144 3 -310 1
-297 1 -303 -19 -304 -77 -2 -909 2 -914 5 -5 3 -7 580 -2 609 0 4 210 7 466
7 256 0 466 -3 466 -7z"/>
</g>
</svg>
